<svg version="1.1" xmlns="http://www.w3.org/2000/svg" viewBox="0 0 696.7272868115356 621.8146982841713" width="1393.4545736230712" height="1243.6293965683426">
  <!-- svg-source:excalidraw -->
  
  <defs>
    <style class="style-fonts">
      @font-face {
        font-family: "Virgil";
        src: url("https://excalidraw.com/Virgil.woff2");
      }
      @font-face {
        font-family: "Cascadia";
        src: url("https://excalidraw.com/Cascadia.woff2");
      }
    </style>
    
  </defs>
  <rect x="0" y="0" width="696.7272868115356" height="621.8146982841713" fill="#ffffff"></rect><g stroke-linecap="round" transform="translate(10 71.93857953449265) rotate(0 298.25758158799886 269.9380593748393)"><path d="M0.96 0.22 L594.77 -1.38 L594.74 539.58 L-1.93 541.78" stroke="none" stroke-width="0" fill="#fff"></path><path d="M0.46 0.62 C189.58 -0.19, 380.29 -0.23, 595.85 -0.53 M-0.13 0.29 C174.72 0.07, 350.29 0.52, 596.55 0.39 M595.9 -0.07 C596.2 161.9, 596.88 324.12, 597 540.13 M596.32 0.08 C598.65 137.47, 598.13 275.43, 596.49 539.84 M596.97 539.13 C468.05 542.49, 337.9 541.08, 0.29 539.43 M596.45 540.11 C358.09 540.81, 119.64 540.87, 0.09 539.72 M0.58 539.75 C-0.53 362.46, -0.1 184.44, 0.1 -0.26 M0.3 539.95 C1.03 338.37, 1.07 136.87, -0.28 0.4" stroke="#1971c2" stroke-width="1" fill="none"></path></g><g transform="translate(54.112594143500246 118.55859375) rotate(0 38.39996337890625 12.5)"><text x="0" y="0" font-family="Virgil, Segoe UI Emoji" font-size="20px" fill="#0000" text-anchor="start" style="white-space: pre;" direction="ltr" dominant-baseline="text-before-edge">Browser</text></g><g transform="translate(105.53056289350025 10) rotate(0 38.39996337890625 12.5)"><text x="0" y="0" font-family="Virgil, Segoe UI Emoji" font-size="20px" fill="#1971c2" text-anchor="start" style="white-space: pre;" direction="ltr" dominant-baseline="text-before-edge">Browser</text></g><g transform="translate(26.979781643500246 47.08203125) rotate(0 32.17595672607422 10)"><text x="0" y="0" font-family="Virgil, Segoe UI Emoji" font-size="16px" fill="#1971c2" text-anchor="start" style="white-space: pre;" direction="ltr" dominant-baseline="text-before-edge">MyApp.js</text></g><g stroke-linecap="round" transform="translate(41.616500393500246 416.0859375) rotate(0 62.111328125 77.193359375)"><path d="M1.59 -1.46 L125.38 1.09 L123.33 152.59 L-0.43 155" stroke="none" stroke-width="0" fill="#fff"></path><path d="M-0.25 -1.67 C39.45 2.64, 82.77 1.3, 122.34 -1.25 M0.34 0.38 C33.91 -2.18, 69.46 -0.64, 124.56 -0.21 M122.51 -1.46 C123.86 34.42, 122.65 68.89, 125.39 153.95 M123.66 -0.04 C123.33 39.45, 123.96 80.08, 124.97 154.63 M126.07 153.68 C75.21 152.39, 26.56 153.57, 1.93 154.36 M124.81 155.23 C82.97 154.72, 40.78 154.93, -0.66 155.19 M0.54 154.09 C2.53 106.77, 1.09 61.14, -0.74 -1.03 M-0.85 154.7 C1.03 114.5, -0.58 72.23, -0.89 -0.96" stroke="#1971c2" stroke-width="1" fill="none"></path></g><g stroke-linecap="round"><g transform="translate(43.616500393500246 437.484375) rotate(0 61.18292099516839 -0.27776922354368594)"><path d="M1.64 -0.25 C28.34 1.06, 52.62 -2.36, 121.34 0.01 M0.67 -0.84 C47.31 -0.91, 93.44 -1, 121.69 0.32" stroke="#1971c2" stroke-width="1" fill="none"></path></g></g><mask></mask><g stroke-linecap="round"><g transform="translate(69.21806289350025 419.03125) rotate(0 -0.3426353676161966 73.16014268435538)"><path d="M-1.65 -1.69 C2.73 53.16, 0.37 103.04, -0.02 148.01 M0.95 -0.03 C-0.95 48.44, -2 96.63, 0.65 145.89" stroke="#1971c2" stroke-width="1" fill="none"></path></g></g><mask></mask><g stroke-linecap="round"><g transform="translate(95.43290664350025 417.57421875) rotate(0 -0.5990664787982496 73.72638569492847)"><path d="M-1.54 0.42 C-1.27 55.57, 1.09 105.79, 0.1 147.47 M-0.34 -0.87 C-0.42 53.19, -0.54 104.24, -0.8 148.32" stroke="#1971c2" stroke-width="1" fill="none"></path></g></g><mask></mask><g stroke-linecap="round"><g transform="translate(122.36259414350025 419.18359375) rotate(0 -0.5322634861804545 73.51130557339638)"><path d="M-0.51 -0.54 C-1.5 42.28, 0.84 87.25, -1.59 146.55 M-0.06 -0.95 C0.96 44.65, -0.62 89.58, 0.53 147.97" stroke="#1971c2" stroke-width="1" fill="none"></path></g></g><mask></mask><g stroke-linecap="round"><g transform="translate(147.01884414350025 418.34765625) rotate(0 -0.05074893217533827 77.36905739316717)"><path d="M-0.47 0.86 C0.81 44.37, 0.02 91.5, -0.13 155.21 M-0.99 -0.48 C-0.33 34.74, 0.08 68.84, 0.89 152.7" stroke="#1971c2" stroke-width="1" fill="none"></path></g></g><mask></mask><g transform="translate(263.28837539350025 126.74609375) rotate(0 75.29596710205078 10)"><text x="0" y="0" font-family="Virgil, Segoe UI Emoji" font-size="16px" fill="#1e1e1e" text-anchor="start" style="white-space: pre;" direction="ltr" dominant-baseline="text-before-edge">RemoteDataSource</text></g><g transform="translate(45.167281643500246 345.5) rotate(0 42.03196716308594 30)"><text x="0" y="0" font-family="Virgil, Segoe UI Emoji" font-size="16px" fill="#1971c2" text-anchor="start" style="white-space: pre;" direction="ltr" dominant-baseline="text-before-edge">&lt; AgGrid &gt;</text><text x="0" y="20" font-family="Virgil, Segoe UI Emoji" font-size="16px" fill="#1971c2" text-anchor="start" style="white-space: pre;" direction="ltr" dominant-baseline="text-before-edge">...props</text><text x="0" y="40" font-family="Virgil, Segoe UI Emoji" font-size="16px" fill="#1971c2" text-anchor="start" style="white-space: pre;" direction="ltr" dominant-baseline="text-before-edge">...props</text></g><g transform="translate(288.88603164350025 179.11328125) rotate(0 46.98396301269531 20)"><text x="0" y="0" font-family="Virgil, Segoe UI Emoji" font-size="16px" fill="#1971c2" text-anchor="start" style="white-space: pre;" direction="ltr" dominant-baseline="text-before-edge">Table: </text><text x="0" y="20" font-family="Virgil, Segoe UI Emoji" font-size="16px" fill="#1971c2" text-anchor="start" style="white-space: pre;" direction="ltr" dominant-baseline="text-before-edge">Instruments</text></g><g stroke-linecap="round" transform="translate(272.24090359883485 153.40907218475553) rotate(0 59.61006830509314 8.408622395011605)"><path d="M119.22 8.41 C119.22 8.81, 119.02 9.21, 118.61 9.61 C118.21 10, 117.6 10.39, 116.81 10.78 C116.01 11.16, 115.01 11.54, 113.83 11.9 C112.66 12.26, 111.29 12.62, 109.76 12.95 C108.23 13.29, 106.51 13.61, 104.66 13.92 C102.81 14.22, 100.78 14.5, 98.65 14.76 C96.51 15.02, 94.22 15.27, 91.84 15.48 C89.46 15.7, 86.95 15.89, 84.37 16.06 C81.8 16.22, 79.12 16.36, 76.4 16.48 C73.69 16.59, 70.89 16.67, 68.09 16.73 C65.29 16.79, 62.44 16.82, 59.61 16.82 C56.78 16.82, 53.93 16.79, 51.13 16.73 C48.33 16.67, 45.53 16.59, 42.82 16.48 C40.1 16.36, 37.42 16.22, 34.85 16.06 C32.27 15.89, 29.76 15.7, 27.38 15.48 C25 15.27, 22.71 15.02, 20.57 14.76 C18.44 14.5, 16.41 14.22, 14.56 13.92 C12.71 13.61, 10.99 13.29, 9.46 12.95 C7.93 12.62, 6.56 12.26, 5.39 11.9 C4.21 11.54, 3.21 11.16, 2.41 10.78 C1.62 10.39, 1.01 10, 0.61 9.61 C0.2 9.21, 0 8.81, 0 8.41 C0 8.01, 0.2 7.61, 0.61 7.21 C1.01 6.82, 1.62 6.42, 2.41 6.04 C3.21 5.66, 4.21 5.28, 5.39 4.92 C6.56 4.55, 7.93 4.2, 9.46 3.86 C10.99 3.53, 12.71 3.2, 14.56 2.9 C16.41 2.6, 18.44 2.32, 20.57 2.05 C22.71 1.79, 25 1.55, 27.38 1.33 C29.76 1.12, 32.27 0.93, 34.85 0.76 C37.42 0.59, 40.1 0.45, 42.82 0.34 C45.53 0.23, 48.33 0.14, 51.13 0.09 C53.93 0.03, 56.78 0, 59.61 0 C62.44 0, 65.29 0.03, 68.09 0.09 C70.89 0.14, 73.69 0.23, 76.4 0.34 C79.12 0.45, 81.8 0.59, 84.37 0.76 C86.95 0.93, 89.46 1.12, 91.84 1.33 C94.22 1.55, 96.51 1.79, 98.65 2.05 C100.78 2.32, 102.81 2.6, 104.66 2.9 C106.51 3.2, 108.23 3.53, 109.76 3.86 C111.29 4.2, 112.66 4.55, 113.83 4.92 C115.01 5.28, 116.01 5.66, 116.81 6.04 C117.6 6.42, 118.21 6.82, 118.61 7.21 C119.02 7.61, 119.12 8.21, 119.22 8.41 C119.32 8.61, 119.32 8.21, 119.22 8.41" stroke="#1971c2" stroke-width="1" fill="none"></path></g><g stroke-linecap="round" transform="translate(272.13013055347164 218.63646788257768) rotate(0 59.71496865496039 11.311027041827572)"><path d="M119.43 11.31 C119.43 11.85, 119.23 12.39, 118.82 12.92 C118.42 13.45, 117.81 13.98, 117.01 14.5 C116.21 15.01, 115.21 15.52, 114.03 16.01 C112.86 16.5, 111.48 16.97, 109.95 17.43 C108.42 17.88, 106.7 18.31, 104.84 18.72 C102.99 19.12, 100.96 19.51, 98.82 19.86 C96.68 20.21, 94.38 20.54, 92 20.83 C89.62 21.12, 87.1 21.38, 84.52 21.6 C81.94 21.82, 79.26 22.01, 76.54 22.16 C73.82 22.32, 71.02 22.43, 68.21 22.51 C65.41 22.58, 62.55 22.62, 59.71 22.62 C56.88 22.62, 54.02 22.58, 51.22 22.51 C48.41 22.43, 45.61 22.32, 42.89 22.16 C40.17 22.01, 37.49 21.82, 34.91 21.6 C32.33 21.38, 29.81 21.12, 27.43 20.83 C25.05 20.54, 22.75 20.21, 20.61 19.86 C18.47 19.51, 16.44 19.12, 14.59 18.72 C12.73 18.31, 11.01 17.88, 9.48 17.43 C7.95 16.97, 6.57 16.5, 5.4 16.01 C4.22 15.52, 3.22 15.01, 2.42 14.5 C1.62 13.98, 1.01 13.45, 0.61 12.92 C0.2 12.39, 0 11.85, 0 11.31 C0 10.77, 0.2 10.23, 0.61 9.7 C1.01 9.17, 1.62 8.64, 2.42 8.12 C3.22 7.61, 4.22 7.1, 5.4 6.61 C6.57 6.12, 7.95 5.65, 9.48 5.2 C11.01 4.74, 12.73 4.31, 14.59 3.9 C16.44 3.5, 18.47 3.11, 20.61 2.76 C22.75 2.41, 25.05 2.09, 27.43 1.8 C29.81 1.51, 32.33 1.25, 34.91 1.02 C37.49 0.8, 40.17 0.61, 42.89 0.46 C45.61 0.31, 48.41 0.19, 51.22 0.12 C54.02 0.04, 56.88 0, 59.71 0 C62.55 0, 65.41 0.04, 68.21 0.12 C71.02 0.19, 73.82 0.31, 76.54 0.46 C79.26 0.61, 81.94 0.8, 84.52 1.02 C87.1 1.25, 89.62 1.51, 92 1.8 C94.38 2.09, 96.68 2.41, 98.82 2.76 C100.96 3.11, 102.99 3.5, 104.84 3.9 C106.7 4.31, 108.42 4.74, 109.95 5.2 C111.48 5.65, 112.86 6.12, 114.03 6.61 C115.21 7.1, 116.21 7.61, 117.01 8.12 C117.81 8.64, 118.42 9.17, 118.82 9.7 C119.23 10.23, 119.33 11.04, 119.43 11.31 C119.53 11.58, 119.53 11.04, 119.43 11.31" stroke="#1971c2" stroke-width="1" fill="none"></path></g><g stroke-linecap="round"><g transform="translate(391.37154895009826 162.35536022629526) rotate(0 0.19183251671546486 34.38407801773175)"><path d="M0 0 C0.06 11.46, 0.32 57.31, 0.38 68.77 M0 0 C0.06 11.46, 0.32 57.31, 0.38 68.77" stroke="#1971c2" stroke-width="1" fill="none"></path></g></g><mask></mask><g stroke-linecap="round"><g transform="translate(272.37721478793196 162.38597801577924) rotate(0 -0.10667832189886894 34.66571335840288)"><path d="M0 0 C-0.04 11.56, -0.18 57.78, -0.21 69.33 M0 0 C-0.04 11.56, -0.18 57.78, -0.21 69.33" stroke="#1971c2" stroke-width="1" fill="none"></path></g></g><mask></mask><g stroke-linecap="round"><g transform="translate(432.08873942218634 379.00790677577265) rotate(0 -85.96029218143701 25.382526807477575)"><path d="M0 0 C0 -4.08, 0 -8.17, 0 -20.28 M0 0 C0 -4.34, 0 -8.68, 0 -20.28 M0 -20.28 C-31.77 -20.27, -63.55 -20.25, -92.97 -20.23 M0 -20.28 C-26.56 -20.27, -53.12 -20.25, -92.97 -20.23 M-92.97 -20.23 C-97.46 -27.17, -101.94 -34.1, -105.96 -40.33 M-92.97 -20.23 C-96.7 -26, -100.43 -31.77, -105.96 -40.33 M-105.96 -40.33 C-126.39 -40.39, -146.82 -40.46, -172.33 -40.55 M-105.96 -40.33 C-121.62 -40.38, -137.27 -40.43, -172.33 -40.55 M-172.33 -40.55 C-172.46 8.81, -172.58 58.17, -172.67 91.23 M-172.33 -40.55 C-172.46 10.42, -172.59 61.39, -172.67 91.23 M-172.67 91.23 C-122.23 91.25, -71.79 91.28, 0.55 91.31 M-172.67 91.23 C-132.84 91.25, -93.02 91.27, 0.55 91.31 M0.55 91.31 C0.6 75.49, 0.65 59.67, 0.75 29.98 M0.55 91.31 C0.63 67.61, 0.7 43.9, 0.75 29.98" stroke="#1971c2" stroke-width="2" fill="none"></path></g></g><mask></mask><g transform="translate(280.9525836238088 382.86633351708565) rotate(0 80.67035090707026 9.952429418532603)"><text x="0" y="0" font-family="Virgil, Segoe UI Emoji" font-size="15.923887069652181px" fill="#1e1e1e" text-anchor="start" style="white-space: pre;" direction="ltr" dominant-baseline="text-before-edge">useViewportRowModel</text></g><g transform="translate(266.77688474074944 340.0030522670857) rotate(0 16.711990356445312 10)"><text x="0" y="0" font-family="Virgil, Segoe UI Emoji" font-size="16px" fill="#1971c2" text-anchor="start" style="white-space: pre;" direction="ltr" dominant-baseline="text-before-edge">hook</text></g><g stroke-linecap="round"><g transform="translate(328.94875974074944 247.85055822820402) rotate(0 -0.3129696571633076 57.635671112899644)"><path d="M-1.47 0.66 C1.47 24.49, 1.03 53.63, 0.34 115.65 M0.29 -0.37 C0.96 24.47, -0.65 47.78, 0.01 114.94" stroke="#1971c2" stroke-width="2" fill="none"></path></g><g transform="translate(328.94875974074944 247.85055822820402) rotate(0 -0.3129696571633076 57.635671112899644)"><path d="M-11.78 87.43 C-7.34 91.76, -5.45 101.39, 0.36 116.23 M-10.02 86.39 C-7.41 92.85, -6.81 97.81, 0.03 115.52" stroke="#1971c2" stroke-width="2" fill="none"></path></g><g transform="translate(328.94875974074944 247.85055822820402) rotate(0 -0.3129696571633076 57.635671112899644)"><path d="M8.74 87.39 C8.53 91.71, 5.78 101.35, 0.36 116.23 M10.5 86.35 C8.74 92.88, 4.97 97.84, 0.03 115.52" stroke="#1971c2" stroke-width="2" fill="none"></path></g></g><mask></mask><g stroke-linecap="round"><g transform="translate(255.73391599074944 399.5850835170857) rotate(0 -69.3373893853277 -0.09968718897445683)"><path d="M1.53 1.32 C-34.13 0.2, -69 2.77, -140.2 -0.86 M-0.84 -0.6 C-52.21 -1.76, -105.24 -1.8, -139.5 -0.83" stroke="#1971c2" stroke-width="1" fill="none"></path></g><g transform="translate(255.73391599074944 399.5850835170857) rotate(0 -69.3373893853277 -0.09968718897445683)"><path d="M-109.96 -10.25 C-117.43 -9.29, -124.01 -3.99, -140.24 -1.69 M-112.33 -12.17 C-121.4 -8.54, -132.1 -4.5, -139.54 -1.67" stroke="#1971c2" stroke-width="1" fill="none"></path></g><g transform="translate(255.73391599074944 399.5850835170857) rotate(0 -69.3373893853277 -0.09968718897445683)"><path d="M-109.62 10.27 C-116.98 6.03, -123.64 6.11, -140.24 -1.69 M-111.99 8.35 C-121.12 4.19, -131.95 0.43, -139.54 -1.67" stroke="#1971c2" stroke-width="1" fill="none"></path></g></g><mask></mask><g stroke-linecap="round"><g transform="translate(395.58938474074944 183.9991460170857) rotate(0 145.33472549018103 -0.33685324481986356)"><path d="M0.51 0.55 C110.44 -1.59, 218.88 -1.24, 291.14 -0.96 M-0.47 0.41 C71.66 -2.25, 142.24 -1.18, 290.39 0.24" stroke="#1971c2" stroke-width="1" fill="none"></path></g><g transform="translate(395.58938474074944 183.9991460170857) rotate(0 145.33472549018103 -0.33685324481986356)"><path d="M262.78 10.96 C274.76 5.83, 284.68 2.55, 291.67 -1.05 M261.47 10.78 C269.61 6.77, 275.64 5.75, 290.67 0.55" stroke="#1971c2" stroke-width="1" fill="none"></path></g><g transform="translate(395.58938474074944 183.9991460170857) rotate(0 145.33472549018103 -0.33685324481986356)"><path d="M262.98 -9.56 C274.75 -6.98, 284.61 -2.56, 291.67 -1.05 M261.67 -9.74 C269.67 -8.71, 275.66 -4.69, 290.67 0.55" stroke="#1971c2" stroke-width="1" fill="none"></path></g></g><mask></mask><g stroke-linecap="round"><g transform="translate(676.8315722407494 215.3663335170857) rotate(0 -140.16953322496568 0.1603194033950217)"><path d="M-0.94 1.5 C-75.88 -0.47, -150.56 -1.84, -279.28 0.89 M-0.42 -0.05 C-65.53 -1.61, -131.91 -1.28, -279.91 -0.69" stroke="#1971c2" stroke-width="1" fill="none"></path></g><g transform="translate(676.8315722407494 215.3663335170857) rotate(0 -140.16953322496568 0.1603194033950217)"><path d="M-252.98 -9.1 C-259.74 -8.44, -266.22 -7.44, -279.43 0.47 M-252.31 -11.12 C-257.6 -9.19, -264.58 -6.31, -280.26 -1.6" stroke="#1971c2" stroke-width="1" fill="none"></path></g><g transform="translate(676.8315722407494 215.3663335170857) rotate(0 -140.16953322496568 0.1603194033950217)"><path d="M-252.91 11.42 C-259.81 6.53, -266.31 1.99, -279.43 0.47 M-252.24 9.4 C-257.59 6.48, -264.59 4.5, -280.26 -1.6" stroke="#1971c2" stroke-width="1" fill="none"></path></g></g><mask></mask><g stroke-linecap="round"><g transform="translate(174.89016599074944 433.0186772670857) rotate(0 40.05860800109804 1.043383503332734)"><path d="M-0.15 1.39 C19.69 0.34, 42.69 1.98, 80.27 0.7" stroke="#1971c2" stroke-width="1.5" fill="none" stroke-dasharray="8 9"></path></g><g transform="translate(174.89016599074944 433.0186772670857) rotate(0 40.05860800109804 1.043383503332734)"><path d="M52.11 12.83 C57.88 8.47, 66.9 7.29, 79.34 1.4" stroke="#1971c2" stroke-width="1.5" fill="none"></path></g><g transform="translate(174.89016599074944 433.0186772670857) rotate(0 40.05860800109804 1.043383503332734)"><path d="M51.76 -7.69 C57.8 -6.65, 66.91 -2.44, 79.34 1.4" stroke="#1971c2" stroke-width="1.5" fill="none"></path></g></g><mask></mask><g stroke-linecap="round"><g transform="translate(253.01907224074944 459.55383351708565) rotate(0 -41.36071763001382 0.6490414315049975)"><path d="M-1.47 0.04 C-21.06 -0.88, -41.41 0.74, -81.25 1.53" stroke="#1971c2" stroke-width="1.5" fill="none" stroke-dasharray="8 9"></path></g><g transform="translate(253.01907224074944 459.55383351708565) rotate(0 -41.36071763001382 0.6490414315049975)"><path d="M-54.82 -9.45 C-60.39 -7.29, -66.66 -2.85, -79.53 3.06" stroke="#1971c2" stroke-width="1.5" fill="none"></path></g><g transform="translate(253.01907224074944 459.55383351708565) rotate(0 -41.36071763001382 0.6490414315049975)"><path d="M-54.26 11.06 C-59.84 7.97, -66.25 7.16, -79.53 3.06" stroke="#1971c2" stroke-width="1.5" fill="none"></path></g></g><mask></mask></svg>