<svg version="1.1" xmlns="http://www.w3.org/2000/svg" viewBox="0 0 616.5151631759977 684.1818857841713" width="1233.0303263519954" height="1368.3637715683426">
  <!-- svg-source:excalidraw -->
  
  <defs>
    <style class="style-fonts">
      @font-face {
        font-family: "Virgil";
        src: url("https://excalidraw.com/Virgil.woff2");
      }
      @font-face {
        font-family: "Cascadia";
        src: url("https://excalidraw.com/Cascadia.woff2");
      }
    </style>
    
  </defs>
  <rect x="0" y="0" width="616.5151631759977" height="684.1818857841713" fill="#ffffff"></rect><g stroke-linecap="round" transform="translate(10 69.99717328449265) rotate(0 298.25758158799886 302.0923562498393)"><path d="M0.96 0.22 L594.77 -1.38 L594.74 603.89 L-1.93 606.09" stroke="none" stroke-width="0" fill="#fff"></path><path d="M0.46 0.62 C189.58 -0.19, 380.29 -0.23, 595.85 -0.53 M-0.13 0.29 C174.72 0.07, 350.29 0.52, 596.55 0.39 M595.9 -0.07 C596.23 181.16, 596.91 362.65, 597 604.43 M596.32 0.08 C598.87 153.85, 598.36 308.19, 596.49 604.15 M596.97 603.44 C468.05 606.8, 337.9 605.39, 0.29 603.74 M596.45 604.42 C358.09 605.12, 119.64 605.18, 0.09 604.03 M0.58 604.06 C-0.54 405.6, -0.11 206.4, 0.1 -0.26 M0.3 604.26 C1.16 378.67, 1.2 153.14, -0.28 0.4" stroke="#1971c2" stroke-width="1" fill="none"></path></g><g transform="translate(54.745406643500246 178.3125) rotate(0 38.39996337890625 12.5)"><text x="0" y="0" font-family="Virgil, Segoe UI Emoji" font-size="20px" fill="#0000" text-anchor="start" style="white-space: pre;" direction="ltr" dominant-baseline="text-before-edge">Browser</text></g><g transform="translate(101.16337539350025 10) rotate(0 38.39996337890625 12.5)"><text x="0" y="0" font-family="Virgil, Segoe UI Emoji" font-size="20px" fill="#1971c2" text-anchor="start" style="white-space: pre;" direction="ltr" dominant-baseline="text-before-edge">Browser</text></g><g transform="translate(22.612594143500246 47.08203125) rotate(0 32.17595672607422 10)"><text x="0" y="0" font-family="Virgil, Segoe UI Emoji" font-size="16px" fill="#1971c2" text-anchor="start" style="white-space: pre;" direction="ltr" dominant-baseline="text-before-edge">MyApp.js</text></g><g stroke-linecap="round" transform="translate(42.249312893500246 475.83984375) rotate(0 62.111328125 77.193359375)"><path d="M1.59 -1.46 L125.38 1.09 L123.33 152.59 L-0.43 155" stroke="none" stroke-width="0" fill="#fff"></path><path d="M-0.25 -1.67 C39.45 2.64, 82.77 1.3, 122.34 -1.25 M0.34 0.38 C33.91 -2.18, 69.46 -0.64, 124.56 -0.21 M122.51 -1.46 C123.86 34.42, 122.65 68.89, 125.39 153.95 M123.66 -0.04 C123.33 39.45, 123.96 80.08, 124.97 154.63 M126.07 153.68 C75.21 152.39, 26.56 153.57, 1.93 154.36 M124.81 155.23 C82.97 154.72, 40.78 154.93, -0.66 155.19 M0.54 154.09 C2.53 106.77, 1.09 61.14, -0.74 -1.03 M-0.85 154.7 C1.03 114.5, -0.58 72.23, -0.89 -0.96" stroke="#1971c2" stroke-width="1" fill="none"></path></g><g stroke-linecap="round"><g transform="translate(44.249312893500246 497.23828125) rotate(0 61.18292099516839 -0.27776922354368594)"><path d="M1.64 -0.25 C28.34 1.06, 52.62 -2.36, 121.34 0.01 M0.67 -0.84 C47.31 -0.91, 93.44 -1, 121.69 0.32" stroke="#1971c2" stroke-width="1" fill="none"></path></g></g><mask></mask><g stroke-linecap="round"><g transform="translate(69.85087539350025 478.78515625) rotate(0 -0.3426353676161966 73.16014268435538)"><path d="M-1.65 -1.69 C2.73 53.16, 0.37 103.04, -0.02 148.01 M0.95 -0.03 C-0.95 48.44, -2 96.63, 0.65 145.89" stroke="#1971c2" stroke-width="1" fill="none"></path></g></g><mask></mask><g stroke-linecap="round"><g transform="translate(96.06571914350025 477.328125) rotate(0 -0.5990664787982496 73.72638569492847)"><path d="M-1.54 0.42 C-1.27 55.57, 1.09 105.79, 0.1 147.47 M-0.34 -0.87 C-0.42 53.19, -0.54 104.24, -0.8 148.32" stroke="#1971c2" stroke-width="1" fill="none"></path></g></g><mask></mask><g stroke-linecap="round"><g transform="translate(122.99540664350025 478.9375) rotate(0 -0.5322634861804545 73.51130557339638)"><path d="M-0.51 -0.54 C-1.5 42.28, 0.84 87.25, -1.59 146.55 M-0.06 -0.95 C0.96 44.65, -0.62 89.58, 0.53 147.97" stroke="#1971c2" stroke-width="1" fill="none"></path></g></g><mask></mask><g stroke-linecap="round"><g transform="translate(147.65165664350025 478.1015625) rotate(0 -0.05074893217533827 77.36905739316717)"><path d="M-0.47 0.86 C0.81 44.37, 0.02 91.5, -0.13 155.21 M-0.99 -0.48 C-0.33 34.74, 0.08 68.84, 0.89 152.7" stroke="#1971c2" stroke-width="1" fill="none"></path></g></g><mask></mask><g transform="translate(432.48759414350025 118.640625) rotate(0 75.29596710205078 10)"><text x="0" y="0" font-family="Virgil, Segoe UI Emoji" font-size="16px" fill="#1e1e1e" text-anchor="start" style="white-space: pre;" direction="ltr" dominant-baseline="text-before-edge">RemoteDataSource</text></g><g transform="translate(45.800094143500246 405.25390625) rotate(0 42.03196716308594 30)"><text x="0" y="0" font-family="Virgil, Segoe UI Emoji" font-size="16px" fill="#1971c2" text-anchor="start" style="white-space: pre;" direction="ltr" dominant-baseline="text-before-edge">&lt; AgGrid &gt;</text><text x="0" y="20" font-family="Virgil, Segoe UI Emoji" font-size="16px" fill="#1971c2" text-anchor="start" style="white-space: pre;" direction="ltr" dominant-baseline="text-before-edge">...props</text><text x="0" y="40" font-family="Virgil, Segoe UI Emoji" font-size="16px" fill="#1971c2" text-anchor="start" style="white-space: pre;" direction="ltr" dominant-baseline="text-before-edge">...props</text></g><g transform="translate(458.33525039350025 171.25) rotate(0 46.98396301269531 20)"><text x="0" y="0" font-family="Virgil, Segoe UI Emoji" font-size="16px" fill="#1971c2" text-anchor="start" style="white-space: pre;" direction="ltr" dominant-baseline="text-before-edge">Table: </text><text x="0" y="20" font-family="Virgil, Segoe UI Emoji" font-size="16px" fill="#1971c2" text-anchor="start" style="white-space: pre;" direction="ltr" dominant-baseline="text-before-edge">Instruments</text></g><g stroke-linecap="round" transform="translate(441.20184109883485 145.78016593475553) rotate(0 59.61006830509314 8.408622395011605)"><path d="M119.22 8.41 C119.22 8.81, 119.02 9.21, 118.61 9.61 C118.21 10, 117.6 10.39, 116.81 10.78 C116.01 11.16, 115.01 11.54, 113.83 11.9 C112.66 12.26, 111.29 12.62, 109.76 12.95 C108.23 13.29, 106.51 13.61, 104.66 13.92 C102.81 14.22, 100.78 14.5, 98.65 14.76 C96.51 15.02, 94.22 15.27, 91.84 15.48 C89.46 15.7, 86.95 15.89, 84.37 16.06 C81.8 16.22, 79.12 16.36, 76.4 16.48 C73.69 16.59, 70.89 16.67, 68.09 16.73 C65.29 16.79, 62.44 16.82, 59.61 16.82 C56.78 16.82, 53.93 16.79, 51.13 16.73 C48.33 16.67, 45.53 16.59, 42.82 16.48 C40.1 16.36, 37.42 16.22, 34.85 16.06 C32.27 15.89, 29.76 15.7, 27.38 15.48 C25 15.27, 22.71 15.02, 20.57 14.76 C18.44 14.5, 16.41 14.22, 14.56 13.92 C12.71 13.61, 10.99 13.29, 9.46 12.95 C7.93 12.62, 6.56 12.26, 5.39 11.9 C4.21 11.54, 3.21 11.16, 2.41 10.78 C1.62 10.39, 1.01 10, 0.61 9.61 C0.2 9.21, 0 8.81, 0 8.41 C0 8.01, 0.2 7.61, 0.61 7.21 C1.01 6.82, 1.62 6.42, 2.41 6.04 C3.21 5.66, 4.21 5.28, 5.39 4.92 C6.56 4.55, 7.93 4.2, 9.46 3.86 C10.99 3.53, 12.71 3.2, 14.56 2.9 C16.41 2.6, 18.44 2.32, 20.57 2.05 C22.71 1.79, 25 1.55, 27.38 1.33 C29.76 1.12, 32.27 0.93, 34.85 0.76 C37.42 0.59, 40.1 0.45, 42.82 0.34 C45.53 0.23, 48.33 0.14, 51.13 0.09 C53.93 0.03, 56.78 0, 59.61 0 C62.44 0, 65.29 0.03, 68.09 0.09 C70.89 0.14, 73.69 0.23, 76.4 0.34 C79.12 0.45, 81.8 0.59, 84.37 0.76 C86.95 0.93, 89.46 1.12, 91.84 1.33 C94.22 1.55, 96.51 1.79, 98.65 2.05 C100.78 2.32, 102.81 2.6, 104.66 2.9 C106.51 3.2, 108.23 3.53, 109.76 3.86 C111.29 4.2, 112.66 4.55, 113.83 4.92 C115.01 5.28, 116.01 5.66, 116.81 6.04 C117.6 6.42, 118.21 6.82, 118.61 7.21 C119.02 7.61, 119.12 8.21, 119.22 8.41 C119.32 8.61, 119.32 8.21, 119.22 8.41" stroke="#1971c2" stroke-width="1" fill="none"></path></g><g stroke-linecap="round" transform="translate(441.09106805347164 211.00756163257768) rotate(0 59.714968654960444 11.311027041827572)"><path d="M119.43 11.31 C119.43 11.85, 119.23 12.39, 118.82 12.92 C118.42 13.45, 117.81 13.98, 117.01 14.5 C116.21 15.01, 115.21 15.52, 114.03 16.01 C112.86 16.5, 111.48 16.97, 109.95 17.43 C108.42 17.88, 106.7 18.31, 104.84 18.72 C102.99 19.12, 100.96 19.51, 98.82 19.86 C96.68 20.21, 94.38 20.54, 92 20.83 C89.62 21.12, 87.1 21.38, 84.52 21.6 C81.94 21.82, 79.26 22.01, 76.54 22.16 C73.82 22.32, 71.02 22.43, 68.21 22.51 C65.41 22.58, 62.55 22.62, 59.71 22.62 C56.88 22.62, 54.02 22.58, 51.22 22.51 C48.41 22.43, 45.61 22.32, 42.89 22.16 C40.17 22.01, 37.49 21.82, 34.91 21.6 C32.33 21.38, 29.81 21.12, 27.43 20.83 C25.05 20.54, 22.75 20.21, 20.61 19.86 C18.47 19.51, 16.44 19.12, 14.59 18.72 C12.73 18.31, 11.01 17.88, 9.48 17.43 C7.95 16.97, 6.57 16.5, 5.4 16.01 C4.22 15.52, 3.22 15.01, 2.42 14.5 C1.62 13.98, 1.01 13.45, 0.61 12.92 C0.2 12.39, 0 11.85, 0 11.31 C0 10.77, 0.2 10.23, 0.61 9.7 C1.01 9.17, 1.62 8.64, 2.42 8.12 C3.22 7.61, 4.22 7.1, 5.4 6.61 C6.57 6.12, 7.95 5.65, 9.48 5.2 C11.01 4.74, 12.73 4.31, 14.59 3.9 C16.44 3.5, 18.47 3.11, 20.61 2.76 C22.75 2.41, 25.05 2.09, 27.43 1.8 C29.81 1.51, 32.33 1.25, 34.91 1.02 C37.49 0.8, 40.17 0.61, 42.89 0.46 C45.61 0.31, 48.41 0.19, 51.22 0.12 C54.02 0.04, 56.88 0, 59.71 0 C62.55 0, 65.41 0.04, 68.21 0.12 C71.02 0.19, 73.82 0.31, 76.54 0.46 C79.26 0.61, 81.94 0.8, 84.52 1.02 C87.1 1.25, 89.62 1.51, 92 1.8 C94.38 2.09, 96.68 2.41, 98.82 2.76 C100.96 3.11, 102.99 3.5, 104.84 3.9 C106.7 4.31, 108.42 4.74, 109.95 5.2 C111.48 5.65, 112.86 6.12, 114.03 6.61 C115.21 7.1, 116.21 7.61, 117.01 8.12 C117.81 8.64, 118.42 9.17, 118.82 9.7 C119.23 10.23, 119.33 11.04, 119.43 11.31 C119.53 11.58, 119.53 11.04, 119.43 11.31" stroke="#1971c2" stroke-width="1" fill="none"></path></g><g stroke-linecap="round"><g transform="translate(560.3324864500983 154.72645397629526) rotate(0 0.1918325167155217 34.38407801773175)"><path d="M0 0 C0.06 11.46, 0.32 57.31, 0.38 68.77 M0 0 C0.06 11.46, 0.32 57.31, 0.38 68.77" stroke="#1971c2" stroke-width="1" fill="none"></path></g></g><mask></mask><g stroke-linecap="round"><g transform="translate(441.33815228793196 154.75707176577924) rotate(0 -0.10667832189886894 34.66571335840288)"><path d="M0 0 C-0.04 11.56, -0.18 57.78, -0.21 69.33 M0 0 C-0.04 11.56, -0.18 57.78, -0.21 69.33" stroke="#1971c2" stroke-width="1" fill="none"></path></g></g><mask></mask><g stroke-linecap="round"><g transform="translate(432.72155192218634 438.76181302577265) rotate(0 -85.96029218143701 25.382526807477575)"><path d="M0 0 C0 -4.08, 0 -8.17, 0 -20.28 M0 0 C0 -4.34, 0 -8.68, 0 -20.28 M0 -20.28 C-31.77 -20.27, -63.55 -20.25, -92.97 -20.23 M0 -20.28 C-26.56 -20.27, -53.12 -20.25, -92.97 -20.23 M-92.97 -20.23 C-97.46 -27.17, -101.94 -34.1, -105.96 -40.33 M-92.97 -20.23 C-96.7 -26, -100.43 -31.77, -105.96 -40.33 M-105.96 -40.33 C-126.39 -40.39, -146.82 -40.46, -172.33 -40.55 M-105.96 -40.33 C-121.62 -40.38, -137.27 -40.43, -172.33 -40.55 M-172.33 -40.55 C-172.46 8.81, -172.58 58.17, -172.67 91.23 M-172.33 -40.55 C-172.46 10.42, -172.59 61.39, -172.67 91.23 M-172.67 91.23 C-122.23 91.25, -71.79 91.28, 0.55 91.31 M-172.67 91.23 C-132.84 91.25, -93.02 91.27, 0.55 91.31 M0.55 91.31 C0.6 75.49, 0.65 59.67, 0.75 29.98 M0.55 91.31 C0.63 67.61, 0.7 43.9, 0.75 29.98" stroke="#1971c2" stroke-width="2" fill="none"></path></g></g><mask></mask><g transform="translate(281.5853961238088 442.62023976708565) rotate(0 80.67035090707026 9.952429418532603)"><text x="0" y="0" font-family="Virgil, Segoe UI Emoji" font-size="15.923887069652181px" fill="#1e1e1e" text-anchor="start" style="white-space: pre;" direction="ltr" dominant-baseline="text-before-edge">useViewportRowModel</text></g><g transform="translate(267.65579099074944 399.7569585170857) rotate(0 16.711990356445312 10)"><text x="0" y="0" font-family="Virgil, Segoe UI Emoji" font-size="16px" fill="#1971c2" text-anchor="start" style="white-space: pre;" direction="ltr" dominant-baseline="text-before-edge">hook</text></g><g stroke-linecap="round"><g transform="translate(256.36672849074944 459.3389897670857) rotate(0 -69.3373893853277 -0.09968718897445683)"><path d="M1.53 1.32 C-34.13 0.2, -69 2.77, -140.2 -0.86 M-0.84 -0.6 C-52.21 -1.76, -105.24 -1.8, -139.5 -0.83" stroke="#1971c2" stroke-width="1" fill="none"></path></g><g transform="translate(256.36672849074944 459.3389897670857) rotate(0 -69.3373893853277 -0.09968718897445683)"><path d="M-109.96 -10.25 C-117.43 -9.29, -124.01 -3.99, -140.24 -1.69 M-112.33 -12.17 C-121.4 -8.54, -132.1 -4.5, -139.54 -1.67" stroke="#1971c2" stroke-width="1" fill="none"></path></g><g transform="translate(256.36672849074944 459.3389897670857) rotate(0 -69.3373893853277 -0.09968718897445683)"><path d="M-109.62 10.27 C-116.98 6.03, -123.64 6.11, -140.24 -1.69 M-111.99 8.35 C-121.12 4.19, -131.95 0.43, -139.54 -1.67" stroke="#1971c2" stroke-width="1" fill="none"></path></g></g><mask></mask><g stroke-linecap="round"><g transform="translate(175.52297849074944 492.7725835170857) rotate(0 40.05860800109804 1.043383503332734)"><path d="M-0.15 1.39 C19.69 0.34, 42.69 1.98, 80.27 0.7" stroke="#1971c2" stroke-width="1.5" fill="none" stroke-dasharray="8 9"></path></g><g transform="translate(175.52297849074944 492.7725835170857) rotate(0 40.05860800109804 1.043383503332734)"><path d="M52.11 12.83 C57.88 8.47, 66.9 7.29, 79.34 1.4" stroke="#1971c2" stroke-width="1.5" fill="none"></path></g><g transform="translate(175.52297849074944 492.7725835170857) rotate(0 40.05860800109804 1.043383503332734)"><path d="M51.76 -7.69 C57.8 -6.65, 66.91 -2.44, 79.34 1.4" stroke="#1971c2" stroke-width="1.5" fill="none"></path></g></g><mask></mask><g stroke-linecap="round"><g transform="translate(253.65188474074944 519.3077397670856) rotate(0 -41.36071763001382 0.6490414315049975)"><path d="M-1.47 0.04 C-21.06 -0.88, -41.41 0.74, -81.25 1.53" stroke="#1971c2" stroke-width="1.5" fill="none" stroke-dasharray="8 9"></path></g><g transform="translate(253.65188474074944 519.3077397670856) rotate(0 -41.36071763001382 0.6490414315049975)"><path d="M-54.82 -9.45 C-60.39 -7.29, -66.66 -2.85, -79.53 3.06" stroke="#1971c2" stroke-width="1.5" fill="none"></path></g><g transform="translate(253.65188474074944 519.3077397670856) rotate(0 -41.36071763001382 0.6490414315049975)"><path d="M-54.26 11.06 C-59.84 7.97, -66.25 7.16, -79.53 3.06" stroke="#1971c2" stroke-width="1.5" fill="none"></path></g></g><mask></mask><g stroke-linecap="round"><g transform="translate(430.9241131727779 311.15100228121673) rotate(0 -85.96029218143701 16.74072186086886)"><path d="M0 0 C0 -4.36, 0 -8.72, 0 -13.38 M0 0 C0 -4.14, 0 -8.28, 0 -13.38 M0 -13.38 C-22.54 -13.37, -45.08 -13.36, -92.97 -13.35 M0 -13.38 C-31.81 -13.37, -63.62 -13.36, -92.97 -13.35 M-92.97 -13.35 C-97.65 -18.12, -102.33 -22.89, -105.96 -26.6 M-92.97 -13.35 C-97.94 -18.41, -102.91 -23.48, -105.96 -26.6 M-105.96 -26.6 C-121.5 -26.63, -137.04 -26.67, -172.33 -26.74 M-105.96 -26.6 C-132.16 -26.65, -158.36 -26.71, -172.33 -26.74 M-172.33 -26.74 C-172.44 0.85, -172.55 28.44, -172.67 60.17 M-172.33 -26.74 C-172.44 2.39, -172.56 31.52, -172.67 60.17 M-172.67 60.17 C-128.17 60.18, -83.66 60.2, 0.55 60.23 M-172.67 60.17 C-119.86 60.18, -67.04 60.2, 0.55 60.23 M0.55 60.23 C0.61 48.49, 0.67 36.76, 0.75 19.78 M0.55 60.23 C0.59 52.01, 0.63 43.79, 0.75 19.78" stroke="#1971c2" stroke-width="2" fill="none"></path></g></g><mask></mask><g transform="translate(280.2567073744003 314.81098345092107) rotate(0 80.86558532714844 9.952429418532603)"><text x="0" y="0" font-family="Virgil, Segoe UI Emoji" font-size="15.923887069652181px" fill="#1e1e1e" text-anchor="start" style="white-space: pre;" direction="ltr" dominant-baseline="text-before-edge">useVuuFilterSentence</text></g><g transform="translate(266.092727241341 285.9359834509212) rotate(0 16.711990356445312 10)"><text x="0" y="0" font-family="Virgil, Segoe UI Emoji" font-size="16px" fill="#1971c2" text-anchor="start" style="white-space: pre;" direction="ltr" dominant-baseline="text-before-edge">hook</text></g><g transform="translate(34.96438474074944 284.6475835170857) rotate(0 71.50396728515625 30)"><text x="0" y="0" font-family="Virgil, Segoe UI Emoji" font-size="16px" fill="#1971c2" text-anchor="start" style="white-space: pre;" direction="ltr" dominant-baseline="text-before-edge">&lt; FilterSentence &gt;</text><text x="0" y="20" font-family="Virgil, Segoe UI Emoji" font-size="16px" fill="#1971c2" text-anchor="start" style="white-space: pre;" direction="ltr" dominant-baseline="text-before-edge">   ...props</text><text x="0" y="40" font-family="Virgil, Segoe UI Emoji" font-size="16px" fill="#1971c2" text-anchor="start" style="white-space: pre;" direction="ltr" dominant-baseline="text-before-edge">   ...props</text></g><g stroke-linecap="round" transform="translate(29.038603490749438 354.4249272670857) rotate(0 75.3046875 15.1875)"><path d="M1.23 -1.55 L150.39 1.18 L149.9 30.83 L0.67 31.14" stroke="none" stroke-width="0" fill="#fff"></path><path d="M-1.65 -0.03 C58.02 1.14, 114 0.73, 151.76 -1.5 M0.62 -0.56 C53.16 -1.68, 106.35 -2.24, 150.87 0.58 M149.45 0.38 C152.34 4.45, 149.96 13.07, 151.99 29.33 M150.48 0.31 C150.96 8.19, 150.35 15.62, 151.58 30.9 M150.02 29.69 C106.49 27.08, 60.92 27.58, 0.92 31.49 M151.15 29.82 C103.86 29.02, 55.8 29.04, 0.34 30.01 M-0.36 29.64 C0.76 18.67, -0.09 6.82, 0.07 1.65 M0.96 29.77 C0.61 20.23, -0.59 8, -0.45 -0.12" stroke="#1971c2" stroke-width="1" fill="none"></path></g><g stroke-linecap="round"><g transform="translate(102.29250974074944 357.2764897670857) rotate(0 -0.2182230754854686 10.629220382776111)"><path d="M-0.65 -1.27 C-1.15 10.63, 0.14 17.79, 0.36 21.99 M-0.19 0.16 C-0.31 5.68, -1.03 12.37, -0.72 22.53" stroke="#1971c2" stroke-width="1" fill="none"></path></g></g><mask></mask><g transform="translate(34.17532224074944 362.5772710170857) rotate(0 20.079978942871094 10)"><text x="0" y="0" font-family="Virgil, Segoe UI Emoji" font-size="16px" fill="#1971c2" text-anchor="start" style="white-space: pre;" direction="ltr" dominant-baseline="text-before-edge">filter</text></g><g transform="translate(118.93909329787834 359.9913335170857) rotate(0 20.079978942871094 10)"><text x="0" y="0" font-family="Virgil, Segoe UI Emoji" font-size="16px" fill="#1971c2" text-anchor="start" style="white-space: pre;" direction="ltr" dominant-baseline="text-before-edge">filter</text></g><g stroke-linecap="round"><g transform="translate(257.58547849074944 333.1475835170857) rotate(0 -66.27178058587015 -0.08560929270785778)"><path d="M0.02 -0.64 C-35 0.43, -67.81 0.56, -132.56 0.42 M-0.49 -0.12 C-44.4 0.2, -87.83 0.86, -130.92 -0.43" stroke="#1971c2" stroke-width="1" fill="none"></path></g><g transform="translate(257.58547849074944 333.1475835170857) rotate(0 -66.27178058587015 -0.08560929270785778)"><path d="M-102.53 -10.82 C-111.47 -6.57, -118.17 -3.96, -132.45 0 M-103.04 -10.31 C-112.22 -6.72, -120.87 -2.76, -130.81 -0.85" stroke="#1971c2" stroke-width="1" fill="none"></path></g><g transform="translate(257.58547849074944 333.1475835170857) rotate(0 -66.27178058587015 -0.08560929270785778)"><path d="M-102.9 9.7 C-111.68 8.73, -118.29 6.13, -132.45 0 M-103.4 10.21 C-112.4 6.85, -120.93 3.87, -130.81 -0.85" stroke="#1971c2" stroke-width="1" fill="none"></path></g></g><mask></mask><g stroke-linecap="round"><g transform="translate(498.69875974074944 240.2960210170857) rotate(0 -0.3419404565356672 48.543475818820326)"><path d="M-0.43 -0.01 C0.67 20.26, 1.22 41.57, -1.58 95.9 M-0.92 -0.66 C1.18 28.18, 0.47 54.61, 0.9 97.75" stroke="#1971c2" stroke-width="1" fill="none"></path></g></g><mask></mask><g stroke-linecap="round"><g transform="translate(528.0503222407494 237.4835210170857) rotate(0 0.0984678580750824 131.759336476801)"><path d="M1.42 0.55 C-0.57 92.3, -2.81 187.23, -1.02 262.93 M-0.3 -0.38 C2.42 66.64, 2.47 133.49, 0.5 263.9" stroke="#1971c2" stroke-width="1" fill="none"></path></g></g><mask></mask><g stroke-linecap="round"><g transform="translate(498.12454099074944 335.5186772670857) rotate(0 -26.2960017262958 0.5541856004856527)"><path d="M-0.65 -0.26 C-14.27 -0.67, -23.94 1.87, -53.08 1.97 M0.49 -0.86 C-18.32 -0.64, -38.97 -0.51, -50.72 0.76" stroke="#1971c2" stroke-width="1" fill="none"></path></g><g transform="translate(498.12454099074944 335.5186772670857) rotate(0 -26.2960017262958 0.5541856004856527)"><path d="M-27.84 -9.94 C-34.58 -7.75, -37.38 -2.64, -52.32 2.74 M-26.7 -10.54 C-35.13 -6.25, -45.4 -2.24, -49.95 1.53" stroke="#1971c2" stroke-width="1" fill="none"></path></g><g transform="translate(498.12454099074944 335.5186772670857) rotate(0 -26.2960017262958 0.5541856004856527)"><path d="M-26.63 7.63 C-33.67 5.5, -36.76 6.28, -52.32 2.74 M-25.49 7.02 C-34.4 4.8, -45.12 2.28, -49.95 1.53" stroke="#1971c2" stroke-width="1" fill="none"></path></g></g><mask></mask><g stroke-linecap="round"><g transform="translate(528.1323534907494 498.6593022670857) rotate(0 -43.16521137673408 0.6219903542660177)"><path d="M-1.19 1.89 C-22.08 -1.31, -41.25 1.21, -86.06 0.41 M0.9 -0.65 C-27.14 0.82, -55.79 -0.76, -87.23 0.7" stroke="#1971c2" stroke-width="1" fill="none"></path></g><g transform="translate(528.1323534907494 498.6593022670857) rotate(0 -43.16521137673408 0.6219903542660177)"><path d="M-60.48 -8.34 C-66.88 -8.58, -71.55 -3.38, -86.3 1.11 M-58.39 -10.88 C-67.32 -6, -76.93 -4.06, -87.46 1.39" stroke="#1971c2" stroke-width="1" fill="none"></path></g><g transform="translate(528.1323534907494 498.6593022670857) rotate(0 -43.16521137673408 0.6219903542660177)"><path d="M-59.99 12.18 C-66.48 6.9, -71.26 7.06, -86.3 1.11 M-57.9 9.63 C-67.12 7.9, -76.89 3.23, -87.46 1.39" stroke="#1971c2" stroke-width="1" fill="none"></path></g></g><mask></mask><g stroke-linecap="round"><g transform="translate(437.15969724074944 311.5772710170857) rotate(0 18.279485957231373 0.7207072237341379)"><path d="M1.2 1.65 C12.57 0.16, 23.38 1.14, 36.6 0.29 M-0.04 0.53 C13.41 -1.17, 26.94 0.55, 36.32 0.83" stroke="#1971c2" stroke-width="1" fill="none"></path></g></g><mask></mask><g stroke-linecap="round"><g transform="translate(445.01907224074944 513.8428960170856) rotate(0 51.24681252846494 -0.17976407680455964)"><path d="M-0.29 -1.24 C39.03 -2.29, 79.4 -0.24, 101.51 1.17 M0.67 -0.39 C23.92 -1.26, 49.7 -0.79, 102.79 -0.81" stroke="#1971c2" stroke-width="1" fill="none"></path></g></g><mask></mask><g stroke-linecap="round"><g transform="translate(475.24172849074944 311.7061772670857) rotate(0 0.005583947524428368 -35.69555029831827)"><path d="M1.65 0.72 C-1.99 -26.52, 0.29 -52.66, -1.64 -72.11 M-0.61 -0.06 C0.71 -21.4, 0.48 -42.62, -0.88 -71.2" stroke="#1971c2" stroke-width="1" fill="none"></path></g><g transform="translate(475.24172849074944 311.7061772670857) rotate(0 0.005583947524428368 -35.69555029831827)"><path d="M12.1 -42.7 C4.49 -54.41, 2.68 -65.12, -2.52 -72.83 M9.83 -43.47 C7.41 -51.69, 3.72 -59.88, -1.75 -71.92" stroke="#1971c2" stroke-width="1" fill="none"></path></g><g transform="translate(475.24172849074944 311.7061772670857) rotate(0 0.005583947524428368 -35.69555029831827)"><path d="M-8.41 -41.92 C-8.61 -54.08, -3 -65.07, -2.52 -72.83 M-10.67 -42.7 C-6.83 -51.29, -4.25 -59.72, -1.75 -71.92" stroke="#1971c2" stroke-width="1" fill="none"></path></g></g><mask></mask><g stroke-linecap="round"><g transform="translate(546.4253222407494 513.7413335170856) rotate(0 0.0002408028582294719 -137.53332058795522)"><path d="M-0.56 1.11 C2.04 -100.41, -0.07 -202, -1.13 -274.88 M0.21 -0.67 C1.64 -75.46, 1.33 -151.74, -0.24 -276.18" stroke="#1971c2" stroke-width="1" fill="none"></path></g><g transform="translate(546.4253222407494 513.7413335170856) rotate(0 0.0002408028582294719 -137.53332058795522)"><path d="M9.59 -246.66 C7.9 -258.38, 1.33 -270.12, -1.69 -274.68 M10.59 -248.97 C7.32 -254.88, 4 -262.79, -0.54 -276.35" stroke="#1971c2" stroke-width="1" fill="none"></path></g><g transform="translate(546.4253222407494 513.7413335170856) rotate(0 0.0002408028582294719 -137.53332058795522)"><path d="M-10.93 -246.44 C-5.15 -258.1, -4.26 -269.91, -1.69 -274.68 M-9.93 -248.75 C-7.54 -254.86, -5.2 -262.83, -0.54 -276.35" stroke="#1971c2" stroke-width="1" fill="none"></path></g></g><mask></mask><g stroke-linecap="round"><g transform="translate(184.80422849074944 360.2061772670857) rotate(0 32.470606034621596 0.5973370120620416)"><path d="M0.69 1.81 C15.56 1.35, 31.22 -1.52, 64.25 -0.33" stroke="#1971c2" stroke-width="1.5" fill="none" stroke-dasharray="8 9"></path></g><g transform="translate(184.80422849074944 360.2061772670857) rotate(0 32.470606034621596 0.5973370120620416)"><path d="M36.69 11.58 C42.65 8.73, 49.37 3.47, 62.52 -0.65" stroke="#1971c2" stroke-width="1.5" fill="none"></path></g><g transform="translate(184.80422849074944 360.2061772670857) rotate(0 32.470606034621596 0.5973370120620416)"><path d="M36.81 -8.94 C42.68 -6.92, 49.37 -7.33, 62.52 -0.65" stroke="#1971c2" stroke-width="1.5" fill="none"></path></g></g><mask></mask><g stroke-linecap="round"><g transform="translate(241.92922849074944 372.8233647670857) rotate(0 -28.416432792320848 1.5513793862419618)"><path d="M0.63 1.74 C-22.78 1.02, -41.83 1.56, -57.46 1.46" stroke="#1971c2" stroke-width="1.5" fill="none" stroke-dasharray="8 9"></path></g><g transform="translate(241.92922849074944 372.8233647670857) rotate(0 -28.416432792320848 1.5513793862419618)"><path d="M-30 -6.63 C-41.88 -3.6, -49.43 0.67, -57.76 2.92" stroke="#1971c2" stroke-width="1.5" fill="none"></path></g><g transform="translate(241.92922849074944 372.8233647670857) rotate(0 -28.416432792320848 1.5513793862419618)"><path d="M-29.95 12.92 C-41.91 8.54, -49.47 5.4, -57.76 2.92" stroke="#1971c2" stroke-width="1.5" fill="none"></path></g></g><mask></mask></svg>