<svg version="1.1" xmlns="http://www.w3.org/2000/svg" viewBox="0 0 838.9639257314989 391.3928232841714" width="838.9639257314989" height="391.3928232841714">
  <!-- svg-source:excalidraw -->
  
  <defs>
    <style class="style-fonts">
      @font-face {
        font-family: "Virgil";
        src: url("https://excalidraw.com/Virgil.woff2");
      }
      @font-face {
        font-family: "Cascadia";
        src: url("https://excalidraw.com/Cascadia.woff2");
      }
    </style>
    
  </defs>
  <rect x="0" y="0" width="838.9639257314989" height="391.3928232841714" fill="#ffffff"></rect><g stroke-linecap="round" transform="translate(10 80.64561078449265) rotate(0 184.4665659629988 150.37360624983938)"><path d="M0.96 0.22 L367.19 -1.38 L367.16 300.45 L-1.93 302.66" stroke="none" stroke-width="0" fill="#fff"></path><path d="M0.71 0.96 C116.77 -0.16, 235.28 -0.22, 367.91 -0.83 M-0.2 0.45 C107.69 -0.05, 216.69 0.64, 368.99 0.6 M367.81 -0.13 C368.15 90.39, 369.4 181.37, 369.83 301.2 M368.58 0.15 C371.31 76.48, 370.37 153.87, 368.88 300.68 M369.64 299.6 C290.08 303.61, 208.64 301.43, 0.44 300.05 M368.83 301.11 C221.35 301.71, 73.72 301.8, 0.15 300.5 M1.06 300.51 C-0.89 202.35, -0.1 102.83, 0.18 -0.48 M0.56 300.89 C1.01 188.65, 1.09 76.55, -0.51 0.73" stroke="#000000" stroke-width="1" fill="none"></path></g><g stroke-linecap="round" transform="translate(531.6909500555014 71.07170625016062) rotate(0 148.63648783799874 150.3736062498394)"><path d="M-1.82 -0.75 L299.24 1.62 L295.49 301.3 L-1 301.2" stroke="none" stroke-width="0" fill="#fff"></path><path d="M-0.91 -0.3 C91.52 -0.09, 184.53 -1.76, 296.99 -0.77 M0.2 -0.72 C73.37 -1.51, 148.38 -2.23, 297.09 -0.73 M296.31 1.19 C297.5 93.19, 296.03 185.26, 295.99 300.09 M297.83 -0.73 C298.95 114.9, 299.72 228.52, 296.6 301.08 M298.15 299.75 C200.7 300.72, 104.66 300.62, -0.54 300.88 M297.44 301.21 C229.71 301.92, 161.82 301.57, -0.7 300.63 M1.03 301.06 C-0.36 235.26, -1.44 172.06, 0.45 -1.44 M-0.59 300.99 C-1.08 212.25, -0.15 124.36, -0.72 0.06" stroke="#000000" stroke-width="1" fill="none"></path></g><g transform="translate(44.612594143500246 23.31640625) rotate(0 38.39996337890625 12.5)"><text x="0" y="0" font-family="Virgil, Segoe UI Emoji" font-size="20px" fill="#0000" text-anchor="start" style="white-space: pre;" direction="ltr" dominant-baseline="text-before-edge">Browser</text></g><g transform="translate(96.03056289350025 14.7578125) rotate(0 38.39996337890625 12.5)"><text x="0" y="0" font-family="Virgil, Segoe UI Emoji" font-size="20px" fill="#1e1e1e" text-anchor="start" style="white-space: pre;" direction="ltr" dominant-baseline="text-before-edge">Browser</text></g><g transform="translate(616.1711878935002 10) rotate(0 52.37995147705078 12.5)"><text x="0" y="0" font-family="Virgil, Segoe UI Emoji" font-size="20px" fill="#1e1e1e" text-anchor="start" style="white-space: pre;" direction="ltr" dominant-baseline="text-before-edge">Vuu Server</text></g><g transform="translate(235.21806289350025 86.44921875) rotate(0 64.3759765625 10)"><text x="0" y="0" font-family="Virgil, Segoe UI Emoji" font-size="16px" fill="#1e1e1e" text-anchor="start" style="white-space: pre;" direction="ltr" dominant-baseline="text-before-edge">connectToServer</text></g><g stroke-linecap="round" transform="translate(220.9351248204283 203.08485343475553) rotate(0 59.02282092802744 8.32578502228904)"><path d="M118.05 8.33 C118.05 8.72, 117.84 9.12, 117.44 9.51 C117.05 9.9, 116.44 10.29, 115.65 10.67 C114.87 11.05, 113.88 11.43, 112.71 11.78 C111.55 12.14, 110.19 12.49, 108.68 12.83 C107.16 13.16, 105.46 13.48, 103.63 13.78 C101.8 14.08, 99.79 14.36, 97.67 14.62 C95.56 14.88, 93.29 15.12, 90.93 15.33 C88.58 15.54, 86.09 15.74, 83.54 15.9 C80.99 16.06, 78.34 16.2, 75.65 16.31 C72.96 16.43, 70.19 16.51, 67.42 16.57 C64.65 16.62, 61.82 16.65, 59.02 16.65 C56.22 16.65, 53.39 16.62, 50.62 16.57 C47.85 16.51, 45.08 16.43, 42.39 16.31 C39.71 16.2, 37.05 16.06, 34.5 15.9 C31.96 15.74, 29.47 15.54, 27.11 15.33 C24.76 15.12, 22.49 14.88, 20.37 14.62 C18.26 14.36, 16.25 14.08, 14.42 13.78 C12.58 13.48, 10.88 13.16, 9.37 12.83 C7.86 12.49, 6.5 12.14, 5.33 11.78 C4.17 11.43, 3.18 11.05, 2.39 10.67 C1.6 10.29, 1 9.9, 0.6 9.51 C0.2 9.12, 0 8.72, 0 8.33 C0 7.93, 0.2 7.53, 0.6 7.14 C1 6.75, 1.6 6.36, 2.39 5.98 C3.18 5.6, 4.17 5.23, 5.33 4.87 C6.5 4.51, 7.86 4.16, 9.37 3.82 C10.88 3.49, 12.58 3.17, 14.42 2.87 C16.25 2.58, 18.26 2.29, 20.37 2.03 C22.49 1.77, 24.76 1.54, 27.11 1.32 C29.47 1.11, 31.96 0.92, 34.5 0.75 C37.05 0.59, 39.71 0.45, 42.39 0.34 C45.08 0.23, 47.85 0.14, 50.62 0.08 C53.39 0.03, 56.22 0, 59.02 0 C61.82 0, 64.65 0.03, 67.42 0.08 C70.19 0.14, 72.96 0.23, 75.65 0.34 C78.34 0.45, 80.99 0.59, 83.54 0.75 C86.09 0.92, 88.58 1.11, 90.93 1.32 C93.29 1.54, 95.56 1.77, 97.67 2.03 C99.79 2.29, 101.8 2.58, 103.63 2.87 C105.46 3.17, 107.16 3.49, 108.68 3.82 C110.19 4.16, 111.55 4.51, 112.71 4.87 C113.88 5.23, 114.87 5.6, 115.65 5.98 C116.44 6.36, 117.05 6.75, 117.44 7.14 C117.84 7.53, 117.95 8.13, 118.05 8.33 C118.15 8.52, 118.15 8.13, 118.05 8.33" stroke="#000000" stroke-width="1" fill="none"></path></g><g stroke-linecap="round" transform="translate(220.82544305347164 268.1995469378793) rotate(0 59.126687854228805 11.199596688682618)"><path d="M118.25 11.2 C118.25 11.73, 118.05 12.27, 117.65 12.79 C117.25 13.32, 116.65 13.85, 115.86 14.35 C115.07 14.86, 114.08 15.37, 112.91 15.85 C111.75 16.34, 110.38 16.81, 108.87 17.25 C107.35 17.7, 105.65 18.13, 103.81 18.53 C101.97 18.94, 99.97 19.32, 97.85 19.66 C95.73 20.01, 93.45 20.33, 91.09 20.62 C88.73 20.91, 86.24 21.17, 83.69 21.39 C81.14 21.61, 78.48 21.8, 75.78 21.95 C73.09 22.1, 70.32 22.21, 67.54 22.29 C64.76 22.36, 61.93 22.4, 59.13 22.4 C56.32 22.4, 53.49 22.36, 50.71 22.29 C47.94 22.21, 45.16 22.1, 42.47 21.95 C39.78 21.8, 37.12 21.61, 34.56 21.39 C32.01 21.17, 29.52 20.91, 27.16 20.62 C24.8 20.33, 22.53 20.01, 20.41 19.66 C18.29 19.32, 16.28 18.94, 14.44 18.53 C12.6 18.13, 10.9 17.7, 9.39 17.25 C7.87 16.81, 6.51 16.34, 5.34 15.85 C4.18 15.37, 3.19 14.86, 2.4 14.35 C1.6 13.85, 1 13.32, 0.6 12.79 C0.2 12.27, 0 11.73, 0 11.2 C0 10.67, 0.2 10.13, 0.6 9.61 C1 9.08, 1.6 8.55, 2.4 8.04 C3.19 7.53, 4.18 7.03, 5.34 6.55 C6.51 6.06, 7.87 5.59, 9.39 5.14 C10.9 4.7, 12.6 4.27, 14.44 3.87 C16.28 3.46, 18.29 3.08, 20.41 2.74 C22.53 2.39, 24.8 2.07, 27.16 1.78 C29.52 1.49, 32.01 1.23, 34.56 1.01 C37.12 0.79, 39.78 0.6, 42.47 0.45 C45.16 0.3, 47.94 0.19, 50.71 0.11 C53.49 0.04, 56.32 0, 59.13 0 C61.93 0, 64.76 0.04, 67.54 0.11 C70.32 0.19, 73.09 0.3, 75.78 0.45 C78.48 0.6, 81.14 0.79, 83.69 1.01 C86.24 1.23, 88.73 1.49, 91.09 1.78 C93.45 2.07, 95.73 2.39, 97.85 2.74 C99.97 3.08, 101.97 3.46, 103.81 3.87 C105.65 4.27, 107.35 4.7, 108.87 5.14 C110.38 5.59, 111.75 6.06, 112.91 6.55 C114.08 7.03, 115.07 7.53, 115.86 8.04 C116.65 8.55, 117.25 9.08, 117.65 9.61 C118.05 10.13, 118.15 10.93, 118.25 11.2 C118.35 11.47, 118.35 10.93, 118.25 11.2" stroke="#000000" stroke-width="1" fill="none"></path></g><g stroke-linecap="round" transform="translate(222.43540016132852 260.52819524121503) rotate(0 57.59935857988597 7.425551648047559)"><path d="M0 0 L115.2 0 L115.2 14.85 L0 14.85" stroke="none" stroke-width="0" fill="#fff"></path><path d="M0 0 C44.31 0, 88.63 0, 115.2 0 M0 0 C32.84 0, 65.68 0, 115.2 0 M115.2 0 C115.2 4.92, 115.2 9.84, 115.2 14.85 M115.2 0 C115.2 3.79, 115.2 7.59, 115.2 14.85 M115.2 14.85 C76.38 14.85, 37.55 14.85, 0 14.85 M115.2 14.85 C79.89 14.85, 44.58 14.85, 0 14.85 M0 14.85 C0 10.75, 0 6.66, 0 0 M0 14.85 C0 9.12, 0 3.4, 0 0" stroke="#ffff" stroke-width="4" fill="none"></path></g><g stroke-linecap="round"><g transform="translate(338.89215703887953 211.25454465834747) rotate(0 0.18994268257370095 34.04534397157383)"><path d="M0 0 C0.06 11.35, 0.32 56.74, 0.38 68.09 M0 0 C0.06 11.35, 0.32 56.74, 0.38 68.09" stroke="#000000" stroke-width="1" fill="none"></path></g></g><mask></mask><g stroke-linecap="round"><g transform="translate(221.07009314261495 211.7451251685394) rotate(0 -0.10562738257760884 34.3242047874071)"><path d="M0 0 C-0.04 11.44, -0.18 57.21, -0.21 68.65 M0 0 C-0.04 11.44, -0.18 57.21, -0.21 68.65" stroke="#000000" stroke-width="1" fill="none"></path></g></g><mask></mask><g transform="translate(17.479781643500246 51.83984375) rotate(0 32.17595672607422 10)"><text x="0" y="0" font-family="Virgil, Segoe UI Emoji" font-size="16px" fill="#1e1e1e" text-anchor="start" style="white-space: pre;" direction="ltr" dominant-baseline="text-before-edge">MyApp.js</text></g><g transform="translate(532.3782191435002 46.3125) rotate(0 78.66394805908203 10)"><text x="0" y="0" font-family="Virgil, Segoe UI Emoji" font-size="16px" fill="#1e1e1e" text-anchor="start" style="white-space: pre;" direction="ltr" dominant-baseline="text-before-edge">MyApp Vuu Instance</text></g><g stroke-linecap="round" transform="translate(34.616500393500246 193.30078125) rotate(0 62.111328125 77.193359375)"><path d="M1.59 -1.46 L125.38 1.09 L123.33 152.59 L-0.43 155" stroke="none" stroke-width="0" fill="#fff"></path><path d="M-0.25 -1.67 C39.45 2.64, 82.77 1.3, 122.34 -1.25 M0.34 0.38 C33.91 -2.18, 69.46 -0.64, 124.56 -0.21 M122.51 -1.46 C123.86 34.42, 122.65 68.89, 125.39 153.95 M123.66 -0.04 C123.33 39.45, 123.96 80.08, 124.97 154.63 M126.07 153.68 C75.21 152.39, 26.56 153.57, 1.93 154.36 M124.81 155.23 C82.97 154.72, 40.78 154.93, -0.66 155.19 M0.54 154.09 C2.53 106.77, 1.09 61.14, -0.74 -1.03 M-0.85 154.7 C1.03 114.5, -0.58 72.23, -0.89 -0.96" stroke="#1e1e1e" stroke-width="1" fill="none"></path></g><g stroke-linecap="round"><g transform="translate(36.616500393500246 214.69921875) rotate(0 61.18292099516839 -0.27776922354368594)"><path d="M1.64 -0.25 C28.34 1.06, 52.62 -2.36, 121.34 0.01 M0.67 -0.84 C47.31 -0.91, 93.44 -1, 121.69 0.32" stroke="#1e1e1e" stroke-width="1" fill="none"></path></g></g><mask></mask><g stroke-linecap="round"><g transform="translate(62.218062893500246 196.24609375) rotate(0 -0.3426353676161966 73.16014268435538)"><path d="M-1.65 -1.69 C2.73 53.16, 0.37 103.04, -0.02 148.01 M0.95 -0.03 C-0.95 48.44, -2 96.63, 0.65 145.89" stroke="#1e1e1e" stroke-width="1" fill="none"></path></g></g><mask></mask><g stroke-linecap="round"><g transform="translate(88.43290664350025 194.7890625) rotate(0 -0.5990664787982496 73.72638569492847)"><path d="M-1.54 0.42 C-1.27 55.57, 1.09 105.79, 0.1 147.47 M-0.34 -0.87 C-0.42 53.19, -0.54 104.24, -0.8 148.32" stroke="#1e1e1e" stroke-width="1" fill="none"></path></g></g><mask></mask><g stroke-linecap="round"><g transform="translate(115.36259414350025 196.3984375) rotate(0 -0.5322634861804545 73.51130557339638)"><path d="M-0.51 -0.54 C-1.5 42.28, 0.84 87.25, -1.59 146.55 M-0.06 -0.95 C0.96 44.65, -0.62 89.58, 0.53 147.97" stroke="#1e1e1e" stroke-width="1" fill="none"></path></g></g><mask></mask><g stroke-linecap="round"><g transform="translate(140.01884414350025 195.5625) rotate(0 -0.05074893217533827 77.36905739316717)"><path d="M-0.47 0.86 C0.81 44.37, 0.02 91.5, -0.13 155.21 M-0.99 -0.48 C-0.33 34.74, 0.08 68.84, 0.89 152.7" stroke="#1e1e1e" stroke-width="1" fill="none"></path></g></g><mask></mask><g transform="translate(213.15556289350025 173.11328125) rotate(0 75.29596710205078 10)"><text x="0" y="0" font-family="Virgil, Segoe UI Emoji" font-size="16px" fill="#1e1e1e" text-anchor="start" style="white-space: pre;" direction="ltr" dominant-baseline="text-before-edge">RemoteDataSource</text></g><g transform="translate(29.542281643500246 169.8125) rotate(0 73.29595184326172 10)"><text x="0" y="0" font-family="Virgil, Segoe UI Emoji" font-size="16px" fill="#1e1e1e" text-anchor="start" style="white-space: pre;" direction="ltr" dominant-baseline="text-before-edge">Instruments Table</text></g><g stroke-linecap="round"><g transform="translate(166.01884414350025 232.58203125) rotate(0 26.021331262774765 -0.38207791585506357)"><path d="M0.44 -0.55 C12.11 -0.54, 24.78 -1.72, 52.23 0.14 M-0.62 -0.81 C12.65 -0.71, 25.8 -0.84, 52.66 -0.8" stroke="#1e1e1e" stroke-width="1" fill="none"></path></g><g transform="translate(166.01884414350025 232.58203125) rotate(0 26.021331262774765 -0.38207791585506357)"><path d="M28.15 7.73 C33.29 5.54, 39.42 2.26, 51.79 -0.65 M27.09 7.47 C33.83 5.39, 40.39 3.13, 52.22 -1.59" stroke="#1e1e1e" stroke-width="1" fill="none"></path></g><g transform="translate(166.01884414350025 232.58203125) rotate(0 26.021331262774765 -0.38207791585506357)"><path d="M28.15 -10.43 C33.27 -8.4, 39.4 -7.47, 51.79 -0.65 M27.1 -10.69 C33.72 -8.52, 40.28 -6.53, 52.22 -1.59" stroke="#1e1e1e" stroke-width="1" fill="none"></path></g></g><mask></mask><g stroke-linecap="round"><g transform="translate(218.41337539350025 258.9375) rotate(0 -25.936782712116838 -0.46637597160312794)"><path d="M1.9 -1.15 C-18.1 1.51, -36.47 -0.63, -53.78 -0.08 M-0.15 -0.24 C-15.66 -0.44, -32.1 0.14, -53.07 -0.53" stroke="#1e1e1e" stroke-width="1" fill="none"></path></g><g transform="translate(218.41337539350025 258.9375) rotate(0 -25.936782712116838 -0.46637597160312794)"><path d="M-26.12 -10.29 C-36.87 -4.95, -45.91 -4.21, -53.87 -0.61 M-28.17 -9.38 C-35.17 -7.03, -43.11 -3.83, -53.17 -1.05" stroke="#1e1e1e" stroke-width="1" fill="none"></path></g><g transform="translate(218.41337539350025 258.9375) rotate(0 -25.936782712116838 -0.46637597160312794)"><path d="M-26.45 7.83 C-36.91 7.11, -45.84 1.79, -53.87 -0.61 M-28.49 8.73 C-35.43 5.57, -43.27 3.26, -53.17 -1.05" stroke="#1e1e1e" stroke-width="1" fill="none"></path></g></g><mask></mask><g stroke-linecap="round"><g transform="translate(371.17900039350025 97.421875) rotate(0 82.8935990985483 0.14891238378031346)"><path d="M-1.01 1.82 C64.91 -1.2, 130.85 -2.47, 166.8 -0.75 M0.77 0.89 C35.04 -0.34, 71.11 0.38, 166.53 -0.28" stroke="#1e1e1e" stroke-width="1" fill="none"></path></g><g transform="translate(371.17900039350025 97.421875) rotate(0 82.8935990985483 0.14891238378031346)"><path d="M137.37 11.93 C149.01 5.82, 160.74 0.51, 165.91 -1.03 M139.15 10.99 C143.87 7.35, 150.36 5.87, 165.64 -0.55" stroke="#1e1e1e" stroke-width="1" fill="none"></path></g><g transform="translate(371.17900039350025 97.421875) rotate(0 82.8935990985483 0.14891238378031346)"><path d="M137.28 -8.59 C149.08 -6.71, 160.85 -4.04, 165.91 -1.03 M139.06 -9.53 C143.74 -8.81, 150.25 -5.94, 165.64 -0.55" stroke="#1e1e1e" stroke-width="1" fill="none"></path></g></g><mask></mask><g stroke-linecap="round"><g transform="translate(530.6909500555014 122.39343792588807) rotate(0 -64.14882120391042 0.9879784820174677)"><path d="M0.3 0.99 C-37.45 -0.18, -79.87 0.1, -128.34 0.07 M0.71 -0.43 C-37.8 0.97, -75.81 1.21, -129.01 2.41" stroke="#1e1e1e" stroke-width="1" fill="none"></path></g><g transform="translate(530.6909500555014 122.39343792588807) rotate(0 -64.14882120391042 0.9879784820174677)"><path d="M-100.73 -7.42 C-107.97 -6.04, -119.91 -3, -129 0.75 M-100.32 -8.84 C-109.46 -5.21, -118.05 -2.31, -129.68 3.08" stroke="#1e1e1e" stroke-width="1" fill="none"></path></g><g transform="translate(530.6909500555014 122.39343792588807) rotate(0 -64.14882120391042 0.9879784820174677)"><path d="M-100.32 13.1 C-107.75 8.25, -119.82 5.06, -129 0.75 M-99.91 11.68 C-109.02 9.29, -117.73 6.18, -129.68 3.08" stroke="#1e1e1e" stroke-width="1" fill="none"></path></g></g><mask></mask><g transform="translate(282.55790664350025 114.0625) rotate(0 37.759986877441406 10)"><text x="0" y="0" font-family="Virgil, Segoe UI Emoji" font-size="16px" fill="#1e1e1e" text-anchor="start" style="white-space: pre;" direction="ltr" dominant-baseline="text-before-edge">connected</text></g><g stroke-linecap="round"><g transform="translate(382.00618921861724 124.63060871040216) rotate(0 -6.840853667459328 0.32251628959784284)" fill-rule="evenodd"><path d="M0 0 L3.93 -4.62 L-6.7 -7.3 L-5.08 -15.89 L-17.61 -2.45 L-9.25 -0.22 L-13.74 16.53 L-3.74 4.69" stroke="none" stroke-width="0" fill="#ff00" fill-rule="evenodd"></path><path d="M0 0 C0.85 -1, 1.71 -2, 3.93 -4.62 M0 0 C1.3 -1.52, 2.59 -3.04, 3.93 -4.62 M3.93 -4.62 C-0.29 -5.68, -4.51 -6.75, -6.7 -7.3 M3.93 -4.62 C0.2 -5.56, -3.54 -6.5, -6.7 -7.3 M-6.7 -7.3 C-6.37 -9.07, -6.03 -10.84, -5.08 -15.89 M-6.7 -7.3 C-6.25 -9.67, -5.8 -12.05, -5.08 -15.89 M-5.08 -15.89 C-8.24 -12.49, -11.41 -9.1, -17.61 -2.45 M-5.08 -15.89 C-7.8 -12.97, -10.52 -10.06, -17.61 -2.45 M-17.61 -2.45 C-15.89 -1.99, -14.16 -1.53, -9.25 -0.22 M-17.61 -2.45 C-15.48 -1.88, -13.35 -1.31, -9.25 -0.22 M-9.25 -0.22 C-10.41 4.09, -11.56 8.4, -13.74 16.53 M-9.25 -0.22 C-10.79 5.53, -12.33 11.27, -13.74 16.53 M-13.74 16.53 C-11.12 13.43, -8.5 10.33, -3.74 4.69 M-13.74 16.53 C-10.75 12.99, -7.76 9.44, -3.74 4.69 M-3.74 4.69 C-2.99 3.74, -2.23 2.79, 0 0 M-3.74 4.69 C-2.6 3.26, -1.46 1.83, 0 0" stroke="#f08c00" stroke-width="4" fill="none"></path></g></g><mask></mask><g stroke-linecap="round"><g transform="translate(378.0631449290114 122.241610054398) rotate(0 -0.8001333829443524 1.400266852814184)"><path d="M0 0 C-0.55 0.97, -1.11 1.93, -1.6 2.8 M0 0 C-0.46 0.8, -0.91 1.6, -1.6 2.8" stroke="#f08c00" stroke-width="4" fill="none"></path></g></g><mask></mask><g stroke-linecap="round"><g transform="translate(348.03837539350025 226.61328125) rotate(0 87.57869419595227 -2.3612693486069816)"><path d="M-0.34 -0.65 C44.23 -3.44, 86.6 -3.21, 175.3 -4.79 M0.49 -0.17 C34.72 0.6, 70.31 -0.53, 175.5 -3.03" stroke="#1e1e1e" stroke-width="1" fill="none"></path></g><g transform="translate(348.03837539350025 226.61328125) rotate(0 87.57869419595227 -2.3612693486069816)"><path d="M147.22 7.25 C156.08 4.07, 162.7 2.49, 176 -4.35 M148.05 7.73 C152.38 5.87, 158.05 3.22, 176.2 -2.6" stroke="#1e1e1e" stroke-width="1" fill="none"></path></g><g transform="translate(348.03837539350025 226.61328125) rotate(0 87.57869419595227 -2.3612693486069816)"><path d="M146.73 -13.27 C155.63 -11.46, 162.38 -8.04, 176 -4.35 M147.56 -12.79 C151.98 -10.46, 157.76 -8.94, 176.2 -2.6" stroke="#1e1e1e" stroke-width="1" fill="none"></path></g></g><mask></mask><g stroke-linecap="round"><g transform="translate(523.8040003935002 257.9453125) rotate(0 -89.49688540259376 0.6924800239414992)"><path d="M-1.88 1.44 C-57.69 0.14, -113.74 -0.73, -178.97 1.02 M-0.03 -0.01 C-63.17 -0.15, -125.93 0, -178.22 1.19" stroke="#1e1e1e" stroke-width="1" fill="none"></path></g><g transform="translate(523.8040003935002 257.9453125) rotate(0 -89.49688540259376 0.6924800239414992)"><path d="M-152.07 -8.09 C-160.31 -5.74, -168.7 -3.45, -178.75 1.45 M-150.22 -9.54 C-160.52 -5.06, -170.47 -1.41, -177.99 1.62" stroke="#1e1e1e" stroke-width="1" fill="none"></path></g><g transform="translate(523.8040003935002 257.9453125) rotate(0 -89.49688540259376 0.6924800239414992)"><path d="M-151.74 12.43 C-159.92 8.27, -168.41 4.06, -178.75 1.45 M-149.89 10.98 C-160.38 8.25, -170.45 4.7, -177.99 1.62" stroke="#1e1e1e" stroke-width="1" fill="none"></path></g></g><mask></mask><g transform="translate(235.30790664350025 229.609375) rotate(0 46.98396301269531 20)"><text x="0" y="0" font-family="Virgil, Segoe UI Emoji" font-size="16px" fill="#1e1e1e" text-anchor="start" style="white-space: pre;" direction="ltr" dominant-baseline="text-before-edge">Table: </text><text x="0" y="20" font-family="Virgil, Segoe UI Emoji" font-size="16px" fill="#1e1e1e" text-anchor="start" style="white-space: pre;" direction="ltr" dominant-baseline="text-before-edge">Instruments</text></g></svg>