<svg version="1.1" xmlns="http://www.w3.org/2000/svg" viewBox="0 0 993.8428319814989 599.5686045341713" width="1987.6856639629978" height="1199.1372090683426">
  <!-- svg-source:excalidraw -->
  
  <defs>
    <style class="style-fonts">
      @font-face {
        font-family: "Virgil";
        src: url("https://excalidraw.com/Virgil.woff2");
      }
      @font-face {
        font-family: "Cascadia";
        src: url("https://excalidraw.com/Cascadia.woff2");
      }
    </style>
    
  </defs>
  <rect x="0" y="0" width="993.8428319814989" height="599.5686045341713" fill="#ffffff"></rect><g stroke-linecap="round" transform="translate(10 85.07139203449265) rotate(0 221.54469096299874 252.24860624983933)"><path d="M0.96 0.22 L441.34 -1.38 L441.32 504.2 L-1.93 506.41" stroke="none" stroke-width="0" fill="#fff"></path><path d="M0.57 0.76 C140.57 -0.16, 282.52 -0.21, 442.27 -0.66 M-0.16 0.36 C129.58 0, 260.22 0.55, 443.13 0.48 M442.47 -0.07 C442.76 151.3, 443.44 302.92, 443.58 504.75 M442.9 0.08 C445.1 128.45, 444.58 257.4, 443.06 504.46 M443.66 503.58 C347.99 507.09, 250.81 505.35, 0.35 503.94 M443.01 504.79 C265.92 505.39, 88.72 505.46, 0.12 504.3 M0.58 504.37 C-0.52 338.73, -0.09 172.35, 0.1 -0.26 M0.3 504.58 C0.96 316.21, 1 127.91, -0.28 0.4" stroke="#1971c2" stroke-width="1" fill="none"></path></g><g stroke-linecap="round" transform="translate(686.5698563055014 76.35686250016062) rotate(0 148.63648783799874 233.3364968748394)"><path d="M-1.82 -0.75 L299.24 1.62 L295.49 467.23 L-1 467.13" stroke="none" stroke-width="0" fill="#fff"></path><path d="M-0.91 -0.3 C91.52 -0.09, 184.53 -1.76, 296.99 -0.77 M0.2 -0.72 C73.37 -1.51, 148.38 -2.23, 297.09 -0.73 M296.67 0.74 C297.23 143.66, 296.32 286.62, 296.47 466.27 M297.62 -0.46 C298.97 177.94, 299.45 355.08, 296.85 466.88 M298.15 465.67 C200.7 466.64, 104.66 466.54, -0.54 466.81 M297.44 467.13 C229.71 467.84, 161.82 467.49, -0.7 466.56 M0.64 466.87 C-0.54 365.98, -1.21 266.7, 0.28 -0.9 M-0.37 466.82 C-0.86 329.63, -0.29 192.96, -0.45 0.04" stroke="#1971c2" stroke-width="1" fill="none"></path></g><g transform="translate(46.647750393500246 28.23046875) rotate(0 38.39996337890625 12.5)"><text x="0" y="0" font-family="Virgil, Segoe UI Emoji" font-size="20px" fill="#0000" text-anchor="start" style="white-space: pre;" direction="ltr" dominant-baseline="text-before-edge">Browser</text></g><g transform="translate(98.06571914350025 19.671875) rotate(0 38.39996337890625 12.5)"><text x="0" y="0" font-family="Virgil, Segoe UI Emoji" font-size="20px" fill="#1971c2" text-anchor="start" style="white-space: pre;" direction="ltr" dominant-baseline="text-before-edge">Browser</text></g><g transform="translate(783.3079066435002 10) rotate(0 30.84996795654297 12.5)"><text x="0" y="0" font-family="Virgil, Segoe UI Emoji" font-size="20px" fill="#1971c2" text-anchor="start" style="white-space: pre;" direction="ltr" dominant-baseline="text-before-edge">Server</text></g><g transform="translate(237.25321914350025 91.36328125) rotate(0 64.3759765625 10)"><text x="0" y="0" font-family="Virgil, Segoe UI Emoji" font-size="16px" fill="#1e1e1e" text-anchor="start" style="white-space: pre;" direction="ltr" dominant-baseline="text-before-edge">connectToServer</text></g><g transform="translate(19.514937893500246 56.75390625) rotate(0 32.17595672607422 10)"><text x="0" y="0" font-family="Virgil, Segoe UI Emoji" font-size="16px" fill="#1971c2" text-anchor="start" style="white-space: pre;" direction="ltr" dominant-baseline="text-before-edge">MyApp.js</text></g><g transform="translate(748.4133753935002 51.2265625) rotate(0 78.66394805908203 10)"><text x="0" y="0" font-family="Virgil, Segoe UI Emoji" font-size="16px" fill="#1971c2" text-anchor="start" style="white-space: pre;" direction="ltr" dominant-baseline="text-before-edge">MyApp Vuu Instance</text></g><g stroke-linecap="round" transform="translate(36.651656643500246 198.21484375) rotate(0 62.111328125 77.193359375)"><path d="M1.59 -1.46 L125.38 1.09 L123.33 152.59 L-0.43 155" stroke="none" stroke-width="0" fill="#fff"></path><path d="M-0.25 -1.67 C39.45 2.64, 82.77 1.3, 122.34 -1.25 M0.34 0.38 C33.91 -2.18, 69.46 -0.64, 124.56 -0.21 M122.51 -1.46 C123.86 34.42, 122.65 68.89, 125.39 153.95 M123.66 -0.04 C123.33 39.45, 123.96 80.08, 124.97 154.63 M126.07 153.68 C75.21 152.39, 26.56 153.57, 1.93 154.36 M124.81 155.23 C82.97 154.72, 40.78 154.93, -0.66 155.19 M0.54 154.09 C2.53 106.77, 1.09 61.14, -0.74 -1.03 M-0.85 154.7 C1.03 114.5, -0.58 72.23, -0.89 -0.96" stroke="#1971c2" stroke-width="1" fill="none"></path></g><g stroke-linecap="round"><g transform="translate(38.651656643500246 219.61328125) rotate(0 61.18292099516839 -0.27776922354368594)"><path d="M1.64 -0.25 C28.34 1.06, 52.62 -2.36, 121.34 0.01 M0.67 -0.84 C47.31 -0.91, 93.44 -1, 121.69 0.32" stroke="#1971c2" stroke-width="1" fill="none"></path></g></g><mask></mask><g stroke-linecap="round"><g transform="translate(64.25321914350025 201.16015625) rotate(0 -0.3426353676161966 73.16014268435538)"><path d="M-1.65 -1.69 C2.73 53.16, 0.37 103.04, -0.02 148.01 M0.95 -0.03 C-0.95 48.44, -2 96.63, 0.65 145.89" stroke="#1971c2" stroke-width="1" fill="none"></path></g></g><mask></mask><g stroke-linecap="round"><g transform="translate(90.46806289350025 199.703125) rotate(0 -0.5990664787982496 73.72638569492847)"><path d="M-1.54 0.42 C-1.27 55.57, 1.09 105.79, 0.1 147.47 M-0.34 -0.87 C-0.42 53.19, -0.54 104.24, -0.8 148.32" stroke="#1971c2" stroke-width="1" fill="none"></path></g></g><mask></mask><g stroke-linecap="round"><g transform="translate(117.39775039350025 201.3125) rotate(0 -0.5322634861804545 73.51130557339638)"><path d="M-0.51 -0.54 C-1.5 42.28, 0.84 87.25, -1.59 146.55 M-0.06 -0.95 C0.96 44.65, -0.62 89.58, 0.53 147.97" stroke="#1971c2" stroke-width="1" fill="none"></path></g></g><mask></mask><g stroke-linecap="round"><g transform="translate(142.05400039350025 200.4765625) rotate(0 -0.05074893217533827 77.36905739316717)"><path d="M-0.47 0.86 C0.81 44.37, 0.02 91.5, -0.13 155.21 M-0.99 -0.48 C-0.33 34.74, 0.08 68.84, 0.89 152.7" stroke="#1971c2" stroke-width="1" fill="none"></path></g></g><mask></mask><g transform="translate(215.19071914350025 178.02734375) rotate(0 75.29596710205078 10)"><text x="0" y="0" font-family="Virgil, Segoe UI Emoji" font-size="16px" fill="#1e1e1e" text-anchor="start" style="white-space: pre;" direction="ltr" dominant-baseline="text-before-edge">RemoteDataSource</text></g><g transform="translate(39.487594143500246 174.7265625) rotate(0 46.98396301269531 10)"><text x="0" y="0" font-family="Virgil, Segoe UI Emoji" font-size="16px" fill="#1971c2" text-anchor="start" style="white-space: pre;" direction="ltr" dominant-baseline="text-before-edge">Instruments</text></g><g stroke-linecap="round"><g transform="translate(168.05400039350025 237.30327885556022) rotate(0 25.141049142267207 -0.7983540860776088)"><path d="M0.44 -0.55 C11.7 -0.66, 23.96 -1.94, 50.47 -0.33 M-0.62 -0.81 C12.24 -0.82, 24.98 -1.07, 50.9 -1.27" stroke="#1971c2" stroke-width="1" fill="none"></path></g><g transform="translate(168.05400039350025 237.30327885556022) rotate(0 25.141049142267207 -0.7983540860776088)"><path d="M27.3 7.19 C32.22 5.01, 38.15 1.74, 50.03 -1.12 M26.24 6.93 C32.77 4.86, 39.12 2.62, 50.46 -2.07" stroke="#1971c2" stroke-width="1" fill="none"></path></g><g transform="translate(168.05400039350025 237.30327885556022) rotate(0 25.141049142267207 -0.7983540860776088)"><path d="M27.13 -10.37 C32.08 -8.47, 38.04 -7.66, 50.03 -1.12 M26.08 -10.63 C32.54 -8.59, 38.92 -6.73, 50.46 -2.07" stroke="#1971c2" stroke-width="1" fill="none"></path></g></g><mask></mask><g stroke-linecap="round"><g transform="translate(217.12475420479882 271.3968917649554) rotate(0 -25.724112742766124 -0.3875705752765839)"><path d="M1.9 -1.15 C-17.96 1.63, -36.19 -0.38, -53.35 0.3 M-0.15 -0.24 C-15.53 -0.33, -31.84 0.37, -52.65 -0.15" stroke="#1971c2" stroke-width="1" fill="none"></path></g><g transform="translate(217.12475420479882 271.3968917649554) rotate(0 -25.724112742766124 -0.3875705752765839)"><path d="M-25.96 -10.02 C-36.61 -4.65, -45.57 -3.87, -53.44 -0.23 M-28 -9.11 C-34.93 -6.73, -42.79 -3.5, -52.74 -0.68" stroke="#1971c2" stroke-width="1" fill="none"></path></g><g transform="translate(217.12475420479882 271.3968917649554) rotate(0 -25.724112742766124 -0.3875705752765839)"><path d="M-26.15 7.96 C-36.58 7.32, -45.46 2.09, -53.44 -0.23 M-28.2 8.86 C-35.09 5.77, -42.89 3.54, -52.74 -0.68" stroke="#1971c2" stroke-width="1" fill="none"></path></g></g><mask></mask><g stroke-linecap="round"><g transform="translate(685.5698563055014 155.7058881951952) rotate(0 -114.49376660840414 -0.2831773150319634)"><path d="M0.25 0.84 C-68.26 -0.42, -140.74 -0.64, -229.02 -1.41 M0.61 -0.37 C-67.28 0.77, -134.76 0.54, -229.59 0.58" stroke="#1971c2" stroke-width="1" fill="none"></path></g><g transform="translate(685.5698563055014 155.7058881951952) rotate(0 -114.49376660840414 -0.2831773150319634)"><path d="M-201.11 -8.69 C-208.41 -7.48, -220.42 -4.61, -229.59 -1.08 M-200.69 -10.11 C-209.9 -6.65, -218.54 -3.91, -230.26 1.25" stroke="#1971c2" stroke-width="1" fill="none"></path></g><g transform="translate(685.5698563055014 155.7058881951952) rotate(0 -114.49376660840414 -0.2831773150319634)"><path d="M-201.11 11.83 C-208.48 6.81, -220.49 3.45, -229.59 -1.08 M-200.69 10.41 C-209.74 7.85, -218.39 4.58, -230.26 1.25" stroke="#1971c2" stroke-width="1" fill="none"></path></g></g><mask></mask><g stroke-linecap="round"><g transform="translate(440.40462671861724 155.59154621040216) rotate(0 -6.840853667459328 0.32251628959784284)" fill-rule="evenodd"><path d="M0 0 L3.93 -4.62 L-6.7 -7.3 L-5.08 -15.89 L-17.61 -2.45 L-9.25 -0.22 L-13.74 16.53 L-3.74 4.69" stroke="none" stroke-width="0" fill="#ff00" fill-rule="evenodd"></path><path d="M0 0 C0.85 -1, 1.71 -2, 3.93 -4.62 M0 0 C1.3 -1.52, 2.59 -3.04, 3.93 -4.62 M3.93 -4.62 C-0.29 -5.68, -4.51 -6.75, -6.7 -7.3 M3.93 -4.62 C0.2 -5.56, -3.54 -6.5, -6.7 -7.3 M-6.7 -7.3 C-6.37 -9.07, -6.03 -10.84, -5.08 -15.89 M-6.7 -7.3 C-6.25 -9.67, -5.8 -12.05, -5.08 -15.89 M-5.08 -15.89 C-8.24 -12.49, -11.41 -9.1, -17.61 -2.45 M-5.08 -15.89 C-7.8 -12.97, -10.52 -10.06, -17.61 -2.45 M-17.61 -2.45 C-15.89 -1.99, -14.16 -1.53, -9.25 -0.22 M-17.61 -2.45 C-15.48 -1.88, -13.35 -1.31, -9.25 -0.22 M-9.25 -0.22 C-10.41 4.09, -11.56 8.4, -13.74 16.53 M-9.25 -0.22 C-10.79 5.53, -12.33 11.27, -13.74 16.53 M-13.74 16.53 C-11.12 13.43, -8.5 10.33, -3.74 4.69 M-13.74 16.53 C-10.75 12.99, -7.76 9.44, -3.74 4.69 M-3.74 4.69 C-2.99 3.74, -2.23 2.79, 0 0 M-3.74 4.69 C-2.6 3.26, -1.46 1.83, 0 0" stroke="#f08c00" stroke-width="4" fill="none"></path></g></g><mask></mask><g stroke-linecap="round"><g transform="translate(436.4615824290114 153.202547554398) rotate(0 -0.8001333829443524 1.400266852814184)"><path d="M0 0 C-0.55 0.97, -1.11 1.93, -1.6 2.8 M0 0 C-0.46 0.8, -0.91 1.6, -1.6 2.8" stroke="#f08c00" stroke-width="4" fill="none"></path></g></g><mask></mask><g transform="translate(237.34306289350025 234.5234375) rotate(0 46.98396301269531 20)"><text x="0" y="0" font-family="Virgil, Segoe UI Emoji" font-size="16px" fill="#1971c2" text-anchor="start" style="white-space: pre;" direction="ltr" dominant-baseline="text-before-edge">Table: </text><text x="0" y="20" font-family="Virgil, Segoe UI Emoji" font-size="16px" fill="#1971c2" text-anchor="start" style="white-space: pre;" direction="ltr" dominant-baseline="text-before-edge">Instruments</text></g><g stroke-linecap="round" transform="translate(220.69793484883485 209.79969718475553) rotate(0 59.61006830509314 8.408622395011605)"><path d="M119.22 8.41 C119.22 8.81, 119.02 9.21, 118.61 9.61 C118.21 10, 117.6 10.39, 116.81 10.78 C116.01 11.16, 115.01 11.54, 113.83 11.9 C112.66 12.26, 111.29 12.62, 109.76 12.95 C108.23 13.29, 106.51 13.61, 104.66 13.92 C102.81 14.22, 100.78 14.5, 98.65 14.76 C96.51 15.02, 94.22 15.27, 91.84 15.48 C89.46 15.7, 86.95 15.89, 84.37 16.06 C81.8 16.22, 79.12 16.36, 76.4 16.48 C73.69 16.59, 70.89 16.67, 68.09 16.73 C65.29 16.79, 62.44 16.82, 59.61 16.82 C56.78 16.82, 53.93 16.79, 51.13 16.73 C48.33 16.67, 45.53 16.59, 42.82 16.48 C40.1 16.36, 37.42 16.22, 34.85 16.06 C32.27 15.89, 29.76 15.7, 27.38 15.48 C25 15.27, 22.71 15.02, 20.57 14.76 C18.44 14.5, 16.41 14.22, 14.56 13.92 C12.71 13.61, 10.99 13.29, 9.46 12.95 C7.93 12.62, 6.56 12.26, 5.39 11.9 C4.21 11.54, 3.21 11.16, 2.41 10.78 C1.62 10.39, 1.01 10, 0.61 9.61 C0.2 9.21, 0 8.81, 0 8.41 C0 8.01, 0.2 7.61, 0.61 7.21 C1.01 6.82, 1.62 6.42, 2.41 6.04 C3.21 5.66, 4.21 5.28, 5.39 4.92 C6.56 4.55, 7.93 4.2, 9.46 3.86 C10.99 3.53, 12.71 3.2, 14.56 2.9 C16.41 2.6, 18.44 2.32, 20.57 2.05 C22.71 1.79, 25 1.55, 27.38 1.33 C29.76 1.12, 32.27 0.93, 34.85 0.76 C37.42 0.59, 40.1 0.45, 42.82 0.34 C45.53 0.23, 48.33 0.14, 51.13 0.09 C53.93 0.03, 56.78 0, 59.61 0 C62.44 0, 65.29 0.03, 68.09 0.09 C70.89 0.14, 73.69 0.23, 76.4 0.34 C79.12 0.45, 81.8 0.59, 84.37 0.76 C86.95 0.93, 89.46 1.12, 91.84 1.33 C94.22 1.55, 96.51 1.79, 98.65 2.05 C100.78 2.32, 102.81 2.6, 104.66 2.9 C106.51 3.2, 108.23 3.53, 109.76 3.86 C111.29 4.2, 112.66 4.55, 113.83 4.92 C115.01 5.28, 116.01 5.66, 116.81 6.04 C117.6 6.42, 118.21 6.82, 118.61 7.21 C119.02 7.61, 119.12 8.21, 119.22 8.41 C119.32 8.61, 119.32 8.21, 119.22 8.41" stroke="#1971c2" stroke-width="1" fill="none"></path></g><g stroke-linecap="round" transform="translate(220.58716180347164 275.5622491325777) rotate(0 59.71496865496039 11.311027041827572)"><path d="M119.43 11.31 C119.43 11.85, 119.23 12.39, 118.82 12.92 C118.42 13.45, 117.81 13.98, 117.01 14.5 C116.21 15.01, 115.21 15.52, 114.03 16.01 C112.86 16.5, 111.48 16.97, 109.95 17.43 C108.42 17.88, 106.7 18.31, 104.84 18.72 C102.99 19.12, 100.96 19.51, 98.82 19.86 C96.68 20.21, 94.38 20.54, 92 20.83 C89.62 21.12, 87.1 21.38, 84.52 21.6 C81.94 21.82, 79.26 22.01, 76.54 22.16 C73.82 22.32, 71.02 22.43, 68.21 22.51 C65.41 22.58, 62.55 22.62, 59.71 22.62 C56.88 22.62, 54.02 22.58, 51.22 22.51 C48.41 22.43, 45.61 22.32, 42.89 22.16 C40.17 22.01, 37.49 21.82, 34.91 21.6 C32.33 21.38, 29.81 21.12, 27.43 20.83 C25.05 20.54, 22.75 20.21, 20.61 19.86 C18.47 19.51, 16.44 19.12, 14.59 18.72 C12.73 18.31, 11.01 17.88, 9.48 17.43 C7.95 16.97, 6.57 16.5, 5.4 16.01 C4.22 15.52, 3.22 15.01, 2.42 14.5 C1.62 13.98, 1.01 13.45, 0.61 12.92 C0.2 12.39, 0 11.85, 0 11.31 C0 10.77, 0.2 10.23, 0.61 9.7 C1.01 9.17, 1.62 8.64, 2.42 8.12 C3.22 7.61, 4.22 7.1, 5.4 6.61 C6.57 6.12, 7.95 5.65, 9.48 5.2 C11.01 4.74, 12.73 4.31, 14.59 3.9 C16.44 3.5, 18.47 3.11, 20.61 2.76 C22.75 2.41, 25.05 2.09, 27.43 1.8 C29.81 1.51, 32.33 1.25, 34.91 1.02 C37.49 0.8, 40.17 0.61, 42.89 0.46 C45.61 0.31, 48.41 0.19, 51.22 0.12 C54.02 0.04, 56.88 0, 59.71 0 C62.55 0, 65.41 0.04, 68.21 0.12 C71.02 0.19, 73.82 0.31, 76.54 0.46 C79.26 0.61, 81.94 0.8, 84.52 1.02 C87.1 1.25, 89.62 1.51, 92 1.8 C94.38 2.09, 96.68 2.41, 98.82 2.76 C100.96 3.11, 102.99 3.5, 104.84 3.9 C106.7 4.31, 108.42 4.74, 109.95 5.2 C111.48 5.65, 112.86 6.12, 114.03 6.61 C115.21 7.1, 116.21 7.61, 117.01 8.12 C117.81 8.64, 118.42 9.17, 118.82 9.7 C119.23 10.23, 119.33 11.04, 119.43 11.31 C119.53 11.58, 119.53 11.04, 119.43 11.31" stroke="#1971c2" stroke-width="1" fill="none"></path></g><g stroke-linecap="round"><g transform="translate(339.82858020009826 218.05067272629526) rotate(0 0.19183251671546486 34.38407801773175)"><path d="M0 0 C0.06 11.46, 0.32 57.31, 0.38 68.77 M0 0 C0.06 11.46, 0.32 57.31, 0.38 68.77" stroke="#1971c2" stroke-width="1" fill="none"></path></g></g><mask></mask><g stroke-linecap="round"><g transform="translate(220.83424603793196 218.54613426577924) rotate(0 -0.10667832189886894 34.66571335840288)"><path d="M0 0 C-0.04 11.56, -0.18 57.78, -0.21 69.33 M0 0 C-0.04 11.56, -0.18 57.78, -0.21 69.33" stroke="#1971c2" stroke-width="1" fill="none"></path></g></g><mask></mask><g stroke-linecap="round" transform="translate(41.332361469419084 405.2839049724862) rotate(0 62.111328125 77.193359375)"><path d="M-1.52 -0.27 L124.45 -1.95 L123.5 152.91 L0.47 155.69" stroke="none" stroke-width="0" fill="#fff"></path><path d="M-0.44 -0.13 C29.3 -0.14, 61.71 -2.17, 124.32 -1.63 M0.24 0.42 C43.43 0.01, 84.61 -1.79, 125.05 0.94 M122.69 -1.03 C122.58 36.3, 121.28 71.77, 126.13 156.17 M123.65 -0.99 C123.93 39.64, 123.87 78.61, 123.3 155.36 M125.92 155.32 C82.06 155.94, 39.61 153.79, -1.96 154.82 M124.63 153.48 C80.43 152.74, 34.92 153.26, 0.55 154.86 M0.54 156.13 C-0.18 109.3, -0.39 64.65, 1.7 -1.68 M0.09 153.66 C-1.09 107.95, -1.98 62.46, 0.94 0.04" stroke="#1971c2" stroke-width="1" fill="none"></path></g><g stroke-linecap="round"><g transform="translate(43.332361469419084 426.6823424724862) rotate(0 60.48777558840811 -0.10825974570116159)"><path d="M-0.98 0.36 C42.38 -1.58, 82.57 -1.55, 121.96 0.39 M0.86 0.87 C44.2 -1.44, 90.27 0.43, 120.43 -0.65" stroke="#1971c2" stroke-width="1" fill="none"></path></g></g><mask></mask><g stroke-linecap="round"><g transform="translate(68.93392396941908 408.2292174724862) rotate(0 0.43460417399182916 72.78396577201784)"><path d="M1.14 -1.67 C-0.63 41.41, 0.13 86.47, 1.39 147.23 M-0.52 -0.93 C2.1 51.12, 0.59 99.71, 0.52 145.98" stroke="#1971c2" stroke-width="1" fill="none"></path></g></g><mask></mask><g stroke-linecap="round"><g transform="translate(95.14876771941908 406.7721862224862) rotate(0 0.523586338684197 74.43143988214433)"><path d="M0.09 -1.63 C1.7 47.7, 2.23 95.11, 0.84 150.5 M0.83 0.94 C-1.44 56.86, -0.24 114.26, -0.51 148.45" stroke="#1971c2" stroke-width="1" fill="none"></path></g></g><mask></mask><g stroke-linecap="round"><g transform="translate(122.07845521941908 408.3815612224862) rotate(0 0.528602218721062 73.26564906258136)"><path d="M0.85 0.39 C1.45 32.6, 0.91 65.95, 1.73 147.12 M-0.67 -0.65 C1.75 29.88, 0.71 60.99, 0.2 147.18" stroke="#1971c2" stroke-width="1" fill="none"></path></g></g><mask></mask><g stroke-linecap="round"><g transform="translate(146.73470521941908 407.5456237224862) rotate(0 -0.16280794593512837 77.25983359059319)"><path d="M1.39 0.49 C1.49 35.28, 2.39 66.07, -1.86 155.29 M0.52 -0.77 C-1.55 60.18, -0.84 120.03, -0.02 154.59" stroke="#1971c2" stroke-width="1" fill="none"></path></g></g><mask></mask><g transform="translate(219.87142396941908 385.0964049724862) rotate(0 75.29596710205078 10)"><text x="0" y="0" font-family="Virgil, Segoe UI Emoji" font-size="16px" fill="#1e1e1e" text-anchor="start" style="white-space: pre;" direction="ltr" dominant-baseline="text-before-edge">RemoteDataSource</text></g><g transform="translate(44.168298969419084 381.7956237224862) rotate(0 23.215980529785156 10)"><text x="0" y="0" font-family="Virgil, Segoe UI Emoji" font-size="16px" fill="#1971c2" text-anchor="start" style="white-space: pre;" direction="ltr" dominant-baseline="text-before-edge">Prices</text></g><g stroke-linecap="round"><g transform="translate(172.73470521941908 444.37234007804636) rotate(0 24.45355836003239 0.07727722493802958)"><path d="M-1.86 1.65 C21.71 -1.27, 38.37 0.95, 49.8 -1.5 M-0.02 0.95 C14.66 -0.07, 27.67 -0.26, 50.77 -1.46" stroke="#1971c2" stroke-width="1" fill="none"></path></g><g transform="translate(172.73470521941908 444.37234007804636) rotate(0 24.45355836003239 0.07727722493802958)"><path d="M25.22 10.09 C38.03 3.38, 44 1.96, 49.24 -2.49 M27.07 9.39 C34.31 5.57, 39.9 2.85, 50.2 -2.45" stroke="#1971c2" stroke-width="1" fill="none"></path></g><g transform="translate(172.73470521941908 444.37234007804636) rotate(0 24.45355836003239 0.07727722493802958)"><path d="M24.4 -7.45 C37.68 -7.38, 43.97 -2.02, 49.24 -2.49 M26.25 -8.15 C33.74 -7.26, 39.55 -5.27, 50.2 -2.45" stroke="#1971c2" stroke-width="1" fill="none"></path></g></g><mask></mask><g transform="translate(253.79720521941908 437.4401549724862) rotate(0 28.24798583984375 20)"><text x="0" y="0" font-family="Virgil, Segoe UI Emoji" font-size="16px" fill="#1971c2" text-anchor="start" style="white-space: pre;" direction="ltr" dominant-baseline="text-before-edge">Table: </text><text x="0" y="20" font-family="Virgil, Segoe UI Emoji" font-size="16px" fill="#1971c2" text-anchor="start" style="white-space: pre;" direction="ltr" dominant-baseline="text-before-edge">Prices</text></g><g stroke-linecap="round" transform="translate(220.29363797383462 412.4522282342614) rotate(0 59.61006830509314 8.408622395011605)"><path d="M119.22 8.41 C119.22 8.81, 119.02 9.21, 118.61 9.61 C118.21 10, 117.6 10.39, 116.81 10.78 C116.01 11.16, 115.01 11.54, 113.83 11.9 C112.66 12.26, 111.29 12.62, 109.76 12.95 C108.23 13.29, 106.51 13.61, 104.66 13.92 C102.81 14.22, 100.78 14.5, 98.65 14.76 C96.51 15.02, 94.22 15.27, 91.84 15.48 C89.46 15.7, 86.95 15.89, 84.37 16.06 C81.8 16.22, 79.12 16.36, 76.4 16.48 C73.69 16.59, 70.89 16.67, 68.09 16.73 C65.29 16.79, 62.44 16.82, 59.61 16.82 C56.78 16.82, 53.93 16.79, 51.13 16.73 C48.33 16.67, 45.53 16.59, 42.82 16.48 C40.1 16.36, 37.42 16.22, 34.85 16.06 C32.27 15.89, 29.76 15.7, 27.38 15.48 C25 15.27, 22.71 15.02, 20.57 14.76 C18.44 14.5, 16.41 14.22, 14.56 13.92 C12.71 13.61, 10.99 13.29, 9.46 12.95 C7.93 12.62, 6.56 12.26, 5.39 11.9 C4.21 11.54, 3.21 11.16, 2.41 10.78 C1.62 10.39, 1.01 10, 0.61 9.61 C0.2 9.21, 0 8.81, 0 8.41 C0 8.01, 0.2 7.61, 0.61 7.21 C1.01 6.82, 1.62 6.42, 2.41 6.04 C3.21 5.66, 4.21 5.28, 5.39 4.92 C6.56 4.55, 7.93 4.2, 9.46 3.86 C10.99 3.53, 12.71 3.2, 14.56 2.9 C16.41 2.6, 18.44 2.32, 20.57 2.05 C22.71 1.79, 25 1.55, 27.38 1.33 C29.76 1.12, 32.27 0.93, 34.85 0.76 C37.42 0.59, 40.1 0.45, 42.82 0.34 C45.53 0.23, 48.33 0.14, 51.13 0.09 C53.93 0.03, 56.78 0, 59.61 0 C62.44 0, 65.29 0.03, 68.09 0.09 C70.89 0.14, 73.69 0.23, 76.4 0.34 C79.12 0.45, 81.8 0.59, 84.37 0.76 C86.95 0.93, 89.46 1.12, 91.84 1.33 C94.22 1.55, 96.51 1.79, 98.65 2.05 C100.78 2.32, 102.81 2.6, 104.66 2.9 C106.51 3.2, 108.23 3.53, 109.76 3.86 C111.29 4.2, 112.66 4.55, 113.83 4.92 C115.01 5.28, 116.01 5.66, 116.81 6.04 C117.6 6.42, 118.21 6.82, 118.61 7.21 C119.02 7.61, 119.12 8.21, 119.22 8.41 C119.32 8.61, 119.32 8.21, 119.22 8.41" stroke="#1971c2" stroke-width="1" fill="none"></path></g><g stroke-linecap="round" transform="translate(220.18286492847142 478.21478018208336) rotate(0 59.71496865496039 11.311027041827572)"><path d="M119.43 11.31 C119.43 11.85, 119.23 12.39, 118.82 12.92 C118.42 13.45, 117.81 13.98, 117.01 14.5 C116.21 15.01, 115.21 15.52, 114.03 16.01 C112.86 16.5, 111.48 16.97, 109.95 17.43 C108.42 17.88, 106.7 18.31, 104.84 18.72 C102.99 19.12, 100.96 19.51, 98.82 19.86 C96.68 20.21, 94.38 20.54, 92 20.83 C89.62 21.12, 87.1 21.38, 84.52 21.6 C81.94 21.82, 79.26 22.01, 76.54 22.16 C73.82 22.32, 71.02 22.43, 68.21 22.51 C65.41 22.58, 62.55 22.62, 59.71 22.62 C56.88 22.62, 54.02 22.58, 51.22 22.51 C48.41 22.43, 45.61 22.32, 42.89 22.16 C40.17 22.01, 37.49 21.82, 34.91 21.6 C32.33 21.38, 29.81 21.12, 27.43 20.83 C25.05 20.54, 22.75 20.21, 20.61 19.86 C18.47 19.51, 16.44 19.12, 14.59 18.72 C12.73 18.31, 11.01 17.88, 9.48 17.43 C7.95 16.97, 6.57 16.5, 5.4 16.01 C4.22 15.52, 3.22 15.01, 2.42 14.5 C1.62 13.98, 1.01 13.45, 0.61 12.92 C0.2 12.39, 0 11.85, 0 11.31 C0 10.77, 0.2 10.23, 0.61 9.7 C1.01 9.17, 1.62 8.64, 2.42 8.12 C3.22 7.61, 4.22 7.1, 5.4 6.61 C6.57 6.12, 7.95 5.65, 9.48 5.2 C11.01 4.74, 12.73 4.31, 14.59 3.9 C16.44 3.5, 18.47 3.11, 20.61 2.76 C22.75 2.41, 25.05 2.09, 27.43 1.8 C29.81 1.51, 32.33 1.25, 34.91 1.02 C37.49 0.8, 40.17 0.61, 42.89 0.46 C45.61 0.31, 48.41 0.19, 51.22 0.12 C54.02 0.04, 56.88 0, 59.71 0 C62.55 0, 65.41 0.04, 68.21 0.12 C71.02 0.19, 73.82 0.31, 76.54 0.46 C79.26 0.61, 81.94 0.8, 84.52 1.02 C87.1 1.25, 89.62 1.51, 92 1.8 C94.38 2.09, 96.68 2.41, 98.82 2.76 C100.96 3.11, 102.99 3.5, 104.84 3.9 C106.7 4.31, 108.42 4.74, 109.95 5.2 C111.48 5.65, 112.86 6.12, 114.03 6.61 C115.21 7.1, 116.21 7.61, 117.01 8.12 C117.81 8.64, 118.42 9.17, 118.82 9.7 C119.23 10.23, 119.33 11.04, 119.43 11.31 C119.53 11.58, 119.53 11.04, 119.43 11.31" stroke="#1971c2" stroke-width="1" fill="none"></path></g><g stroke-linecap="round"><g transform="translate(339.42428332509803 420.70320377580106) rotate(0 0.19183251671546486 34.384078017731724)"><path d="M0 0 C0.06 11.46, 0.32 57.31, 0.38 68.77 M0 0 C0.06 11.46, 0.32 57.31, 0.38 68.77" stroke="#1971c2" stroke-width="1" fill="none"></path></g></g><mask></mask><g stroke-linecap="round"><g transform="translate(220.42994916293173 421.1986653152851) rotate(0 -0.10667832189886894 34.66571335840291)"><path d="M0 0 C-0.04 11.56, -0.18 57.78, -0.21 69.33 M0 0 C-0.04 11.56, -0.18 57.78, -0.21 69.33" stroke="#1971c2" stroke-width="1" fill="none"></path></g></g><mask></mask><g stroke-linecap="round"><g transform="translate(216.75321914350025 466.6640625) rotate(0 -25.407531070522964 -0.04818907558245655)"><path d="M-0.43 1.16 C-18.28 -1.69, -38.11 -1.81, -51.14 -0.31 M0.95 0.93 C-15.91 -0.13, -34.01 0.19, -51.76 -0.91" stroke="#1971c2" stroke-width="1" fill="none"></path></g><g transform="translate(216.75321914350025 466.6640625) rotate(0 -25.407531070522964 -0.04818907558245655)"><path d="M-27.14 -7.67 C-35.39 -7.57, -45.62 -4.92, -50.35 -1.22 M-25.76 -7.91 C-33.77 -6.42, -43.05 -3.56, -50.97 -1.82" stroke="#1971c2" stroke-width="1" fill="none"></path></g><g transform="translate(216.75321914350025 466.6640625) rotate(0 -25.407531070522964 -0.04818907558245655)"><path d="M-27.91 10.29 C-35.86 4.12, -45.82 0.5, -50.35 -1.22 M-26.53 10.05 C-34.35 5.78, -43.38 2.88, -50.97 -1.82" stroke="#1971c2" stroke-width="1" fill="none"></path></g></g><mask></mask><g stroke-linecap="round"><g transform="translate(406.88603164350025 85.8046875) rotate(0 -0.5390022430638624 251.7545279514044)"><path d="M-0.75 0.14 C-1.22 201.13, -0.32 401.53, -0.47 502.79 M0.38 0.04 C-2.01 180.25, -1.92 360.33, -0.21 503.46" stroke="#1971c2" stroke-width="1" fill="none"></path></g></g><mask></mask><g transform="translate(335.30400039350025 326.2304687500001) rotate(269.7987350152617 94.37390899658203 13.06640240697601)"><text x="0" y="0" font-family="Virgil, Segoe UI Emoji" font-size="20.906243851161616px" fill="#1971c2" text-anchor="start" style="white-space: pre;" direction="ltr" dominant-baseline="text-before-edge">ConnectionManager</text></g><g stroke-linecap="round"><g transform="translate(343.39384414350025 236.90234375) rotate(0 29.869030678644776 0.6497994526289403)"><path d="M-0.76 0.83 C21.46 1, 41.71 0.56, 60.5 1.72 M0.12 0.42 C15.51 0.16, 31.47 -0.01, 60.23 -0.42" stroke="#1971c2" stroke-width="1" fill="none"></path></g><g transform="translate(343.39384414350025 236.90234375) rotate(0 29.869030678644776 0.6497994526289403)"><path d="M31.42 11.06 C42.61 7.48, 51.81 3.46, 59.76 1.3 M32.29 10.65 C39.13 7.75, 46.46 4.78, 59.49 -0.83" stroke="#1971c2" stroke-width="1" fill="none"></path></g><g transform="translate(343.39384414350025 236.90234375) rotate(0 29.869030678644776 0.6497994526289403)"><path d="M31.14 -9.46 C42.36 -6.15, 51.65 -3.27, 59.76 1.3 M32.01 -9.87 C38.78 -7.39, 46.18 -4.98, 59.49 -0.83" stroke="#1971c2" stroke-width="1" fill="none"></path></g></g><mask></mask><g stroke-linecap="round"><g transform="translate(403.67509414350025 270.46875) rotate(0 -30.11656758049503 0.40242608822882175)"><path d="M1.35 1.68 C-15.73 -0.62, -32.99 1.04, -59.62 -0.87 M-0.61 0.94 C-16.51 0.68, -32.57 1, -61.58 0.17" stroke="#1971c2" stroke-width="1" fill="none"></path></g><g transform="translate(403.67509414350025 270.46875) rotate(0 -30.11656758049503 0.40242608822882175)"><path d="M-31.83 -7.82 C-40.61 -7.59, -49.53 -3.49, -59.83 -0.71 M-33.79 -8.56 C-41.17 -6.37, -48.63 -3.53, -61.79 0.33" stroke="#1971c2" stroke-width="1" fill="none"></path></g><g transform="translate(403.67509414350025 270.46875) rotate(0 -30.11656758049503 0.40242608822882175)"><path d="M-32.27 12.7 C-40.84 7.74, -49.65 6.65, -59.83 -0.71 M-34.23 11.96 C-41.33 8.79, -48.68 6.29, -61.79 0.33" stroke="#1971c2" stroke-width="1" fill="none"></path></g></g><mask></mask><g stroke-linecap="round"><g transform="translate(344.12040664350025 442.6328125) rotate(0 29.73192867077887 -0.35880278393432263)"><path d="M-0.64 -0.77 C22.81 -0.16, 42.86 -2.38, 60.1 -0.41 M-0.14 0.53 C15.91 0.35, 32.39 0.14, 59.18 0.28" stroke="#1971c2" stroke-width="1" fill="none"></path></g><g transform="translate(344.12040664350025 442.6328125) rotate(0 29.73192867077887 -0.35880278393432263)"><path d="M31.06 9.46 C43.24 6.77, 52.08 0.94, 60.81 -0.13 M31.55 10.75 C38.93 7.84, 46.77 4.86, 59.89 0.56" stroke="#1971c2" stroke-width="1" fill="none"></path></g><g transform="translate(344.12040664350025 442.6328125) rotate(0 29.73192867077887 -0.35880278393432263)"><path d="M31.09 -10.54 C43.36 -5.99, 52.18 -4.58, 60.81 -0.13 M31.58 -9.25 C39.03 -6.58, 46.86 -3.98, 59.89 0.56" stroke="#1971c2" stroke-width="1" fill="none"></path></g></g><mask></mask><g stroke-linecap="round"><g transform="translate(401.57743789350025 475.91015625) rotate(0 -29.58098842483014 0.7762022421747474)"><path d="M-1.35 0.89 C-21.35 -0.58, -41.39 0.76, -58.35 1.96 M0.13 0.25 C-11.86 -0.71, -24.58 -0.53, -59.29 0.23" stroke="#1971c2" stroke-width="1" fill="none"></path></g><g transform="translate(401.57743789350025 475.91015625) rotate(0 -29.58098842483014 0.7762022421747474)"><path d="M-32.7 -9.68 C-41.89 -7.56, -51.09 -2.56, -57.73 2.19 M-31.22 -10.32 C-36.61 -9.06, -42.64 -6.62, -58.67 0.47" stroke="#1971c2" stroke-width="1" fill="none"></path></g><g transform="translate(401.57743789350025 475.91015625) rotate(0 -29.58098842483014 0.7762022421747474)"><path d="M-32.3 10.81 C-41.56 5.99, -50.91 4.04, -57.73 2.19 M-30.81 10.17 C-36.14 7.15, -42.26 5.3, -58.67 0.47" stroke="#1971c2" stroke-width="1" fill="none"></path></g></g><mask></mask><g stroke-linecap="round"><g transform="translate(459.63993789350025 238.81640625) rotate(0 112.33233672947335 -0.7779708308512738)"><path d="M0.62 -0.51 C83.5 -1.75, 165.89 -1.1, 223.05 -0.19 M0.68 0.01 C59.02 -2.13, 117.6 -1.8, 224.04 -0.7" stroke="#1971c2" stroke-width="1" fill="none"></path></g><g transform="translate(459.63993789350025 238.81640625) rotate(0 112.33233672947335 -0.7779708308512738)"><path d="M196.49 8.73 C206.82 3.93, 216.59 0.96, 223.03 -0.92 M196.55 9.32 C203.22 5.92, 210.1 3.66, 224.18 -1.51" stroke="#1971c2" stroke-width="1" fill="none"></path></g><g transform="translate(459.63993789350025 238.81640625) rotate(0 112.33233672947335 -0.7779708308512738)"><path d="M196.67 -11.79 C206.94 -8.99, 216.64 -4.34, 223.03 -0.92 M196.73 -11.2 C203.23 -9.19, 210.07 -6.03, 224.18 -1.51" stroke="#1971c2" stroke-width="1" fill="none"></path></g></g><mask></mask><g stroke-linecap="round"><g transform="translate(377.81962539350025 104.4140625) rotate(0 13.880867036990821 -0.8144415610936164)"><path d="M0.39 -0.44 C11.45 -1.76, 20.02 -1.82, 27.59 -1.42 M0.05 0.01 C10.1 -0.52, 18.23 -0.25, 27.72 -0.78" stroke="#1971c2" stroke-width="1" fill="none"></path></g><g transform="translate(377.81962539350025 104.4140625) rotate(0 13.880867036990821 -0.8144415610936164)"><path d="M15.21 4.1 C20.35 1.17, 23.79 -0.93, 27.74 -1.75 M14.98 4.41 C19.75 2.26, 23.23 0.68, 27.82 -1.31" stroke="#1971c2" stroke-width="1" fill="none"></path></g><g transform="translate(377.81962539350025 104.4140625) rotate(0 13.880867036990821 -0.8144415610936164)"><path d="M14.87 -5.32 C20.18 -4.51, 23.75 -2.87, 27.74 -1.75 M14.63 -5.01 C19.6 -3.96, 23.2 -2.33, 27.82 -1.31" stroke="#1971c2" stroke-width="1" fill="none"></path></g></g><mask></mask><g stroke-linecap="round"><g transform="translate(457.11650039350025 106.90234375) rotate(0 112.46666468461956 -0.36343646278454855)"><path d="M-1.33 -1.11 C55.64 0.89, 110.36 0.23, 225.45 -1.35 M0.76 0.62 C65.54 -1.16, 131.55 -1.54, 226.27 0.54" stroke="#1971c2" stroke-width="1" fill="none"></path></g><g transform="translate(457.11650039350025 106.90234375) rotate(0 112.46666468461956 -0.36343646278454855)"><path d="M196.36 9.06 C204.96 9.28, 210.88 6.09, 225.87 -1.03 M198.8 11.09 C205.91 7.38, 214.52 4.08, 226.82 1.18" stroke="#1971c2" stroke-width="1" fill="none"></path></g><g transform="translate(457.11650039350025 106.90234375) rotate(0 112.46666468461956 -0.36343646278454855)"><path d="M196.69 -11.46 C205.13 -6.18, 210.97 -4.32, 225.87 -1.03 M199.12 -9.43 C206.29 -7.16, 214.8 -4.49, 226.82 1.18" stroke="#1971c2" stroke-width="1" fill="none"></path></g></g><mask></mask><g stroke-linecap="round"><g transform="translate(682.8430628935002 285.046875) rotate(0 -110.98924723700338 0.07231743947826885)"><path d="M-0.45 -0.01 C-60.54 0.88, -119.02 0.05, -221.65 0.3 M-0.32 -0.25 C-73.21 1.39, -148.01 1.31, -221.3 -0.75" stroke="#1971c2" stroke-width="1" fill="none"></path></g><g transform="translate(682.8430628935002 285.046875) rotate(0 -110.98924723700338 0.07231743947826885)"><path d="M-193.42 -10.46 C-201.21 -8.09, -207.18 -6.41, -222.58 -0.41 M-193.28 -10.74 C-201.57 -6.48, -212.1 -3.32, -222.16 -1.62" stroke="#1971c2" stroke-width="1" fill="none"></path></g><g transform="translate(682.8430628935002 285.046875) rotate(0 -110.98924723700338 0.07231743947826885)"><path d="M-193.83 10.06 C-201.63 6.84, -207.49 2.94, -222.58 -0.41 M-193.69 9.78 C-201.93 7.16, -212.33 3.44, -222.16 -1.62" stroke="#1971c2" stroke-width="1" fill="none"></path></g></g><mask></mask><g stroke-linecap="round"><g transform="translate(461.94462539350025 442.38671875) rotate(0 109.09804506869318 -0.48937348009002335)"><path d="M0.55 0.32 C70.53 -0.22, 141.93 -2.32, 217.64 -0.7 M0.69 -0.53 C71.66 0.23, 142.23 -0.06, 216.73 0.19" stroke="#1971c2" stroke-width="1" fill="none"></path></g><g transform="translate(461.94462539350025 442.38671875) rotate(0 109.09804506869318 -0.48937348009002335)"><path d="M189.15 10.77 C197.59 7.94, 207.68 2.2, 218.18 -0.62 M189.31 9.8 C198 7.59, 206.21 3.89, 217.13 0.4" stroke="#1971c2" stroke-width="1" fill="none"></path></g><g transform="translate(461.94462539350025 442.38671875) rotate(0 109.09804506869318 -0.48937348009002335)"><path d="M189.19 -9.75 C197.68 -5.88, 207.75 -4.92, 218.18 -0.62 M189.35 -10.73 C197.98 -6.15, 206.18 -3.06, 217.13 0.4" stroke="#1971c2" stroke-width="1" fill="none"></path></g></g><mask></mask><g stroke-linecap="round"><g transform="translate(682.6907191435002 471.65625) rotate(0 -111.42803892536097 -0.19618350925952655)"><path d="M1.26 -0.6 C-85.19 0.97, -174.29 -1.64, -222.64 -1.49 M0.55 -0.17 C-81.18 2.04, -160.73 0.7, -224.12 0.74" stroke="#1971c2" stroke-width="1" fill="none"></path></g><g transform="translate(682.6907191435002 471.65625) rotate(0 -111.42803892536097 -0.19618350925952655)"><path d="M-194.43 -10.13 C-205 -3.63, -218.76 -2.75, -222.13 -1 M-195.25 -9.63 C-206.8 -4.94, -215.78 -2.85, -223.85 1.6" stroke="#1971c2" stroke-width="1" fill="none"></path></g><g transform="translate(682.6907191435002 471.65625) rotate(0 -111.42803892536097 -0.19618350925952655)"><path d="M-194.49 10.4 C-205.23 8.96, -218.96 1.93, -222.13 -1 M-195.32 10.89 C-206.77 8.22, -215.72 2.93, -223.85 1.6" stroke="#1971c2" stroke-width="1" fill="none"></path></g></g><mask></mask></svg>