<svg version="1.1" xmlns="http://www.w3.org/2000/svg" viewBox="0 0 1159.1397069814989 596.0295420341713" width="2318.2794139629978" height="1192.0590840683426">
  <!-- svg-source:excalidraw -->
  
  <defs>
    <style class="style-fonts">
      @font-face {
        font-family: "Virgil";
        src: url("https://excalidraw.com/Virgil.woff2");
      }
      @font-face {
        font-family: "Cascadia";
        src: url("https://excalidraw.com/Cascadia.woff2");
      }
    </style>
    
  </defs>
  <rect x="0" y="0" width="1159.1397069814989" height="596.0295420341713" fill="#ffffff"></rect><g stroke-linecap="round" transform="translate(538.0227503935002 170.41015625) rotate(0 22.193359375 184.822265625)"><path d="M0 0 C0 0, 0 0, 0 0 M0 0 C0 0, 0 0, 0 0 M-0.57 6.97 C0.66 5.42, 2.55 3.72, 5.69 0.25 M-0.04 6.74 C1.07 4.3, 2.86 2.93, 5.13 0.36 M0.87 11.17 C4.31 8.48, 8.4 3.59, 11.52 0.4 M0.62 11.54 C3.74 7.29, 8.94 1.93, 11.42 -0.41 M-0.42 16.91 C6.97 10.84, 11.88 5.06, 13.94 -1.5 M0.78 18.6 C5.49 12.91, 10.21 7.33, 14.72 0.26 M1.61 25.83 C2.96 17.6, 10.25 13.31, 19.56 0.96 M1.09 24.38 C5.09 18.17, 11.62 10.79, 21.48 0.85 M-1.41 31.55 C8.09 18.16, 18.45 6.11, 26.78 1.87 M0.59 31.39 C6.47 22.05, 14.45 12.43, 26.7 0.33 M0.02 36.16 C11.19 22.83, 22.83 9.9, 30.05 -1.78 M-0.03 36.63 C11.99 22.03, 24.53 9.46, 32.31 0.15 M-1.43 42.3 C12.49 28.82, 25.87 13.96, 35.91 -0.05 M-0.28 43.22 C9.33 30.74, 19.42 19.78, 37.14 0.7 M1.12 47.29 C13.46 35.93, 25.96 19.18, 43.3 1.85 M-0.89 49.24 C13.7 31.61, 28.68 16.6, 42.1 0.79 M0.49 55.83 C11.76 41.64, 21.92 27.02, 46.07 3.07 M0.74 53.92 C18.87 34.11, 35.99 13.43, 46.61 1.74 M-0.81 61.93 C10.19 46.55, 24.14 34.14, 45.26 7.01 M0.3 60.25 C13.87 44.86, 27.6 28.1, 45.82 6.89 M1.09 65.64 C8.55 57.98, 18.49 44.88, 44.84 14.22 M-0.91 67.24 C14.2 50.95, 28.28 34.3, 46.18 13.07 M-1.46 71.14 C14.57 58.15, 27.19 40.22, 44.81 19.16 M1.04 72.67 C15.06 55.18, 29.1 39.77, 45.53 20.97 M1.44 79.06 C10.97 67.55, 19.82 56.59, 48.28 23.85 M0.73 78.91 C13.87 65.11, 26.5 50.23, 46.02 25.37 M-1.08 85.06 C13.45 69.37, 25.75 57.18, 46.52 34.08 M0.89 84.18 C18.76 64.67, 35.44 42.75, 46.11 32.98 M1.1 91.81 C16.13 71.03, 37.07 51.23, 44.65 38.07 M-0.8 92.1 C12.81 76.72, 24.6 62.92, 46.16 37.62 M0.82 99.67 C16.72 81.4, 31.43 63.23, 47.45 42.43 M-0.22 96.94 C10.13 87.66, 18.18 77.34, 47.1 43.86 M-1.34 102.9 C10.67 88.26, 25.2 75.68, 44.98 50.84 M-0.75 103.44 C14.75 86.49, 28.96 70.21, 46.03 50.22 M-1.9 111.81 C10.11 97.49, 22.27 82.52, 45.73 56.22 M-0.33 109.55 C18.39 87.78, 35.92 67.42, 46.21 57 M1.13 117.47 C15.52 97.63, 31.74 77.99, 47.66 62.96 M1.16 114.76 C13.22 100.07, 26.53 85.31, 46.07 63.05 M0.07 121.66 C19.56 101.04, 37.89 81.98, 45.9 67.55 M-0.41 122.57 C14.26 106.17, 28.16 90.23, 45.73 68.01 M1.25 129.5 C15.95 109.08, 35.01 84.21, 44.52 76.57 M-0.87 128.84 C17.59 106.5, 37.03 85.67, 46.78 74.92 M0.08 135.72 C15.87 116.59, 34.61 95.1, 44.24 79.36 M-0.73 134.51 C8.45 123.33, 17.67 112.31, 46.81 80.43 M-1.84 140.79 C10.91 127.45, 21.59 116.76, 45.46 86.17 M0.84 139.42 C11.39 127.74, 21.53 116.59, 46.41 87.62 M0.91 145.62 C17.24 126.32, 33.77 107.49, 45.41 92.42 M-0.49 145.58 C13.37 132.47, 23.75 118.93, 47.15 93.76 M-0.58 151.51 C18.11 133.89, 33.11 113.05, 47.12 98.08 M0.57 152.69 C16.38 133.84, 31.06 117.29, 46.54 100.37 M0.08 158.81 C18.1 136.87, 32.61 118.53, 44.51 103.87 M0.46 159.45 C18.61 138.41, 36.58 116.94, 46 104.96 M1.67 163.15 C11.23 147.45, 24.39 134.12, 45.52 113.47 M0.8 165.3 C13.38 150.67, 25.04 136.2, 45.82 111.86 M-1.52 169.59 C19.27 150.84, 35.23 127.56, 47.71 118.18 M-0.67 171.23 C10.36 158.29, 21.57 147.22, 45.81 116.44 M-0.06 177.32 C9.56 165.49, 18.79 151.51, 46.12 122.87 M0.55 176.08 C12.96 162.94, 25.9 146.41, 46.95 123.71 M-1.55 181.61 C9.52 168.78, 22.44 156, 44.91 130.67 M-0.62 183.01 C14.07 165.53, 29.45 150.05, 45.96 130.56 M1.01 190.47 C8.99 177.12, 18.67 167.48, 44.44 137.14 M-0.25 189.84 C12.59 173.66, 26.4 158.48, 46.33 136.52 M0.37 194.85 C15.28 180.48, 29.76 161.56, 46.39 142.5 M-0.42 195.8 C13.08 178.29, 28.49 163.23, 46.3 141.62 M0.05 200.86 C15.58 183.17, 32.02 163.84, 47.41 146.24 M0.81 201.33 C14.54 184.02, 29.52 166.99, 46.42 147.58 M0.06 208.4 C11.08 192.84, 20.79 180.35, 44.89 155.16 M0.94 207.33 C9.51 196.1, 18.89 184.27, 46.28 153.41 M-1.34 215.13 C19 192.71, 35.16 172.63, 46.69 161.97 M-0.24 212.75 C16.92 195.02, 33.87 174.3, 46.06 160.64 M-1.95 219.18 C8.69 209.5, 21.25 196.45, 48.19 165.51 M-1.12 219.79 C13.65 203.69, 28.31 186.69, 46.55 167.14 M1.48 227.26 C17.16 207.24, 30.51 190.31, 47.36 172.97 M-0.2 225.76 C11.24 214.54, 19.59 201.45, 46.12 171.89 M0.29 232.95 C13.89 216.8, 26.79 197.75, 48.47 176.49 M0.82 231.81 C11.91 218.09, 23.45 203.79, 47.31 177.24 M1.6 237.31 C13.37 224.68, 24.32 207.36, 45.88 183.22 M-0.31 237.23 C10.27 225.07, 22.4 211.51, 46.53 185.47 M0.13 242.84 C14.26 229.07, 26.72 214.02, 47.69 191.89 M-0.74 243.98 C17.61 224.74, 33.76 204.78, 46.65 191.08 M-2.17 250.18 C13.09 233.13, 29.23 215.42, 46.82 195.06 M0.09 250.97 C15.64 233.34, 29.8 214.18, 45.95 197.51 M-1 256.29 C11.59 243.47, 23.82 228.67, 46.15 203.32 M-0.59 256.84 C16.48 236.87, 32.89 219.18, 46.17 202.99 M-0.64 262.64 C7.95 251.84, 20.17 239.99, 48.13 207.92 M-0.85 261.75 C17.7 241.98, 36.84 220.15, 46.04 207.79 M-0.27 269.87 C17.9 245.66, 36.57 227.21, 44.61 216.77 M-0.49 268.64 C16.81 249.59, 32.65 231.57, 46.04 215.76 M-0.18 273.77 C11.13 262.08, 20.54 250.1, 46.51 221.07 M-0.37 274.78 C13.54 260.37, 24.39 246.27, 45.91 221.59 M-0.1 279.96 C16.33 261.99, 32.99 241.12, 44.9 227.54 M-0.79 281.07 C14.84 263.02, 29.14 246.78, 46.67 226.62 M1.9 288.03 C9.15 276.31, 19.91 263.88, 46.06 232.61 M0.47 285.75 C10.37 273.94, 19.95 261.98, 45.64 233.61 M0.48 293.8 C10.22 282.94, 19.73 269.26, 47.22 239.06 M-0.83 293.28 C12.57 279.19, 23.31 266.07, 46.97 239.01 M-1.3 297.94 C15.96 279.44, 31.91 265.17, 44.29 246 M1.16 298.53 C11.81 287.19, 22.27 274.98, 45.4 245.53 M-0.15 303.97 C8.83 294.13, 20.95 280.12, 47.56 253.57 M0.12 305.37 C15.12 287.29, 30.09 269.7, 46.77 252.34 M-0.93 310.89 C15.96 291.47, 33.86 274.41, 44.79 257.05 M0.09 310.95 C12.67 295.57, 25.14 281.83, 47.07 257.95 M-1.53 315.4 C17.42 296.79, 36.45 275.92, 46.27 263.16 M0.5 316.41 C18.82 296.11, 35.17 276.24, 46.41 263.93 M0.23 324.09 C15.47 305.1, 29.27 286.4, 46.53 268.65 M0.16 322.78 C13.56 307.55, 26.46 292.45, 46.58 270.21 M0.22 328.1 C11.26 315.72, 21.63 304.61, 46.12 276.29 M0.81 328.16 C10.68 315.23, 21.61 302.69, 45.8 276.6 M1.84 335.1 C15.64 315.43, 36.19 294.57, 45.27 281.53 M-0.15 335.28 C10.98 324.17, 19.8 313.41, 46.24 282.08 M1.69 339.95 C17.29 319.26, 36.03 301.24, 44.97 288.73 M-0.09 340.82 C16.7 321.92, 35.14 301.3, 46.06 288.58 M-1.37 348.85 C11.49 335.13, 20.41 322.01, 46.11 293.28 M0.83 347.13 C12.09 332.77, 27.01 317.62, 46.38 293.78 M0.88 353.64 C17.13 335.42, 31.44 314.93, 45.07 298.36 M0.69 353.06 C11.43 340.47, 24.41 326.22, 45.86 299.35 M1.72 360.34 C16.42 340.5, 32.19 325.28, 45.61 304.83 M0.34 360.22 C10.58 349.75, 19.76 337.87, 46.41 307.51 M-0.78 367.22 C17.7 344.9, 35.26 327.92, 46.43 311.91 M-0.86 365.51 C9.57 354.43, 19.55 343.43, 45.75 313.3 M1.3 371.9 C13.93 355.25, 30.99 338.06, 48.37 319.43 M0.81 369.89 C16.63 352.11, 33.75 333.08, 46.43 319.39 M4.76 369.55 C18.53 356.1, 32.76 339.55, 47.43 323.94 M6.47 371.18 C20.08 355.24, 32.76 340.85, 45.81 325.8 M12.51 370.16 C23.27 358.81, 34.91 344.44, 48.43 329.46 M10.74 370.88 C24.7 355.87, 36.5 341.43, 45.61 331.26 M17.11 369.88 C26.28 359.31, 37.2 348.68, 46.87 335.37 M17.14 370.13 C28.24 357.65, 38.04 346.22, 46.68 336.67 M21.85 371.73 C29.34 361.71, 36.12 354.98, 46.55 343.12 M22.17 370.01 C31.62 361.53, 38.97 349.97, 46.5 342.42 M27.94 371.82 C33.14 365.19, 37.35 357.35, 44.65 348.43 M28.29 370.36 C33.02 365.89, 37.43 358.64, 47.22 348.16 M34.08 371.99 C36.07 366.78, 42.3 360.47, 46.87 355.46 M32.5 369.99 C37.49 365.35, 42.33 360.04, 46.66 355.6 M36.9 370.18 C42.26 367.32, 45.72 364.32, 46.86 361.35 M38.04 371.16 C40.02 368.28, 42.63 365.44, 46.72 360.87 M43.77 370.48 C44.09 369.54, 45.33 369.16, 46.4 367.36 M43.64 370.35 C44.34 369.58, 45.23 368.68, 46.15 367.29" stroke="#a5d8ff" stroke-width="0.5" fill="none"></path><path d="M0.61 -1.65 C9.78 -0.03, 20.06 1.66, 45.07 -1.89 M0.73 -0.6 C13.81 -0.42, 27.75 -1.11, 43.7 0.39 M43.94 -1.13 C41.66 103.15, 41.76 208.3, 44.41 368.57 M44.68 -0.56 C42.69 130.49, 42.21 260.25, 44.1 369.32 M42.94 370.99 C26.31 368.05, 10.57 369.91, 0.39 368.03 M44.74 369.9 C34.76 369.83, 23.35 369.37, -0.84 368.78 M-0.61 370.54 C-2.08 262.22, -1.83 153.73, 1 0.99 M-0.59 369.99 C-1.25 285.54, -0.51 202.7, -0.36 -0.15" stroke="#1971c2" stroke-width="1" fill="none"></path></g><g stroke-linecap="round" transform="translate(406.88212539350025 82.9140625) rotate(0 22.162109375 251.4140625)"><path d="M0 0 C0 0, 0 0, 0 0 M0 0 C0 0, 0 0, 0 0 M-0.64 6.98 C1.99 5.15, 3.05 3.15, 5.01 -0.08 M-0.36 6.5 C2.08 3.76, 3.96 1.71, 4.97 0.37 M-0.92 11.04 C3.35 9.04, 8.18 3.12, 9.14 -1.11 M-0.6 11.35 C4.73 6.98, 8.87 2.88, 9.91 0.65 M0.6 19.21 C5.91 14.69, 7.6 7.61, 15.65 1.78 M0.46 17.62 C4.59 13.65, 8.96 9.44, 15.9 0.28 M1.18 22.78 C3.31 17.87, 9.01 12.56, 21.59 0.46 M-0.27 23.24 C7.7 16.37, 15.63 7.3, 20.78 0.51 M-1.83 31.59 C9.68 21.88, 16.01 13.19, 24.62 2.24 M0.2 30.44 C10.94 19.92, 19.6 6.43, 27.05 1.19 M1.43 36.88 C9.37 27.46, 15.82 16.97, 31.24 0.54 M0.2 37.09 C7.86 28.37, 15.41 19.33, 30.96 0.48 M0.17 41.19 C10.31 32.94, 19.87 22.58, 38.22 -1.48 M0.28 43.28 C9.09 33.96, 17.3 22.82, 37.05 0.57 M0.02 50.58 C12.55 36.29, 23.05 19.63, 42.92 -0.96 M-0.83 49.12 C15.74 31.83, 30.91 14.56, 42.35 0.16 M0.7 53.3 C10.08 44.94, 18.44 31.62, 47.79 2.1 M-0.66 54 C13.51 38.1, 28 23.24, 45.8 1.58 M1.82 59.74 C16.54 45.28, 29.75 25.71, 46.03 7.53 M-0.25 60.17 C11.44 47.08, 25.22 32.97, 45.83 7.99 M0.58 69.09 C13.31 54.35, 23.72 40.27, 46.53 14.1 M-0.62 67.94 C13.26 51.32, 27.2 36.22, 46.19 14.14 M0.79 73.55 C11.93 59.35, 28.17 42.8, 46.52 21.84 M-0.74 73.55 C18.31 52.51, 36.82 31, 46.49 19.26 M0.02 80.53 C8.85 67.58, 19.01 52.92, 47.1 24.12 M-0.55 79.87 C17.1 58.33, 36.26 36.61, 46.7 26.75 M1.25 85.29 C8.67 73.49, 21.53 64.19, 45.1 33.66 M-0.42 84.75 C14.46 68.83, 26.27 54.06, 46.83 32.76 M0.67 92.95 C14.75 74.82, 25.54 59.5, 44.72 39.16 M0.64 91.51 C15.11 74.68, 30.67 56.48, 45.54 38.44 M-0.68 99.1 C10.66 83.08, 22.67 70.65, 44.61 43.53 M-0.53 97.24 C15.63 80.25, 29.01 64.3, 47.1 44.73 M-1.77 104.03 C13.44 87.24, 24.89 72.66, 46.99 52.06 M-0.22 103.55 C13.52 86.53, 26.94 70.34, 45.42 50.16 M-0.54 108.94 C15.31 91.89, 30.94 72.44, 47.28 55.1 M0.19 110.42 C14.75 90.93, 31.47 73.36, 45.59 56.11 M-0.18 114.54 C14.75 96.57, 32.33 81.6, 47.94 64.02 M-0.27 115.38 C14.09 98.64, 28.26 83.84, 46.63 62.34 M0.6 121.12 C10.37 108.88, 18.13 100.22, 44.1 69.87 M0.61 121.15 C12.88 107.86, 24.02 93.75, 45 68.3 M1.3 127.1 C14.05 111.11, 32.75 93.65, 44.68 75.58 M-0.26 128.83 C16.77 109.35, 34.21 89.44, 46.66 74.87 M0.69 133.31 C13.78 120.57, 22.31 105.15, 47.44 82.15 M0.78 133.74 C15.68 117, 29.38 98.91, 46.02 81.16 M-0.09 141.15 C8.49 130.17, 17.59 118.11, 46.7 85.35 M-0.92 140.19 C14.05 124.46, 28.09 107.58, 46.55 86.81 M2.12 145.26 C12.34 130.49, 29.3 112.73, 45.09 93.63 M0.29 145.73 C16.35 127.99, 32.15 110.33, 46.45 92.5 M0.33 151.5 C10.37 139.91, 21.51 128.51, 45.26 100.82 M0.08 151.71 C9.79 139.07, 22.14 126.49, 45.24 100.22 M1.02 157.58 C14.14 142.51, 26.44 127.83, 44.93 104.32 M0.66 159.57 C12.37 143.96, 25.66 127.66, 46.76 106.07 M-0.71 163.29 C15.77 145.52, 34.03 124.71, 45.99 113.3 M-0.19 163.58 C9.13 154.44, 19.26 143.32, 45.17 112.06 M-0.1 170.69 C17.15 151.52, 30.84 133.07, 48.21 115.34 M0.88 170.68 C14.39 152.31, 30.51 135.28, 46.49 117.34 M-1.06 174.76 C16.17 160.84, 27.47 141.56, 46.96 124.44 M0.35 175.71 C16.06 158.64, 30.39 142.49, 45.36 123.78 M1.69 183.39 C15.49 167.57, 25.41 150.59, 46.96 131.65 M0.55 182.96 C19.41 161.69, 37.5 140.84, 46.57 129.22 M0.18 188 C8.8 176.31, 20.07 167.18, 47.3 137.26 M-0.8 189.45 C14.44 172.71, 27.45 157.11, 47.06 135.27 M-1.61 195.8 C19.19 174.64, 35.17 155.39, 44.58 141.03 M-0.55 194.72 C18.05 174.17, 35.13 153.13, 46.93 142.09 M-0.72 199.92 C16.46 178.71, 37.42 159.2, 44.54 146.84 M0.85 201.6 C13.41 184.05, 29.2 167.99, 46.02 148.64 M0.43 208.14 C18.53 188.02, 36.88 165.81, 45.9 152.65 M-0.08 206.5 C15.99 187.48, 34.24 168.6, 45.59 153.26 M1.93 212.8 C18.83 195.01, 34.62 172.01, 43.97 159.14 M-0.12 213.93 C13.73 197.85, 28.3 180.95, 46.92 159.93 M-2.04 219.49 C8.76 209.23, 21.11 196.11, 45.81 167.97 M-0.81 218.8 C17.02 200.43, 33.67 180.64, 46.27 167.02 M-0.08 225.25 C12.57 210.17, 29.14 192.6, 47.25 173.93 M0.58 225.15 C12.74 211.24, 26.2 197.01, 46.93 173.13 M1.52 230.75 C16.5 213.78, 31.6 193.32, 46.61 179.6 M-0.99 232.03 C17.53 211.03, 37.04 190.37, 46.74 178.33 M0.42 238.97 C18.27 218.89, 31.05 200.79, 46.47 183.34 M1.27 236.68 C9.44 226.39, 18.5 216.04, 46.83 183.71 M0.08 243.17 C10.92 229.76, 23.84 214.69, 47.36 189.95 M0.69 244.11 C11.75 230.2, 22.42 218.32, 45.16 190.64 M-0.64 249.52 C10.53 239.58, 19.38 224.21, 44.8 194.85 M0.69 250.38 C14.51 232.42, 31.83 213.55, 46.56 196.57 M1.67 257.35 C13.49 239.14, 27.03 223.64, 44.48 202.29 M0.77 256.37 C10.98 243.45, 21.96 231, 45.69 203.82 M-1.97 261.29 C17.09 244.04, 30.96 226.68, 45.81 210.02 M-0.45 262.58 C15.66 245.08, 30.72 227.28, 45.64 207.83 M-1.26 267.98 C11.77 255.16, 23.32 244.17, 45.83 215.24 M-0.69 267.37 C14.85 250.12, 28.41 235.17, 45.6 215.72 M1.18 274.01 C18.67 253.2, 37.03 232.26, 46.81 223.26 M-0.32 273.55 C9.98 262.73, 21.73 249.62, 45.47 220.56 M1.47 282.6 C15.75 260.66, 31.92 243.71, 47.35 225.74 M0.27 280.61 C16.2 261.18, 33.05 242.37, 46.83 226.13 M1.6 285.78 C19.62 264.91, 35.85 244.62, 47.49 232.83 M-0.4 285.52 C16.21 269.32, 29.71 252.64, 46.97 232.76 M-1.55 292.59 C14.51 274.71, 30.08 259.2, 46.36 239.86 M-0.86 292.54 C10.55 281.2, 22.49 267.1, 46.4 238.54 M1.51 299.76 C14.08 283.82, 27.63 266.49, 47.98 247.31 M0.86 298.43 C15.38 280.77, 31.4 262.58, 45.62 244.91 M-1.34 303.66 C15.37 289.27, 28.04 274.15, 46.95 251.48 M-0.03 304.06 C15.92 285.88, 33.05 266.06, 46.68 251.9 M-2.14 310.98 C12.03 296.47, 27.57 281.54, 45.48 256.66 M0.43 311.66 C18.25 290.84, 35.2 270.95, 47.13 257.93 M0.18 314.89 C15.64 300.66, 32.35 279.4, 44.57 265.34 M1.02 316.55 C16.03 298.03, 33.4 279.79, 47.09 264.6 M-1.02 321.29 C13.38 305.47, 28 292.12, 47.58 270.9 M0.27 324.04 C9.64 311.03, 20.09 300.82, 45.75 268.95 M-0.51 329.43 C12.4 314.97, 27.37 298.26, 48.12 275.53 M1.09 329.57 C16.98 309.13, 34.61 289.9, 47.12 276.01 M-1.35 333.9 C19.34 317.07, 36.31 293.94, 45.63 282.93 M0.44 335.37 C18.53 314.48, 36.02 294.75, 46.59 283.06 M0.79 341.28 C12.76 329.73, 24.27 315.26, 44.55 288.47 M-0.1 342.64 C17.85 322.03, 33.37 304, 45.94 288.43 M0.69 348.36 C13.53 332.46, 26.55 319.11, 47.36 295.44 M0.68 346.39 C15.93 330.89, 29.43 315.11, 45.32 295.28 M0.7 354.3 C10.47 338.2, 22.98 325.26, 48.24 301.68 M-0.37 353.22 C9.16 342.92, 19.88 329.6, 46.81 300.87 M0.36 359.33 C18.52 338.25, 36.14 316.27, 46.92 307.52 M0.79 358.55 C17.62 339.44, 34.29 320.42, 47.17 306.1 M-1.76 364.68 C11.05 351.02, 26.74 336.89, 46.29 314.52 M0.1 366.24 C11.42 352.84, 22.92 339.41, 45.35 312.8 M1.62 371.28 C13.56 354.22, 31.8 336.42, 45.54 317.58 M-1.04 371.76 C10.07 360.5, 20.53 348.06, 46.55 319.46 M-0.48 375.94 C12.05 364.06, 25.78 349.59, 47.2 323.19 M0.28 378.07 C12.49 363.99, 27.04 348.23, 45.19 324.12 M1.85 385.54 C15.6 367.66, 30.33 353.23, 44.84 330.11 M-0.6 384.36 C14.31 368.47, 28.1 350.76, 47.46 330.51 M-0.96 389.72 C12.01 374.68, 27.24 359.15, 46.88 335.26 M0.73 390.31 C16.51 370.13, 33.35 352.7, 47.07 336.71 M1.86 394.8 C11.55 381.37, 26.73 365.26, 44.21 342.47 M-0.61 396.66 C14.17 381.6, 26.88 364.96, 45.77 343.34 M1.06 404.49 C9.14 390.81, 19.64 380.1, 45.33 348.61 M-0.13 403.48 C12.59 388.5, 23.88 374.81, 46.39 348.39 M-1.51 410.07 C17.29 390.96, 30.83 373.64, 45.41 355.83 M0.92 408.92 C10.67 396.6, 22.01 382.85, 46.84 354.99 M0.2 414.57 C12.82 399.71, 23.88 386.43, 47.95 362.22 M-0.35 415.06 C15.25 395.59, 32.65 377.08, 45.64 360.69 M1.38 420.21 C10.01 409.25, 21.03 399.16, 46.61 365.75 M0.36 421.86 C13.26 404.09, 28.35 388.85, 46.66 366.98 M-0.48 428.61 C14.67 407.9, 28.71 391.73, 46.87 374.95 M0.59 427 C17.06 406.56, 33.06 387.98, 46.68 374.58 M1.5 434.93 C18.14 410.72, 35.97 390.78, 47.09 381.1 M0.1 432.64 C18.06 413.36, 35.05 392.04, 47.38 379.25 M-0.83 440.62 C15.68 418.96, 35.92 398.95, 45.62 384.44 M-0.57 439.69 C9.54 427.9, 18.82 416.35, 46.37 386.51 M1.28 443.29 C11.14 430.63, 22.27 418.54, 48.49 390.84 M-0.38 444.37 C11.02 430.6, 23.96 416.38, 45.72 391.96 M1.02 453.44 C11.96 437.18, 20.64 426.21, 45.16 397.73 M-1.22 452.48 C15.85 433.64, 31.12 415.23, 45.68 397.84 M-0.79 456.66 C12.81 444.92, 24.64 430.02, 44.23 402.81 M-0.91 458.14 C11.76 442.59, 25.37 427.71, 45.28 405.24 M1.32 461.78 C17.24 444.68, 34.2 422.73, 44.5 410.19 M0.78 463.66 C11.33 449.54, 22.35 437.2, 47.27 410.92 M-0.81 467.55 C11.57 457.52, 21.88 443.79, 48.09 414.64 M-0.27 468.72 C11.02 456, 23.03 443.03, 46.17 417.13 M0.77 474.65 C13.75 458.24, 30.48 440.5, 46.07 420.25 M0.14 475.98 C12.37 461.3, 25.61 444.62, 45.83 422.8 M-0.15 480.29 C8.7 470.67, 20.11 456.59, 44.3 428.36 M0.15 482.34 C16.39 462.58, 32.89 444.57, 46.11 429.16 M1.12 486.44 C11.47 473.72, 21.86 463.67, 45.05 436.24 M-0.23 488.66 C12.31 473.23, 26.13 459.4, 46.47 434.97 M-0.77 494.04 C12.04 477.99, 24.66 464.18, 48.14 441.3 M-0.03 494.67 C10.92 479.44, 23.92 466.08, 45.98 440.3 M-1.47 499.63 C19.97 480.36, 36.6 456.69, 46 447.28 M1.15 499.11 C16.92 481.28, 33.51 462.85, 46.29 447.36 M2.75 503.07 C10.87 491.29, 18.55 481.32, 47.31 452.91 M2.88 504.09 C12.04 492.84, 20.62 483.33, 46.23 452.73 M8.12 503.22 C15.77 493.11, 26.21 483.24, 44.88 457.87 M7.83 504.37 C18.25 492.4, 28.28 479.54, 45.49 459.89 M13.83 505.44 C21.21 490.32, 32.69 479.38, 47.25 463.47 M12.17 505.4 C21.94 494.73, 30.82 484.37, 45.2 465.57 M18.25 504.91 C29.16 494.7, 38.29 480.73, 45.77 470.84 M16.75 504.3 C25.26 495.2, 34.61 485.11, 46.95 470.41 M22.17 505.41 C27.04 498.62, 35.06 491.15, 47.77 477.11 M22.1 505.19 C29.8 496.52, 36.63 486.54, 46.75 476.89 M28.37 503.96 C31.56 497.81, 37.09 490.95, 46.12 482.11 M29.08 503.43 C33.62 497.27, 39.16 490.87, 46.62 482.48 M33.47 504.79 C34.67 499.24, 41.32 496.81, 45.12 488.3 M32.51 504.2 C36.26 500.16, 40.3 494.38, 45.31 489.24 M39.59 503.63 C41.49 502.38, 43.2 499.29, 46.08 495.62 M38.61 504.04 C41.07 501.41, 43.27 498.46, 45.91 495.42" stroke="#a5d8ff" stroke-width="0.5" fill="none"></path><path d="M-1.89 0.4 C10.46 0.63, 19.11 1.08, 45.83 1.14 M0.52 0.42 C16.33 0.04, 33.96 0.88, 44.05 0.54 M44.06 -0.6 C44.75 114.19, 43.63 228.6, 43.63 503.05 M44.03 -0.06 C45.27 170.04, 45.59 339.33, 44.28 502.98 M45.72 502.2 C34.87 502.34, 25.59 502, 0.42 503.22 M44.3 502.48 C30.54 502.8, 15.98 502.63, -0.35 502.83 M-0.05 502.04 C0.93 351.09, 0.96 198.51, 0.25 -0.6 M0.05 502.72 C-0.65 357.62, -0.92 212.7, 0.27 0.34" stroke="#1971c2" stroke-width="1" fill="none"></path></g><g stroke-linecap="round" transform="translate(10 81.53232953449265) rotate(0 221.54469096299874 252.24860624983933)"><path d="M0 0 C0 0, 0 0, 0 0 M0 0 C0 0, 0 0, 0 0 M-0.26 5.66 C0.41 5.56, 2.26 2.99, 5.39 0.69 M-0.2 6.09 C1.72 4.29, 3.86 1.63, 4.83 0.19 M0.23 12.33 C3.28 7.93, 7.13 4.73, 10.81 -0.24 M0.13 12.69 C4.71 6.7, 8.78 2.72, 9.91 -0.77 M1.53 16.59 C4.36 10.49, 11.69 7.78, 15.21 -1.09 M0 18.37 C4.87 12.94, 9.85 8.28, 16.44 -0.66 M-1.11 23.3 C6.28 16.67, 10.73 11.14, 19.33 -1.1 M0.85 24.69 C6.58 17.24, 10.9 10.81, 20.82 0.86 M1.34 32.06 C7.09 23.37, 9.29 16.74, 26.76 0.58 M-0.88 30.04 C6.8 22.17, 13.89 13.25, 26.76 0.18 M-0.74 36.4 C6.54 29.21, 11.46 21.6, 30.66 -0.5 M-1.14 36.68 C8.32 25.55, 18.43 16.4, 32.16 -1.08 M-0.5 42.04 C6.3 32.66, 16.23 20.93, 35.56 1.88 M0.76 41.64 C12.29 28.68, 26.49 12.79, 37.64 -0.74 M-1.54 47.07 C12.02 35.91, 21.28 21.71, 43.72 -1.5 M0.13 48.55 C13.75 31.79, 28.28 16.93, 42.74 0.49 M-0.24 52.66 C16.61 33.24, 34.53 15.06, 48.91 0.65 M0.48 54.87 C15.61 36.31, 32.8 18.88, 46.7 0.55 M0.02 58.99 C12.54 44.91, 23.73 34.76, 54.77 -1.96 M0.21 61.47 C18.42 40.54, 35.4 20.11, 52.6 0.53 M-1.41 67.92 C18.52 42.59, 40.89 21.77, 56.56 -1.21 M0.21 67.88 C17.78 45.17, 36.98 24.29, 58.13 0.24 M-1.45 71.2 C23.59 45.12, 45.91 15.53, 63.5 -0.68 M-0.17 72.08 C22.82 48.86, 44.76 22.32, 63.8 0.71 M1.87 80.64 C13.34 61.5, 29.79 49.1, 68.61 0.31 M-0.1 79.27 C23.31 53.99, 45.9 27.14, 69.65 -0.27 M1.04 84.82 C13.69 66.98, 32.03 47.29, 74.98 0.63 M-0.72 84.19 C17.99 64.42, 35.23 44.89, 73.48 0.39 M-1.1 91 C23.5 65.74, 44.94 39.67, 77.62 1.3 M0.59 91.6 C24.31 64.72, 48.93 36.97, 79.55 0.61 M0.25 97.83 C26.68 67.97, 53 34.05, 85.71 -0.63 M-1.24 98.6 C17.8 77.96, 34.9 56.55, 84.82 -0.34 M-0.97 101.52 C36.52 63.23, 71.83 20.62, 88.51 -0.05 M0.02 103.38 C29.79 70.04, 60.6 36.05, 89.64 -0.31 M-0.68 108.05 C30.51 74.92, 60.61 42.99, 97.58 -1.96 M-0.06 109.04 C25.34 79.86, 52.19 49.98, 96.02 0.28 M1.05 115.81 C30.85 79.04, 61.47 43.59, 100.65 -1.45 M0.97 114.83 C36.19 73.57, 72.1 31.75, 100.3 -0.04 M1.8 123.62 C29.73 85.58, 59.47 50.4, 107.89 -1.8 M-0.88 121.7 C37.7 78.02, 74.46 35.52, 105.37 -1.27 M-1.54 129.34 C29.52 94.16, 57.22 62.21, 109.78 1.47 M-0.4 127.6 C38.25 86.34, 74.69 41.76, 111.43 -0.37 M0.32 134.07 C42.71 86.1, 83.66 36.64, 114.69 -0.71 M0.77 133.23 C25.42 104.4, 50.97 74.81, 115.51 -0.04 M0.17 140.39 C49.52 83.05, 98.77 28.69, 122.06 1.2 M-0.88 140.82 C29.61 106.84, 59.95 71.12, 121.5 -0.89 M1.93 144.98 C43.86 97.06, 90.04 46.53, 125.41 1.57 M-0.09 146.46 C43.22 98.58, 83.31 50.67, 127.13 1.33 M0.46 152.59 C49.65 98.06, 98.33 40.33, 132.11 0.25 M0.71 152.55 C37 111.2, 72.5 69.13, 132.53 0 M1.22 157.03 C37.68 113.53, 76.44 69.53, 138.75 0.62 M0.37 158.27 C50.83 97.99, 103.07 37.89, 137.92 0.2 M-0.1 165.79 C51.06 108.72, 101.12 50.61, 144.56 1.2 M-0.35 163.93 C37.08 122.89, 74.6 81.98, 143.08 0.11 M-1.8 171.66 C37.57 125.78, 76.92 84.15, 149.84 -1.23 M0.7 171.15 C57.55 105.75, 115.71 39.49, 148.44 -0.11 M1.77 175.76 C59.16 108.57, 120.65 36.39, 153.58 1.06 M0.46 176.42 C30.62 141.59, 60.15 105.88, 153.3 0.42 M0.87 184.33 C34.88 140.77, 73.01 97.74, 159.28 1.85 M-0.76 183.54 C61.63 110.78, 124.83 38.73, 158.29 -0.59 M-0.36 190.21 C47.67 136.83, 92.92 82.72, 165.85 0.62 M-0.89 188.59 C64.58 114.01, 130.31 38.66, 163.76 0.27 M-0.4 193.57 C40.76 151.6, 76.84 105.14, 170.21 1.49 M0.33 195.19 C58.78 128.16, 116.16 61.99, 168.77 0.15 M-1.23 200.4 C48.72 146.03, 95.06 87.86, 174.9 -0.93 M0.29 200.71 C48.79 141.66, 100.43 82.89, 174.6 0.06 M1.8 205.99 C54.54 148.64, 106.36 86.31, 180.29 0.53 M-0.32 206.87 C38.27 163.03, 76.12 118.33, 180.29 -0.05 M0 213.79 C69.24 134.55, 137.06 52.72, 186.07 -1.16 M-0.53 213.35 C39.11 167.23, 78.11 122.1, 186.33 0.25 M0.08 219.15 C69.74 139.43, 137.29 60.96, 190.02 0.77 M-0.74 220.1 C57.69 154.19, 114.95 88.93, 190.23 0.5 M1.23 226.74 C44.04 176.48, 88.32 122.86, 195.48 0.64 M0.69 225.37 C49.17 169.8, 97.32 113.86, 196.15 -0.78 M-1.12 233.17 C77.78 142.22, 153.22 53.66, 200.84 -1.21 M-0.52 232.06 C63.87 158.56, 129.61 83.66, 201.41 0.13 M1.61 236.82 C54.53 176, 108.85 114.75, 207.15 -0.57 M-0.36 237.01 C76.26 149.74, 150.17 62.95, 206.26 -0.05 M-0.83 244.7 C45.94 189.12, 93.61 137.69, 210.82 -0.64 M0.66 243.88 C65.39 168.96, 132.52 92.29, 212.12 0.69 M-0.62 250.32 C72.69 166.74, 147.64 82.57, 216.62 0.54 M0.23 249.73 C64.26 177.11, 128.72 103.75, 218.26 -0.99 M-0.09 256.97 C72.92 174.54, 142.74 93.3, 221.89 -0.72 M0.64 255.36 C75.22 170.41, 148.33 85.16, 222.95 -0.47 M1.08 263.3 C66.36 189.37, 129.7 115.88, 229.51 0.69 M0.45 262.39 C55.19 198.82, 110.46 136.16, 228.61 0.14 M-0.83 267.67 C59.57 200.29, 116.65 134.81, 232.77 0.36 M0.52 267.74 C83.88 172.38, 165.99 78.14, 233.12 0.01 M0.06 273.86 C86.5 173.77, 172.03 71.9, 237.64 -0.82 M0.64 274.01 C90.11 170.49, 181.22 64.95, 238.4 0.5 M-0.12 281.83 C92.37 174.88, 182.94 68.8, 243.22 -0.14 M0.29 281.11 C90.46 175.38, 182.08 69.09, 243.87 -0.13 M-0.68 285.26 C59.47 219.86, 114.9 154.43, 249.45 0.57 M-0.14 286.55 C90.27 182, 180.38 79.34, 248.36 0.46 M0.66 292.14 C95.79 185.53, 190.02 75.19, 255.04 -0.31 M-0.22 292.33 C78.32 201.37, 158.16 110.09, 253.91 -0.05 M1.06 297.42 C90.22 190.67, 184.23 84.6, 258.97 0.39 M0.82 298.6 C102.55 180.09, 204.44 62.77, 259.36 0.76 M1.11 304.72 C83.04 208.15, 168.11 112.25, 266.03 -0.2 M0.22 304.84 C79.36 211.47, 161.41 117.09, 265 -0.33 M0.6 311.6 C105.25 191.5, 210.76 69.77, 269.72 0.9 M0.18 310.7 C99.16 199.15, 196.22 86.01, 269.69 0.41 M0.59 317.6 C107.83 192.69, 214.92 69.5, 276.19 -0.34 M0.24 316.72 C59.62 248.99, 118.52 180.88, 275.4 0.02 M-0.19 324.13 C63.04 252.97, 126.05 181.4, 280.63 0.91 M0.21 323.6 C92.03 218.33, 183.86 113.22, 280.84 0.25 M0.83 328.21 C106.48 206.56, 211.68 84.73, 286.25 -0.61 M0.52 329 C89.96 225.32, 179.91 122.73, 286.26 -0.41 M-0.78 334.55 C87.81 231.91, 177.89 129.31, 291.99 -0.52 M-0.43 334.81 C60.76 266.27, 121.27 196.67, 291.3 0.08 M-0.14 341.05 C105.02 216.54, 213.95 93.14, 296.53 0.59 M0.25 341.48 C60.08 274.26, 120.04 205.63, 296.6 -0.46 M-0.5 347.12 C106.8 227.01, 212.61 105.3, 302.36 0.61 M0.55 347.64 C91.91 243.35, 184.37 137.5, 301.54 0.32 M-0.02 353.11 C76.2 265.75, 152.83 176.59, 307.91 -0.45 M-0.47 353.31 C91.37 248.55, 182.27 143.22, 307.93 -0.28 M0.03 358.62 C66.3 284.89, 131.11 209.99, 313.42 0.44 M0.13 359.32 C119.92 222.49, 240.19 84.11, 312.17 0.48 M0.61 365.7 C75.58 278.47, 150.71 192.63, 317.42 -0.18 M0.37 365.87 C110.37 238.57, 219.88 112.45, 318.05 -0.51 M-0.6 371.9 C63.89 296.11, 131.29 220.56, 323.35 0.1 M-0.56 372.03 C124 227.46, 248.95 84.24, 323.47 -0.15 M0.36 378.48 C109.15 253.27, 217.85 127.58, 328.1 -0.19 M-0.12 377.73 C97.14 264.82, 194.85 152.35, 328.86 -0.2 M0.47 384.36 C66.2 306.51, 133.81 229.68, 333.22 0.57 M0.05 384.49 C104.24 264.02, 208.43 144.4, 333.54 0.33 M0.59 389.7 C82.42 297.23, 163.78 203.76, 339.07 -0.59 M0.55 390.1 C81.03 295.45, 163.02 201.84, 339.62 -0.6 M0.61 395.51 C111.69 266.16, 223.55 137.8, 344.04 0.38 M0.04 396.4 C117.26 261.87, 235.47 126.08, 344.41 0.12 M0.43 402.33 C94.75 291.71, 192.5 180.52, 349.58 -0.34 M-0.1 402.99 C96.04 293.5, 190.62 184.97, 349.4 0.12 M0.04 407.7 C89.49 302.81, 180.83 199.44, 354.64 -0.24 M0.18 408.19 C114.03 274.76, 229.98 141.74, 355.07 -0.02 M0.38 413.94 C92.83 306.47, 186.45 197.76, 360.56 0.59 M0.07 415.01 C75.29 326.94, 151.49 239.94, 360.09 0.18 M-0.32 420.46 C119.52 283.27, 237.61 147.02, 365.64 -0.25 M-0.21 421.33 C100.43 303.05, 203.05 185.78, 365.94 -0.44 M0.74 426.78 C78.9 334.31, 159.55 241.84, 369.95 0.13 M0.24 426.72 C111.85 298.96, 222.28 171.83, 370.41 -0.02 M-0.22 433.12 C84.58 336.94, 168.61 239.72, 376.99 -0.16 M-0.21 433.33 C109.91 306.83, 219.4 180.69, 376.05 0.15 M0.23 439.18 C102.35 319.37, 205.29 200.65, 380.89 -0.13 M0.48 438.81 C114.89 306.66, 228.01 176.51, 381.34 0.21 M-0.03 445.28 C113.14 313.51, 226.65 182.04, 387.23 0.37 M-0.06 445 C84.38 347.4, 170.22 248.81, 386.66 -0.45 M0.27 451.09 C140 288.76, 279.78 128.6, 392.27 0.27 M0 451.61 C153.49 275.71, 306.25 100.11, 391.9 -0.15 M-0.49 457.84 C92.31 349.04, 185.24 242.36, 397.43 0.08 M0.28 457.11 C159.09 275.15, 317.89 92.58, 397.64 -0.36 M0.4 463.4 C125.96 318.07, 252.51 172.32, 402.79 -0.19 M-0.58 463.25 C109.33 338, 220.44 210.49, 402.72 0.58 M0.62 469.73 C160.84 284.09, 323.62 98.05, 408.85 0.19 M0.06 469.11 C131.28 317.67, 262.25 166.58, 408.67 -0.42 M-0.02 475.32 C159.64 292.35, 318.88 109.48, 413.26 0.61 M-0.41 475.42 C115.74 344.54, 229.54 213.23, 413.26 -0.07 M-0.97 482.67 C117.4 345.52, 238.5 206.14, 418.91 0.33 M-0.09 481.86 C149 309.31, 300.01 136.04, 418.88 -0.59 M-0.04 486.94 C134.42 335.05, 267.95 181.73, 424.29 -0.38 M-0.14 487.54 C100.6 373.5, 200.45 258.59, 423.78 -0.25 M0.2 494.16 C114.6 360.36, 230.41 228.48, 429.98 -0.63 M0.03 494.27 C109.83 366.51, 219.05 240.28, 429.59 -0.36 M-0.12 499.18 C109.09 373.72, 218.94 246.87, 433.83 0.65 M0.17 499.5 C94.71 389.68, 189.09 281.64, 434.17 0.14 M0.83 505.26 C114.56 373.42, 227.23 242.65, 440.61 -0.55 M0.54 505.01 C96.02 397.37, 191.02 287.18, 439.95 0.08 M6.12 504.62 C119.74 371.54, 233.43 240.54, 443.75 1.47 M6.6 505.28 C93.29 404.52, 181.85 302.29, 444.48 0.64 M11.38 506.06 C108.14 392.35, 205.95 278.95, 444.53 7.84 M11.54 505.7 C110.35 392.57, 207.59 280.89, 443.95 6.95 M16.43 504.97 C188.35 310.84, 358.56 114.57, 444.08 14.08 M17.03 505.25 C187.19 312.54, 356.32 117.95, 443.6 13.66 M22.25 505.83 C146.5 360.79, 273.83 214.57, 444.03 19.72 M22.16 504.89 C162.06 344.78, 301.82 183.57, 444.22 19.2 M27.83 504.15 C121.88 394.07, 218.14 283.3, 444.04 25.96 M27.89 505.24 C161.17 352.38, 294.63 199.43, 443.82 25.31 M31.82 505.3 C137.16 382.25, 244.07 259.58, 444.47 31.2 M32.17 504.92 C178.28 336.66, 325.23 166.54, 444.5 31.55 M38.9 504.83 C172.83 351.9, 304.73 199.39, 444.76 37.01 M38.39 504.66 C168.88 356.68, 297.62 207.55, 444.45 37.58 M43.85 505.69 C138.22 396.03, 233.69 285.58, 444.39 43.68 M43.34 505.59 C200.29 323.34, 358.65 141.15, 444.14 44.07 M49.17 504.94 C193.53 339.12, 337.13 174.81, 444.62 49.2 M48.79 504.61 C149.27 386.63, 250.79 269.48, 444.68 49.59 M53.87 504.61 C143.11 401.44, 232.64 299.09, 444.46 55.56 M53.48 505.4 C173.75 367.17, 293.09 230.96, 444.3 55.87 M59.29 505.57 C144.5 406.97, 229.78 308.65, 444.15 61.77 M58.49 505.82 C143.67 407.04, 228.85 309.86, 444.9 61.94 M64.36 504.94 C206.83 340.57, 349.1 177.52, 444.32 67.53 M64.03 505.13 C147.53 409, 231.47 312.26, 444.39 68.38 M69.64 505.6 C174.29 384.36, 279.86 261.84, 444.6 74.32 M69.1 505.26 C149.13 414.33, 228.49 323.02, 444.08 74.66 M74.37 504.4 C176.47 386.17, 278.85 269.43, 444.46 80.38 M74.83 505.02 C166.74 401.12, 256.1 297.73, 444.28 80.39 M80.39 505.42 C204.22 363.59, 326.47 222.84, 443.33 86.23 M80.05 505.83 C172.72 397.85, 267.06 290, 444.36 87 M85.09 504.31 C188.16 388.35, 292.33 270.25, 444.72 91.71 M85.33 505.2 C210.76 362.91, 335.34 219.83, 444.88 92.33 M90.13 504.69 C189.47 391.49, 287.48 278.13, 443.5 98.8 M90.88 505.74 C199.08 381.75, 305.86 259.07, 444.36 98.37 M95.91 505.68 C170.17 419.48, 243.59 333.83, 444.44 105.53 M96.63 505.31 C191.86 395.6, 287.51 285.99, 443.84 105.09 M100.8 505.52 C171.85 422.83, 245.02 341.23, 444.7 111.39 M100.93 505.31 C209.11 380.09, 316.86 255.88, 444.53 110.47 M106.75 505.11 C180.85 418.67, 255.79 332.02, 444.3 117.21 M107.01 504.83 C186.51 413.38, 267.25 320.58, 444.21 117.38 M112.13 505.23 C219.84 378.61, 330.15 253.85, 444.68 123.02 M112.14 505.72 C236.99 360.11, 362.17 216.08, 444.59 122.92 M117.32 505.26 C227.07 379.07, 335.75 255.88, 444.77 128.45 M117.21 505.15 C191.96 419.99, 265.4 335.61, 444.49 129.05 M122.38 505.2 C201.73 414.81, 280.89 323.63, 444.3 135.48 M122.31 505.45 C251.6 357.1, 379.41 210.3, 443.98 135.14 M127.84 504.4 C225.19 390.33, 324.43 276.81, 444.75 141.85 M128.38 505.13 C217.62 401.62, 308.3 297.08, 444.02 140.86 M132.33 505.27 C217.05 408.76, 302.68 311.1, 444.55 147.98 M133.47 505.45 C195.3 433.63, 259.17 360.81, 444.15 147.86 M138.36 505.42 C257.85 366.88, 376.98 228.53, 444.89 152.6 M138.37 504.64 C212.88 419.4, 288.32 332.46, 444.46 153.33 M143.1 506.2 C242.58 393.04, 341.85 280.29, 445.02 158.99 M144.19 505.57 C217.43 422.25, 290.31 338.54, 444.18 159.78 M149.56 504.79 C253.57 386.24, 356.33 266.12, 444.56 165.09 M149.83 505.34 C209.38 435.1, 269.06 367.06, 443.67 166.07 M155.31 505.04 C222.54 428.34, 291.21 350.98, 443.78 171.18 M153.93 505.71 C236.8 412.22, 318.46 319.12, 444.76 171.65 M159.98 505.79 C225.43 429.55, 292.41 353.79, 443.3 177.35 M159.95 504.48 C220.98 434.28, 282.75 363.34, 443.89 177.74 M165.68 505.51 C223.27 438.29, 283.86 369.55, 445.43 184.2 M164.95 505.35 C250.96 406.02, 336.76 308.06, 444.11 183.22 M170.69 504.43 C233.48 432.9, 293.33 363.14, 443.89 189.57 M171.22 505.03 C233.59 432.91, 295.12 361.33, 443.81 190.55 M175.95 505.64 C232.07 444.36, 286.19 381.32, 443.66 195.7 M175.91 505.07 C234.96 436.14, 294.9 366.88, 443.87 196.43 M179.77 505.19 C279.37 393.3, 376.88 281.83, 443.93 202.22 M180.37 506.07 C268.27 402.59, 357.41 299.41, 444.58 202.38 M186.19 504.21 C273.09 405, 359.32 304.53, 445.21 207.96 M186.07 505.11 C280.67 395.94, 375.82 286.84, 444.13 208.71 M190.22 504.58 C264.05 425.23, 333.98 343.62, 444.33 213.59 M190.94 505.09 C273.06 411.59, 355.42 317.33, 444.4 214.36 M197.93 504.69 C261.07 433.27, 323.61 360.68, 443.56 220.91 M197.29 504.67 C293.42 396.52, 388.17 287.74, 443.96 221.16 M203.04 505.36 C297.22 395.17, 392.29 283.57, 443.28 226.12 M202.5 505.79 C282.17 413.56, 364.24 319.68, 443.85 226.88 M208.17 504.95 C256.21 448, 305.08 393.04, 445.21 231.72 M207.71 504.81 C287.73 413.54, 367.91 320.73, 444.98 232.76 M213.29 505.45 C289.59 413.34, 370.16 323.92, 444.88 237.85 M212.09 505.05 C302.79 402.36, 391.64 299.12, 443.54 239.39 M217.62 505.14 C293.07 416.83, 366.43 330.81, 444.31 244.35 M218.12 505.62 C270.43 446.64, 321.62 387.1, 445.18 244.08 M222.86 504.49 C305.19 412.56, 386.56 317.44, 443.94 250.34 M223.01 505 C281.5 437.2, 339.18 371.16, 444.33 250.59 M230.11 504.14 C311.91 406.34, 399.13 308.49, 445.24 256.74 M229.15 505.27 C285.01 441.97, 339.39 379.49, 443.62 257.73 M234.96 505.61 C298.8 431.05, 363.8 356.32, 445.23 261.86 M234.23 505.18 C280.32 453.09, 327.46 399.48, 444.19 263.79 M240.43 503.56 C290.91 444.06, 343.36 384.73, 443.37 269.14 M239.07 504.6 C311.13 423.33, 383.32 339.34, 444.19 269.14 M244.17 505.98 C288.8 452, 335.36 400.74, 445.9 274.78 M244.6 505.52 C303.09 439.04, 362.28 370.64, 444.78 274.99 M248.73 503.89 C325.19 423.54, 396.88 338.1, 444.03 282.21 M249.97 505.53 C303.12 445.47, 356.95 384.19, 444.08 281.23 M254.3 506.17 C323.03 427.39, 391.99 347.03, 443.77 286.65 M255.09 505.72 C324.46 423.01, 396.02 342.84, 443.27 288.01 M260.15 505.72 C320.07 436.68, 378.05 369.36, 444.49 292.05 M260.09 504.26 C310.37 445.33, 362.37 385.71, 443.89 293.96 M266.19 506.11 C333.61 424.65, 404.31 345.25, 445 300.15 M265.28 506 C325.13 436.07, 384.23 368.47, 444.35 299.58 M271.37 505.06 C315.23 450.47, 361.64 399.18, 445.89 304.61 M271.82 505.31 C317.03 451.13, 364.1 396.53, 445.16 305.47 M275.46 506.63 C333.66 438.15, 395.81 368.74, 443.5 311.22 M275.54 504.75 C326.66 446.21, 377.04 387.43, 443.62 311.82 M280.53 503.96 C332.04 447.45, 376.98 393.55, 445.08 316.84 M281.75 504.2 C321.96 457.61, 362.81 410.96, 444.09 318.22 M286.61 504.57 C338.48 443.7, 395.24 380.17, 443.43 322.79 M286.35 505.72 C319.51 469.09, 352.29 432.04, 444.74 323.96 M292.04 503.95 C335.06 455.66, 379.8 408.34, 445.14 330.61 M291.74 506.05 C330 462.16, 368.81 416.95, 444.37 330.73 M299.1 504.19 C328.25 469.81, 358.36 435.69, 444.69 334.85 M297.41 504.32 C328.79 469.93, 358.2 437.01, 443.75 335.27 M301.02 504.46 C333.65 470.21, 368.82 432.74, 443.41 342.71 M302.97 505.76 C334.91 467, 369.85 427.39, 444.64 342.65 M308.23 505.95 C343.2 466.89, 378.94 425.17, 443.32 349.97 M308.43 504.85 C343.17 462.96, 377.84 423.77, 444 348.58 M314.62 505.58 C355.26 457.91, 394.08 413.19, 446.09 353.24 M312.38 504.69 C361.8 448.01, 410.2 392.14, 444.99 354.23 M317.14 503.93 C357.21 457.11, 401.81 410.69, 442.64 361.49 M318.13 504.53 C367.51 448.73, 415.6 393.18, 444.5 361.21 M325.42 506.72 C351.41 473.44, 378.61 442.46, 444.8 365.1 M323.33 505.59 C364.04 457.66, 406.3 410.68, 443.68 366.45 M329.44 506.18 C370.97 458.25, 411.51 412.11, 445.22 373.76 M329.16 504.83 C372.8 455.35, 414.74 405.09, 443.32 373.72 M332.53 505.03 C367.41 468.51, 400.3 430.03, 442.09 379.99 M333.55 504.99 C364.64 471.54, 394.65 436.77, 443.13 378.96 M341.9 506.43 C381.99 455.64, 421.2 409.42, 444.33 383.2 M339.31 504.94 C371.3 469.63, 401.25 435.2, 443.8 384.06 M346.35 505.92 C375.94 468.91, 408.57 432.22, 442.75 391.85 M344.86 505.26 C383.12 461.8, 420.14 419.49, 443.99 391.68 M350.69 505.37 C386.07 466.31, 416.77 426.5, 445.7 396.18 M350.42 504.77 C384.35 466.29, 418.23 426.97, 444.87 397.44 M357.49 504.9 C378.74 474.99, 407.01 446.92, 442.85 402.11 M354.75 506.03 C383.75 470.24, 413.19 438.19, 443.91 402.56 M361.41 504.81 C390.92 471.16, 418.94 441.74, 444.86 407.93 M361.37 505.93 C385.76 478.71, 409.73 450.18, 443.34 410.03 M367 505.56 C393.53 475.95, 417.99 444.88, 442.49 414.53 M367.25 505.16 C390.81 478.05, 412.15 451.31, 445.25 415.48 M371.03 505.65 C388.87 483.04, 411.02 461.51, 443.67 421.52 M371.07 504.76 C396.33 476.83, 419.91 449.83, 443.52 420.92 M376.31 505.59 C404.13 474.12, 426.97 447.67, 443.19 425.97 M377.91 505.68 C394.29 485.32, 412.12 464.08, 445.43 428.03 M381.96 505.86 C395.08 489.28, 409.94 474.09, 444.46 434.34 M383.5 505.27 C398.71 487.07, 414.46 468.45, 444.32 433.69 M389.28 506.79 C400.24 491.38, 414.02 472.1, 445.23 441.15 M386.88 504.85 C407.79 480.99, 427.21 458.13, 443.24 441.25 M392 506.53 C410.62 485.39, 424.95 465.59, 442.61 445.16 M392.67 504.2 C411.3 483.96, 429.59 461.85, 444.84 446.35 M398.15 505.02 C415.72 484.78, 430.25 465.79, 444.24 451.61 M397.8 505.13 C412.21 489.29, 425.59 472.92, 444.49 451.64 M404.34 505.84 C416.62 490.64, 428.39 478.5, 443.9 456.83 M403.66 503.98 C412.82 495.84, 421.55 484.37, 444.73 457.12 M409.59 504.26 C418.04 494.26, 428.88 482.39, 445.32 466.25 M408.89 505.18 C421.5 490.51, 436.02 476.03, 445.08 464.64 M412.96 505.81 C421.32 495.32, 433.23 484.76, 445.86 471.03 M412.91 506.5 C425.04 492.17, 436.98 479.11, 444.53 470.18 M418.67 506.57 C426.65 498.49, 433.93 489.47, 443.6 478.3 M419.91 504.85 C424.37 498.52, 429.58 492.84, 444.6 476.65 M423.18 507.3 C432.1 496.68, 439.45 488.54, 442.41 483.3 M423.89 505.08 C430.1 498.91, 435.94 491.43, 443.3 483.66 M430.86 506.12 C432.4 498.52, 438.46 494.55, 445.64 488.09 M429.17 504.21 C432.86 502.09, 437.19 497.47, 444.7 488.78 M434.18 504.79 C437.24 502.19, 442.51 498.04, 445.42 493.92 M434.45 505.85 C438.6 502.2, 440.95 498.33, 443.86 495.05 M440.58 504.58 C441.63 503.67, 442.21 502.5, 443.72 501.42 M440.71 504.93 C441.69 504.3, 442.39 502.93, 443.89 501.11" stroke="#fff" stroke-width="0.5" fill="none"></path><path d="M0.57 0.76 C140.57 -0.16, 282.52 -0.21, 442.27 -0.66 M-0.16 0.36 C129.58 0, 260.22 0.55, 443.13 0.48 M442.47 -0.07 C442.76 151.3, 443.44 302.92, 443.58 504.75 M442.9 0.08 C445.1 128.45, 444.58 257.4, 443.06 504.46 M443.66 503.58 C347.99 507.09, 250.81 505.35, 0.35 503.94 M443.01 504.79 C265.92 505.39, 88.72 505.46, 0.12 504.3 M0.58 504.37 C-0.52 338.73, -0.09 172.35, 0.1 -0.26 M0.3 504.58 C0.96 316.21, 1 127.91, -0.28 0.4" stroke="#1971c2" stroke-width="1" fill="none"></path></g><g stroke-linecap="round" transform="translate(851.8667313055014 89.82561250016062) rotate(0 148.63648783799874 233.3364968748394)"><path d="M-1.82 -0.75 L299.24 1.62 L295.49 467.23 L-1 467.13" stroke="none" stroke-width="0" fill="#fff"></path><path d="M-0.91 -0.3 C91.52 -0.09, 184.53 -1.76, 296.99 -0.77 M0.2 -0.72 C73.37 -1.51, 148.38 -2.23, 297.09 -0.73 M296.67 0.74 C297.23 143.66, 296.32 286.62, 296.47 466.27 M297.62 -0.46 C298.97 177.94, 299.45 355.08, 296.85 466.88 M298.15 465.67 C200.7 466.64, 104.66 466.54, -0.54 466.81 M297.44 467.13 C229.71 467.84, 161.82 467.49, -0.7 466.56 M0.64 466.87 C-0.54 365.98, -1.21 266.7, 0.28 -0.9 M-0.37 466.82 C-0.86 329.63, -0.29 192.96, -0.45 0.04" stroke="#1971c2" stroke-width="1" fill="none"></path></g><g transform="translate(46.647750393500246 24.69140625) rotate(0 38.39996337890625 12.5)"><text x="0" y="0" font-family="Virgil, Segoe UI Emoji" font-size="20px" fill="#0000" text-anchor="start" style="white-space: pre;" direction="ltr" dominant-baseline="text-before-edge">Browser</text></g><g transform="translate(99.19462539350025 17.40234375) rotate(0 96.09992980957031 12.5)"><text x="0" y="0" font-family="Virgil, Segoe UI Emoji" font-size="20px" fill="#1971c2" text-anchor="start" style="white-space: pre;" direction="ltr" dominant-baseline="text-before-edge">Browser UI Thread</text></g><g transform="translate(940.4524378935002 10) rotate(0 30.84996795654297 12.5)"><text x="0" y="0" font-family="Virgil, Segoe UI Emoji" font-size="20px" fill="#1971c2" text-anchor="start" style="white-space: pre;" direction="ltr" dominant-baseline="text-before-edge">Server</text></g><g transform="translate(237.25321914350025 87.82421875) rotate(0 64.3759765625 10)"><text x="0" y="0" font-family="Virgil, Segoe UI Emoji" font-size="16px" fill="#1e1e1e" text-anchor="start" style="white-space: pre;" direction="ltr" dominant-baseline="text-before-edge">connectToServer</text></g><g transform="translate(19.514937893500246 53.21484375) rotate(0 32.17595672607422 10)"><text x="0" y="0" font-family="Virgil, Segoe UI Emoji" font-size="16px" fill="#1971c2" text-anchor="start" style="white-space: pre;" direction="ltr" dominant-baseline="text-before-edge">MyApp.js</text></g><g transform="translate(906.3196253935002 59.79296875) rotate(0 78.66394805908203 10)"><text x="0" y="0" font-family="Virgil, Segoe UI Emoji" font-size="16px" fill="#1971c2" text-anchor="start" style="white-space: pre;" direction="ltr" dominant-baseline="text-before-edge">MyApp Vuu Instance</text></g><g stroke-linecap="round" transform="translate(36.651656643500246 194.67578125) rotate(0 62.111328125 77.193359375)"><path d="M1.59 -1.46 L125.38 1.09 L123.33 152.59 L-0.43 155" stroke="none" stroke-width="0" fill="#fff"></path><path d="M-0.25 -1.67 C39.45 2.64, 82.77 1.3, 122.34 -1.25 M0.34 0.38 C33.91 -2.18, 69.46 -0.64, 124.56 -0.21 M122.51 -1.46 C123.86 34.42, 122.65 68.89, 125.39 153.95 M123.66 -0.04 C123.33 39.45, 123.96 80.08, 124.97 154.63 M126.07 153.68 C75.21 152.39, 26.56 153.57, 1.93 154.36 M124.81 155.23 C82.97 154.72, 40.78 154.93, -0.66 155.19 M0.54 154.09 C2.53 106.77, 1.09 61.14, -0.74 -1.03 M-0.85 154.7 C1.03 114.5, -0.58 72.23, -0.89 -0.96" stroke="#1971c2" stroke-width="1" fill="none"></path></g><g stroke-linecap="round"><g transform="translate(38.651656643500246 216.07421875) rotate(0 61.18292099516839 -0.27776922354368594)"><path d="M1.64 -0.25 C28.34 1.06, 52.62 -2.36, 121.34 0.01 M0.67 -0.84 C47.31 -0.91, 93.44 -1, 121.69 0.32" stroke="#1971c2" stroke-width="1" fill="none"></path></g></g><mask></mask><g stroke-linecap="round"><g transform="translate(64.25321914350025 197.62109375) rotate(0 -0.3426353676161966 73.16014268435538)"><path d="M-1.65 -1.69 C2.73 53.16, 0.37 103.04, -0.02 148.01 M0.95 -0.03 C-0.95 48.44, -2 96.63, 0.65 145.89" stroke="#1971c2" stroke-width="1" fill="none"></path></g></g><mask></mask><g stroke-linecap="round"><g transform="translate(90.46806289350025 196.1640625) rotate(0 -0.5990664787982496 73.72638569492847)"><path d="M-1.54 0.42 C-1.27 55.57, 1.09 105.79, 0.1 147.47 M-0.34 -0.87 C-0.42 53.19, -0.54 104.24, -0.8 148.32" stroke="#1971c2" stroke-width="1" fill="none"></path></g></g><mask></mask><g stroke-linecap="round"><g transform="translate(117.39775039350025 197.7734375) rotate(0 -0.5322634861804545 73.51130557339638)"><path d="M-0.51 -0.54 C-1.5 42.28, 0.84 87.25, -1.59 146.55 M-0.06 -0.95 C0.96 44.65, -0.62 89.58, 0.53 147.97" stroke="#1971c2" stroke-width="1" fill="none"></path></g></g><mask></mask><g stroke-linecap="round"><g transform="translate(142.05400039350025 196.9375) rotate(0 -0.05074893217533827 77.36905739316717)"><path d="M-0.47 0.86 C0.81 44.37, 0.02 91.5, -0.13 155.21 M-0.99 -0.48 C-0.33 34.74, 0.08 68.84, 0.89 152.7" stroke="#1971c2" stroke-width="1" fill="none"></path></g></g><mask></mask><g transform="translate(215.19071914350025 174.48828125) rotate(0 75.29596710205078 10)"><text x="0" y="0" font-family="Virgil, Segoe UI Emoji" font-size="16px" fill="#1e1e1e" text-anchor="start" style="white-space: pre;" direction="ltr" dominant-baseline="text-before-edge">RemoteDataSource</text></g><g transform="translate(39.487594143500246 171.1875) rotate(0 46.98396301269531 10)"><text x="0" y="0" font-family="Virgil, Segoe UI Emoji" font-size="16px" fill="#1971c2" text-anchor="start" style="white-space: pre;" direction="ltr" dominant-baseline="text-before-edge">Instruments</text></g><g stroke-linecap="round"><g transform="translate(168.05400039350025 233.76421635556022) rotate(0 25.141049142267207 -0.7983540860776088)"><path d="M0.44 -0.55 C11.7 -0.66, 23.96 -1.94, 50.47 -0.33 M-0.62 -0.81 C12.24 -0.82, 24.98 -1.07, 50.9 -1.27" stroke="#1971c2" stroke-width="1" fill="none"></path></g><g transform="translate(168.05400039350025 233.76421635556022) rotate(0 25.141049142267207 -0.7983540860776088)"><path d="M27.3 7.19 C32.22 5.01, 38.15 1.74, 50.03 -1.12 M26.24 6.93 C32.77 4.86, 39.12 2.62, 50.46 -2.07" stroke="#1971c2" stroke-width="1" fill="none"></path></g><g transform="translate(168.05400039350025 233.76421635556022) rotate(0 25.141049142267207 -0.7983540860776088)"><path d="M27.13 -10.37 C32.08 -8.47, 38.04 -7.66, 50.03 -1.12 M26.08 -10.63 C32.54 -8.59, 38.92 -6.73, 50.46 -2.07" stroke="#1971c2" stroke-width="1" fill="none"></path></g></g><mask></mask><g stroke-linecap="round"><g transform="translate(217.12475420479882 267.8578292649554) rotate(0 -25.724112742766124 -0.3875705752765839)"><path d="M1.9 -1.15 C-17.96 1.63, -36.19 -0.38, -53.35 0.3 M-0.15 -0.24 C-15.53 -0.33, -31.84 0.37, -52.65 -0.15" stroke="#1971c2" stroke-width="1" fill="none"></path></g><g transform="translate(217.12475420479882 267.8578292649554) rotate(0 -25.724112742766124 -0.3875705752765839)"><path d="M-25.96 -10.02 C-36.61 -4.65, -45.57 -3.87, -53.44 -0.23 M-28 -9.11 C-34.93 -6.73, -42.79 -3.5, -52.74 -0.68" stroke="#1971c2" stroke-width="1" fill="none"></path></g><g transform="translate(217.12475420479882 267.8578292649554) rotate(0 -25.724112742766124 -0.3875705752765839)"><path d="M-26.15 7.96 C-36.58 7.32, -45.46 2.09, -53.44 -0.23 M-28.2 8.86 C-35.09 5.77, -42.89 3.54, -52.74 -0.68" stroke="#1971c2" stroke-width="1" fill="none"></path></g></g><mask></mask><g stroke-linecap="round"><g transform="translate(439.26400171861724 128.19701496040216) rotate(0 -6.840853667459328 0.32251628959784284)" fill-rule="evenodd"><path d="M0 0 L3.93 -4.62 L-6.7 -7.3 L-5.08 -15.89 L-17.61 -2.45 L-9.25 -0.22 L-13.74 16.53 L-3.74 4.69" stroke="none" stroke-width="0" fill="#ff00" fill-rule="evenodd"></path><path d="M0 0 C0.85 -1, 1.71 -2, 3.93 -4.62 M0 0 C1.3 -1.52, 2.59 -3.04, 3.93 -4.62 M3.93 -4.62 C-0.29 -5.68, -4.51 -6.75, -6.7 -7.3 M3.93 -4.62 C0.2 -5.56, -3.54 -6.5, -6.7 -7.3 M-6.7 -7.3 C-6.37 -9.07, -6.03 -10.84, -5.08 -15.89 M-6.7 -7.3 C-6.25 -9.67, -5.8 -12.05, -5.08 -15.89 M-5.08 -15.89 C-8.24 -12.49, -11.41 -9.1, -17.61 -2.45 M-5.08 -15.89 C-7.8 -12.97, -10.52 -10.06, -17.61 -2.45 M-17.61 -2.45 C-15.89 -1.99, -14.16 -1.53, -9.25 -0.22 M-17.61 -2.45 C-15.48 -1.88, -13.35 -1.31, -9.25 -0.22 M-9.25 -0.22 C-10.41 4.09, -11.56 8.4, -13.74 16.53 M-9.25 -0.22 C-10.79 5.53, -12.33 11.27, -13.74 16.53 M-13.74 16.53 C-11.12 13.43, -8.5 10.33, -3.74 4.69 M-13.74 16.53 C-10.75 12.99, -7.76 9.44, -3.74 4.69 M-3.74 4.69 C-2.99 3.74, -2.23 2.79, 0 0 M-3.74 4.69 C-2.6 3.26, -1.46 1.83, 0 0" stroke="#f08c00" stroke-width="4" fill="none"></path></g></g><mask></mask><g stroke-linecap="round"><g transform="translate(435.3209574290114 125.808016304398) rotate(0 -0.8001333829443524 1.400266852814184)"><path d="M0 0 C-0.55 0.97, -1.11 1.93, -1.6 2.8 M0 0 C-0.46 0.8, -0.91 1.6, -1.6 2.8" stroke="#f08c00" stroke-width="4" fill="none"></path></g></g><mask></mask><g transform="translate(237.34306289350025 230.984375) rotate(0 46.98396301269531 20)"><text x="0" y="0" font-family="Virgil, Segoe UI Emoji" font-size="16px" fill="#1971c2" text-anchor="start" style="white-space: pre;" direction="ltr" dominant-baseline="text-before-edge">Table: </text><text x="0" y="20" font-family="Virgil, Segoe UI Emoji" font-size="16px" fill="#1971c2" text-anchor="start" style="white-space: pre;" direction="ltr" dominant-baseline="text-before-edge">Instruments</text></g><g stroke-linecap="round" transform="translate(220.69793484883485 206.26063468475553) rotate(0 59.61006830509314 8.408622395011605)"><path d="M119.22 8.41 C119.22 8.81, 119.02 9.21, 118.61 9.61 C118.21 10, 117.6 10.39, 116.81 10.78 C116.01 11.16, 115.01 11.54, 113.83 11.9 C112.66 12.26, 111.29 12.62, 109.76 12.95 C108.23 13.29, 106.51 13.61, 104.66 13.92 C102.81 14.22, 100.78 14.5, 98.65 14.76 C96.51 15.02, 94.22 15.27, 91.84 15.48 C89.46 15.7, 86.95 15.89, 84.37 16.06 C81.8 16.22, 79.12 16.36, 76.4 16.48 C73.69 16.59, 70.89 16.67, 68.09 16.73 C65.29 16.79, 62.44 16.82, 59.61 16.82 C56.78 16.82, 53.93 16.79, 51.13 16.73 C48.33 16.67, 45.53 16.59, 42.82 16.48 C40.1 16.36, 37.42 16.22, 34.85 16.06 C32.27 15.89, 29.76 15.7, 27.38 15.48 C25 15.27, 22.71 15.02, 20.57 14.76 C18.44 14.5, 16.41 14.22, 14.56 13.92 C12.71 13.61, 10.99 13.29, 9.46 12.95 C7.93 12.62, 6.56 12.26, 5.39 11.9 C4.21 11.54, 3.21 11.16, 2.41 10.78 C1.62 10.39, 1.01 10, 0.61 9.61 C0.2 9.21, 0 8.81, 0 8.41 C0 8.01, 0.2 7.61, 0.61 7.21 C1.01 6.82, 1.62 6.42, 2.41 6.04 C3.21 5.66, 4.21 5.28, 5.39 4.92 C6.56 4.55, 7.93 4.2, 9.46 3.86 C10.99 3.53, 12.71 3.2, 14.56 2.9 C16.41 2.6, 18.44 2.32, 20.57 2.05 C22.71 1.79, 25 1.55, 27.38 1.33 C29.76 1.12, 32.27 0.93, 34.85 0.76 C37.42 0.59, 40.1 0.45, 42.82 0.34 C45.53 0.23, 48.33 0.14, 51.13 0.09 C53.93 0.03, 56.78 0, 59.61 0 C62.44 0, 65.29 0.03, 68.09 0.09 C70.89 0.14, 73.69 0.23, 76.4 0.34 C79.12 0.45, 81.8 0.59, 84.37 0.76 C86.95 0.93, 89.46 1.12, 91.84 1.33 C94.22 1.55, 96.51 1.79, 98.65 2.05 C100.78 2.32, 102.81 2.6, 104.66 2.9 C106.51 3.2, 108.23 3.53, 109.76 3.86 C111.29 4.2, 112.66 4.55, 113.83 4.92 C115.01 5.28, 116.01 5.66, 116.81 6.04 C117.6 6.42, 118.21 6.82, 118.61 7.21 C119.02 7.61, 119.12 8.21, 119.22 8.41 C119.32 8.61, 119.32 8.21, 119.22 8.41" stroke="#1971c2" stroke-width="1" fill="none"></path></g><g stroke-linecap="round" transform="translate(220.58716180347164 272.0231866325777) rotate(0 59.71496865496039 11.311027041827572)"><path d="M119.43 11.31 C119.43 11.85, 119.23 12.39, 118.82 12.92 C118.42 13.45, 117.81 13.98, 117.01 14.5 C116.21 15.01, 115.21 15.52, 114.03 16.01 C112.86 16.5, 111.48 16.97, 109.95 17.43 C108.42 17.88, 106.7 18.31, 104.84 18.72 C102.99 19.12, 100.96 19.51, 98.82 19.86 C96.68 20.21, 94.38 20.54, 92 20.83 C89.62 21.12, 87.1 21.38, 84.52 21.6 C81.94 21.82, 79.26 22.01, 76.54 22.16 C73.82 22.32, 71.02 22.43, 68.21 22.51 C65.41 22.58, 62.55 22.62, 59.71 22.62 C56.88 22.62, 54.02 22.58, 51.22 22.51 C48.41 22.43, 45.61 22.32, 42.89 22.16 C40.17 22.01, 37.49 21.82, 34.91 21.6 C32.33 21.38, 29.81 21.12, 27.43 20.83 C25.05 20.54, 22.75 20.21, 20.61 19.86 C18.47 19.51, 16.44 19.12, 14.59 18.72 C12.73 18.31, 11.01 17.88, 9.48 17.43 C7.95 16.97, 6.57 16.5, 5.4 16.01 C4.22 15.52, 3.22 15.01, 2.42 14.5 C1.62 13.98, 1.01 13.45, 0.61 12.92 C0.2 12.39, 0 11.85, 0 11.31 C0 10.77, 0.2 10.23, 0.61 9.7 C1.01 9.17, 1.62 8.64, 2.42 8.12 C3.22 7.61, 4.22 7.1, 5.4 6.61 C6.57 6.12, 7.95 5.65, 9.48 5.2 C11.01 4.74, 12.73 4.31, 14.59 3.9 C16.44 3.5, 18.47 3.11, 20.61 2.76 C22.75 2.41, 25.05 2.09, 27.43 1.8 C29.81 1.51, 32.33 1.25, 34.91 1.02 C37.49 0.8, 40.17 0.61, 42.89 0.46 C45.61 0.31, 48.41 0.19, 51.22 0.12 C54.02 0.04, 56.88 0, 59.71 0 C62.55 0, 65.41 0.04, 68.21 0.12 C71.02 0.19, 73.82 0.31, 76.54 0.46 C79.26 0.61, 81.94 0.8, 84.52 1.02 C87.1 1.25, 89.62 1.51, 92 1.8 C94.38 2.09, 96.68 2.41, 98.82 2.76 C100.96 3.11, 102.99 3.5, 104.84 3.9 C106.7 4.31, 108.42 4.74, 109.95 5.2 C111.48 5.65, 112.86 6.12, 114.03 6.61 C115.21 7.1, 116.21 7.61, 117.01 8.12 C117.81 8.64, 118.42 9.17, 118.82 9.7 C119.23 10.23, 119.33 11.04, 119.43 11.31 C119.53 11.58, 119.53 11.04, 119.43 11.31" stroke="#1971c2" stroke-width="1" fill="none"></path></g><g stroke-linecap="round"><g transform="translate(339.82858020009826 214.51161022629526) rotate(0 0.19183251671546486 34.38407801773175)"><path d="M0 0 C0.06 11.46, 0.32 57.31, 0.38 68.77 M0 0 C0.06 11.46, 0.32 57.31, 0.38 68.77" stroke="#1971c2" stroke-width="1" fill="none"></path></g></g><mask></mask><g stroke-linecap="round"><g transform="translate(220.83424603793196 215.00707176577924) rotate(0 -0.10667832189886894 34.66571335840288)"><path d="M0 0 C-0.04 11.56, -0.18 57.78, -0.21 69.33 M0 0 C-0.04 11.56, -0.18 57.78, -0.21 69.33" stroke="#1971c2" stroke-width="1" fill="none"></path></g></g><mask></mask><g stroke-linecap="round" transform="translate(41.332361469419084 401.7448424724862) rotate(0 62.111328125 77.193359375)"><path d="M-1.52 -0.27 L124.45 -1.95 L123.5 152.91 L0.47 155.69" stroke="none" stroke-width="0" fill="#fff"></path><path d="M-0.44 -0.13 C29.3 -0.14, 61.71 -2.17, 124.32 -1.63 M0.24 0.42 C43.43 0.01, 84.61 -1.79, 125.05 0.94 M122.69 -1.03 C122.58 36.3, 121.28 71.77, 126.13 156.17 M123.65 -0.99 C123.93 39.64, 123.87 78.61, 123.3 155.36 M125.92 155.32 C82.06 155.94, 39.61 153.79, -1.96 154.82 M124.63 153.48 C80.43 152.74, 34.92 153.26, 0.55 154.86 M0.54 156.13 C-0.18 109.3, -0.39 64.65, 1.7 -1.68 M0.09 153.66 C-1.09 107.95, -1.98 62.46, 0.94 0.04" stroke="#1971c2" stroke-width="1" fill="none"></path></g><g stroke-linecap="round"><g transform="translate(43.332361469419084 423.1432799724862) rotate(0 60.48777558840811 -0.10825974570116159)"><path d="M-0.98 0.36 C42.38 -1.58, 82.57 -1.55, 121.96 0.39 M0.86 0.87 C44.2 -1.44, 90.27 0.43, 120.43 -0.65" stroke="#1971c2" stroke-width="1" fill="none"></path></g></g><mask></mask><g stroke-linecap="round"><g transform="translate(68.93392396941908 404.6901549724862) rotate(0 0.43460417399182916 72.78396577201784)"><path d="M1.14 -1.67 C-0.63 41.41, 0.13 86.47, 1.39 147.23 M-0.52 -0.93 C2.1 51.12, 0.59 99.71, 0.52 145.98" stroke="#1971c2" stroke-width="1" fill="none"></path></g></g><mask></mask><g stroke-linecap="round"><g transform="translate(95.14876771941908 403.2331237224862) rotate(0 0.523586338684197 74.43143988214433)"><path d="M0.09 -1.63 C1.7 47.7, 2.23 95.11, 0.84 150.5 M0.83 0.94 C-1.44 56.86, -0.24 114.26, -0.51 148.45" stroke="#1971c2" stroke-width="1" fill="none"></path></g></g><mask></mask><g stroke-linecap="round"><g transform="translate(122.07845521941908 404.8424987224862) rotate(0 0.528602218721062 73.26564906258136)"><path d="M0.85 0.39 C1.45 32.6, 0.91 65.95, 1.73 147.12 M-0.67 -0.65 C1.75 29.88, 0.71 60.99, 0.2 147.18" stroke="#1971c2" stroke-width="1" fill="none"></path></g></g><mask></mask><g stroke-linecap="round"><g transform="translate(146.73470521941908 404.0065612224862) rotate(0 -0.16280794593512837 77.25983359059319)"><path d="M1.39 0.49 C1.49 35.28, 2.39 66.07, -1.86 155.29 M0.52 -0.77 C-1.55 60.18, -0.84 120.03, -0.02 154.59" stroke="#1971c2" stroke-width="1" fill="none"></path></g></g><mask></mask><g transform="translate(219.87142396941908 381.5573424724862) rotate(0 75.29596710205078 10)"><text x="0" y="0" font-family="Virgil, Segoe UI Emoji" font-size="16px" fill="#1e1e1e" text-anchor="start" style="white-space: pre;" direction="ltr" dominant-baseline="text-before-edge">RemoteDataSource</text></g><g transform="translate(44.168298969419084 378.2565612224862) rotate(0 23.215980529785156 10)"><text x="0" y="0" font-family="Virgil, Segoe UI Emoji" font-size="16px" fill="#1971c2" text-anchor="start" style="white-space: pre;" direction="ltr" dominant-baseline="text-before-edge">Prices</text></g><g stroke-linecap="round"><g transform="translate(172.73470521941908 440.83327757804636) rotate(0 24.45355836003239 0.07727722493802958)"><path d="M-1.86 1.65 C21.71 -1.27, 38.37 0.95, 49.8 -1.5 M-0.02 0.95 C14.66 -0.07, 27.67 -0.26, 50.77 -1.46" stroke="#1971c2" stroke-width="1" fill="none"></path></g><g transform="translate(172.73470521941908 440.83327757804636) rotate(0 24.45355836003239 0.07727722493802958)"><path d="M25.22 10.09 C38.03 3.38, 44 1.96, 49.24 -2.49 M27.07 9.39 C34.31 5.57, 39.9 2.85, 50.2 -2.45" stroke="#1971c2" stroke-width="1" fill="none"></path></g><g transform="translate(172.73470521941908 440.83327757804636) rotate(0 24.45355836003239 0.07727722493802958)"><path d="M24.4 -7.45 C37.68 -7.38, 43.97 -2.02, 49.24 -2.49 M26.25 -8.15 C33.74 -7.26, 39.55 -5.27, 50.2 -2.45" stroke="#1971c2" stroke-width="1" fill="none"></path></g></g><mask></mask><g transform="translate(253.79720521941908 433.9010924724862) rotate(0 28.24798583984375 20)"><text x="0" y="0" font-family="Virgil, Segoe UI Emoji" font-size="16px" fill="#1971c2" text-anchor="start" style="white-space: pre;" direction="ltr" dominant-baseline="text-before-edge">Table: </text><text x="0" y="20" font-family="Virgil, Segoe UI Emoji" font-size="16px" fill="#1971c2" text-anchor="start" style="white-space: pre;" direction="ltr" dominant-baseline="text-before-edge">Prices</text></g><g stroke-linecap="round" transform="translate(220.29363797383462 408.9131657342614) rotate(0 59.61006830509314 8.408622395011605)"><path d="M119.22 8.41 C119.22 8.81, 119.02 9.21, 118.61 9.61 C118.21 10, 117.6 10.39, 116.81 10.78 C116.01 11.16, 115.01 11.54, 113.83 11.9 C112.66 12.26, 111.29 12.62, 109.76 12.95 C108.23 13.29, 106.51 13.61, 104.66 13.92 C102.81 14.22, 100.78 14.5, 98.65 14.76 C96.51 15.02, 94.22 15.27, 91.84 15.48 C89.46 15.7, 86.95 15.89, 84.37 16.06 C81.8 16.22, 79.12 16.36, 76.4 16.48 C73.69 16.59, 70.89 16.67, 68.09 16.73 C65.29 16.79, 62.44 16.82, 59.61 16.82 C56.78 16.82, 53.93 16.79, 51.13 16.73 C48.33 16.67, 45.53 16.59, 42.82 16.48 C40.1 16.36, 37.42 16.22, 34.85 16.06 C32.27 15.89, 29.76 15.7, 27.38 15.48 C25 15.27, 22.71 15.02, 20.57 14.76 C18.44 14.5, 16.41 14.22, 14.56 13.92 C12.71 13.61, 10.99 13.29, 9.46 12.95 C7.93 12.62, 6.56 12.26, 5.39 11.9 C4.21 11.54, 3.21 11.16, 2.41 10.78 C1.62 10.39, 1.01 10, 0.61 9.61 C0.2 9.21, 0 8.81, 0 8.41 C0 8.01, 0.2 7.61, 0.61 7.21 C1.01 6.82, 1.62 6.42, 2.41 6.04 C3.21 5.66, 4.21 5.28, 5.39 4.92 C6.56 4.55, 7.93 4.2, 9.46 3.86 C10.99 3.53, 12.71 3.2, 14.56 2.9 C16.41 2.6, 18.44 2.32, 20.57 2.05 C22.71 1.79, 25 1.55, 27.38 1.33 C29.76 1.12, 32.27 0.93, 34.85 0.76 C37.42 0.59, 40.1 0.45, 42.82 0.34 C45.53 0.23, 48.33 0.14, 51.13 0.09 C53.93 0.03, 56.78 0, 59.61 0 C62.44 0, 65.29 0.03, 68.09 0.09 C70.89 0.14, 73.69 0.23, 76.4 0.34 C79.12 0.45, 81.8 0.59, 84.37 0.76 C86.95 0.93, 89.46 1.12, 91.84 1.33 C94.22 1.55, 96.51 1.79, 98.65 2.05 C100.78 2.32, 102.81 2.6, 104.66 2.9 C106.51 3.2, 108.23 3.53, 109.76 3.86 C111.29 4.2, 112.66 4.55, 113.83 4.92 C115.01 5.28, 116.01 5.66, 116.81 6.04 C117.6 6.42, 118.21 6.82, 118.61 7.21 C119.02 7.61, 119.12 8.21, 119.22 8.41 C119.32 8.61, 119.32 8.21, 119.22 8.41" stroke="#1971c2" stroke-width="1" fill="none"></path></g><g stroke-linecap="round" transform="translate(220.18286492847142 474.67571768208336) rotate(0 59.71496865496039 11.311027041827572)"><path d="M119.43 11.31 C119.43 11.85, 119.23 12.39, 118.82 12.92 C118.42 13.45, 117.81 13.98, 117.01 14.5 C116.21 15.01, 115.21 15.52, 114.03 16.01 C112.86 16.5, 111.48 16.97, 109.95 17.43 C108.42 17.88, 106.7 18.31, 104.84 18.72 C102.99 19.12, 100.96 19.51, 98.82 19.86 C96.68 20.21, 94.38 20.54, 92 20.83 C89.62 21.12, 87.1 21.38, 84.52 21.6 C81.94 21.82, 79.26 22.01, 76.54 22.16 C73.82 22.32, 71.02 22.43, 68.21 22.51 C65.41 22.58, 62.55 22.62, 59.71 22.62 C56.88 22.62, 54.02 22.58, 51.22 22.51 C48.41 22.43, 45.61 22.32, 42.89 22.16 C40.17 22.01, 37.49 21.82, 34.91 21.6 C32.33 21.38, 29.81 21.12, 27.43 20.83 C25.05 20.54, 22.75 20.21, 20.61 19.86 C18.47 19.51, 16.44 19.12, 14.59 18.72 C12.73 18.31, 11.01 17.88, 9.48 17.43 C7.95 16.97, 6.57 16.5, 5.4 16.01 C4.22 15.52, 3.22 15.01, 2.42 14.5 C1.62 13.98, 1.01 13.45, 0.61 12.92 C0.2 12.39, 0 11.85, 0 11.31 C0 10.77, 0.2 10.23, 0.61 9.7 C1.01 9.17, 1.62 8.64, 2.42 8.12 C3.22 7.61, 4.22 7.1, 5.4 6.61 C6.57 6.12, 7.95 5.65, 9.48 5.2 C11.01 4.74, 12.73 4.31, 14.59 3.9 C16.44 3.5, 18.47 3.11, 20.61 2.76 C22.75 2.41, 25.05 2.09, 27.43 1.8 C29.81 1.51, 32.33 1.25, 34.91 1.02 C37.49 0.8, 40.17 0.61, 42.89 0.46 C45.61 0.31, 48.41 0.19, 51.22 0.12 C54.02 0.04, 56.88 0, 59.71 0 C62.55 0, 65.41 0.04, 68.21 0.12 C71.02 0.19, 73.82 0.31, 76.54 0.46 C79.26 0.61, 81.94 0.8, 84.52 1.02 C87.1 1.25, 89.62 1.51, 92 1.8 C94.38 2.09, 96.68 2.41, 98.82 2.76 C100.96 3.11, 102.99 3.5, 104.84 3.9 C106.7 4.31, 108.42 4.74, 109.95 5.2 C111.48 5.65, 112.86 6.12, 114.03 6.61 C115.21 7.1, 116.21 7.61, 117.01 8.12 C117.81 8.64, 118.42 9.17, 118.82 9.7 C119.23 10.23, 119.33 11.04, 119.43 11.31 C119.53 11.58, 119.53 11.04, 119.43 11.31" stroke="#1971c2" stroke-width="1" fill="none"></path></g><g stroke-linecap="round"><g transform="translate(339.42428332509803 417.16414127580106) rotate(0 0.19183251671546486 34.384078017731724)"><path d="M0 0 C0.06 11.46, 0.32 57.31, 0.38 68.77 M0 0 C0.06 11.46, 0.32 57.31, 0.38 68.77" stroke="#1971c2" stroke-width="1" fill="none"></path></g></g><mask></mask><g stroke-linecap="round"><g transform="translate(220.42994916293173 417.6596028152851) rotate(0 -0.10667832189886894 34.66571335840291)"><path d="M0 0 C-0.04 11.56, -0.18 57.78, -0.21 69.33 M0 0 C-0.04 11.56, -0.18 57.78, -0.21 69.33" stroke="#1971c2" stroke-width="1" fill="none"></path></g></g><mask></mask><g stroke-linecap="round"><g transform="translate(216.75321914350025 463.125) rotate(0 -25.407531070522964 -0.04818907558245655)"><path d="M-0.43 1.16 C-18.28 -1.69, -38.11 -1.81, -51.14 -0.31 M0.95 0.93 C-15.91 -0.13, -34.01 0.19, -51.76 -0.91" stroke="#1971c2" stroke-width="1" fill="none"></path></g><g transform="translate(216.75321914350025 463.125) rotate(0 -25.407531070522964 -0.04818907558245655)"><path d="M-27.14 -7.67 C-35.39 -7.57, -45.62 -4.92, -50.35 -1.22 M-25.76 -7.91 C-33.77 -6.42, -43.05 -3.56, -50.97 -1.82" stroke="#1971c2" stroke-width="1" fill="none"></path></g><g transform="translate(216.75321914350025 463.125) rotate(0 -25.407531070522964 -0.04818907558245655)"><path d="M-27.91 10.29 C-35.86 4.12, -45.82 0.5, -50.35 -1.22 M-26.53 10.05 C-34.35 5.78, -43.38 2.88, -50.97 -1.82" stroke="#1971c2" stroke-width="1" fill="none"></path></g></g><mask></mask><g transform="translate(335.30400039350025 322.6914062500001) rotate(269.7987350152617 94.37390899658203 13.06640240697601)"><text x="0" y="0" font-family="Virgil, Segoe UI Emoji" font-size="20.906243851161616px" fill="#1971c2" text-anchor="start" style="white-space: pre;" direction="ltr" dominant-baseline="text-before-edge">ConnectionManager</text></g><g stroke-linecap="round"><g transform="translate(343.39384414350025 233.36328125) rotate(0 29.869030678644776 0.6497994526289403)"><path d="M-0.76 0.83 C21.46 1, 41.71 0.56, 60.5 1.72 M0.12 0.42 C15.51 0.16, 31.47 -0.01, 60.23 -0.42" stroke="#1971c2" stroke-width="1" fill="none"></path></g><g transform="translate(343.39384414350025 233.36328125) rotate(0 29.869030678644776 0.6497994526289403)"><path d="M31.42 11.06 C42.61 7.48, 51.81 3.46, 59.76 1.3 M32.29 10.65 C39.13 7.75, 46.46 4.78, 59.49 -0.83" stroke="#1971c2" stroke-width="1" fill="none"></path></g><g transform="translate(343.39384414350025 233.36328125) rotate(0 29.869030678644776 0.6497994526289403)"><path d="M31.14 -9.46 C42.36 -6.15, 51.65 -3.27, 59.76 1.3 M32.01 -9.87 C38.78 -7.39, 46.18 -4.98, 59.49 -0.83" stroke="#1971c2" stroke-width="1" fill="none"></path></g></g><mask></mask><g stroke-linecap="round"><g transform="translate(403.67509414350025 266.9296875) rotate(0 -30.11656758049503 0.40242608822882175)"><path d="M1.35 1.68 C-15.73 -0.62, -32.99 1.04, -59.62 -0.87 M-0.61 0.94 C-16.51 0.68, -32.57 1, -61.58 0.17" stroke="#1971c2" stroke-width="1" fill="none"></path></g><g transform="translate(403.67509414350025 266.9296875) rotate(0 -30.11656758049503 0.40242608822882175)"><path d="M-31.83 -7.82 C-40.61 -7.59, -49.53 -3.49, -59.83 -0.71 M-33.79 -8.56 C-41.17 -6.37, -48.63 -3.53, -61.79 0.33" stroke="#1971c2" stroke-width="1" fill="none"></path></g><g transform="translate(403.67509414350025 266.9296875) rotate(0 -30.11656758049503 0.40242608822882175)"><path d="M-32.27 12.7 C-40.84 7.74, -49.65 6.65, -59.83 -0.71 M-34.23 11.96 C-41.33 8.79, -48.68 6.29, -61.79 0.33" stroke="#1971c2" stroke-width="1" fill="none"></path></g></g><mask></mask><g stroke-linecap="round"><g transform="translate(344.12040664350025 439.09375) rotate(0 29.73192867077887 -0.35880278393432263)"><path d="M-0.64 -0.77 C22.81 -0.16, 42.86 -2.38, 60.1 -0.41 M-0.14 0.53 C15.91 0.35, 32.39 0.14, 59.18 0.28" stroke="#1971c2" stroke-width="1" fill="none"></path></g><g transform="translate(344.12040664350025 439.09375) rotate(0 29.73192867077887 -0.35880278393432263)"><path d="M31.06 9.46 C43.24 6.77, 52.08 0.94, 60.81 -0.13 M31.55 10.75 C38.93 7.84, 46.77 4.86, 59.89 0.56" stroke="#1971c2" stroke-width="1" fill="none"></path></g><g transform="translate(344.12040664350025 439.09375) rotate(0 29.73192867077887 -0.35880278393432263)"><path d="M31.09 -10.54 C43.36 -5.99, 52.18 -4.58, 60.81 -0.13 M31.58 -9.25 C39.03 -6.58, 46.86 -3.98, 59.89 0.56" stroke="#1971c2" stroke-width="1" fill="none"></path></g></g><mask></mask><g stroke-linecap="round"><g transform="translate(402.57743789350036 471.27716726315055) rotate(0 -33.27493344616636 1.1641103763364526)"><path d="M-1.35 0.89 C-23.85 -0.36, -46.4 1.17, -65.74 2.55 M0.13 0.25 C-13.41 -0.58, -27.67 -0.28, -66.68 0.83" stroke="#1971c2" stroke-width="1" fill="none"></path></g><g transform="translate(402.57743789350036 471.27716726315055) rotate(0 -33.27493344616636 1.1641103763364526)"><path d="M-40.12 -9.28 C-49.3 -7.1, -58.49 -2.03, -65.12 2.78 M-38.64 -9.92 C-44.02 -8.62, -50.05 -6.14, -66.06 1.06" stroke="#1971c2" stroke-width="1" fill="none"></path></g><g transform="translate(402.57743789350036 471.27716726315055) rotate(0 -33.27493344616636 1.1641103763364526)"><path d="M-39.58 11.23 C-48.88 6.47, -58.26 4.58, -65.12 2.78 M-38.1 10.59 C-43.45 7.61, -49.59 5.8, -66.06 1.06" stroke="#1971c2" stroke-width="1" fill="none"></path></g></g><mask></mask><g stroke-linecap="round"><g transform="translate(377.81962539350036 100.074630895094) rotate(0 14.130867036990765 -1.0614046240001755)"><path d="M0.39 -0.44 C11.65 -2.01, 20.42 -2.31, 28.09 -2.04 M0.05 0.01 C10.27 -0.73, 18.56 -0.67, 28.22 -1.4" stroke="#1971c2" stroke-width="1" fill="none"></path></g><g transform="translate(377.81962539350036 100.074630895094) rotate(0 14.130867036990765 -1.0614046240001755)"><path d="M15.6 3.84 C20.78 0.75, 24.24 -1.5, 28.24 -2.39 M15.36 4.16 C20.18 1.87, 23.68 0.17, 28.32 -1.94" stroke="#1971c2" stroke-width="1" fill="none"></path></g><g transform="translate(377.81962539350036 100.074630895094) rotate(0 14.130867036990765 -1.0614046240001755)"><path d="M15.04 -5.74 C20.48 -5.03, 24.15 -3.47, 28.24 -2.39 M14.81 -5.43 C19.89 -4.45, 23.58 -2.89, 28.32 -1.94" stroke="#1971c2" stroke-width="1" fill="none"></path></g></g><mask></mask><g stroke-linecap="round" transform="translate(520.6477503935002 81.515625) rotate(0 115.873046875 246.525390625)"><path d="M0.88 1.08 C75.93 0.64, 154.37 -0.21, 231.87 -0.77 M-0.69 0.81 C84.37 1.75, 167.41 0.77, 231.42 -0.49 M232.4 0.21 C231.16 152.56, 232.16 303.97, 232.49 492.74 M231.67 -0.11 C233.83 128.59, 233.34 256.86, 231.91 493.02 M231.56 493.58 C171.03 493.22, 109.65 492.35, 0.37 493.84 M231.99 493.37 C179.99 495.15, 126.73 494.48, 0.65 493.55 M0.7 493.16 C-0.97 360.48, -0.51 227.17, -0.58 0.79 M0.32 493.39 C0.71 327.1, 0.44 161.2, -0.33 -0.19" stroke="#1971c2" stroke-width="1" fill="none"></path></g><g transform="translate(520.772574917426 58.3984375) rotate(0 34.71195983886719 10)"><text x="0" y="0" font-family="Virgil, Segoe UI Emoji" font-size="16px" fill="#1971c2" text-anchor="start" style="white-space: pre;" direction="ltr" dominant-baseline="text-before-edge">Worker.js</text></g><g transform="translate(527.911849514594 22.9375) rotate(0 102.45991516113281 12.5)"><text x="0" y="0" font-family="Virgil, Segoe UI Emoji" font-size="20px" fill="#1971c2" text-anchor="start" style="white-space: pre;" direction="ltr" dominant-baseline="text-before-edge">Browser - WebWorker</text></g><g stroke-linecap="round" transform="translate(535.7297816435002 96.83203125) rotate(0 99.587890625 17.380859375)"><path d="M0 0 C0 0, 0 0, 0 0 M0 0 C0 0, 0 0, 0 0 M-0.66 6.21 C0.68 5.2, 2.8 3.95, 4.78 0.48 M-0.59 6.51 C0.85 4.72, 2.56 3.64, 4.77 0.47 M-0.74 11.82 C2.67 10.99, 4.2 7.11, 10.58 -1.6 M0.48 11.36 C3.33 8.71, 5.89 6.78, 10.41 0.11 M-1.49 18.77 C4.04 12.78, 7.39 9.5, 15.52 1.07 M-0.43 19.13 C4.13 13.19, 10.79 6.98, 15.1 0.33 M1.21 26.05 C5.21 18.25, 11.52 10.31, 23.24 -2 M-0.3 24.23 C8.41 14.91, 14.97 6.9, 20.75 -0.1 M0.78 32.18 C9.03 22.83, 16.87 12.95, 24.8 -0.12 M0.84 29.93 C7.13 21.27, 14.86 13.35, 26.22 0.09 M1.45 34.37 C9.2 29.99, 15.3 20.31, 32.73 -1.44 M0.89 36.1 C8.57 26.62, 14.92 18.91, 31.49 -0.94 M4.39 35.35 C14.79 23.86, 25.16 14.02, 38.83 -1.3 M6.09 36.58 C18 21.87, 28.68 8.72, 36.34 -0.5 M12.32 36.93 C17.72 29.26, 23.21 22.55, 44.49 -0.39 M12.43 36.27 C22.36 23.05, 32.64 12.68, 42.54 -0.84 M18.35 34.84 C23.73 25.26, 32.25 16.18, 46.5 -0.74 M16.5 36.59 C28.09 23.19, 38.75 11.34, 46.57 0.35 M21.77 35.9 C31.64 22.79, 43.61 11.27, 51.38 0.17 M22.11 36.27 C31 25.19, 40.37 15.5, 53.87 0.47 M27.81 36.06 C36.15 24.07, 46.57 11.41, 57.15 1.38 M28.03 35.92 C36.48 25.85, 45.54 15.9, 57.53 -0.39 M31.99 36.22 C39.2 25.42, 48.32 18.97, 63.67 0.35 M33.15 35.52 C43.43 23.49, 52.17 13.82, 64.52 -1.04 M39.91 36.26 C46.06 23.79, 56.31 13.53, 70.48 0.96 M38.27 34.99 C49.07 21.83, 61.66 8.92, 68.41 0.47 M43.58 34.91 C52.6 20.83, 65.85 10.95, 75.05 -0.64 M43.27 35.66 C54.35 21.96, 67.67 9.02, 73.57 -0.71 M49.21 35.76 C58.81 27.9, 63.84 16.25, 78.63 0.01 M48.87 34.89 C54.47 29.42, 61.51 21.12, 79.93 -0.66 M53.54 35.12 C63.37 27.25, 70.51 16.29, 84.58 1.51 M53.78 35.52 C61.25 26.41, 70.3 18.18, 85.14 -0.17 M59.66 36.01 C69.88 22.95, 79.26 11, 88.14 0.62 M58.51 36.44 C68.92 23.3, 80.64 11.13, 89.36 0.81 M64.63 36.81 C69.77 27.69, 80.25 20.71, 94.77 -1.82 M63.86 36.87 C71.49 28.86, 78 21.48, 95.42 -0.35 M70.62 37.5 C82.49 21.04, 94.92 8.88, 101.95 -1 M69.94 35.14 C76.74 28.25, 83.28 20.78, 101.54 0.67 M73.98 35.8 C88.85 21.17, 100.42 6.19, 105.5 -2.14 M74.19 36.46 C86.39 22, 99.36 7.96, 105.61 -0.47 M78.87 33.86 C88.55 26.56, 97.48 15.91, 109.4 -0.59 M80.93 36.2 C88.04 26.96, 94.9 17.38, 111.83 0.92 M87.14 34.24 C97.06 24.55, 107.34 11.35, 115.42 0.89 M86.06 35.47 C97.88 21.46, 109.1 8.35, 116.33 -0.29 M92.59 33.8 C102.2 22.31, 116.86 9.38, 120.25 0.25 M91.32 35.55 C100.8 24.78, 109.97 14.7, 121.15 0.78 M94.77 35.65 C106.96 25.68, 116.1 12.19, 126.56 -1.57 M96.95 35.54 C106.2 24.17, 114.66 14.14, 127.21 -0.16 M101.34 35.1 C112.51 25.31, 120.99 12.71, 130.67 -0.03 M101.97 34.8 C109.92 25.22, 118.54 15.69, 132.95 -0.35 M105.88 35.61 C114.67 29.76, 118.3 22.62, 138.36 -0.99 M106.88 36.53 C115.54 25.38, 124.78 15.43, 137.96 0.58 M114.14 34.68 C118.76 24.2, 129.04 17.78, 141.21 -0.84 M111.83 36.27 C118.15 28.68, 124.24 19.66, 142.25 0.14 M117.92 35.82 C128.88 26.27, 137.88 11.13, 148.35 -0.51 M117.41 35.48 C127.68 23.11, 137.01 12.59, 147.97 -0.48 M121.36 34.5 C129.67 27.93, 139.21 15.41, 154.85 -1.54 M122.85 35.99 C130.61 25.73, 139.75 15.08, 154.6 -0.93 M126.74 34.07 C137.65 24.74, 147.7 11.92, 157.46 -0.16 M128.68 35.64 C138.5 22.43, 149.01 9.44, 158.71 0.93 M132.81 35.67 C141.67 24.54, 151.95 17.66, 162.97 0.63 M133.05 34.69 C146.59 22.15, 157.36 7.29, 165.12 0.46 M140.59 34.23 C150.14 23.24, 163.38 7.31, 168.01 1.08 M138.35 35.47 C148.05 25.75, 155.78 15.86, 168.67 0.83 M143.69 36.34 C157.36 21.73, 169.63 7.76, 175.36 0.53 M143.49 34.8 C153.34 24.71, 163.79 12.7, 175.44 0.52 M150.13 36.27 C159.88 24.8, 168.6 15.15, 181.75 -0.61 M148.62 35.63 C162.02 20.95, 174.3 7.4, 180.41 -0.11 M156.63 33.8 C167.03 22, 174.69 8.98, 186.2 -0.92 M155.3 35.46 C161.08 28.25, 166.64 20.17, 184.76 0.68 M158.44 34.26 C172.76 21.34, 181.1 9.69, 189.82 -0.02 M159.26 35.98 C170.57 22.68, 180.68 12.39, 191.52 0.54 M163.64 34.4 C172.6 24.08, 183.1 17.28, 196.1 1.32 M164.62 35.5 C174.11 23.63, 184.31 13.6, 196.83 0.57 M170.98 34.36 C179.31 25.29, 184.59 15.6, 202.11 -0.06 M170.58 34.58 C180.77 24.7, 190.23 13.57, 200.99 0.62 M176.15 35.6 C185.17 26.03, 190.65 17.32, 199.5 5.94 M175.67 34.47 C185.69 23.55, 194.88 14.31, 200.38 6.56 M181.63 36.82 C185.37 30.16, 189.93 28.28, 200.75 12.03 M180.43 34.7 C188.29 28.01, 194.48 20.73, 199.66 14.26 M186.33 36.7 C190.47 28.89, 197.12 24.29, 202.44 21.12 M187.03 36.35 C190.34 31.56, 195.28 25.82, 199.87 18.68 M191.05 34.53 C196.3 30.86, 197.37 27.8, 200.26 24.55 M191.39 35.71 C194.52 31.51, 197.77 27.7, 199.72 25.98 M196.43 36.46 C197.39 34.86, 198.28 33.69, 200.66 31.43 M196.9 35.78 C198.22 34.17, 199.23 32.77, 200.65 31.12" stroke="#a5d8ff" stroke-width="0.5" fill="none"></path><path d="M1.57 1.73 C71.7 1.36, 142.6 2.27, 200.36 -1.47 M-0.03 -0.41 C76.04 0.92, 150.94 1.43, 200.11 -0.85 M197.72 1.37 C199.89 7.25, 199.77 17.15, 198.54 35.28 M198.55 -0.17 C198.9 12.23, 198.4 22.97, 198.6 34.46 M200.76 35.89 C139 36.93, 76.85 34.15, 1.48 34.23 M200.11 35.64 C139.54 35.45, 81.88 35.08, -0.22 34.83 M0.33 33.24 C1.65 26.08, -1.52 17.25, -0.8 -1.3 M-0.15 35.38 C0.62 23.05, 0.69 13.36, 0.93 0.23" stroke="#1971c2" stroke-width="1" fill="none"></path></g><g transform="translate(583.2844691435002 105.66796875) rotate(0 40.51197814941406 10)"><text x="0" y="0" font-family="Virgil, Segoe UI Emoji" font-size="16px" fill="#1971c2" text-anchor="start" style="white-space: pre;" direction="ltr" dominant-baseline="text-before-edge">WebSocket</text></g><g stroke-linecap="round"><g transform="translate(743.4133753935002 106.09375) rotate(0 54.88613778632134 -0.21848492296442146)"><path d="M0.84 1.44 C35.75 -0.77, 70.18 -3.52, 110.32 -0.63 M-0.77 -0.5 C28.43 -0.13, 54.82 0.13, 110.54 -0.76" stroke="#1971c2" stroke-width="1" fill="none"></path></g><g transform="translate(743.4133753935002 106.09375) rotate(0 54.88613778632134 -0.21848492296442146)"><path d="M83.32 11.28 C92.56 6.76, 101.34 1, 111.05 -0.36 M81.71 9.34 C90.2 7.08, 95.87 4.91, 111.26 -0.5" stroke="#1971c2" stroke-width="1" fill="none"></path></g><g transform="translate(743.4133753935002 106.09375) rotate(0 54.88613778632134 -0.21848492296442146)"><path d="M83.07 -9.24 C92.42 -7.32, 101.28 -6.64, 111.05 -0.36 M81.46 -11.18 C89.98 -8.24, 95.71 -5.21, 111.26 -0.5" stroke="#1971c2" stroke-width="1" fill="none"></path></g></g><mask></mask><g stroke-linecap="round"><g transform="translate(850.1282191435002 124.28125) rotate(0 -55.11297365417704 -0.4842383430453765)"><path d="M1.98 0.63 C-33.31 -2.59, -64.23 -2.61, -110.13 0.8 M0.34 -0.63 C-44.35 -1.12, -87.35 -0.21, -112.21 0.32" stroke="#1971c2" stroke-width="1" fill="none"></path></g><g transform="translate(850.1282191435002 124.28125) rotate(0 -55.11297365417704 -0.4842383430453765)"><path d="M-82.24 -9.86 C-93.42 -9.38, -100.13 -6.28, -110.49 1.13 M-83.89 -11.13 C-95.88 -6.73, -106.21 -1.6, -112.57 0.64" stroke="#1971c2" stroke-width="1" fill="none"></path></g><g transform="translate(850.1282191435002 124.28125) rotate(0 -55.11297365417704 -0.4842383430453765)"><path d="M-81.84 10.66 C-92.97 5.21, -99.81 2.39, -110.49 1.13 M-83.48 9.39 C-95.68 5.79, -106.17 2.93, -112.57 0.64" stroke="#1971c2" stroke-width="1" fill="none"></path></g></g><mask></mask><g stroke-linecap="round"><g transform="translate(456.13603164350025 101.8828125) rotate(0 39.869063997641206 -0.6500511113554239)"><path d="M0.21 0.76 C30.43 -0.83, 61.21 -0.71, 79.52 -2.06 M0.27 0.46 C21.15 -0.06, 40.87 0.9, 78.43 -1.52" stroke="#1971c2" stroke-width="1" fill="none"></path></g><g transform="translate(456.13603164350025 101.8828125) rotate(0 39.869063997641206 -0.6500511113554239)"><path d="M50.97 10.82 C61.38 5.38, 72.39 1.6, 78.71 -2.18 M51.02 10.52 C58.42 6.84, 64.62 5.13, 77.62 -1.64" stroke="#1971c2" stroke-width="1" fill="none"></path></g><g transform="translate(456.13603164350025 101.8828125) rotate(0 39.869063997641206 -0.6500511113554239)"><path d="M50 -9.68 C60.86 -7.26, 72.24 -3.18, 78.71 -2.18 M50.05 -9.98 C57.64 -8.27, 64.09 -4.61, 77.62 -1.64" stroke="#1971c2" stroke-width="1" fill="none"></path></g></g><mask></mask><g stroke-linecap="round"><g transform="translate(529.7922816435002 126.1171875) rotate(0 -35.97980406600982 -0.3986085639335215)"><path d="M-0.8 -1.8 C-18.2 0.15, -39.92 -0.59, -69.3 0.98 M-0.69 -0.12 C-19.97 -0.63, -40.12 -0.09, -71.27 1" stroke="#1971c2" stroke-width="1" fill="none"></path></g><g transform="translate(529.7922816435002 126.1171875) rotate(0 -35.97980406600982 -0.3986085639335215)"><path d="M-44.23 -11.97 C-49.62 -7.17, -59.36 -5.26, -70.12 0.21 M-44.12 -10.29 C-51.23 -7.95, -59.29 -4.73, -72.08 0.23" stroke="#1971c2" stroke-width="1" fill="none"></path></g><g transform="translate(529.7922816435002 126.1171875) rotate(0 -35.97980406600982 -0.3986085639335215)"><path d="M-43.56 8.55 C-49.2 7.57, -59.13 3.71, -70.12 0.21 M-43.45 10.22 C-50.88 6.74, -59.13 4.13, -72.08 0.23" stroke="#1971c2" stroke-width="1" fill="none"></path></g></g><mask></mask><g transform="translate(499.0106673257435 308.636115038343) rotate(269.7987350152617 60.202430725097656 13.06640240697601)"><text x="0" y="0" font-family="Virgil, Segoe UI Emoji" font-size="20.906243851161616px" fill="#1971c2" text-anchor="start" style="white-space: pre;" direction="ltr" dominant-baseline="text-before-edge">ServerProxy</text></g><g stroke-linecap="round" transform="translate(633.6907191435002 181.00390625) rotate(0 53.29296875 74.56640625)"><path d="M-0.3 -1.4 L106.51 -1.43 L106.86 147.53 L-1.86 149.58" stroke="none" stroke-width="0" fill="#fff"></path><path d="M-1.38 -1.7 C36.02 -1.61, 70.06 1.31, 106.89 -0.83 M-0.81 0.58 C35.36 -0.01, 71.58 -1.16, 106.78 0.38 M107.81 1.74 C108.19 39.7, 108.2 77.67, 105.39 148.64 M107.5 0.07 C108.05 43.14, 108.51 88.02, 106.48 149.8 M105.35 150.7 C69.38 149.41, 32.75 146.93, 1.99 147.77 M105.71 149.98 C81.97 148.42, 56.25 149.44, -0.73 148.71 M0.91 148.29 C2.06 114.2, -0.27 84.68, -1.09 0.43 M0.17 149.32 C-0.99 115.36, 0.25 81.57, 0.7 -0.85" stroke="#1971c2" stroke-width="1" fill="none"></path></g><g stroke-linecap="round" transform="translate(692.9408359020374 287.7674053630732) rotate(90.58601858780379 23.072454808640487 3.525259576902471)"><path d="M46.14 3.53 C46.14 3.73, 46.03 3.94, 45.79 4.14 C45.56 4.34, 45.21 4.54, 44.75 4.73 C44.3 4.92, 43.72 5.11, 43.05 5.29 C42.39 5.46, 41.61 5.63, 40.75 5.79 C39.89 5.95, 38.93 6.09, 37.9 6.23 C36.88 6.36, 35.77 6.48, 34.61 6.58 C33.45 6.68, 32.22 6.77, 30.96 6.84 C29.71 6.91, 28.39 6.96, 27.08 7 C25.76 7.03, 24.41 7.05, 23.07 7.05 C21.74 7.05, 20.38 7.03, 19.07 7 C17.75 6.96, 16.44 6.91, 15.18 6.84 C13.93 6.77, 12.69 6.68, 11.54 6.58 C10.38 6.48, 9.26 6.36, 8.24 6.23 C7.22 6.09, 6.26 5.95, 5.4 5.79 C4.54 5.63, 3.76 5.46, 3.09 5.29 C2.42 5.11, 1.85 4.92, 1.39 4.73 C0.93 4.54, 0.58 4.34, 0.35 4.14 C0.12 3.94, 0 3.73, 0 3.53 C0 3.32, 0.12 3.11, 0.35 2.91 C0.58 2.71, 0.93 2.51, 1.39 2.32 C1.85 2.13, 2.42 1.94, 3.09 1.76 C3.76 1.59, 4.54 1.42, 5.4 1.26 C6.26 1.1, 7.22 0.96, 8.24 0.82 C9.26 0.69, 10.38 0.57, 11.54 0.47 C12.69 0.37, 13.93 0.28, 15.18 0.21 C16.44 0.14, 17.75 0.09, 19.07 0.05 C20.38 0.02, 21.74 0, 23.07 0 C24.41 0, 25.76 0.02, 27.08 0.05 C28.39 0.09, 29.71 0.14, 30.96 0.21 C32.22 0.28, 33.45 0.37, 34.61 0.47 C35.77 0.57, 36.88 0.69, 37.9 0.82 C38.93 0.96, 39.89 1.1, 40.75 1.26 C41.61 1.42, 42.39 1.59, 43.05 1.76 C43.72 1.94, 44.3 2.13, 44.75 2.32 C45.21 2.51, 45.56 2.71, 45.79 2.91 C46.03 3.11, 46.09 3.42, 46.14 3.53 C46.2 3.63, 46.2 3.42, 46.14 3.53" stroke="#1971c2" stroke-width="1" fill="none"></path></g><g stroke-linecap="round" transform="translate(631.0200379533519 286.6377934361822) rotate(90.58601858780379 23.113057154025 4.378004717695973)"><path d="M46.23 4.38 C46.23 4.63, 46.11 4.89, 45.87 5.14 C45.64 5.39, 45.29 5.64, 44.83 5.88 C44.37 6.11, 43.8 6.35, 43.13 6.57 C42.46 6.79, 41.68 7, 40.82 7.19 C39.96 7.39, 38.99 7.57, 37.97 7.73 C36.94 7.89, 35.83 8.04, 34.67 8.17 C33.51 8.3, 32.28 8.41, 31.02 8.49 C29.76 8.58, 28.44 8.65, 27.13 8.69 C25.81 8.73, 24.45 8.76, 23.11 8.76 C21.78 8.76, 20.42 8.73, 19.1 8.69 C17.78 8.65, 16.47 8.58, 15.21 8.49 C13.95 8.41, 12.72 8.3, 11.56 8.17 C10.4 8.04, 9.28 7.89, 8.26 7.73 C7.23 7.57, 6.27 7.39, 5.41 7.19 C4.55 7, 3.77 6.79, 3.1 6.57 C2.43 6.35, 1.85 6.11, 1.39 5.88 C0.94 5.64, 0.58 5.39, 0.35 5.14 C0.12 4.89, 0 4.63, 0 4.38 C0 4.12, 0.12 3.87, 0.35 3.62 C0.58 3.37, 0.94 3.12, 1.39 2.88 C1.85 2.64, 2.43 2.41, 3.1 2.19 C3.77 1.97, 4.55 1.76, 5.41 1.56 C6.27 1.37, 7.23 1.19, 8.26 1.02 C9.28 0.86, 10.4 0.71, 11.56 0.59 C12.72 0.46, 13.95 0.35, 15.21 0.26 C16.47 0.18, 17.78 0.11, 19.1 0.07 C20.42 0.02, 21.78 0, 23.11 0 C24.45 0, 25.81 0.02, 27.13 0.07 C28.44 0.11, 29.76 0.18, 31.02 0.26 C32.28 0.35, 33.51 0.46, 34.67 0.59 C35.83 0.71, 36.94 0.86, 37.97 1.02 C38.99 1.19, 39.96 1.37, 40.82 1.56 C41.68 1.76, 42.46 1.97, 43.13 2.19 C43.8 2.41, 44.37 2.64, 44.83 2.88 C45.29 3.12, 45.64 3.37, 45.87 3.62 C46.11 3.87, 46.17 4.25, 46.23 4.38 C46.28 4.5, 46.28 4.25, 46.23 4.38" stroke="#1971c2" stroke-width="1" fill="none"></path></g><g stroke-linecap="round"><g transform="translate(684.3252447221626 283.825542480602) rotate(90.58601858780379 -0.06149883384750865 30.6907057403412)"><path d="M0 0 C-0.02 10.23, -0.1 51.15, -0.12 61.38 M0 0 C-0.02 10.23, -0.1 51.15, -0.12 61.38" stroke="#1971c2" stroke-width="1" fill="none"></path></g></g><mask></mask><g stroke-linecap="round"><g transform="translate(684.7215811049502 237.21311435717394) rotate(90.58601858780379 0.1373044744574372 30.87843407894934)"><path d="M0 0 C0.05 10.29, 0.23 51.46, 0.27 61.76 M0 0 C0.05 10.29, 0.23 51.46, 0.27 61.76" stroke="#1971c2" stroke-width="1" fill="none"></path></g></g><mask></mask><g transform="translate(648.1243128935002 188.3671875) rotate(0 31.471969604492188 10)"><text x="0" y="0" font-family="Virgil, Segoe UI Emoji" font-size="16px" fill="#1971c2" text-anchor="start" style="white-space: pre;" direction="ltr" dominant-baseline="text-before-edge">Viewport</text></g><g transform="translate(648.9250941435002 215.33203125) rotate(0 46.98396301269531 20)"><text x="0" y="0" font-family="Virgil, Segoe UI Emoji" font-size="16px" fill="#1971c2" text-anchor="start" style="white-space: pre;" direction="ltr" dominant-baseline="text-before-edge">Table:</text><text x="0" y="20" font-family="Virgil, Segoe UI Emoji" font-size="16px" fill="#1971c2" text-anchor="start" style="white-space: pre;" direction="ltr" dominant-baseline="text-before-edge">Instruments</text></g><g stroke-linecap="round" transform="translate(631.0461878935002 347.171875) rotate(0 53.29296875 74.56640625)"><path d="M-0.78 1.05 L105.53 -1.94 L105.88 147.54 L0.35 149.86" stroke="none" stroke-width="0" fill="#fff"></path><path d="M-1.97 -0.77 C23.55 1.11, 45.56 0.34, 107.51 0.14 M-0.31 -0.3 C32.84 0.89, 66.53 0.35, 107.14 0.85 M104.82 0.43 C104.03 41.23, 106.91 85.79, 105.3 150.17 M106.59 0.29 C106.9 50.39, 105.77 99.84, 106.86 148.94 M106.9 151.1 C64.8 147.78, 23.98 148.6, 1.25 149.51 M106.79 148.63 C67.71 149.08, 28.38 149.81, -0.11 148.83 M-0.66 148.04 C-0.16 93.84, 2.08 40.7, -1.06 -1.19 M-0.3 149.36 C0.06 89.14, -0.38 29.48, -0.62 0.18" stroke="#1971c2" stroke-width="1" fill="none"></path></g><g stroke-linecap="round" transform="translate(690.2963046520372 453.9353741130732) rotate(90.58601858780379 23.072454808640487 3.5252595769024992)"><path d="M46.14 3.53 C46.14 3.73, 46.03 3.94, 45.79 4.14 C45.56 4.34, 45.21 4.54, 44.75 4.73 C44.3 4.92, 43.72 5.11, 43.05 5.29 C42.39 5.46, 41.61 5.63, 40.75 5.79 C39.89 5.95, 38.93 6.09, 37.9 6.23 C36.88 6.36, 35.77 6.48, 34.61 6.58 C33.45 6.68, 32.22 6.77, 30.96 6.84 C29.71 6.91, 28.39 6.96, 27.08 7 C25.76 7.03, 24.41 7.05, 23.07 7.05 C21.74 7.05, 20.38 7.03, 19.07 7 C17.75 6.96, 16.44 6.91, 15.18 6.84 C13.93 6.77, 12.69 6.68, 11.54 6.58 C10.38 6.48, 9.26 6.36, 8.24 6.23 C7.22 6.09, 6.26 5.95, 5.4 5.79 C4.54 5.63, 3.76 5.46, 3.09 5.29 C2.42 5.11, 1.85 4.92, 1.39 4.73 C0.93 4.54, 0.58 4.34, 0.35 4.14 C0.12 3.94, 0 3.73, 0 3.53 C0 3.32, 0.12 3.11, 0.35 2.91 C0.58 2.71, 0.93 2.51, 1.39 2.32 C1.85 2.13, 2.42 1.94, 3.09 1.76 C3.76 1.59, 4.54 1.42, 5.4 1.26 C6.26 1.1, 7.22 0.96, 8.24 0.82 C9.26 0.69, 10.38 0.57, 11.54 0.47 C12.69 0.37, 13.93 0.28, 15.18 0.21 C16.44 0.14, 17.75 0.09, 19.07 0.05 C20.38 0.02, 21.74 0, 23.07 0 C24.41 0, 25.76 0.02, 27.08 0.05 C28.39 0.09, 29.71 0.14, 30.96 0.21 C32.22 0.28, 33.45 0.37, 34.61 0.47 C35.77 0.57, 36.88 0.69, 37.9 0.82 C38.93 0.96, 39.89 1.1, 40.75 1.26 C41.61 1.42, 42.39 1.59, 43.05 1.76 C43.72 1.94, 44.3 2.13, 44.75 2.32 C45.21 2.51, 45.56 2.71, 45.79 2.91 C46.03 3.11, 46.09 3.42, 46.14 3.53 C46.2 3.63, 46.2 3.42, 46.14 3.53" stroke="#1971c2" stroke-width="1" fill="none"></path></g><g stroke-linecap="round" transform="translate(628.3755067033517 452.80576218618216) rotate(90.58601858780379 23.113057154025 4.378004717695944)"><path d="M46.23 4.38 C46.23 4.63, 46.11 4.89, 45.87 5.14 C45.64 5.39, 45.29 5.64, 44.83 5.88 C44.37 6.11, 43.8 6.35, 43.13 6.57 C42.46 6.79, 41.68 7, 40.82 7.19 C39.96 7.39, 38.99 7.57, 37.97 7.73 C36.94 7.89, 35.83 8.04, 34.67 8.17 C33.51 8.3, 32.28 8.41, 31.02 8.49 C29.76 8.58, 28.44 8.65, 27.13 8.69 C25.81 8.73, 24.45 8.76, 23.11 8.76 C21.78 8.76, 20.42 8.73, 19.1 8.69 C17.78 8.65, 16.47 8.58, 15.21 8.49 C13.95 8.41, 12.72 8.3, 11.56 8.17 C10.4 8.04, 9.28 7.89, 8.26 7.73 C7.23 7.57, 6.27 7.39, 5.41 7.19 C4.55 7, 3.77 6.79, 3.1 6.57 C2.43 6.35, 1.85 6.11, 1.39 5.88 C0.94 5.64, 0.58 5.39, 0.35 5.14 C0.12 4.89, 0 4.63, 0 4.38 C0 4.12, 0.12 3.87, 0.35 3.62 C0.58 3.37, 0.94 3.12, 1.39 2.88 C1.85 2.64, 2.43 2.41, 3.1 2.19 C3.77 1.97, 4.55 1.76, 5.41 1.56 C6.27 1.37, 7.23 1.19, 8.26 1.02 C9.28 0.86, 10.4 0.71, 11.56 0.59 C12.72 0.46, 13.95 0.35, 15.21 0.26 C16.47 0.18, 17.78 0.11, 19.1 0.07 C20.42 0.02, 21.78 0, 23.11 0 C24.45 0, 25.81 0.02, 27.13 0.07 C28.44 0.11, 29.76 0.18, 31.02 0.26 C32.28 0.35, 33.51 0.46, 34.67 0.59 C35.83 0.71, 36.94 0.86, 37.97 1.02 C38.99 1.19, 39.96 1.37, 40.82 1.56 C41.68 1.76, 42.46 1.97, 43.13 2.19 C43.8 2.41, 44.37 2.64, 44.83 2.88 C45.29 3.12, 45.64 3.37, 45.87 3.62 C46.11 3.87, 46.17 4.25, 46.23 4.38 C46.28 4.5, 46.28 4.25, 46.23 4.38" stroke="#1971c2" stroke-width="1" fill="none"></path></g><g stroke-linecap="round"><g transform="translate(681.6807134721626 449.99351123060205) rotate(90.58601858780379 -0.06149883384750865 30.690705740341173)"><path d="M0 0 C-0.02 10.23, -0.1 51.15, -0.12 61.38 M0 0 C-0.02 10.23, -0.1 51.15, -0.12 61.38" stroke="#1971c2" stroke-width="1" fill="none"></path></g></g><mask></mask><g stroke-linecap="round"><g transform="translate(682.07704985495 403.38108310717394) rotate(90.58601858780379 0.1373044744574372 30.87843407894934)"><path d="M0 0 C0.05 10.29, 0.23 51.46, 0.27 61.76 M0 0 C0.05 10.29, 0.23 51.46, 0.27 61.76" stroke="#1971c2" stroke-width="1" fill="none"></path></g></g><mask></mask><g transform="translate(645.4797816435002 354.53515625) rotate(0 31.471969604492188 10)"><text x="0" y="0" font-family="Virgil, Segoe UI Emoji" font-size="16px" fill="#1971c2" text-anchor="start" style="white-space: pre;" direction="ltr" dominant-baseline="text-before-edge">Viewport</text></g><g transform="translate(651.9915003935002 383.06640625) rotate(0 24.24798583984375 20)"><text x="0" y="0" font-family="Virgil, Segoe UI Emoji" font-size="16px" fill="#1971c2" text-anchor="start" style="white-space: pre;" direction="ltr" dominant-baseline="text-before-edge">Table:</text><text x="0" y="20" font-family="Virgil, Segoe UI Emoji" font-size="16px" fill="#1971c2" text-anchor="start" style="white-space: pre;" direction="ltr" dominant-baseline="text-before-edge">Prices</text></g><g stroke-linecap="round"><g transform="translate(458.57353164350025 238.04076975272352) rotate(0 38.78062263736501 -0.07114034893911025)"><path d="M-0.2 0.85 C30.17 -1.19, 56.12 1.46, 77.34 -0.99 M0.21 0.48 C17.68 0.03, 34.33 0.49, 77.76 -0.02" stroke="#1971c2" stroke-width="1" fill="none"></path></g><g transform="translate(458.57353164350025 238.04076975272352) rotate(0 38.78062263736501 -0.07114034893911025)"><path d="M49.45 11.3 C61.33 5.41, 68.81 4.19, 77.2 -1.01 M49.86 10.93 C56.06 7.91, 61.5 6.02, 77.62 -0.04" stroke="#1971c2" stroke-width="1" fill="none"></path></g><g transform="translate(458.57353164350025 238.04076975272352) rotate(0 38.78062263736501 -0.07114034893911025)"><path d="M49.29 -9.22 C61.3 -7.5, 68.85 -1.12, 77.2 -1.01 M49.71 -9.59 C56.06 -7.99, 61.54 -5.26, 77.62 -0.04" stroke="#1971c2" stroke-width="1" fill="none"></path></g></g><mask></mask><g stroke-linecap="round"><g transform="translate(532.6555628935002 275.289137813153) rotate(0 -38.09418815215548 0.6235482829474677)"><path d="M-1.77 0.77 C-31.05 -0.67, -59.95 -0.57, -76.3 1.68 M0.11 -0.31 C-15.42 -0.58, -30.31 0.31, -75.32 -0.43" stroke="#1971c2" stroke-width="1" fill="none"></path></g><g transform="translate(532.6555628935002 275.289137813153) rotate(0 -38.09418815215548 0.6235482829474677)"><path d="M-48.81 -9.66 C-59.55 -6.76, -69.95 -2.78, -75.8 1.2 M-46.92 -10.74 C-52.67 -8.65, -57.86 -5.73, -74.82 -0.91" stroke="#1971c2" stroke-width="1" fill="none"></path></g><g transform="translate(532.6555628935002 275.289137813153) rotate(0 -38.09418815215548 0.6235482829474677)"><path d="M-49 10.86 C-59.75 5.78, -70.08 1.76, -75.8 1.2 M-47.11 9.78 C-53 7.68, -58.14 6.42, -74.82 -0.91" stroke="#1971c2" stroke-width="1" fill="none"></path></g></g><mask></mask><g stroke-linecap="round"><g transform="translate(459.4680628935005 441.9267333307349) rotate(0 36.60846531996492 0.4212655488434507)"><path d="M-1.5 0.81 C28.72 -1.28, 60.67 -1.54, 72.53 1.6 M-0.05 -0.67 C26.3 1.38, 53.26 -0.25, 74.71 0.29" stroke="#1971c2" stroke-width="1" fill="none"></path></g><g transform="translate(459.4680628935005 441.9267333307349) rotate(0 36.60846531996492 0.4212655488434507)"><path d="M45 11.28 C56.83 5.44, 70.39 1.15, 72.86 1.95 M46.44 9.8 C56.05 7.79, 66.29 2.5, 75.04 0.64" stroke="#1971c2" stroke-width="1" fill="none"></path></g><g transform="translate(459.4680628935005 441.9267333307349) rotate(0 36.60846531996492 0.4212655488434507)"><path d="M45.05 -9.24 C56.88 -6.91, 70.42 -3.03, 72.86 1.95 M46.5 -10.72 C56.15 -5.3, 66.37 -3.16, 75.04 0.64" stroke="#1971c2" stroke-width="1" fill="none"></path></g></g><mask></mask><g stroke-linecap="round"><g transform="translate(530.0540003935002 479.6512079384497) rotate(0 -35.388588005676866 -0.4353333028338966)"><path d="M0.59 0.4 C-16.95 0.26, -34.48 -1.52, -71.37 -1.27 M0.34 0.05 C-15.07 0.17, -30.51 0.28, -70.23 0.42" stroke="#1971c2" stroke-width="1" fill="none"></path></g><g transform="translate(530.0540003935002 479.6512079384497) rotate(0 -35.388588005676866 -0.4353333028338966)"><path d="M-41.48 -9.55 C-49 -7.37, -56.56 -6.69, -71.72 -0.92 M-41.74 -9.9 C-48.17 -7.98, -54.64 -5.65, -70.58 0.78" stroke="#1971c2" stroke-width="1" fill="none"></path></g><g transform="translate(530.0540003935002 479.6512079384497) rotate(0 -35.388588005676866 -0.4353333028338966)"><path d="M-41.4 10.97 C-49.08 8.26, -56.67 4.04, -71.72 -0.92 M-41.66 10.62 C-48.12 8.13, -54.6 6.05, -70.58 0.78" stroke="#1971c2" stroke-width="1" fill="none"></path></g></g><mask></mask><g stroke-linecap="round"><g transform="translate(551.2580756932143 169.41015625000006) rotate(0 0.7619703889065477 -17.93768393434587)"><path d="M1.98 0.92 C-0.97 -9.23, -0.76 -15.34, 0.11 -36.79 M0.48 0.69 C0.26 -8.36, 1.11 -18.18, 0 -35.08" stroke="#1971c2" stroke-width="1" fill="none"></path></g><g transform="translate(551.2580756932143 169.41015625000006) rotate(0 0.7619703889065477 -17.93768393434587)"><path d="M8.46 -17.94 C4.11 -23.54, 2.62 -25.63, -0.7 -36.41 M7.13 -18.14 C5.02 -22.26, 3.8 -27.04, -0.8 -34.89" stroke="#1971c2" stroke-width="1" fill="none"></path></g><g transform="translate(551.2580756932143 169.41015625000006) rotate(0 0.7619703889065477 -17.93768393434587)"><path d="M-3.6 -17.45 C-5.27 -23.25, -4.07 -25.45, -0.7 -36.41 M-4.93 -17.65 C-3.88 -21.87, -1.93 -26.79, -0.8 -34.89" stroke="#1971c2" stroke-width="1" fill="none"></path></g></g><mask></mask><g stroke-linecap="round"><g transform="translate(571.1204066435002 133.74609375) rotate(0 -0.1909295790384249 19.2373080374673)"><path d="M-0.5 1.93 C0.53 9.14, -1.4 15.31, -1 38.79 M0.67 -0.73 C-0.12 15.46, 0.1 30.15, -0.49 39.21" stroke="#1971c2" stroke-width="1" fill="none"></path></g><g transform="translate(571.1204066435002 133.74609375) rotate(0 -0.1909295790384249 19.2373080374673)"><path d="M-7.01 22.35 C-4.59 25.15, -5.2 26.97, -1.47 38.6 M-5.86 19.73 C-4.28 28.1, -1.77 34.94, -0.97 39.01" stroke="#1971c2" stroke-width="1" fill="none"></path></g><g transform="translate(571.1204066435002 133.74609375) rotate(0 -0.1909295790384249 19.2373080374673)"><path d="M6.46 22.86 C6.02 25.63, 2.54 27.34, -1.47 38.6 M7.61 20.24 C4.07 28.3, 1.46 34.96, -0.97 39.01" stroke="#1971c2" stroke-width="1" fill="none"></path></g></g><mask></mask><g stroke-linecap="round"><g transform="translate(584.4524378935002 217.48778897371255) rotate(0 25.55178758641705 0.5117286428028933)"><path d="M0.87 -0.36 C12.76 -0.5, 26.06 -0.34, 51.6 1.81 M-0.49 -0.54 C11.04 -0.07, 23.61 -0.06, 51.49 -0.79" stroke="#1971c2" stroke-width="1" fill="none"></path></g><g transform="translate(584.4524378935002 217.48778897371255) rotate(0 25.55178758641705 0.5117286428028933)"><path d="M28.81 8.01 C34.08 5.44, 40.68 3.32, 52.56 1.01 M27.45 7.83 C32.77 6.29, 39.05 4.16, 52.46 -1.59" stroke="#1971c2" stroke-width="1" fill="none"></path></g><g transform="translate(584.4524378935002 217.48778897371255) rotate(0 25.55178758641705 0.5117286428028933)"><path d="M28.44 -9.27 C33.66 -7.55, 40.36 -5.37, 52.56 1.01 M27.08 -9.45 C32.33 -6.96, 38.71 -5.07, 52.46 -1.59" stroke="#1971c2" stroke-width="1" fill="none"></path></g></g><mask></mask><g stroke-linecap="round"><g transform="translate(634.2063441435002 244.10780954812947) rotate(0 -26.347470013890415 -0.3188824222164044)"><path d="M-1.95 0.25 C-18.63 0.61, -36.44 1.49, -52.11 -1.4 M-0.59 0.4 C-14.87 1.3, -30.27 0.36, -51.38 -0.53" stroke="#1971c2" stroke-width="1" fill="none"></path></g><g transform="translate(634.2063441435002 244.10780954812947) rotate(0 -26.347470013890415 -0.3188824222164044)"><path d="M-29.28 -7.88 C-36.04 -4.76, -43.92 -1.01, -53.02 -1.91 M-27.91 -7.72 C-34.03 -4.67, -41.33 -3.28, -52.3 -1.03" stroke="#1971c2" stroke-width="1" fill="none"></path></g><g transform="translate(634.2063441435002 244.10780954812947) rotate(0 -26.347470013890415 -0.3188824222164044)"><path d="M-30.02 9.37 C-36.47 6, -44.06 3.26, -53.02 -1.91 M-28.66 9.52 C-34.71 7.28, -41.79 3.39, -52.3 -1.03" stroke="#1971c2" stroke-width="1" fill="none"></path></g></g><mask></mask><g stroke-linecap="round"><g transform="translate(591.2922816435002 384.5390625) rotate(0 22.680294902581863 0.10555645264685154)"><path d="M-0.22 -1.49 C14.23 -0.85, 30.83 0.17, 45.7 1.7 M-0.33 0.02 C14.07 1.23, 29.96 0.84, 44.2 -0.94" stroke="#1971c2" stroke-width="1" fill="none"></path></g><g transform="translate(591.2922816435002 384.5390625) rotate(0 22.680294902581863 0.10555645264685154)"><path d="M23.61 7.19 C29.24 4.24, 37.04 1.83, 44.86 0.76 M23.5 8.7 C29.9 6.62, 37.83 3.12, 43.36 -1.88" stroke="#1971c2" stroke-width="1" fill="none"></path></g><g transform="translate(591.2922816435002 384.5390625) rotate(0 22.680294902581863 0.10555645264685154)"><path d="M22.19 -8.15 C28.37 -5.62, 36.68 -2.56, 44.86 0.76 M22.08 -6.64 C28.99 -3.75, 37.37 -2.3, 43.36 -1.88" stroke="#1971c2" stroke-width="1" fill="none"></path></g></g><mask></mask><g stroke-linecap="round"><g transform="translate(630.0461878935002 405.74296423500493) rotate(0 -23.192119506187737 -0.42385721005109644)"><path d="M0.35 0.48 C-8.78 -1.55, -20.15 1.41, -46.3 -1.76 M0.65 0.48 C-16.07 0.01, -34.13 -1.34, -47.04 0.92" stroke="#1971c2" stroke-width="1" fill="none"></path></g><g transform="translate(630.0461878935002 405.74296423500493) rotate(0 -23.192119506187737 -0.42385721005109644)"><path d="M-25.6 -8.55 C-29.22 -8.21, -35.03 -3.07, -46.7 -0.79 M-25.29 -8.55 C-32.76 -5.16, -41.49 -2.85, -47.44 1.89" stroke="#1971c2" stroke-width="1" fill="none"></path></g><g transform="translate(630.0461878935002 405.74296423500493) rotate(0 -23.192119506187737 -0.42385721005109644)"><path d="M-24.14 7.34 C-28 4.21, -34.13 5.89, -46.7 -0.79 M-23.84 7.34 C-31.73 4.91, -40.99 1.42, -47.44 1.89" stroke="#1971c2" stroke-width="1" fill="none"></path></g></g><mask></mask></svg>