<svg version="1.1" xmlns="http://www.w3.org/2000/svg" viewBox="0 0 993.8428319814989 395.8186045341714" width="1987.6856639629978" height="791.6372090683428">
  <!-- svg-source:excalidraw -->
  
  <defs>
    <style class="style-fonts">
      @font-face {
        font-family: "Virgil";
        src: url("https://excalidraw.com/Virgil.woff2");
      }
      @font-face {
        font-family: "Cascadia";
        src: url("https://excalidraw.com/Cascadia.woff2");
      }
    </style>
    
  </defs>
  <rect x="0" y="0" width="993.8428319814989" height="395.8186045341714" fill="#ffffff"></rect><g stroke-linecap="round" transform="translate(10 85.07139203449265) rotate(0 221.54469096299874 150.37360624983938)"><path d="M0.96 0.22 L441.34 -1.38 L441.32 300.45 L-1.93 302.66" stroke="none" stroke-width="0" fill="#fff"></path><path d="M0.57 0.76 C140.57 -0.16, 282.52 -0.21, 442.27 -0.66 M-0.16 0.36 C129.58 0, 260.22 0.55, 443.13 0.48 M441.96 -0.13 C442.31 90.39, 443.56 181.37, 443.98 301.2 M442.74 0.15 C445.47 76.48, 444.53 153.87, 443.04 300.68 M443.66 299.83 C347.99 303.34, 250.81 301.6, 0.35 300.19 M443.01 301.04 C265.92 301.64, 88.72 301.71, 0.12 300.55 M1.06 300.51 C-0.89 202.35, -0.1 102.83, 0.18 -0.48 M0.56 300.89 C1.01 188.65, 1.09 76.55, -0.51 0.73" stroke="#1971c2" stroke-width="1" fill="none"></path></g><g stroke-linecap="round" transform="translate(686.5698563055014 76.35686250016062) rotate(0 148.63648783799874 150.3736062498394)"><path d="M-1.82 -0.75 L299.24 1.62 L295.49 301.3 L-1 301.2" stroke="none" stroke-width="0" fill="#fff"></path><path d="M-0.91 -0.3 C91.52 -0.09, 184.53 -1.76, 296.99 -0.77 M0.2 -0.72 C73.37 -1.51, 148.38 -2.23, 297.09 -0.73 M296.31 1.19 C297.5 93.19, 296.03 185.26, 295.99 300.09 M297.83 -0.73 C298.95 114.9, 299.72 228.52, 296.6 301.08 M298.15 299.75 C200.7 300.72, 104.66 300.62, -0.54 300.88 M297.44 301.21 C229.71 301.92, 161.82 301.57, -0.7 300.63 M1.03 301.06 C-0.36 235.26, -1.44 172.06, 0.45 -1.44 M-0.59 300.99 C-1.08 212.25, -0.15 124.36, -0.72 0.06" stroke="#1971c2" stroke-width="1" fill="none"></path></g><g transform="translate(46.647750393500246 28.23046875) rotate(0 38.39996337890625 12.5)"><text x="0" y="0" font-family="Virgil, Segoe UI Emoji" font-size="20px" fill="#0000" text-anchor="start" style="white-space: pre;" direction="ltr" dominant-baseline="text-before-edge">Browser</text></g><g transform="translate(98.06571914350025 19.671875) rotate(0 38.39996337890625 12.5)"><text x="0" y="0" font-family="Virgil, Segoe UI Emoji" font-size="20px" fill="#1971c2" text-anchor="start" style="white-space: pre;" direction="ltr" dominant-baseline="text-before-edge">Browser</text></g><g transform="translate(783.3079066435002 10) rotate(0 30.84996795654297 12.5)"><text x="0" y="0" font-family="Virgil, Segoe UI Emoji" font-size="20px" fill="#1971c2" text-anchor="start" style="white-space: pre;" direction="ltr" dominant-baseline="text-before-edge">Server</text></g><g transform="translate(237.25321914350025 91.36328125) rotate(0 64.3759765625 10)"><text x="0" y="0" font-family="Virgil, Segoe UI Emoji" font-size="16px" fill="#1e1e1e" text-anchor="start" style="white-space: pre;" direction="ltr" dominant-baseline="text-before-edge">connectToServer</text></g><g transform="translate(19.514937893500246 56.75390625) rotate(0 32.17595672607422 10)"><text x="0" y="0" font-family="Virgil, Segoe UI Emoji" font-size="16px" fill="#1971c2" text-anchor="start" style="white-space: pre;" direction="ltr" dominant-baseline="text-before-edge">MyApp.js</text></g><g transform="translate(748.4133753935002 51.2265625) rotate(0 78.66394805908203 10)"><text x="0" y="0" font-family="Virgil, Segoe UI Emoji" font-size="16px" fill="#1971c2" text-anchor="start" style="white-space: pre;" direction="ltr" dominant-baseline="text-before-edge">MyApp Vuu Instance</text></g><g stroke-linecap="round" transform="translate(36.651656643500246 198.21484375) rotate(0 62.111328125 77.193359375)"><path d="M1.59 -1.46 L125.38 1.09 L123.33 152.59 L-0.43 155" stroke="none" stroke-width="0" fill="#fff"></path><path d="M-0.25 -1.67 C39.45 2.64, 82.77 1.3, 122.34 -1.25 M0.34 0.38 C33.91 -2.18, 69.46 -0.64, 124.56 -0.21 M122.51 -1.46 C123.86 34.42, 122.65 68.89, 125.39 153.95 M123.66 -0.04 C123.33 39.45, 123.96 80.08, 124.97 154.63 M126.07 153.68 C75.21 152.39, 26.56 153.57, 1.93 154.36 M124.81 155.23 C82.97 154.72, 40.78 154.93, -0.66 155.19 M0.54 154.09 C2.53 106.77, 1.09 61.14, -0.74 -1.03 M-0.85 154.7 C1.03 114.5, -0.58 72.23, -0.89 -0.96" stroke="#1971c2" stroke-width="1" fill="none"></path></g><g stroke-linecap="round"><g transform="translate(38.651656643500246 219.61328125) rotate(0 61.18292099516839 -0.27776922354368594)"><path d="M1.64 -0.25 C28.34 1.06, 52.62 -2.36, 121.34 0.01 M0.67 -0.84 C47.31 -0.91, 93.44 -1, 121.69 0.32" stroke="#1971c2" stroke-width="1" fill="none"></path></g></g><mask></mask><g stroke-linecap="round"><g transform="translate(64.25321914350025 201.16015625) rotate(0 -0.3426353676161966 73.16014268435538)"><path d="M-1.65 -1.69 C2.73 53.16, 0.37 103.04, -0.02 148.01 M0.95 -0.03 C-0.95 48.44, -2 96.63, 0.65 145.89" stroke="#1971c2" stroke-width="1" fill="none"></path></g></g><mask></mask><g stroke-linecap="round"><g transform="translate(90.46806289350025 199.703125) rotate(0 -0.5990664787982496 73.72638569492847)"><path d="M-1.54 0.42 C-1.27 55.57, 1.09 105.79, 0.1 147.47 M-0.34 -0.87 C-0.42 53.19, -0.54 104.24, -0.8 148.32" stroke="#1971c2" stroke-width="1" fill="none"></path></g></g><mask></mask><g stroke-linecap="round"><g transform="translate(117.39775039350025 201.3125) rotate(0 -0.5322634861804545 73.51130557339638)"><path d="M-0.51 -0.54 C-1.5 42.28, 0.84 87.25, -1.59 146.55 M-0.06 -0.95 C0.96 44.65, -0.62 89.58, 0.53 147.97" stroke="#1971c2" stroke-width="1" fill="none"></path></g></g><mask></mask><g stroke-linecap="round"><g transform="translate(142.05400039350025 200.4765625) rotate(0 -0.05074893217533827 77.36905739316717)"><path d="M-0.47 0.86 C0.81 44.37, 0.02 91.5, -0.13 155.21 M-0.99 -0.48 C-0.33 34.74, 0.08 68.84, 0.89 152.7" stroke="#1971c2" stroke-width="1" fill="none"></path></g></g><mask></mask><g transform="translate(215.19071914350025 178.02734375) rotate(0 75.29596710205078 10)"><text x="0" y="0" font-family="Virgil, Segoe UI Emoji" font-size="16px" fill="#1e1e1e" text-anchor="start" style="white-space: pre;" direction="ltr" dominant-baseline="text-before-edge">RemoteDataSource</text></g><g transform="translate(39.487594143500246 174.7265625) rotate(0 46.98396301269531 10)"><text x="0" y="0" font-family="Virgil, Segoe UI Emoji" font-size="16px" fill="#1971c2" text-anchor="start" style="white-space: pre;" direction="ltr" dominant-baseline="text-before-edge">Instruments</text></g><g stroke-linecap="round"><g transform="translate(168.05400039350025 237.30327885556022) rotate(0 25.141049142267207 -0.7983540860776088)"><path d="M0.44 -0.55 C11.7 -0.66, 23.96 -1.94, 50.47 -0.33 M-0.62 -0.81 C12.24 -0.82, 24.98 -1.07, 50.9 -1.27" stroke="#1971c2" stroke-width="1" fill="none"></path></g><g transform="translate(168.05400039350025 237.30327885556022) rotate(0 25.141049142267207 -0.7983540860776088)"><path d="M27.3 7.19 C32.22 5.01, 38.15 1.74, 50.03 -1.12 M26.24 6.93 C32.77 4.86, 39.12 2.62, 50.46 -2.07" stroke="#1971c2" stroke-width="1" fill="none"></path></g><g transform="translate(168.05400039350025 237.30327885556022) rotate(0 25.141049142267207 -0.7983540860776088)"><path d="M27.13 -10.37 C32.08 -8.47, 38.04 -7.66, 50.03 -1.12 M26.08 -10.63 C32.54 -8.59, 38.92 -6.73, 50.46 -2.07" stroke="#1971c2" stroke-width="1" fill="none"></path></g></g><mask></mask><g stroke-linecap="round"><g transform="translate(217.12475420479882 271.3968917649554) rotate(0 -25.724112742766124 -0.3875705752765839)"><path d="M1.9 -1.15 C-17.96 1.63, -36.19 -0.38, -53.35 0.3 M-0.15 -0.24 C-15.53 -0.33, -31.84 0.37, -52.65 -0.15" stroke="#1971c2" stroke-width="1" fill="none"></path></g><g transform="translate(217.12475420479882 271.3968917649554) rotate(0 -25.724112742766124 -0.3875705752765839)"><path d="M-25.96 -10.02 C-36.61 -4.65, -45.57 -3.87, -53.44 -0.23 M-28 -9.11 C-34.93 -6.73, -42.79 -3.5, -52.74 -0.68" stroke="#1971c2" stroke-width="1" fill="none"></path></g><g transform="translate(217.12475420479882 271.3968917649554) rotate(0 -25.724112742766124 -0.3875705752765839)"><path d="M-26.15 7.96 C-36.58 7.32, -45.46 2.09, -53.44 -0.23 M-28.2 8.86 C-35.09 5.77, -42.89 3.54, -52.74 -0.68" stroke="#1971c2" stroke-width="1" fill="none"></path></g></g><mask></mask><g stroke-linecap="round"><g transform="translate(373.21415664350025 102.41966590786853) rotate(0 154.54688883463717 -0.07528378077169862)"><path d="M-0.72 1.31 C120.59 -1.5, 241.92 -2.36, 309.82 -0.38 M0.55 0.63 C65.53 -0.05, 131.79 0.49, 309.62 -0.05" stroke="#1971c2" stroke-width="1" fill="none"></path></g><g transform="translate(373.21415664350025 102.41966590786853) rotate(0 154.54688883463717 -0.07528378077169862)"><path d="M280.44 12.09 C292.09 6.01, 303.83 0.72, 309 -0.79 M282.22 11.16 C286.95 7.53, 293.44 6.06, 308.73 -0.32" stroke="#1971c2" stroke-width="1" fill="none"></path></g><g transform="translate(373.21415664350025 102.41966590786853) rotate(0 154.54688883463717 -0.07528378077169862)"><path d="M280.4 -8.43 C292.2 -6.52, 303.95 -3.82, 309 -0.79 M282.18 -9.37 C286.85 -8.63, 293.36 -5.75, 308.73 -0.32" stroke="#1971c2" stroke-width="1" fill="none"></path></g></g><mask></mask><g stroke-linecap="round"><g transform="translate(685.5698563055014 127.43607425752145) rotate(0 -104.51259229619694 1.077808408580438)"><path d="M0.26 0.88 C-62.14 0.11, -128.67 0.48, -209.06 0.47 M0.63 -0.38 C-61.45 1.29, -123.09 1.62, -209.65 2.54" stroke="#1971c2" stroke-width="1" fill="none"></path></g><g transform="translate(685.5698563055014 127.43607425752145) rotate(0 -104.51259229619694 1.077808408580438)"><path d="M-181.27 -7.01 C-188.54 -5.71, -200.52 -2.76, -209.65 0.88 M-180.86 -8.44 C-190.03 -4.89, -198.65 -2.07, -210.32 3.21" stroke="#1971c2" stroke-width="1" fill="none"></path></g><g transform="translate(685.5698563055014 127.43607425752145) rotate(0 -104.51259229619694 1.077808408580438)"><path d="M-181.07 13.51 C-188.47 8.57, -200.51 5.3, -209.65 0.88 M-180.65 12.09 C-189.73 9.62, -198.41 6.42, -210.32 3.21" stroke="#1971c2" stroke-width="1" fill="none"></path></g></g><mask></mask><g stroke-linecap="round"><g transform="translate(461.51790796861724 129.54467121040216) rotate(0 -6.840853667459328 0.32251628959784284)" fill-rule="evenodd"><path d="M0 0 L3.93 -4.62 L-6.7 -7.3 L-5.08 -15.89 L-17.61 -2.45 L-9.25 -0.22 L-13.74 16.53 L-3.74 4.69" stroke="none" stroke-width="0" fill="#ff00" fill-rule="evenodd"></path><path d="M0 0 C0.85 -1, 1.71 -2, 3.93 -4.62 M0 0 C1.3 -1.52, 2.59 -3.04, 3.93 -4.62 M3.93 -4.62 C-0.29 -5.68, -4.51 -6.75, -6.7 -7.3 M3.93 -4.62 C0.2 -5.56, -3.54 -6.5, -6.7 -7.3 M-6.7 -7.3 C-6.37 -9.07, -6.03 -10.84, -5.08 -15.89 M-6.7 -7.3 C-6.25 -9.67, -5.8 -12.05, -5.08 -15.89 M-5.08 -15.89 C-8.24 -12.49, -11.41 -9.1, -17.61 -2.45 M-5.08 -15.89 C-7.8 -12.97, -10.52 -10.06, -17.61 -2.45 M-17.61 -2.45 C-15.89 -1.99, -14.16 -1.53, -9.25 -0.22 M-17.61 -2.45 C-15.48 -1.88, -13.35 -1.31, -9.25 -0.22 M-9.25 -0.22 C-10.41 4.09, -11.56 8.4, -13.74 16.53 M-9.25 -0.22 C-10.79 5.53, -12.33 11.27, -13.74 16.53 M-13.74 16.53 C-11.12 13.43, -8.5 10.33, -3.74 4.69 M-13.74 16.53 C-10.75 12.99, -7.76 9.44, -3.74 4.69 M-3.74 4.69 C-2.99 3.74, -2.23 2.79, 0 0 M-3.74 4.69 C-2.6 3.26, -1.46 1.83, 0 0" stroke="#f08c00" stroke-width="4" fill="none"></path></g></g><mask></mask><g stroke-linecap="round"><g transform="translate(457.5748636790114 127.155672554398) rotate(0 -0.8001333829443524 1.400266852814184)"><path d="M0 0 C-0.55 0.97, -1.11 1.93, -1.6 2.8 M0 0 C-0.46 0.8, -0.91 1.6, -1.6 2.8" stroke="#f08c00" stroke-width="4" fill="none"></path></g></g><mask></mask><g stroke-linecap="round"><g transform="translate(347.25938562655665 218.44446629570803) rotate(0 165.35102563522997 2.0624311263149195)"><path d="M-0.23 -0.45 C81.56 -1.68, 161.87 0.19, 330.8 3.75 M0.33 -0.12 C66.7 2.64, 133.99 3.3, 330.94 4.95" stroke="#1971c2" stroke-width="1" fill="none"></path></g><g transform="translate(347.25938562655665 218.44446629570803) rotate(0 165.35102563522997 2.0624311263149195)"><path d="M302.31 14.31 C311.25 11.35, 317.96 9.99, 331.43 3.63 M303.14 14.78 C307.54 13.12, 313.28 10.65, 331.63 5.38" stroke="#1971c2" stroke-width="1" fill="none"></path></g><g transform="translate(347.25938562655665 218.44446629570803) rotate(0 165.35102563522997 2.0624311263149195)"><path d="M302.5 -6.22 C311.32 -4.17, 317.98 -0.54, 331.43 3.63 M303.33 -5.74 C307.68 -3.22, 313.39 -1.51, 331.63 5.38" stroke="#1971c2" stroke-width="1" fill="none"></path></g></g><mask></mask><g stroke-linecap="round"><g transform="translate(678.6829066435002 262.91389081392185) rotate(0 -165.91667561553783 0.3966571311966902)"><path d="M-1.28 0.98 C-105.81 -0.13, -210.5 -0.6, -331.82 1.08 M-0.02 -0.01 C-116.73 -0.75, -233.18 -0.5, -331.3 1.2" stroke="#1971c2" stroke-width="1" fill="none"></path></g><g transform="translate(678.6829066435002 262.91389081392185) rotate(0 -165.91667561553783 0.3966571311966902)"><path d="M-305.12 -7.97 C-313.37 -5.66, -321.77 -3.4, -331.83 1.46 M-303.27 -9.43 C-313.58 -4.99, -323.55 -1.37, -331.08 1.63" stroke="#1971c2" stroke-width="1" fill="none"></path></g><g transform="translate(678.6829066435002 262.91389081392185) rotate(0 -165.91667561553783 0.3966571311966902)"><path d="M-304.86 12.55 C-313.03 8.36, -321.51 4.11, -331.83 1.46 M-303.01 11.09 C-313.49 8.33, -323.55 4.74, -331.08 1.63" stroke="#1971c2" stroke-width="1" fill="none"></path></g></g><mask></mask><g transform="translate(237.34306289350025 234.5234375) rotate(0 46.98396301269531 20)"><text x="0" y="0" font-family="Virgil, Segoe UI Emoji" font-size="16px" fill="#1971c2" text-anchor="start" style="white-space: pre;" direction="ltr" dominant-baseline="text-before-edge">Table: </text><text x="0" y="20" font-family="Virgil, Segoe UI Emoji" font-size="16px" fill="#1971c2" text-anchor="start" style="white-space: pre;" direction="ltr" dominant-baseline="text-before-edge">Instruments</text></g><g stroke-linecap="round" transform="translate(220.69793484883485 209.79969718475553) rotate(0 59.61006830509314 8.408622395011605)"><path d="M119.22 8.41 C119.22 8.81, 119.02 9.21, 118.61 9.61 C118.21 10, 117.6 10.39, 116.81 10.78 C116.01 11.16, 115.01 11.54, 113.83 11.9 C112.66 12.26, 111.29 12.62, 109.76 12.95 C108.23 13.29, 106.51 13.61, 104.66 13.92 C102.81 14.22, 100.78 14.5, 98.65 14.76 C96.51 15.02, 94.22 15.27, 91.84 15.48 C89.46 15.7, 86.95 15.89, 84.37 16.06 C81.8 16.22, 79.12 16.36, 76.4 16.48 C73.69 16.59, 70.89 16.67, 68.09 16.73 C65.29 16.79, 62.44 16.82, 59.61 16.82 C56.78 16.82, 53.93 16.79, 51.13 16.73 C48.33 16.67, 45.53 16.59, 42.82 16.48 C40.1 16.36, 37.42 16.22, 34.85 16.06 C32.27 15.89, 29.76 15.7, 27.38 15.48 C25 15.27, 22.71 15.02, 20.57 14.76 C18.44 14.5, 16.41 14.22, 14.56 13.92 C12.71 13.61, 10.99 13.29, 9.46 12.95 C7.93 12.62, 6.56 12.26, 5.39 11.9 C4.21 11.54, 3.21 11.16, 2.41 10.78 C1.62 10.39, 1.01 10, 0.61 9.61 C0.2 9.21, 0 8.81, 0 8.41 C0 8.01, 0.2 7.61, 0.61 7.21 C1.01 6.82, 1.62 6.42, 2.41 6.04 C3.21 5.66, 4.21 5.28, 5.39 4.92 C6.56 4.55, 7.93 4.2, 9.46 3.86 C10.99 3.53, 12.71 3.2, 14.56 2.9 C16.41 2.6, 18.44 2.32, 20.57 2.05 C22.71 1.79, 25 1.55, 27.38 1.33 C29.76 1.12, 32.27 0.93, 34.85 0.76 C37.42 0.59, 40.1 0.45, 42.82 0.34 C45.53 0.23, 48.33 0.14, 51.13 0.09 C53.93 0.03, 56.78 0, 59.61 0 C62.44 0, 65.29 0.03, 68.09 0.09 C70.89 0.14, 73.69 0.23, 76.4 0.34 C79.12 0.45, 81.8 0.59, 84.37 0.76 C86.95 0.93, 89.46 1.12, 91.84 1.33 C94.22 1.55, 96.51 1.79, 98.65 2.05 C100.78 2.32, 102.81 2.6, 104.66 2.9 C106.51 3.2, 108.23 3.53, 109.76 3.86 C111.29 4.2, 112.66 4.55, 113.83 4.92 C115.01 5.28, 116.01 5.66, 116.81 6.04 C117.6 6.42, 118.21 6.82, 118.61 7.21 C119.02 7.61, 119.12 8.21, 119.22 8.41 C119.32 8.61, 119.32 8.21, 119.22 8.41" stroke="#1971c2" stroke-width="1" fill="none"></path></g><g stroke-linecap="round" transform="translate(220.58716180347164 275.5622491325777) rotate(0 59.71496865496039 11.311027041827572)"><path d="M119.43 11.31 C119.43 11.85, 119.23 12.39, 118.82 12.92 C118.42 13.45, 117.81 13.98, 117.01 14.5 C116.21 15.01, 115.21 15.52, 114.03 16.01 C112.86 16.5, 111.48 16.97, 109.95 17.43 C108.42 17.88, 106.7 18.31, 104.84 18.72 C102.99 19.12, 100.96 19.51, 98.82 19.86 C96.68 20.21, 94.38 20.54, 92 20.83 C89.62 21.12, 87.1 21.38, 84.52 21.6 C81.94 21.82, 79.26 22.01, 76.54 22.16 C73.82 22.32, 71.02 22.43, 68.21 22.51 C65.41 22.58, 62.55 22.62, 59.71 22.62 C56.88 22.62, 54.02 22.58, 51.22 22.51 C48.41 22.43, 45.61 22.32, 42.89 22.16 C40.17 22.01, 37.49 21.82, 34.91 21.6 C32.33 21.38, 29.81 21.12, 27.43 20.83 C25.05 20.54, 22.75 20.21, 20.61 19.86 C18.47 19.51, 16.44 19.12, 14.59 18.72 C12.73 18.31, 11.01 17.88, 9.48 17.43 C7.95 16.97, 6.57 16.5, 5.4 16.01 C4.22 15.52, 3.22 15.01, 2.42 14.5 C1.62 13.98, 1.01 13.45, 0.61 12.92 C0.2 12.39, 0 11.85, 0 11.31 C0 10.77, 0.2 10.23, 0.61 9.7 C1.01 9.17, 1.62 8.64, 2.42 8.12 C3.22 7.61, 4.22 7.1, 5.4 6.61 C6.57 6.12, 7.95 5.65, 9.48 5.2 C11.01 4.74, 12.73 4.31, 14.59 3.9 C16.44 3.5, 18.47 3.11, 20.61 2.76 C22.75 2.41, 25.05 2.09, 27.43 1.8 C29.81 1.51, 32.33 1.25, 34.91 1.02 C37.49 0.8, 40.17 0.61, 42.89 0.46 C45.61 0.31, 48.41 0.19, 51.22 0.12 C54.02 0.04, 56.88 0, 59.71 0 C62.55 0, 65.41 0.04, 68.21 0.12 C71.02 0.19, 73.82 0.31, 76.54 0.46 C79.26 0.61, 81.94 0.8, 84.52 1.02 C87.1 1.25, 89.62 1.51, 92 1.8 C94.38 2.09, 96.68 2.41, 98.82 2.76 C100.96 3.11, 102.99 3.5, 104.84 3.9 C106.7 4.31, 108.42 4.74, 109.95 5.2 C111.48 5.65, 112.86 6.12, 114.03 6.61 C115.21 7.1, 116.21 7.61, 117.01 8.12 C117.81 8.64, 118.42 9.17, 118.82 9.7 C119.23 10.23, 119.33 11.04, 119.43 11.31 C119.53 11.58, 119.53 11.04, 119.43 11.31" stroke="#1971c2" stroke-width="1" fill="none"></path></g><g stroke-linecap="round"><g transform="translate(339.82858020009826 218.05067272629526) rotate(0 0.19183251671546486 34.38407801773175)"><path d="M0 0 C0.06 11.46, 0.32 57.31, 0.38 68.77 M0 0 C0.06 11.46, 0.32 57.31, 0.38 68.77" stroke="#1971c2" stroke-width="1" fill="none"></path></g></g><mask></mask><g stroke-linecap="round"><g transform="translate(220.83424603793196 218.54613426577924) rotate(0 -0.10667832189886894 34.66571335840288)"><path d="M0 0 C-0.04 11.56, -0.18 57.78, -0.21 69.33 M0 0 C-0.04 11.56, -0.18 57.78, -0.21 69.33" stroke="#1971c2" stroke-width="1" fill="none"></path></g></g><mask></mask></svg>