<svg width="48" height="24" viewBox="0 0 48 24" fill="none" xmlns="http://www.w3.org/2000/svg">
<path d="M28.3333 9.33334C28.8867 9.33334 29.3333 8.88668 29.3333 8.33334C29.3333 7.78001 28.8867 7.33334 28.3333 7.33334H20.26L22.26 9.33334H23.48L23.1133 10.1867L24.5067 11.58L25.4733 9.33334H28.3333ZM27.6267 16.5867L18.7467 7.70668C18.4867 7.44668 18.0667 7.44668 17.8067 7.70668C17.5467 7.96668 17.5467 8.38668 17.8067 8.64668L21.98 12.82L20.88 15.38C20.62 15.9933 21.0667 16.6667 21.7267 16.6667C22.0933 16.6667 22.4267 16.4467 22.5733 16.1067L23.38 14.22L26.68 17.52C26.94 17.78 27.36 17.78 27.62 17.52C27.8867 17.2667 27.8867 16.8467 27.6267 16.5867Z" fill="white"/>
</svg>
