<svg width="140" height="61" viewBox="0 0 140 61" fill="none" xmlns="http://www.w3.org/2000/svg">
<g clip-path="url(#clip0_61_245)">
<path d="M52.5483 21.0802L47.3486 10.2883L45.2623 9.29185L32.4583 29.9341L51.6237 41.5045L55.7792 34.7493L52.5483 21.0802Z" fill="url(#paint0_linear_61_245)"/>
<path d="M56.1871 33.715C55.2582 35.1303 53.9961 36.3616 52.4202 37.265C50.6499 38.2805 48.7152 38.765 46.8062 38.765C43.176 38.765 39.6397 37.0196 37.4979 33.8694L20.7904 5.29993L20.7819 5.31474C17.6129 0.186446 10.88 -1.53356 5.59909 1.49814C0.234925 4.57427 -1.59299 11.3781 1.51404 16.6905L24.1815 55.4552C25.1915 57.1837 26.603 58.5377 28.2281 59.477C28.2409 59.4855 28.2537 59.4939 28.2665 59.5024C28.2729 59.5066 28.2815 59.5109 28.2879 59.5151C29.0438 59.9467 29.8467 60.2831 30.6774 60.5306C30.7393 60.5496 30.8034 60.5687 30.8653 60.5856C31.1643 60.6681 31.4654 60.7422 31.7707 60.8014C31.8284 60.812 31.886 60.8183 31.9437 60.8289C32.1893 60.8712 32.437 60.9072 32.6847 60.9326C32.7829 60.9431 32.8811 60.9537 32.9794 60.9601C33.2634 60.9833 33.5474 60.9981 33.8335 61.0003C33.8485 61.0003 33.8634 61.0003 33.8763 61.0003C33.8805 61.0003 33.8827 61.0003 33.8869 61.0003C33.8912 61.0003 33.8933 61.0003 33.8976 61.0003C34.2072 61.0003 34.519 60.9833 34.8286 60.958C34.8991 60.9516 34.9696 60.9453 35.0422 60.9368C35.3454 60.9051 35.6486 60.8649 35.9519 60.8099C35.9561 60.8099 35.9604 60.8099 35.9647 60.8099C36.2978 60.7485 36.6309 60.6681 36.9598 60.575C36.9811 60.5687 37.0004 60.5623 37.0217 60.556C37.5 60.4185 37.972 60.2471 38.4375 60.0419C38.446 60.0377 38.4567 60.0334 38.4653 60.0292C38.8197 59.8726 39.1699 59.7013 39.5137 59.5045C39.8618 59.3056 40.1928 59.0899 40.5089 58.8592C40.7843 58.6604 41.0491 58.4488 41.3075 58.2246C41.6214 57.9495 41.9182 57.6618 42.1937 57.3593C42.4008 57.1329 42.5994 56.8959 42.7895 56.6505C42.8514 56.5701 42.9091 56.4876 42.9667 56.4072C43.097 56.2295 43.2208 56.0476 43.3404 55.8614C43.4023 55.7641 43.4643 55.6689 43.5241 55.5716C43.5475 55.5335 43.5732 55.4975 43.5945 55.4594L56.3066 33.7213H56.1828L56.1871 33.715Z" fill="url(#paint1_linear_61_245)"/>
<path d="M56.4711 22.2607L55.5101 20.6359L51.361 12.9921L49.437 9.75518C49.074 8.89412 48.2177 8.28693 47.214 8.28693C45.8837 8.28693 44.8074 9.35532 44.8074 10.6712C44.8074 11.1176 44.9377 11.5281 45.1534 11.8856L45.1277 11.9025L52.6017 24.5096C53.5028 26.0519 53.7441 27.8481 53.2808 29.5702C52.8174 31.2923 51.707 32.7309 50.1502 33.6258C49.1252 34.214 47.9614 34.525 46.787 34.525C44.3868 34.525 42.151 33.2493 40.9509 31.1971L30.2076 13.0577H30.229L25.6912 5.29966L25.6826 5.31447C25.6036 5.18541 25.5118 5.06905 25.4285 4.94423L25.3004 4.72632C25.3004 4.72632 25.2897 4.73267 25.2855 4.7369C23.1543 1.73059 19.7462 0.0528908 16.2292 0.0126938V0H10.4294V0.0296188C14.4803 -0.249645 18.5311 1.67135 20.7819 5.31447L20.7904 5.29966L37.4958 33.8713C39.6376 37.0193 43.176 38.7668 46.804 38.7668C48.7131 38.7668 50.6478 38.2845 52.418 37.2668C53.994 36.3635 55.2539 35.1301 56.1849 33.7168H56.3088L56.2661 33.7888C56.8618 32.8515 57.3188 31.8191 57.6135 30.719C58.3844 27.8502 57.9829 24.8544 56.4668 22.2628L56.4711 22.2607Z" fill="#F37880"/>
<g opacity="0.86">
<path d="M45.1256 11.9047L52.5996 24.5117C53.5007 26.054 53.742 27.8502 53.2786 29.5723C52.9967 30.6217 52.4714 31.5652 51.7539 32.3459C52.6935 31.4954 53.3704 30.3974 53.7057 29.1492C54.1691 27.427 53.9278 25.6309 53.0266 24.0886L45.5527 11.4815L45.5783 11.4646C45.3626 11.1071 45.2324 10.6966 45.2324 10.2502C45.2324 9.70017 45.4224 9.19454 45.7385 8.79045C45.1705 9.22627 44.8053 9.9075 44.8053 10.6734C44.8053 11.1198 44.9356 11.5302 45.1512 11.8877L45.1256 11.9047Z" fill="white"/>
<path d="M56.2746 33.776L56.2682 33.7866C56.2682 33.7866 56.2724 33.7781 56.2767 33.7739C56.2767 33.7739 56.2767 33.7739 56.2767 33.776H56.2746Z" fill="white"/>
<path d="M52.8473 36.8437C51.077 37.8592 49.1423 38.3437 47.2333 38.3437C43.6031 38.3437 40.0668 36.5983 37.925 33.4481L21.2175 4.87653L21.209 4.89134C19.6779 2.41394 17.3161 0.73624 14.6874 0H10.4294V0.0296188C14.4803 -0.249645 18.5311 1.67135 20.7819 5.31447L20.7904 5.29966L37.4958 33.8713C39.6376 37.0193 43.176 38.7668 46.804 38.7668C48.7131 38.7668 50.6478 38.2845 52.418 37.2668C53.3619 36.7252 54.1883 36.0652 54.9037 35.3205C54.2908 35.8938 53.6053 36.4079 52.8451 36.8437H52.8473Z" fill="white"/>
</g>
</g>
<path class="logo-name" d="M84.726 41.9364C84.1607 41.9364 83.6897 41.8091 83.3128 41.5546C82.9569 41.2789 82.6639 40.876 82.4336 40.3458L74.2375 21.704C74.0072 21.1738 73.9444 20.7072 74.0491 20.3043C74.1537 19.9013 74.3736 19.5832 74.7085 19.3499C75.0435 19.1166 75.4413 19 75.9018 19C76.5089 19 76.959 19.1379 77.2521 19.4136C77.5662 19.668 77.8279 20.0604 78.0372 20.5906L85.4796 38.0553H84.1293L91.5403 20.5588C91.7706 20.0498 92.0428 19.668 92.3568 19.4136C92.6708 19.1379 93.1105 19 93.6757 19C94.1363 19 94.5131 19.1166 94.8062 19.3499C95.1202 19.5832 95.3191 19.9013 95.4029 20.3043C95.4866 20.7072 95.4133 21.1738 95.183 21.704L86.987 40.3458C86.7567 40.876 86.4636 41.2789 86.1077 41.5546C85.7727 41.8091 85.3121 41.9364 84.726 41.9364Z" fill="white"/>
<path class="logo-name" d="M107.521 42C105.993 42 104.642 41.7985 103.47 41.3956C102.318 40.9926 101.345 40.3988 100.549 39.6141C99.7539 38.8082 99.1573 37.8114 98.7595 36.6238C98.3617 35.4361 98.1629 34.0576 98.1629 32.4882V21.0678C98.1629 20.3679 98.3303 19.8483 98.6653 19.509C99.0212 19.1697 99.5236 19 100.173 19C100.822 19 101.314 19.1697 101.649 19.509C102.004 19.8483 102.182 20.3679 102.182 21.0678V32.4564C102.182 34.4712 102.632 35.9876 103.533 37.0055C104.454 38.0023 105.783 38.5007 107.521 38.5007C109.258 38.5007 110.577 38.0023 111.478 37.0055C112.378 35.9876 112.828 34.4712 112.828 32.4564V21.0678C112.828 20.3679 112.995 19.8483 113.33 19.509C113.686 19.1697 114.189 19 114.838 19C115.466 19 115.947 19.1697 116.282 19.509C116.638 19.8483 116.816 20.3679 116.816 21.0678V32.4882C116.816 34.5666 116.46 36.3163 115.748 37.7372C115.057 39.1581 114.021 40.2291 112.639 40.9502C111.258 41.6501 109.552 42 107.521 42Z" fill="white"/>
<path class="logo-name" d="M130.705 42C129.177 42 127.826 41.7985 126.654 41.3956C125.502 40.9926 124.529 40.3988 123.733 39.6141C122.938 38.8082 122.341 37.8114 121.943 36.6238C121.546 35.4361 121.347 34.0576 121.347 32.4882V21.0678C121.347 20.3679 121.514 19.8483 121.849 19.509C122.205 19.1697 122.708 19 123.357 19C124.006 19 124.498 19.1697 124.833 19.509C125.188 19.8483 125.366 20.3679 125.366 21.0678V32.4564C125.366 34.4712 125.816 35.9876 126.717 37.0055C127.638 38.0023 128.967 38.5007 130.705 38.5007C132.442 38.5007 133.761 38.0023 134.662 37.0055C135.562 35.9876 136.012 34.4712 136.012 32.4564V21.0678C136.012 20.3679 136.179 19.8483 136.514 19.509C136.87 19.1697 137.373 19 138.022 19C138.65 19 139.131 19.1697 139.466 19.509C139.822 19.8483 140 20.3679 140 21.0678V32.4882C140 34.5666 139.644 36.3163 138.932 37.7372C138.241 39.1581 137.205 40.2291 135.823 40.9502C134.442 41.6501 132.736 42 130.705 42Z" fill="white"/>
<defs>
<linearGradient id="paint0_linear_61_245" x1="32.4583" y1="25.3982" x2="55.7792" y2="25.3982" gradientUnits="userSpaceOnUse">
<stop stop-color="#4906A5"/>
<stop offset="1" stop-color="#D3423A"/>
</linearGradient>
<linearGradient id="paint1_linear_61_245" x1="2.99532e-05" y1="30.5013" x2="56.3109" y2="30.5013" gradientUnits="userSpaceOnUse">
<stop stop-color="#7C06A5"/>
<stop offset="1" stop-color="#D3423A"/>
</linearGradient>
<clipPath id="clip0_61_245">
<rect width="58" height="61" fill="white"/>
</clipPath>
</defs>
</svg>
