<svg width="64" height="64" viewBox="0 0 64 64" fill="none" xmlns="http://www.w3.org/2000/svg">
<rect x="0.5" y="0.5" width="11" height="63" rx="3.5" stroke="white"/>
<rect x="52.5" y="0.5" width="11" height="63" rx="3.5" stroke="white"/>
<circle cx="23" cy="26" r="0.5" transform="rotate(-180 23 26)" fill="white" stroke="white"/>
<circle cx="29" cy="26" r="0.5" transform="rotate(-180 29 26)" fill="white" stroke="white"/>
<circle cx="35" cy="26" r="0.5" transform="rotate(-180 35 26)" fill="white" stroke="white"/>
<circle cx="23" cy="32" r="0.5" transform="rotate(-180 23 32)" fill="white" stroke="white"/>
<circle cx="29" cy="32" r="0.5" transform="rotate(-180 29 32)" fill="white" stroke="white"/>
<circle cx="35" cy="32" r="0.5" transform="rotate(-180 35 32)" fill="white" stroke="white"/>
<circle cx="23" cy="38" r="0.5" transform="rotate(-180 23 38)" fill="white" stroke="white"/>
<circle cx="29" cy="38" r="0.5" transform="rotate(-180 29 38)" fill="white" stroke="white"/>
<circle cx="35" cy="38" r="0.5" transform="rotate(-180 35 38)" fill="white" stroke="white"/>
<circle cx="41" cy="26" r="0.5" transform="rotate(-180 41 26)" fill="white" stroke="white"/>
<circle cx="41" cy="32" r="0.5" transform="rotate(-180 41 32)" fill="white" stroke="white"/>
<circle cx="41" cy="38" r="0.5" transform="rotate(-180 41 38)" fill="white" stroke="white"/>
</svg>
