<svg width="843" height="229" viewBox="0 0 843 229" fill="none" xmlns="http://www.w3.org/2000/svg">
<rect x="118.5" y="32.5" width="41" height="196" rx="7.5" stroke="#6D18BD"/>
<rect x="126" y="40" width="1" height="60" fill="#F7D3D5"/>
<rect x="126" y="91" width="26" height="1" fill="#F7D3D5"/>
<rect x="126" y="79" width="26" height="1" fill="#F7D3D5"/>
<rect x="126" y="67" width="26" height="1" fill="#F7D3D5"/>
<rect x="126" y="55" width="26" height="1" fill="#F7D3D5"/>
<rect x="126" y="43" width="26" height="1" fill="#F7D3D5"/>
<rect x="126" y="40" width="26" height="1" fill="#F7D3D5"/>
<rect x="126" y="94" width="26" height="1" fill="#F7D3D5"/>
<rect x="126" y="82" width="26" height="1" fill="#F7D3D5"/>
<rect x="126" y="70" width="26" height="1" fill="#F7D3D5"/>
<rect x="126" y="58" width="26" height="1" fill="#F7D3D5"/>
<rect x="126" y="46" width="26" height="1" fill="#F7D3D5"/>
<rect x="126" y="97" width="26" height="1" fill="#F7D3D5"/>
<rect x="126" y="85" width="26" height="1" fill="#F7D3D5"/>
<rect x="126" y="73" width="26" height="1" fill="#F7D3D5"/>
<rect x="126" y="61" width="26" height="1" fill="#F7D3D5"/>
<rect x="126" y="49" width="26" height="1" fill="#F7D3D5"/>
<rect x="126" y="100" width="26" height="1" fill="#F7D3D5"/>
<rect x="126" y="88" width="26" height="1" fill="#F7D3D5"/>
<rect x="126" y="76" width="26" height="1" fill="#F7D3D5"/>
<rect x="126" y="64" width="26" height="1" fill="#F7D3D5"/>
<rect x="126" y="52" width="26" height="1" fill="#F7D3D5"/>
<rect x="131" y="40" width="1" height="60" fill="#F7D3D5"/>
<rect x="136" y="40" width="1" height="60" fill="#F7D3D5"/>
<rect x="141" y="40" width="1" height="60" fill="#F7D3D5"/>
<rect x="146" y="40" width="1" height="60" fill="#F7D3D5"/>
<rect x="151" y="40" width="1" height="60" fill="#F7D3D5"/>
<rect x="126" y="160" width="1" height="60" fill="#F7D3D5"/>
<rect x="126" y="211" width="26" height="1" fill="#F7D3D5"/>
<rect x="126" y="199" width="26" height="1" fill="#F7D3D5"/>
<rect x="126" y="187" width="26" height="1" fill="#F7D3D5"/>
<rect x="126" y="175" width="26" height="1" fill="#F7D3D5"/>
<rect x="126" y="163" width="26" height="1" fill="#F7D3D5"/>
<rect x="126" y="160" width="26" height="1" fill="#F37880"/>
<rect x="126" y="214" width="26" height="1" fill="#F7D3D5"/>
<rect x="126" y="202" width="26" height="1" fill="#F7D3D5"/>
<rect x="126" y="190" width="26" height="1" fill="#F7D3D5"/>
<rect x="126" y="178" width="26" height="1" fill="#F7D3D5"/>
<rect x="126" y="166" width="26" height="1" fill="#F7D3D5"/>
<rect x="126" y="217" width="26" height="1" fill="#F7D3D5"/>
<rect x="126" y="205" width="26" height="1" fill="#F7D3D5"/>
<rect x="126" y="193" width="26" height="1" fill="#F7D3D5"/>
<rect x="126" y="181" width="26" height="1" fill="#F7D3D5"/>
<rect x="126" y="169" width="26" height="1" fill="#F7D3D5"/>
<rect x="126" y="220" width="26" height="1" fill="#F7D3D5"/>
<rect x="126" y="208" width="26" height="1" fill="#F7D3D5"/>
<rect x="126" y="196" width="26" height="1" fill="#F7D3D5"/>
<rect x="126" y="184" width="26" height="1" fill="#F7D3D5"/>
<rect x="126" y="172" width="26" height="1" fill="#F7D3D5"/>
<rect x="131" y="160" width="1" height="60" fill="#F7D3D5"/>
<rect x="136" y="160" width="1" height="60" fill="#F7D3D5"/>
<rect x="141" y="160" width="1" height="60" fill="#F7D3D5"/>
<rect x="146" y="160" width="1" height="60" fill="#F7D3D5"/>
<rect x="151" y="160" width="1" height="60" fill="#F7D3D5"/>
<rect x="126" y="100" width="1" height="60" fill="#F37880"/>
<rect x="126" y="151" width="26" height="1" fill="#F37880"/>
<rect x="126" y="139" width="26" height="1" fill="#F37880"/>
<rect x="126" y="127" width="26" height="1" fill="#F37880"/>
<rect x="126" y="115" width="26" height="1" fill="#F37880"/>
<rect x="126" y="103" width="26" height="1" fill="#F37880"/>
<rect x="126" y="100" width="26" height="1" fill="#F37880"/>
<rect x="126" y="154" width="26" height="1" fill="#F37880"/>
<rect x="126" y="142" width="26" height="1" fill="#F37880"/>
<rect x="126" y="130" width="26" height="1" fill="#F37880"/>
<rect x="126" y="118" width="26" height="1" fill="#F37880"/>
<rect x="126" y="106" width="26" height="1" fill="#F37880"/>
<rect x="126" y="157" width="26" height="1" fill="#F37880"/>
<rect x="126" y="145" width="26" height="1" fill="#F37880"/>
<rect x="126" y="133" width="26" height="1" fill="#F37880"/>
<rect x="126" y="121" width="26" height="1" fill="#F37880"/>
<rect x="126" y="109" width="26" height="1" fill="#F37880"/>
<rect x="126" y="160" width="26" height="1" fill="#F37880"/>
<rect x="126" y="148" width="26" height="1" fill="#F37880"/>
<rect x="126" y="136" width="26" height="1" fill="#F37880"/>
<rect x="126" y="124" width="26" height="1" fill="#F37880"/>
<rect x="126" y="112" width="26" height="1" fill="#F37880"/>
<rect x="131" y="100" width="1" height="60" fill="#F37880"/>
<rect x="136" y="100" width="1" height="60" fill="#F37880"/>
<rect x="141" y="100" width="1" height="60" fill="#F37880"/>
<rect x="146" y="100" width="1" height="60" fill="#F37880"/>
<rect x="151" y="100" width="1" height="60" fill="#F37880"/>
<path d="M99.2784 13L95.1964 3.835H96.9774L100.006 10.868L103.035 3.835H104.751L100.669 13H99.2784ZM105.348 5.278V3.692H107.168V5.278H105.348ZM105.452 13V6.643H107.077V13H105.452ZM111.898 13.13C111.179 13.13 110.559 12.9957 110.039 12.727C109.519 12.4583 109.116 12.077 108.83 11.583C108.553 11.089 108.414 10.504 108.414 9.828C108.414 9.16933 108.549 8.593 108.817 8.099C109.095 7.605 109.472 7.21933 109.948 6.942C110.434 6.656 110.984 6.513 111.599 6.513C112.501 6.513 113.211 6.799 113.731 7.371C114.26 7.943 114.524 8.723 114.524 9.711V10.192H109.974C110.096 11.3273 110.746 11.895 111.924 11.895C112.28 11.895 112.635 11.843 112.99 11.739C113.346 11.6263 113.671 11.453 113.965 11.219L114.42 12.311C114.117 12.5623 113.736 12.7617 113.276 12.909C112.817 13.0563 112.358 13.13 111.898 13.13ZM111.664 7.618C111.188 7.618 110.802 7.76533 110.507 8.06C110.213 8.35467 110.035 8.75333 109.974 9.256H113.172C113.138 8.72733 112.99 8.32433 112.73 8.047C112.479 7.761 112.124 7.618 111.664 7.618ZM117.465 13L114.956 6.643H116.62L118.245 11.115L119.883 6.643H121.027L122.665 11.141L124.29 6.643H125.863L123.367 13H121.95L120.403 8.905L118.882 13H117.465ZM126.793 15.34V6.643H128.379V7.657C128.561 7.31033 128.834 7.033 129.198 6.825C129.57 6.617 129.991 6.513 130.459 6.513C131.013 6.513 131.499 6.64733 131.915 6.916C132.339 7.18467 132.669 7.566 132.903 8.06C133.137 8.54533 133.254 9.13033 133.254 9.815C133.254 10.491 133.137 11.0803 132.903 11.583C132.669 12.077 132.344 12.4583 131.928 12.727C131.512 12.9957 131.022 13.13 130.459 13.13C130.008 13.13 129.601 13.0347 129.237 12.844C128.881 12.6447 128.608 12.3803 128.418 12.051V15.34H126.793ZM130.004 11.895C130.489 11.895 130.879 11.7217 131.174 11.375C131.468 11.0197 131.616 10.4997 131.616 9.815C131.616 9.12167 131.468 8.606 131.174 8.268C130.879 7.92133 130.489 7.748 130.004 7.748C129.518 7.748 129.128 7.92133 128.834 8.268C128.539 8.606 128.392 9.12167 128.392 9.815C128.392 10.4997 128.539 11.0197 128.834 11.375C129.128 11.7217 129.518 11.895 130.004 11.895ZM137.487 13.13C136.828 13.13 136.256 12.9957 135.771 12.727C135.285 12.4583 134.908 12.077 134.64 11.583C134.371 11.0803 134.237 10.491 134.237 9.815C134.237 9.139 134.371 8.554 134.64 8.06C134.908 7.566 135.285 7.18467 135.771 6.916C136.256 6.64733 136.828 6.513 137.487 6.513C138.145 6.513 138.717 6.64733 139.203 6.916C139.688 7.18467 140.065 7.566 140.334 8.06C140.602 8.554 140.737 9.139 140.737 9.815C140.737 10.491 140.602 11.0803 140.334 11.583C140.065 12.077 139.688 12.4583 139.203 12.727C138.717 12.9957 138.145 13.13 137.487 13.13ZM137.487 11.895C137.972 11.895 138.362 11.7217 138.657 11.375C138.951 11.0197 139.099 10.4997 139.099 9.815C139.099 9.12167 138.951 8.606 138.657 8.268C138.362 7.92133 137.972 7.748 137.487 7.748C137.001 7.748 136.611 7.92133 136.317 8.268C136.022 8.606 135.875 9.12167 135.875 9.815C135.875 10.4997 136.022 11.0197 136.317 11.375C136.611 11.7217 137.001 11.895 137.487 11.895ZM142.078 13V6.643H143.664V7.761C143.976 7.007 144.643 6.591 145.666 6.513L146.16 6.474L146.264 7.852L145.328 7.943C144.262 8.047 143.729 8.593 143.729 9.581V13H142.078ZM150.449 13.13C148.768 13.13 147.927 12.298 147.927 10.634V7.865H146.705V6.643H147.927V4.745H149.552V6.643H151.476V7.865H149.552V10.543C149.552 10.959 149.643 11.271 149.825 11.479C150.007 11.687 150.302 11.791 150.709 11.791C150.83 11.791 150.956 11.778 151.086 11.752C151.216 11.7173 151.35 11.6827 151.489 11.648L151.736 12.844C151.58 12.9307 151.381 13 151.138 13.052C150.904 13.104 150.674 13.13 150.449 13.13ZM156.186 13V3.835H157.85V7.891H157.876L161.919 3.835H163.947L159.488 8.242L164.168 13H162.114L157.876 8.762H157.85V13H156.186ZM167.631 13.13C166.911 13.13 166.292 12.9957 165.772 12.727C165.252 12.4583 164.849 12.077 164.563 11.583C164.285 11.089 164.147 10.504 164.147 9.828C164.147 9.16933 164.281 8.593 164.55 8.099C164.827 7.605 165.204 7.21933 165.681 6.942C166.166 6.656 166.716 6.513 167.332 6.513C168.233 6.513 168.944 6.799 169.464 7.371C169.992 7.943 170.257 8.723 170.257 9.711V10.192H165.707C165.828 11.3273 166.478 11.895 167.657 11.895C168.012 11.895 168.367 11.843 168.723 11.739C169.078 11.6263 169.403 11.453 169.698 11.219L170.153 12.311C169.849 12.5623 169.468 12.7617 169.009 12.909C168.549 13.0563 168.09 13.13 167.631 13.13ZM167.397 7.618C166.92 7.618 166.534 7.76533 166.24 8.06C165.945 8.35467 165.767 8.75333 165.707 9.256H168.905C168.87 8.72733 168.723 8.32433 168.463 8.047C168.211 7.761 167.856 7.618 167.397 7.618ZM172.014 15.34L173.184 12.74L170.545 6.643H172.274L174.055 11.089L175.875 6.643H177.513L173.691 15.34H172.014ZM180.485 13.13C179.948 13.13 179.445 13.065 178.977 12.935C178.509 12.805 178.119 12.6187 177.807 12.376L178.223 11.31C178.544 11.5267 178.903 11.6957 179.302 11.817C179.701 11.9297 180.099 11.986 180.498 11.986C180.914 11.986 181.222 11.9167 181.421 11.778C181.629 11.6307 181.733 11.44 181.733 11.206C181.733 10.842 181.464 10.608 180.927 10.504L179.627 10.257C178.526 10.049 177.976 9.477 177.976 8.541C177.976 8.125 178.089 7.76533 178.314 7.462C178.548 7.15867 178.869 6.92467 179.276 6.76C179.683 6.59533 180.151 6.513 180.68 6.513C181.131 6.513 181.564 6.578 181.98 6.708C182.396 6.82933 182.751 7.01567 183.046 7.267L182.604 8.333C182.353 8.125 182.049 7.96033 181.694 7.839C181.347 7.71767 181.014 7.657 180.693 7.657C180.268 7.657 179.952 7.73067 179.744 7.878C179.545 8.02533 179.445 8.22033 179.445 8.463C179.445 8.84433 179.692 9.07833 180.186 9.165L181.486 9.412C182.049 9.516 182.474 9.70667 182.76 9.984C183.055 10.2613 183.202 10.634 183.202 11.102C183.202 11.7347 182.955 12.233 182.461 12.597C181.967 12.9523 181.308 13.13 180.485 13.13Z" fill="black"/>
<path d="M4.939 126L0.857 116.835H2.638L5.667 123.868L8.696 116.835H10.412L6.33 126H4.939ZM11.0086 118.278V116.692H12.8286V118.278H11.0086ZM11.1126 126V119.643H12.7376V126H11.1126ZM17.5591 126.13C16.8397 126.13 16.2201 125.996 15.7001 125.727C15.1801 125.458 14.7771 125.077 14.4911 124.583C14.2137 124.089 14.0751 123.504 14.0751 122.828C14.0751 122.169 14.2094 121.593 14.4781 121.099C14.7554 120.605 15.1324 120.219 15.6091 119.942C16.0944 119.656 16.6447 119.513 17.2601 119.513C18.1614 119.513 18.8721 119.799 19.3921 120.371C19.9207 120.943 20.1851 121.723 20.1851 122.711V123.192H15.6351C15.7564 124.327 16.4064 124.895 17.5851 124.895C17.9404 124.895 18.2957 124.843 18.6511 124.739C19.0064 124.626 19.3314 124.453 19.6261 124.219L20.0811 125.311C19.7777 125.562 19.3964 125.762 18.9371 125.909C18.4777 126.056 18.0184 126.13 17.5591 126.13ZM17.3251 120.618C16.8484 120.618 16.4627 120.765 16.1681 121.06C15.8734 121.355 15.6957 121.753 15.6351 122.256H18.8331C18.7984 121.727 18.6511 121.324 18.3911 121.047C18.1397 120.761 17.7844 120.618 17.3251 120.618ZM23.1254 126L20.6164 119.643H22.2804L23.9054 124.115L25.5434 119.643H26.6874L28.3254 124.141L29.9504 119.643H31.5234L29.0274 126H27.6104L26.0634 121.905L24.5424 126H23.1254ZM32.4534 128.34V119.643H34.0394V120.657C34.2214 120.31 34.4944 120.033 34.8584 119.825C35.2311 119.617 35.6514 119.513 36.1194 119.513C36.6741 119.513 37.1594 119.647 37.5754 119.916C38.0001 120.185 38.3294 120.566 38.5634 121.06C38.7974 121.545 38.9144 122.13 38.9144 122.815C38.9144 123.491 38.7974 124.08 38.5634 124.583C38.3294 125.077 38.0044 125.458 37.5884 125.727C37.1724 125.996 36.6827 126.13 36.1194 126.13C35.6687 126.13 35.2614 126.035 34.8974 125.844C34.5421 125.645 34.2691 125.38 34.0784 125.051V128.34H32.4534ZM35.6644 124.895C36.1497 124.895 36.5397 124.722 36.8344 124.375C37.1291 124.02 37.2764 123.5 37.2764 122.815C37.2764 122.122 37.1291 121.606 36.8344 121.268C36.5397 120.921 36.1497 120.748 35.6644 120.748C35.1791 120.748 34.7891 120.921 34.4944 121.268C34.1997 121.606 34.0524 122.122 34.0524 122.815C34.0524 123.5 34.1997 124.02 34.4944 124.375C34.7891 124.722 35.1791 124.895 35.6644 124.895ZM43.1473 126.13C42.4887 126.13 41.9167 125.996 41.4313 125.727C40.946 125.458 40.569 125.077 40.3003 124.583C40.0317 124.08 39.8973 123.491 39.8973 122.815C39.8973 122.139 40.0317 121.554 40.3003 121.06C40.569 120.566 40.946 120.185 41.4313 119.916C41.9167 119.647 42.4887 119.513 43.1473 119.513C43.806 119.513 44.378 119.647 44.8633 119.916C45.3487 120.185 45.7257 120.566 45.9943 121.06C46.263 121.554 46.3973 122.139 46.3973 122.815C46.3973 123.491 46.263 124.08 45.9943 124.583C45.7257 125.077 45.3487 125.458 44.8633 125.727C44.378 125.996 43.806 126.13 43.1473 126.13ZM43.1473 124.895C43.6327 124.895 44.0227 124.722 44.3173 124.375C44.612 124.02 44.7593 123.5 44.7593 122.815C44.7593 122.122 44.612 121.606 44.3173 121.268C44.0227 120.921 43.6327 120.748 43.1473 120.748C42.662 120.748 42.272 120.921 41.9773 121.268C41.6827 121.606 41.5353 122.122 41.5353 122.815C41.5353 123.5 41.6827 124.02 41.9773 124.375C42.272 124.722 42.662 124.895 43.1473 124.895ZM47.7386 126V119.643H49.3246V120.761C49.6366 120.007 50.3039 119.591 51.3266 119.513L51.8206 119.474L51.9246 120.852L50.9886 120.943C49.9226 121.047 49.3896 121.593 49.3896 122.581V126H47.7386ZM56.1095 126.13C54.4282 126.13 53.5875 125.298 53.5875 123.634V120.865H52.3655V119.643H53.5875V117.745H55.2125V119.643H57.1365V120.865H55.2125V123.543C55.2125 123.959 55.3035 124.271 55.4855 124.479C55.6675 124.687 55.9622 124.791 56.3695 124.791C56.4909 124.791 56.6165 124.778 56.7465 124.752C56.8765 124.717 57.0109 124.683 57.1495 124.648L57.3965 125.844C57.2405 125.931 57.0412 126 56.7985 126.052C56.5645 126.104 56.3349 126.13 56.1095 126.13ZM61.8467 126V116.835H65.8247C66.83 116.835 67.6057 117.078 68.1517 117.563C68.6977 118.04 68.9707 118.711 68.9707 119.578C68.9707 120.263 68.793 120.83 68.4377 121.281C68.0824 121.723 67.571 122.022 66.9037 122.178C67.3457 122.317 67.7097 122.65 67.9957 123.179L69.5297 126H67.6967L66.1107 123.075C65.9547 122.789 65.7684 122.594 65.5517 122.49C65.3437 122.386 65.075 122.334 64.7457 122.334H63.5107V126H61.8467ZM63.5107 121.099H65.5387C66.752 121.099 67.3587 120.605 67.3587 119.617C67.3587 118.638 66.752 118.148 65.5387 118.148H63.5107V121.099ZM72.6323 126.13C72.173 126.13 71.7613 126.043 71.3973 125.87C71.042 125.688 70.7603 125.445 70.5523 125.142C70.353 124.839 70.2533 124.496 70.2533 124.115C70.2533 123.647 70.3747 123.279 70.6173 123.01C70.86 122.733 71.2543 122.533 71.8003 122.412C72.3463 122.291 73.0787 122.23 73.9973 122.23H74.4523V121.957C74.4523 121.524 74.357 121.212 74.1663 121.021C73.9757 120.83 73.655 120.735 73.2043 120.735C72.849 120.735 72.485 120.791 72.1123 120.904C71.7397 121.008 71.3627 121.173 70.9813 121.398L70.5133 120.293C70.7387 120.137 71.003 120.003 71.3063 119.89C71.6183 119.769 71.9433 119.678 72.2813 119.617C72.628 119.548 72.953 119.513 73.2563 119.513C74.1837 119.513 74.8727 119.73 75.3233 120.163C75.774 120.588 75.9993 121.251 75.9993 122.152V126H74.4783V124.986C74.331 125.341 74.097 125.623 73.7763 125.831C73.4557 126.03 73.0743 126.13 72.6323 126.13ZM72.9703 125.012C73.395 125.012 73.746 124.865 74.0233 124.57C74.3093 124.275 74.4523 123.903 74.4523 123.452V123.166H74.0103C73.1957 123.166 72.628 123.231 72.3073 123.361C71.9953 123.482 71.8393 123.708 71.8393 124.037C71.8393 124.323 71.939 124.557 72.1383 124.739C72.3377 124.921 72.615 125.012 72.9703 125.012ZM77.6487 126V119.643H79.2347V120.631C79.4514 120.267 79.7417 119.99 80.1057 119.799C80.4784 119.608 80.8944 119.513 81.3537 119.513C82.853 119.513 83.6027 120.384 83.6027 122.126V126H81.9777V122.204C81.9777 121.71 81.8824 121.35 81.6917 121.125C81.5097 120.9 81.2237 120.787 80.8337 120.787C80.357 120.787 79.9757 120.939 79.6897 121.242C79.4124 121.537 79.2737 121.931 79.2737 122.425V126H77.6487ZM88.2172 128.47C87.6279 128.47 87.0732 128.401 86.5532 128.262C86.0419 128.132 85.5912 127.928 85.2012 127.651L85.6692 126.52C86.0332 126.763 86.4232 126.94 86.8392 127.053C87.2552 127.174 87.6712 127.235 88.0872 127.235C89.2485 127.235 89.8292 126.676 89.8292 125.558V124.687C89.6472 125.042 89.3655 125.324 88.9842 125.532C88.6115 125.74 88.1955 125.844 87.7362 125.844C87.1642 125.844 86.6659 125.714 86.2412 125.454C85.8165 125.185 85.4872 124.813 85.2532 124.336C85.0192 123.859 84.9022 123.305 84.9022 122.672C84.9022 122.039 85.0192 121.489 85.2532 121.021C85.4872 120.544 85.8165 120.176 86.2412 119.916C86.6659 119.647 87.1642 119.513 87.7362 119.513C88.2129 119.513 88.6375 119.621 89.0102 119.838C89.3829 120.046 89.6559 120.328 89.8292 120.683V119.643H91.4152V125.363C91.4152 126.394 91.1422 127.17 90.5962 127.69C90.0502 128.21 89.2572 128.47 88.2172 128.47ZM88.1782 124.609C88.6809 124.609 89.0795 124.436 89.3742 124.089C89.6689 123.742 89.8162 123.27 89.8162 122.672C89.8162 122.074 89.6689 121.606 89.3742 121.268C89.0795 120.921 88.6809 120.748 88.1782 120.748C87.6755 120.748 87.2769 120.921 86.9822 121.268C86.6875 121.606 86.5402 122.074 86.5402 122.672C86.5402 123.27 86.6875 123.742 86.9822 124.089C87.2769 124.436 87.6755 124.609 88.1782 124.609ZM96.2319 126.13C95.5126 126.13 94.8929 125.996 94.3729 125.727C93.8529 125.458 93.4499 125.077 93.1639 124.583C92.8866 124.089 92.7479 123.504 92.7479 122.828C92.7479 122.169 92.8822 121.593 93.1509 121.099C93.4282 120.605 93.8052 120.219 94.2819 119.942C94.7672 119.656 95.3176 119.513 95.9329 119.513C96.8342 119.513 97.5449 119.799 98.0649 120.371C98.5936 120.943 98.8579 121.723 98.8579 122.711V123.192H94.3079C94.4292 124.327 95.0792 124.895 96.2579 124.895C96.6132 124.895 96.9686 124.843 97.3239 124.739C97.6792 124.626 98.0042 124.453 98.2989 124.219L98.7539 125.311C98.4506 125.562 98.0692 125.762 97.6099 125.909C97.1506 126.056 96.6912 126.13 96.2319 126.13ZM95.9979 120.618C95.5212 120.618 95.1356 120.765 94.8409 121.06C94.5462 121.355 94.3686 121.753 94.3079 122.256H97.5059C97.4712 121.727 97.3239 121.324 97.0639 121.047C96.8126 120.761 96.4572 120.618 95.9979 120.618ZM4.094 146.535C3.45267 145.582 2.99333 144.611 2.716 143.623C2.43867 142.626 2.3 141.612 2.3 140.581C2.3 139.541 2.43867 138.527 2.716 137.539C2.99333 136.551 3.45267 135.58 4.094 134.627L5.199 135.069C4.79167 136.066 4.497 136.997 4.315 137.864C4.133 138.722 4.042 139.628 4.042 140.581C4.042 141.526 4.133 142.431 4.315 143.298C4.497 144.165 4.79167 145.096 5.199 146.093L4.094 146.535ZM6.69918 144V142.765L9.66318 139.606C10.0618 139.173 10.3478 138.791 10.5212 138.462C10.6945 138.124 10.7812 137.782 10.7812 137.435C10.7812 136.551 10.2482 136.109 9.18218 136.109C8.35018 136.109 7.58318 136.421 6.88118 137.045L6.32218 135.797C6.68618 135.468 7.14118 135.203 7.68718 135.004C8.23318 134.805 8.80085 134.705 9.39018 134.705C10.3695 134.705 11.1192 134.926 11.6392 135.368C12.1678 135.81 12.4322 136.443 12.4322 137.266C12.4322 137.821 12.2978 138.354 12.0292 138.865C11.7692 139.376 11.3575 139.927 10.7942 140.516L8.77918 142.622H12.7832V144H6.69918ZM17.3541 144.13C16.2708 144.13 15.4431 143.723 14.8711 142.908C14.2991 142.085 14.0131 140.915 14.0131 139.398C14.0131 137.864 14.2991 136.698 14.8711 135.901C15.4431 135.104 16.2708 134.705 17.3541 134.705C18.4461 134.705 19.2738 135.104 19.8371 135.901C20.4091 136.698 20.6951 137.86 20.6951 139.385C20.6951 140.91 20.4091 142.085 19.8371 142.908C19.2651 143.723 18.4374 144.13 17.3541 144.13ZM17.3541 142.765C17.9434 142.765 18.3768 142.496 18.6541 141.959C18.9401 141.413 19.0831 140.555 19.0831 139.385C19.0831 138.224 18.9401 137.383 18.6541 136.863C18.3768 136.334 17.9434 136.07 17.3541 136.07C16.7734 136.07 16.3401 136.334 16.0541 136.863C15.7681 137.383 15.6251 138.224 15.6251 139.385C15.6251 140.555 15.7681 141.413 16.0541 141.959C16.3401 142.496 16.7734 142.765 17.3541 142.765ZM22.133 141.166V139.866H26.007V141.166H22.133ZM31.4227 144V142.258H27.4317V141.036L31.7087 134.835H33.0867V140.88H34.3737V142.258H33.0867V144H31.4227ZM31.4227 140.88V137.383L29.0307 140.88H31.4227ZM38.5807 144.13C37.4973 144.13 36.6697 143.723 36.0977 142.908C35.5257 142.085 35.2397 140.915 35.2397 139.398C35.2397 137.864 35.5257 136.698 36.0977 135.901C36.6697 135.104 37.4973 134.705 38.5807 134.705C39.6727 134.705 40.5003 135.104 41.0637 135.901C41.6357 136.698 41.9217 137.86 41.9217 139.385C41.9217 140.91 41.6357 142.085 41.0637 142.908C40.4917 143.723 39.664 144.13 38.5807 144.13ZM38.5807 142.765C39.17 142.765 39.6033 142.496 39.8807 141.959C40.1667 141.413 40.3097 140.555 40.3097 139.385C40.3097 138.224 40.1667 137.383 39.8807 136.863C39.6033 136.334 39.17 136.07 38.5807 136.07C38 136.07 37.5667 136.334 37.2807 136.863C36.9947 137.383 36.8517 138.224 36.8517 139.385C36.8517 140.555 36.9947 141.413 37.2807 141.959C37.5667 142.496 38 142.765 38.5807 142.765ZM44.0356 146.535L42.9306 146.093C43.3379 145.088 43.6326 144.152 43.8146 143.285C43.9966 142.418 44.0876 141.517 44.0876 140.581C44.0876 139.645 43.9966 138.744 43.8146 137.877C43.6326 137.01 43.3379 136.074 42.9306 135.069L44.0356 134.627C44.6769 135.58 45.1363 136.555 45.4136 137.552C45.6909 138.54 45.8296 139.55 45.8296 140.581C45.8296 141.612 45.6909 142.626 45.4136 143.623C45.1363 144.611 44.6769 145.582 44.0356 146.535Z" fill="black"/>
<path d="M288.011 13L283.929 3.835H285.71L288.739 10.868L291.768 3.835H293.484L289.402 13H288.011ZM294.08 5.278V3.692H295.9V5.278H294.08ZM294.184 13V6.643H295.809V13H294.184ZM299.825 13.13C299.287 13.13 298.785 13.065 298.317 12.935C297.849 12.805 297.459 12.6187 297.147 12.376L297.563 11.31C297.883 11.5267 298.243 11.6957 298.642 11.817C299.04 11.9297 299.439 11.986 299.838 11.986C300.254 11.986 300.561 11.9167 300.761 11.778C300.969 11.6307 301.073 11.44 301.073 11.206C301.073 10.842 300.804 10.608 300.267 10.504L298.967 10.257C297.866 10.049 297.316 9.477 297.316 8.541C297.316 8.125 297.428 7.76533 297.654 7.462C297.888 7.15867 298.208 6.92467 298.616 6.76C299.023 6.59533 299.491 6.513 300.02 6.513C300.47 6.513 300.904 6.578 301.32 6.708C301.736 6.82933 302.091 7.01567 302.386 7.267L301.944 8.333C301.692 8.125 301.389 7.96033 301.034 7.839C300.687 7.71767 300.353 7.657 300.033 7.657C299.608 7.657 299.292 7.73067 299.084 7.878C298.884 8.02533 298.785 8.22033 298.785 8.463C298.785 8.84433 299.032 9.07833 299.526 9.165L300.826 9.412C301.389 9.516 301.814 9.70667 302.1 9.984C302.394 10.2613 302.542 10.634 302.542 11.102C302.542 11.7347 302.295 12.233 301.801 12.597C301.307 12.9523 300.648 13.13 299.825 13.13ZM303.741 5.278V3.692H305.561V5.278H303.741ZM303.845 13V6.643H305.47V13H303.845ZM310.825 13.13C310.357 13.13 309.937 13.026 309.564 12.818C309.2 12.61 308.927 12.3283 308.745 11.973V13H307.159V3.835H308.784V7.579C308.975 7.25833 309.248 7.00267 309.603 6.812C309.967 6.61267 310.374 6.513 310.825 6.513C311.388 6.513 311.878 6.64733 312.294 6.916C312.71 7.18467 313.035 7.566 313.269 8.06C313.503 8.54533 313.62 9.13033 313.62 9.815C313.62 10.491 313.503 11.0803 313.269 11.583C313.035 12.077 312.706 12.4583 312.281 12.727C311.865 12.9957 311.38 13.13 310.825 13.13ZM310.37 11.895C310.855 11.895 311.245 11.7217 311.54 11.375C311.835 11.0197 311.982 10.4997 311.982 9.815C311.982 9.12167 311.835 8.606 311.54 8.268C311.245 7.92133 310.855 7.748 310.37 7.748C309.885 7.748 309.495 7.92133 309.2 8.268C308.905 8.606 308.758 9.12167 308.758 9.815C308.758 10.4997 308.905 11.0197 309.2 11.375C309.495 11.7217 309.885 11.895 310.37 11.895ZM317.164 13.13C316.41 13.13 315.851 12.9263 315.487 12.519C315.132 12.103 314.954 11.4963 314.954 10.699V3.835H316.579V10.621C316.579 11.401 316.908 11.791 317.567 11.791C317.662 11.791 317.758 11.7867 317.853 11.778C317.948 11.7693 318.039 11.752 318.126 11.726L318.1 13.013C317.788 13.091 317.476 13.13 317.164 13.13ZM322.175 13.13C321.455 13.13 320.836 12.9957 320.316 12.727C319.796 12.4583 319.393 12.077 319.107 11.583C318.829 11.089 318.691 10.504 318.691 9.828C318.691 9.16933 318.825 8.593 319.094 8.099C319.371 7.605 319.748 7.21933 320.225 6.942C320.71 6.656 321.26 6.513 321.876 6.513C322.777 6.513 323.488 6.799 324.008 7.371C324.536 7.943 324.801 8.723 324.801 9.711V10.192H320.251C320.372 11.3273 321.022 11.895 322.201 11.895C322.556 11.895 322.911 11.843 323.267 11.739C323.622 11.6263 323.947 11.453 324.242 11.219L324.697 12.311C324.393 12.5623 324.012 12.7617 323.553 12.909C323.093 13.0563 322.634 13.13 322.175 13.13ZM321.941 7.618C321.464 7.618 321.078 7.76533 320.784 8.06C320.489 8.35467 320.311 8.75333 320.251 9.256H323.449C323.414 8.72733 323.267 8.32433 323.007 8.047C322.755 7.761 322.4 7.618 321.941 7.618ZM329.748 13V3.835H333.726C334.731 3.835 335.507 4.07767 336.053 4.563C336.599 5.03967 336.872 5.71133 336.872 6.578C336.872 7.26267 336.694 7.83033 336.339 8.281C335.983 8.723 335.472 9.022 334.805 9.178C335.247 9.31667 335.611 9.65033 335.897 10.179L337.431 13H335.598L334.012 10.075C333.856 9.789 333.669 9.594 333.453 9.49C333.245 9.386 332.976 9.334 332.647 9.334H331.412V13H329.748ZM331.412 8.099H333.44C334.653 8.099 335.26 7.605 335.26 6.617C335.26 5.63767 334.653 5.148 333.44 5.148H331.412V8.099ZM341.238 13.13C340.579 13.13 340.007 12.9957 339.522 12.727C339.036 12.4583 338.659 12.077 338.391 11.583C338.122 11.0803 337.988 10.491 337.988 9.815C337.988 9.139 338.122 8.554 338.391 8.06C338.659 7.566 339.036 7.18467 339.522 6.916C340.007 6.64733 340.579 6.513 341.238 6.513C341.896 6.513 342.468 6.64733 342.954 6.916C343.439 7.18467 343.816 7.566 344.085 8.06C344.353 8.554 344.488 9.139 344.488 9.815C344.488 10.491 344.353 11.0803 344.085 11.583C343.816 12.077 343.439 12.4583 342.954 12.727C342.468 12.9957 341.896 13.13 341.238 13.13ZM341.238 11.895C341.723 11.895 342.113 11.7217 342.408 11.375C342.702 11.0197 342.85 10.4997 342.85 9.815C342.85 9.12167 342.702 8.606 342.408 8.268C342.113 7.92133 341.723 7.748 341.238 7.748C340.752 7.748 340.362 7.92133 340.068 8.268C339.773 8.606 339.626 9.12167 339.626 9.815C339.626 10.4997 339.773 11.0197 340.068 11.375C340.362 11.7217 340.752 11.895 341.238 11.895ZM347.457 13L344.948 6.643H346.612L348.237 11.115L349.875 6.643H351.019L352.657 11.141L354.282 6.643H355.855L353.359 13H351.942L350.395 8.905L348.874 13H347.457ZM358.985 13.13C358.448 13.13 357.945 13.065 357.477 12.935C357.009 12.805 356.619 12.6187 356.307 12.376L356.723 11.31C357.044 11.5267 357.403 11.6957 357.802 11.817C358.201 11.9297 358.599 11.986 358.998 11.986C359.414 11.986 359.722 11.9167 359.921 11.778C360.129 11.6307 360.233 11.44 360.233 11.206C360.233 10.842 359.964 10.608 359.427 10.504L358.127 10.257C357.026 10.049 356.476 9.477 356.476 8.541C356.476 8.125 356.589 7.76533 356.814 7.462C357.048 7.15867 357.369 6.92467 357.776 6.76C358.183 6.59533 358.651 6.513 359.18 6.513C359.631 6.513 360.064 6.578 360.48 6.708C360.896 6.82933 361.251 7.01567 361.546 7.267L361.104 8.333C360.853 8.125 360.549 7.96033 360.194 7.839C359.847 7.71767 359.514 7.657 359.193 7.657C358.768 7.657 358.452 7.73067 358.244 7.878C358.045 8.02533 357.945 8.22033 357.945 8.463C357.945 8.84433 358.192 9.07833 358.686 9.165L359.986 9.412C360.549 9.516 360.974 9.70667 361.26 9.984C361.555 10.2613 361.702 10.634 361.702 11.102C361.702 11.7347 361.455 12.233 360.961 12.597C360.467 12.9523 359.808 13.13 358.985 13.13ZM368.759 15.535C368.117 14.5817 367.658 13.611 367.381 12.623C367.103 11.6263 366.965 10.6123 366.965 9.581C366.965 8.541 367.103 7.527 367.381 6.539C367.658 5.551 368.117 4.58033 368.759 3.627L369.864 4.069C369.456 5.06567 369.162 5.99733 368.98 6.864C368.798 7.722 368.707 8.62767 368.707 9.581C368.707 10.5257 368.798 11.4313 368.98 12.298C369.162 13.1647 369.456 14.0963 369.864 15.093L368.759 15.535ZM371.364 13V11.765L374.328 8.606C374.726 8.17267 375.012 7.79133 375.186 7.462C375.359 7.124 375.446 6.78167 375.446 6.435C375.446 5.551 374.913 5.109 373.847 5.109C373.015 5.109 372.248 5.421 371.546 6.045L370.987 4.797C371.351 4.46767 371.806 4.20333 372.352 4.004C372.898 3.80467 373.465 3.705 374.055 3.705C375.034 3.705 375.784 3.926 376.304 4.368C376.832 4.81 377.097 5.44267 377.097 6.266C377.097 6.82067 376.962 7.35367 376.694 7.865C376.434 8.37633 376.022 8.92667 375.459 9.516L373.444 11.622H377.448V13H371.364ZM382.019 13.13C380.935 13.13 380.108 12.7227 379.536 11.908C378.964 11.0847 378.678 9.91467 378.678 8.398C378.678 6.864 378.964 5.69833 379.536 4.901C380.108 4.10367 380.935 3.705 382.019 3.705C383.111 3.705 383.938 4.10367 384.502 4.901C385.074 5.69833 385.36 6.85967 385.36 8.385C385.36 9.91033 385.074 11.0847 384.502 11.908C383.93 12.7227 383.102 13.13 382.019 13.13ZM382.019 11.765C382.608 11.765 383.041 11.4963 383.319 10.959C383.605 10.413 383.748 9.555 383.748 8.385C383.748 7.22367 383.605 6.383 383.319 5.863C383.041 5.33433 382.608 5.07 382.019 5.07C381.438 5.07 381.005 5.33433 380.719 5.863C380.433 6.383 380.29 7.22367 380.29 8.385C380.29 9.555 380.433 10.413 380.719 10.959C381.005 11.4963 381.438 11.765 382.019 11.765ZM386.798 10.166V8.866H390.672V10.166H386.798ZM396.087 13V11.258H392.096V10.036L396.373 3.835H397.751V9.88H399.038V11.258H397.751V13H396.087ZM396.087 9.88V6.383L393.695 9.88H396.087ZM403.245 13.13C402.162 13.13 401.334 12.7227 400.762 11.908C400.19 11.0847 399.904 9.91467 399.904 8.398C399.904 6.864 400.19 5.69833 400.762 4.901C401.334 4.10367 402.162 3.705 403.245 3.705C404.337 3.705 405.165 4.10367 405.728 4.901C406.3 5.69833 406.586 6.85967 406.586 8.385C406.586 9.91033 406.3 11.0847 405.728 11.908C405.156 12.7227 404.329 13.13 403.245 13.13ZM403.245 11.765C403.835 11.765 404.268 11.4963 404.545 10.959C404.831 10.413 404.974 9.555 404.974 8.385C404.974 7.22367 404.831 6.383 404.545 5.863C404.268 5.33433 403.835 5.07 403.245 5.07C402.665 5.07 402.231 5.33433 401.945 5.863C401.659 6.383 401.516 7.22367 401.516 8.385C401.516 9.555 401.659 10.413 401.945 10.959C402.231 11.4963 402.665 11.765 403.245 11.765ZM408.7 15.535L407.595 15.093C408.002 14.0877 408.297 13.1517 408.479 12.285C408.661 11.4183 408.752 10.517 408.752 9.581C408.752 8.645 408.661 7.74367 408.479 6.877C408.297 6.01033 408.002 5.07433 407.595 4.069L408.7 3.627C409.341 4.58033 409.801 5.55533 410.078 6.552C410.355 7.54 410.494 8.54967 410.494 9.581C410.494 10.6123 410.355 11.6263 410.078 12.623C409.801 13.611 409.341 14.5817 408.7 15.535ZM416.044 5.278V3.692H417.864V5.278H416.044ZM416.148 13V6.643H417.773V13H416.148ZM419.462 13V6.643H421.048V7.631C421.264 7.267 421.555 6.98967 421.919 6.799C422.291 6.60833 422.707 6.513 423.167 6.513C424.666 6.513 425.416 7.384 425.416 9.126V13H423.791V9.204C423.791 8.71 423.695 8.35033 423.505 8.125C423.323 7.89967 423.037 7.787 422.647 7.787C422.17 7.787 421.789 7.93867 421.503 8.242C421.225 8.53667 421.087 8.931 421.087 9.425V13H419.462ZM434.99 13.13C434.037 13.13 433.218 12.9393 432.533 12.558C431.857 12.168 431.337 11.622 430.973 10.92C430.609 10.2093 430.427 9.373 430.427 8.411C430.427 7.449 430.609 6.617 430.973 5.915C431.337 5.213 431.857 4.67133 432.533 4.29C433.218 3.9 434.037 3.705 434.99 3.705C435.605 3.705 436.186 3.80033 436.732 3.991C437.287 4.18167 437.742 4.45467 438.097 4.81L437.551 6.136C437.161 5.80667 436.762 5.56833 436.355 5.421C435.948 5.265 435.51 5.187 435.042 5.187C434.115 5.187 433.408 5.46867 432.923 6.032C432.438 6.58667 432.195 7.37967 432.195 8.411C432.195 9.44233 432.438 10.2397 432.923 10.803C433.408 11.3663 434.115 11.648 435.042 11.648C435.51 11.648 435.948 11.5743 436.355 11.427C436.762 11.271 437.161 11.0283 437.551 10.699L438.097 12.025C437.742 12.3717 437.287 12.6447 436.732 12.844C436.186 13.0347 435.605 13.13 434.99 13.13ZM441.603 13.13C440.849 13.13 440.29 12.9263 439.926 12.519C439.571 12.103 439.393 11.4963 439.393 10.699V3.835H441.018V10.621C441.018 11.401 441.348 11.791 442.006 11.791C442.102 11.791 442.197 11.7867 442.292 11.778C442.388 11.7693 442.479 11.752 442.565 11.726L442.539 13.013C442.227 13.091 441.915 13.13 441.603 13.13ZM443.441 5.278V3.692H445.261V5.278H443.441ZM443.545 13V6.643H445.17V13H443.545ZM449.991 13.13C449.272 13.13 448.652 12.9957 448.132 12.727C447.612 12.4583 447.209 12.077 446.923 11.583C446.646 11.089 446.507 10.504 446.507 9.828C446.507 9.16933 446.642 8.593 446.91 8.099C447.188 7.605 447.565 7.21933 448.041 6.942C448.527 6.656 449.077 6.513 449.692 6.513C450.594 6.513 451.304 6.799 451.824 7.371C452.353 7.943 452.617 8.723 452.617 9.711V10.192H448.067C448.189 11.3273 448.839 11.895 450.017 11.895C450.373 11.895 450.728 11.843 451.083 11.739C451.439 11.6263 451.764 11.453 452.058 11.219L452.513 12.311C452.21 12.5623 451.829 12.7617 451.369 12.909C450.91 13.0563 450.451 13.13 449.991 13.13ZM449.757 7.618C449.281 7.618 448.895 7.76533 448.6 8.06C448.306 8.35467 448.128 8.75333 448.067 9.256H451.265C451.231 8.72733 451.083 8.32433 450.823 8.047C450.572 7.761 450.217 7.618 449.757 7.618ZM453.904 13V6.643H455.49V7.631C455.707 7.267 455.997 6.98967 456.361 6.799C456.734 6.60833 457.15 6.513 457.609 6.513C459.108 6.513 459.858 7.384 459.858 9.126V13H458.233V9.204C458.233 8.71 458.138 8.35033 457.947 8.125C457.765 7.89967 457.479 7.787 457.089 7.787C456.612 7.787 456.231 7.93867 455.945 8.242C455.668 8.53667 455.529 8.931 455.529 9.425V13H453.904ZM464.421 13.13C462.739 13.13 461.899 12.298 461.899 10.634V7.865H460.677V6.643H461.899V4.745H463.524V6.643H465.448V7.865H463.524V10.543C463.524 10.959 463.615 11.271 463.797 11.479C463.979 11.687 464.273 11.791 464.681 11.791C464.802 11.791 464.928 11.778 465.058 11.752C465.188 11.7173 465.322 11.6827 465.461 11.648L465.708 12.844C465.552 12.9307 465.352 13 465.11 13.052C464.876 13.104 464.646 13.13 464.421 13.13ZM474.565 13.13C473.551 13.13 472.693 12.9393 471.991 12.558C471.297 12.1767 470.769 11.635 470.405 10.933C470.041 10.231 469.859 9.399 469.859 8.437C469.859 7.46633 470.045 6.63 470.418 5.928C470.79 5.21733 471.328 4.67133 472.03 4.29C472.732 3.9 473.572 3.705 474.552 3.705C475.193 3.705 475.795 3.80033 476.359 3.991C476.922 4.173 477.39 4.42867 477.763 4.758L477.204 6.058C476.796 5.73733 476.38 5.50767 475.956 5.369C475.531 5.23033 475.063 5.161 474.552 5.161C473.581 5.161 472.844 5.44267 472.342 6.006C471.848 6.56933 471.601 7.37967 471.601 8.437C471.601 9.503 471.856 10.3133 472.368 10.868C472.879 11.4227 473.637 11.7 474.643 11.7C474.929 11.7 475.219 11.6783 475.514 11.635C475.817 11.583 476.116 11.5093 476.411 11.414V9.282H474.305V8.047H477.802V12.454C477.377 12.662 476.874 12.8267 476.294 12.948C475.713 13.0693 475.137 13.13 474.565 13.13ZM479.574 13V6.643H481.16V7.761C481.472 7.007 482.139 6.591 483.162 6.513L483.656 6.474L483.76 7.852L482.824 7.943C481.758 8.047 481.225 8.593 481.225 9.581V13H479.574ZM484.561 5.278V3.692H486.381V5.278H484.561ZM484.665 13V6.643H486.29V13H484.665ZM490.422 13.13C489.868 13.13 489.378 12.9957 488.953 12.727C488.537 12.4583 488.212 12.077 487.978 11.583C487.744 11.0803 487.627 10.491 487.627 9.815C487.627 9.13033 487.744 8.54533 487.978 8.06C488.212 7.566 488.537 7.18467 488.953 6.916C489.378 6.64733 489.868 6.513 490.422 6.513C490.873 6.513 491.28 6.61267 491.644 6.812C492.008 7.01133 492.281 7.27567 492.463 7.605V3.835H494.088V13H492.502V11.947C492.329 12.311 492.056 12.6013 491.683 12.818C491.311 13.026 490.89 13.13 490.422 13.13ZM490.877 11.895C491.363 11.895 491.753 11.7217 492.047 11.375C492.342 11.0197 492.489 10.4997 492.489 9.815C492.489 9.12167 492.342 8.606 492.047 8.268C491.753 7.92133 491.363 7.748 490.877 7.748C490.392 7.748 490.002 7.92133 489.707 8.268C489.413 8.606 489.265 9.12167 489.265 9.815C489.265 10.4997 489.413 11.0197 489.707 11.375C490.002 11.7217 490.392 11.895 490.877 11.895Z" fill="black"/>
<rect x="253.5" y="41.5" width="271" height="179" rx="7.5" stroke="#6D18BD"/>
<rect x="261" y="49" width="20" height="4" rx="2" fill="#6D18BD"/>
<rect x="261" y="57" width="34" height="4" rx="2" fill="#F37880"/>
<rect x="261" y="65" width="28" height="4" rx="2" fill="#F37880"/>
<rect x="261" y="73" width="34" height="4" rx="2" fill="#F37880"/>
<rect x="261" y="81" width="28" height="4" rx="2" fill="#F37880"/>
<rect x="261" y="89" width="34" height="4" rx="2" fill="#F37880"/>
<rect x="261" y="97" width="28" height="4" rx="2" fill="#F37880"/>
<rect x="261" y="105" width="34" height="4" rx="2" fill="#F37880"/>
<rect x="261" y="113" width="28" height="4" rx="2" fill="#F37880"/>
<rect x="261" y="121" width="34" height="4" rx="2" fill="#F37880"/>
<rect x="261" y="129" width="28" height="4" rx="2" fill="#F37880"/>
<rect x="261" y="137" width="34" height="4" rx="2" fill="#F37880"/>
<rect x="261" y="145" width="28" height="4" rx="2" fill="#F37880"/>
<rect x="261" y="153" width="34" height="4" rx="2" fill="#F37880"/>
<rect x="261" y="161" width="28" height="4" rx="2" fill="#F37880"/>
<rect x="261" y="169" width="34" height="4" rx="2" fill="#F37880"/>
<rect x="261" y="177" width="28" height="4" rx="2" fill="#F37880"/>
<rect x="261" y="185" width="34" height="4" rx="2" fill="#F37880"/>
<rect x="261" y="193" width="28" height="4" rx="2" fill="#F37880"/>
<rect x="261" y="201" width="34" height="4" rx="2" fill="#F37880"/>
<rect x="261" y="209" width="28" height="4" rx="2" fill="#F37880"/>
<rect x="303" y="49" width="20" height="4" rx="2" fill="#6D18BD"/>
<rect x="303" y="57" width="34" height="4" rx="2" fill="#F37880"/>
<rect x="303" y="65" width="28" height="4" rx="2" fill="#F37880"/>
<rect x="303" y="73" width="34" height="4" rx="2" fill="#F37880"/>
<rect x="303" y="81" width="28" height="4" rx="2" fill="#F37880"/>
<rect x="303" y="89" width="34" height="4" rx="2" fill="#F37880"/>
<rect x="303" y="97" width="28" height="4" rx="2" fill="#F37880"/>
<rect x="303" y="105" width="34" height="4" rx="2" fill="#F37880"/>
<rect x="303" y="113" width="28" height="4" rx="2" fill="#F37880"/>
<rect x="303" y="121" width="34" height="4" rx="2" fill="#F37880"/>
<rect x="303" y="129" width="28" height="4" rx="2" fill="#F37880"/>
<rect x="303" y="137" width="34" height="4" rx="2" fill="#F37880"/>
<rect x="303" y="145" width="28" height="4" rx="2" fill="#F37880"/>
<rect x="303" y="153" width="34" height="4" rx="2" fill="#F37880"/>
<rect x="303" y="161" width="28" height="4" rx="2" fill="#F37880"/>
<rect x="303" y="169" width="34" height="4" rx="2" fill="#F37880"/>
<rect x="303" y="177" width="28" height="4" rx="2" fill="#F37880"/>
<rect x="303" y="185" width="34" height="4" rx="2" fill="#F37880"/>
<rect x="303" y="193" width="28" height="4" rx="2" fill="#F37880"/>
<rect x="303" y="201" width="34" height="4" rx="2" fill="#F37880"/>
<rect x="303" y="209" width="28" height="4" rx="2" fill="#F37880"/>
<rect x="345" y="49" width="20" height="4" rx="2" fill="#6D18BD"/>
<rect x="345" y="57" width="34" height="4" rx="2" fill="#F37880"/>
<rect x="345" y="65" width="28" height="4" rx="2" fill="#F37880"/>
<rect x="345" y="73" width="34" height="4" rx="2" fill="#F37880"/>
<rect x="345" y="81" width="28" height="4" rx="2" fill="#F37880"/>
<rect x="345" y="89" width="34" height="4" rx="2" fill="#F37880"/>
<rect x="345" y="97" width="28" height="4" rx="2" fill="#F37880"/>
<rect x="345" y="105" width="34" height="4" rx="2" fill="#F37880"/>
<rect x="345" y="113" width="28" height="4" rx="2" fill="#F37880"/>
<rect x="345" y="121" width="34" height="4" rx="2" fill="#F37880"/>
<rect x="345" y="129" width="28" height="4" rx="2" fill="#F37880"/>
<rect x="345" y="137" width="34" height="4" rx="2" fill="#F37880"/>
<rect x="345" y="145" width="28" height="4" rx="2" fill="#F37880"/>
<rect x="345" y="153" width="34" height="4" rx="2" fill="#F37880"/>
<rect x="345" y="161" width="28" height="4" rx="2" fill="#F37880"/>
<rect x="345" y="169" width="34" height="4" rx="2" fill="#F37880"/>
<rect x="345" y="177" width="28" height="4" rx="2" fill="#F37880"/>
<rect x="345" y="185" width="34" height="4" rx="2" fill="#F37880"/>
<rect x="345" y="193" width="28" height="4" rx="2" fill="#F37880"/>
<rect x="345" y="201" width="34" height="4" rx="2" fill="#F37880"/>
<rect x="345" y="209" width="28" height="4" rx="2" fill="#F37880"/>
<rect x="401" y="49" width="20" height="4" rx="2" fill="#6D18BD"/>
<rect x="387" y="57" width="34" height="4" rx="2" fill="#F37880"/>
<rect x="393" y="65" width="28" height="4" rx="2" fill="#F37880"/>
<rect x="387" y="73" width="34" height="4" rx="2" fill="#F37880"/>
<rect x="393" y="81" width="28" height="4" rx="2" fill="#F37880"/>
<rect x="387" y="89" width="34" height="4" rx="2" fill="#F37880"/>
<rect x="393" y="97" width="28" height="4" rx="2" fill="#F37880"/>
<rect x="387" y="105" width="34" height="4" rx="2" fill="#F37880"/>
<rect x="393" y="113" width="28" height="4" rx="2" fill="#F37880"/>
<rect x="387" y="121" width="34" height="4" rx="2" fill="#F37880"/>
<rect x="393" y="129" width="28" height="4" rx="2" fill="#F37880"/>
<rect x="387" y="137" width="34" height="4" rx="2" fill="#F37880"/>
<rect x="393" y="145" width="28" height="4" rx="2" fill="#F37880"/>
<rect x="387" y="153" width="34" height="4" rx="2" fill="#F37880"/>
<rect x="393" y="161" width="28" height="4" rx="2" fill="#F37880"/>
<rect x="387" y="169" width="34" height="4" rx="2" fill="#F37880"/>
<rect x="393" y="177" width="28" height="4" rx="2" fill="#F37880"/>
<rect x="387" y="185" width="34" height="4" rx="2" fill="#F37880"/>
<rect x="393" y="193" width="28" height="4" rx="2" fill="#F37880"/>
<rect x="387" y="201" width="34" height="4" rx="2" fill="#F37880"/>
<rect x="393" y="209" width="28" height="4" rx="2" fill="#F37880"/>
<rect x="443" y="49" width="20" height="4" rx="2" fill="#6D18BD"/>
<rect x="429" y="57" width="34" height="4" rx="2" fill="#F37880"/>
<rect x="435" y="65" width="28" height="4" rx="2" fill="#F37880"/>
<rect x="429" y="73" width="34" height="4" rx="2" fill="#F37880"/>
<rect x="435" y="81" width="28" height="4" rx="2" fill="#F37880"/>
<rect x="429" y="89" width="34" height="4" rx="2" fill="#F37880"/>
<rect x="435" y="97" width="28" height="4" rx="2" fill="#F37880"/>
<rect x="429" y="105" width="34" height="4" rx="2" fill="#F37880"/>
<rect x="435" y="113" width="28" height="4" rx="2" fill="#F37880"/>
<rect x="429" y="121" width="34" height="4" rx="2" fill="#F37880"/>
<rect x="435" y="129" width="28" height="4" rx="2" fill="#F37880"/>
<rect x="429" y="137" width="34" height="4" rx="2" fill="#F37880"/>
<rect x="435" y="145" width="28" height="4" rx="2" fill="#F37880"/>
<rect x="429" y="153" width="34" height="4" rx="2" fill="#F37880"/>
<rect x="435" y="161" width="28" height="4" rx="2" fill="#F37880"/>
<rect x="429" y="169" width="34" height="4" rx="2" fill="#F37880"/>
<rect x="435" y="177" width="28" height="4" rx="2" fill="#F37880"/>
<rect x="429" y="185" width="34" height="4" rx="2" fill="#F37880"/>
<rect x="435" y="193" width="28" height="4" rx="2" fill="#F37880"/>
<rect x="429" y="201" width="34" height="4" rx="2" fill="#F37880"/>
<rect x="435" y="209" width="28" height="4" rx="2" fill="#F37880"/>
<rect x="485" y="49" width="20" height="4" rx="2" fill="#6D18BD"/>
<rect x="471" y="57" width="34" height="4" rx="2" fill="#F37880"/>
<rect x="477" y="65" width="28" height="4" rx="2" fill="#F37880"/>
<rect x="471" y="73" width="34" height="4" rx="2" fill="#F37880"/>
<rect x="477" y="81" width="28" height="4" rx="2" fill="#F37880"/>
<rect x="471" y="89" width="34" height="4" rx="2" fill="#F37880"/>
<rect x="477" y="97" width="28" height="4" rx="2" fill="#F37880"/>
<rect x="471" y="105" width="34" height="4" rx="2" fill="#F37880"/>
<rect x="477" y="113" width="28" height="4" rx="2" fill="#F37880"/>
<rect x="471" y="121" width="34" height="4" rx="2" fill="#F37880"/>
<rect x="477" y="129" width="28" height="4" rx="2" fill="#F37880"/>
<rect x="471" y="137" width="34" height="4" rx="2" fill="#F37880"/>
<rect x="477" y="145" width="28" height="4" rx="2" fill="#F37880"/>
<rect x="471" y="153" width="34" height="4" rx="2" fill="#F37880"/>
<rect x="477" y="161" width="28" height="4" rx="2" fill="#F37880"/>
<rect x="471" y="169" width="34" height="4" rx="2" fill="#F37880"/>
<rect x="477" y="177" width="28" height="4" rx="2" fill="#F37880"/>
<rect x="471" y="185" width="34" height="4" rx="2" fill="#F37880"/>
<rect x="477" y="193" width="28" height="4" rx="2" fill="#F37880"/>
<rect x="471" y="201" width="34" height="4" rx="2" fill="#F37880"/>
<rect x="477" y="209" width="28" height="4" rx="2" fill="#F37880"/>
<rect x="513" y="49" width="4" height="164" rx="2" fill="#C7CBDE"/>
<rect x="513" y="104" width="4" height="54.6667" rx="2" fill="#6D18BD"/>
<path d="M161.667 102C161.667 103.473 160.473 104.667 159 104.667C157.527 104.667 156.333 103.473 156.333 102C156.333 100.527 157.527 99.3333 159 99.3333C160.473 99.3333 161.667 100.527 161.667 102ZM243 131L238 133.887V128.113L243 131ZM239.958 131.5H237.93V130.5H239.958V131.5ZM235.903 131.5H233.875V130.5H235.903V131.5ZM231.847 131.5H229.819V130.5H231.847V131.5ZM227.791 131.5H225.763V130.5H227.791V131.5ZM223.736 131.5H221.708V130.5H223.736V131.5ZM219.68 131.5H217.652V130.5H219.68V131.5ZM215.624 131.5H213.596V130.5H215.624V131.5ZM211.568 131.5H209.541V130.5H211.568V131.5ZM207.513 131.5H205.485V130.5H207.513V131.5ZM203.457 131.5H201.429V130.5H203.457V131.5ZM199.401 131.5H197.374V130.5H199.401V131.5ZM195.346 131.5H193.318V130.5H195.346V131.5ZM191.29 131.5H189.262V130.5H191.29V131.5ZM187.234 131.5H185.207V130.5H187.234V131.5ZM183.179 131.5H182.165V130.5H183.179V131.5ZM182.165 131.5C181.804 131.5 181.446 131.483 181.094 131.449L181.19 130.453C181.511 130.484 181.836 130.5 182.165 130.5V131.5ZM178.992 131.036C178.299 130.828 177.636 130.554 177.01 130.222L177.478 129.338C178.048 129.641 178.65 129.89 179.279 130.078L178.992 131.036ZM175.224 129.037C174.669 128.585 174.159 128.08 173.703 127.529L174.472 126.891C174.887 127.391 175.351 127.851 175.856 128.262L175.224 129.037ZM172.503 125.753C172.165 125.128 171.887 124.466 171.676 123.775L172.632 123.483C172.824 124.109 173.076 124.71 173.383 125.278L172.503 125.753ZM171.256 121.673C171.221 121.32 171.203 120.962 171.203 120.601H172.203C172.203 120.93 172.219 121.255 172.251 121.575L171.256 121.673ZM171.203 120.601V119.576H172.203V120.601H171.203ZM171.203 117.525V115.475H172.203V117.525H171.203ZM171.203 113.424V112.399H172.203V113.424H171.203ZM171.203 112.399C171.203 112.07 171.187 111.745 171.156 111.425L172.151 111.327C172.186 111.68 172.203 112.038 172.203 112.399H171.203ZM170.775 109.517C170.583 108.891 170.33 108.29 170.024 107.722L170.903 107.247C171.241 107.872 171.52 108.534 171.731 109.225L170.775 109.517ZM168.934 106.109C168.519 105.609 168.056 105.149 167.551 104.738L168.182 103.963C168.738 104.415 169.247 104.92 169.704 105.471L168.934 106.109ZM165.928 103.662C165.359 103.359 164.756 103.11 164.127 102.922L164.415 101.964C165.107 102.172 165.77 102.446 166.397 102.778L165.928 103.662ZM162.217 102.547C161.896 102.516 161.571 102.5 161.242 102.5V101.5C161.603 101.5 161.96 101.517 162.313 101.551L162.217 102.547ZM161.242 102.5H160.681V101.5H161.242V102.5ZM159.56 102.5H159V101.5H159.56V102.5Z" fill="#6D18BD"/>
<path d="M161.667 160C161.667 158.527 160.473 157.333 159 157.333C157.527 157.333 156.333 158.527 156.333 160C156.333 161.473 157.527 162.667 159 162.667C160.473 162.667 161.667 161.473 161.667 160ZM243 131L238 128.113V133.887L243 131ZM239.958 130.5H237.93V131.5H239.958V130.5ZM235.903 130.5H233.875V131.5H235.903V130.5ZM231.847 130.5H229.819V131.5H231.847V130.5ZM227.791 130.5H225.763V131.5H227.791V130.5ZM223.736 130.5H221.708V131.5H223.736V130.5ZM219.68 130.5H217.652V131.5H219.68V130.5ZM215.624 130.5H213.596V131.5H215.624V130.5ZM211.568 130.5H209.541V131.5H211.568V130.5ZM207.513 130.5H205.485V131.5H207.513V130.5ZM203.457 130.5H201.429V131.5H203.457V130.5ZM199.401 130.5H197.374V131.5H199.401V130.5ZM195.346 130.5H193.318V131.5H195.346V130.5ZM191.29 130.5H189.262V131.5H191.29V130.5ZM187.234 130.5H185.207V131.5H187.234V130.5ZM183.179 130.5H182.165V131.5H183.179V130.5ZM182.165 130.5C181.804 130.5 181.446 130.517 181.094 130.551L181.19 131.547C181.511 131.516 181.836 131.5 182.165 131.5V130.5ZM178.992 130.964C178.299 131.172 177.636 131.446 177.01 131.778L177.478 132.662C178.048 132.359 178.65 132.11 179.279 131.922L178.992 130.964ZM175.224 132.963C174.669 133.415 174.159 133.92 173.703 134.471L174.472 135.109C174.887 134.609 175.351 134.149 175.856 133.738L175.224 132.963ZM172.503 136.247C172.165 136.872 171.887 137.534 171.676 138.225L172.632 138.517C172.824 137.891 173.076 137.29 173.383 136.722L172.503 136.247ZM171.256 140.327C171.221 140.68 171.203 141.038 171.203 141.399H172.203C172.203 141.07 172.219 140.745 172.251 140.425L171.256 140.327ZM171.203 141.399V142.424H172.203V141.399H171.203ZM171.203 144.475V146.525H172.203V144.475H171.203ZM171.203 148.576V149.601H172.203V148.576H171.203ZM171.203 149.601C171.203 149.93 171.187 150.255 171.156 150.575L172.151 150.673C172.186 150.32 172.203 149.962 172.203 149.601H171.203ZM170.775 152.483C170.583 153.109 170.33 153.71 170.024 154.278L170.903 154.753C171.241 154.128 171.52 153.466 171.731 152.775L170.775 152.483ZM168.934 155.891C168.519 156.391 168.056 156.851 167.551 157.262L168.182 158.037C168.738 157.585 169.247 157.08 169.704 156.529L168.934 155.891ZM165.928 158.338C165.359 158.641 164.756 158.89 164.127 159.078L164.415 160.036C165.107 159.828 165.77 159.554 166.397 159.222L165.928 158.338ZM162.217 159.453C161.896 159.484 161.571 159.5 161.242 159.5V160.5C161.603 160.5 161.96 160.483 162.313 160.449L162.217 159.453ZM161.242 159.5H160.681V160.5H161.242V159.5ZM159.56 159.5H159V160.5H159.56V159.5Z" fill="#6D18BD"/>
<rect x="192" y="117" width="28" height="28" rx="4" fill="#6D18BD"/>
<circle cx="206" cy="123" r="2" fill="white"/>
<path d="M199.458 137L196.719 129.245H198.171L200.096 134.965L202.12 129.245H203.165L205.145 135.042L207.125 129.245H208.5L205.739 137H204.573L202.604 131.401L200.624 137H199.458ZM212.103 137.11C211.495 137.11 210.93 137.033 210.409 136.879C209.889 136.718 209.449 136.501 209.089 136.23L209.518 135.119C209.878 135.376 210.27 135.574 210.695 135.713C211.128 135.852 211.597 135.922 212.103 135.922C212.683 135.922 213.104 135.827 213.368 135.636C213.632 135.438 213.764 135.185 213.764 134.877C213.764 134.62 213.669 134.419 213.478 134.272C213.295 134.125 212.976 134.004 212.521 133.909L211.311 133.656C209.933 133.363 209.243 132.655 209.243 131.533C209.243 131.049 209.372 130.627 209.628 130.268C209.885 129.909 210.241 129.63 210.695 129.432C211.15 129.234 211.674 129.135 212.268 129.135C212.796 129.135 213.291 129.216 213.753 129.377C214.215 129.531 214.6 129.751 214.908 130.037L214.479 131.093C213.871 130.58 213.13 130.323 212.257 130.323C211.751 130.323 211.355 130.429 211.069 130.642C210.783 130.855 210.64 131.133 210.64 131.478C210.64 131.742 210.728 131.955 210.904 132.116C211.08 132.27 211.381 132.391 211.806 132.479L213.005 132.732C213.731 132.886 214.27 133.128 214.622 133.458C214.982 133.788 215.161 134.228 215.161 134.778C215.161 135.24 215.037 135.647 214.787 135.999C214.538 136.351 214.182 136.626 213.72 136.824C213.266 137.015 212.727 137.11 212.103 137.11Z" fill="white"/>
</svg>
