<?xml version="1.0" encoding="UTF-8" standalone="no"?>
<!DOCTYPE svg PUBLIC "-//W3C//DTD SVG 1.1//EN"
 "http://www.w3.org/Graphics/SVG/1.1/DTD/svg11.dtd">
<!-- Generated by graphviz version 2.50.0 (20211204.2007)
 -->
<!-- Title: regexp Pages: 1 -->
<svg width="569pt" height="512pt"
 viewBox="0.00 0.00 569.00 512.00" xmlns="http://www.w3.org/2000/svg" xmlns:xlink="http://www.w3.org/1999/xlink">
<g id="graph0" class="graph" transform="scale(1 1) rotate(0) translate(4 508)">
<title>regexp</title>
<polygon fill="white" stroke="transparent" points="-4,4 -4,-508 565,-508 565,4 -4,4"/>
<!-- nMetricsGroupByProvider -->
<g id="node1" class="node">
<title>nMetricsGroupByProvider</title>
<g id="a_node1"><a xlink:href="https://godoc.org/regexp" xlink:title="Package regexp implements regular expression search.">
<polygon fill="none" stroke="black" points="360.5,-95 240.5,-95 240.5,-76 360.5,-76 360.5,-95"/>
<text text-anchor="middle" x="300.5" y="-83" font-family="Times,serif" font-size="10.00">MetricsGroupByProvider</text>
</a>
</g>
</g>
<!-- nmetricsGroupByProviderThread -->
<g id="node10" class="node">
<title>nmetricsGroupByProviderThread</title>
<g id="a_node10"><a xlink:href="https://godoc.org/regexp" xlink:title="Package regexp implements regular expression search.">
<polygon fill="none" stroke="black" points="561,-95 414,-95 414,-76 561,-76 561,-95"/>
<text text-anchor="middle" x="487.5" y="-83" font-family="Times,serif" font-size="10.00">metricsGroupByProviderThread</text>
</a>
</g>
</g>
<!-- nMetricsGroupByProvider&#45;&gt;nmetricsGroupByProviderThread -->
<g id="edge17" class="edge">
<title>nMetricsGroupByProvider&#45;&gt;nmetricsGroupByProviderThread</title>
<path fill="none" stroke="black" d="M360.54,-85.5C374.29,-85.5 389.18,-85.5 403.74,-85.5"/>
<polygon fill="black" stroke="black" points="403.75,-89 413.75,-85.5 403.75,-82 403.75,-89"/>
</g>
<!-- nVuuJoinTableProvider -->
<g id="node25" class="node">
<title>nVuuJoinTableProvider</title>
<g id="a_node25"><a xlink:href="https://godoc.org/regexp" xlink:title="Package regexp implements regular expression search.">
<polygon fill="none" stroke="black" points="541.5,-282 433.5,-282 433.5,-263 541.5,-263 541.5,-282"/>
<text text-anchor="middle" x="487.5" y="-270" font-family="Times,serif" font-size="10.00">VuuJoinTableProvider</text>
</a>
</g>
</g>
<!-- nMetricsGroupByProvider&#45;&gt;nVuuJoinTableProvider -->
<g id="edge18" class="edge">
<title>nMetricsGroupByProvider&#45;&gt;nVuuJoinTableProvider</title>
<path fill="none" stroke="black" d="M360.62,-92.19C367.07,-94.92 373.07,-98.59 378,-103.5 426.86,-152.21 365.44,-205.49 414,-254.5 417.03,-257.56 420.49,-260.12 424.22,-262.28"/>
<polygon fill="black" stroke="black" points="422.81,-265.48 433.34,-266.58 425.8,-259.15 422.81,-265.48"/>
</g>
<!-- nSimulatedBigInstrumentsProvider -->
<g id="node2" class="node">
<title>nSimulatedBigInstrumentsProvider</title>
<g id="a_node2"><a xlink:href="https://godoc.org/regexp" xlink:title="Package regexp implements regular expression search.">
<polygon fill="none" stroke="black" points="378,-467 223,-467 223,-448 378,-448 378,-467"/>
<text text-anchor="middle" x="300.5" y="-455" font-family="Times,serif" font-size="10.00">SimulatedBigInstrumentsProvider</text>
</a>
</g>
</g>
<!-- nRunOnceLifeCycleRunner -->
<g id="node23" class="node">
<title>nRunOnceLifeCycleRunner</title>
<g id="a_node23"><a xlink:href="https://godoc.org/regexp" xlink:title="Package regexp implements regular expression search.">
<polygon fill="none" stroke="black" points="550.5,-467 424.5,-467 424.5,-448 550.5,-448 550.5,-467"/>
<text text-anchor="middle" x="487.5" y="-455" font-family="Times,serif" font-size="10.00">RunOnceLifeCycleRunner</text>
</a>
</g>
</g>
<!-- nSimulatedBigInstrumentsProvider&#45;&gt;nRunOnceLifeCycleRunner -->
<g id="edge14" class="edge">
<title>nSimulatedBigInstrumentsProvider&#45;&gt;nRunOnceLifeCycleRunner</title>
<path fill="none" stroke="black" d="M378.08,-457.5C390,-457.5 402.28,-457.5 414.1,-457.5"/>
<polygon fill="black" stroke="black" points="414.35,-461 424.35,-457.5 414.35,-454 414.35,-461"/>
</g>
<!-- nSimulatedBigInstrumentsProvider&#45;&gt;nVuuJoinTableProvider -->
<g id="edge15" class="edge">
<title>nSimulatedBigInstrumentsProvider&#45;&gt;nVuuJoinTableProvider</title>
<path fill="none" stroke="black" d="M365.88,-447.84C370.28,-445.57 374.39,-442.83 378,-439.5 416.15,-404.37 384.15,-370.91 414,-328.5 425.94,-311.54 444.53,-297.33 459.89,-287.46"/>
<polygon fill="black" stroke="black" points="461.81,-290.39 468.49,-282.17 458.14,-284.43 461.81,-290.39"/>
</g>
<!-- nWebSocketServer -->
<g id="node3" class="node">
<title>nWebSocketServer</title>
<g id="a_node3"><a xlink:href="https://godoc.org/regexp" xlink:title="Package regexp implements regular expression search.">
<polygon fill="none" stroke="black" points="345,-58 256,-58 256,-39 345,-39 345,-58"/>
<text text-anchor="middle" x="300.5" y="-46" font-family="Times,serif" font-size="10.00">WebSocketServer</text>
</a>
</g>
</g>
<!-- nVuuHttp2Server -->
<g id="node4" class="node">
<title>nVuuHttp2Server</title>
<g id="a_node4"><a xlink:href="https://godoc.org/regexp" xlink:title="Package regexp implements regular expression search.">
<polygon fill="none" stroke="black" points="182.5,-19 99.5,-19 99.5,0 182.5,0 182.5,-19"/>
<text text-anchor="middle" x="141" y="-7" font-family="Times,serif" font-size="10.00">VuuHttp2Server</text>
</a>
</g>
</g>
<!-- nMetricsViewPortProvider -->
<g id="node5" class="node">
<title>nMetricsViewPortProvider</title>
<g id="a_node5"><a xlink:href="https://godoc.org/regexp" xlink:title="Package regexp implements regular expression search.">
<polygon fill="none" stroke="black" points="360.5,-430 240.5,-430 240.5,-411 360.5,-411 360.5,-430"/>
<text text-anchor="middle" x="300.5" y="-418" font-family="Times,serif" font-size="10.00">MetricsViewPortProvider</text>
</a>
</g>
</g>
<!-- nmetricsViewPortProviderThread -->
<g id="node13" class="node">
<title>nmetricsViewPortProviderThread</title>
<g id="a_node13"><a xlink:href="https://godoc.org/regexp" xlink:title="Package regexp implements regular expression search.">
<polygon fill="none" stroke="black" points="561,-430 414,-430 414,-411 561,-411 561,-430"/>
<text text-anchor="middle" x="487.5" y="-418" font-family="Times,serif" font-size="10.00">metricsViewPortProviderThread</text>
</a>
</g>
</g>
<!-- nMetricsViewPortProvider&#45;&gt;nmetricsViewPortProviderThread -->
<g id="edge28" class="edge">
<title>nMetricsViewPortProvider&#45;&gt;nmetricsViewPortProviderThread</title>
<path fill="none" stroke="black" d="M360.54,-420.5C374.29,-420.5 389.18,-420.5 403.74,-420.5"/>
<polygon fill="black" stroke="black" points="403.75,-424 413.75,-420.5 403.75,-417 403.75,-424"/>
</g>
<!-- nMetricsViewPortProvider&#45;&gt;nVuuJoinTableProvider -->
<g id="edge29" class="edge">
<title>nMetricsViewPortProvider&#45;&gt;nVuuJoinTableProvider</title>
<path fill="none" stroke="black" d="M360.81,-412.26C367,-409.78 372.89,-406.59 378,-402.5 406.56,-379.66 390.92,-356.87 414,-328.5 427.34,-312.1 446.37,-297.64 461.59,-287.52"/>
<polygon fill="black" stroke="black" points="463.52,-290.43 470.04,-282.08 459.73,-284.55 463.52,-290.43"/>
</g>
<!-- nSimulatedPricesProvider -->
<g id="node6" class="node">
<title>nSimulatedPricesProvider</title>
<g id="a_node6"><a xlink:href="https://godoc.org/regexp" xlink:title="Package regexp implements regular expression search.">
<polygon fill="none" stroke="black" points="358.5,-393 242.5,-393 242.5,-374 358.5,-374 358.5,-393"/>
<text text-anchor="middle" x="300.5" y="-381" font-family="Times,serif" font-size="10.00">SimulatedPricesProvider</text>
</a>
</g>
</g>
<!-- npricesProvider -->
<g id="node22" class="node">
<title>npricesProvider</title>
<g id="a_node22"><a xlink:href="https://godoc.org/regexp" xlink:title="Package regexp implements regular expression search.">
<polygon fill="none" stroke="black" points="525,-393 450,-393 450,-374 525,-374 525,-393"/>
<text text-anchor="middle" x="487.5" y="-381" font-family="Times,serif" font-size="10.00">pricesProvider</text>
</a>
</g>
</g>
<!-- nSimulatedPricesProvider&#45;&gt;npricesProvider -->
<g id="edge6" class="edge">
<title>nSimulatedPricesProvider&#45;&gt;npricesProvider</title>
<path fill="none" stroke="black" d="M358.52,-383.5C384.53,-383.5 414.95,-383.5 439.61,-383.5"/>
<polygon fill="black" stroke="black" points="439.79,-387 449.79,-383.5 439.79,-380 439.79,-387"/>
</g>
<!-- nSimulatedPricesProvider&#45;&gt;nVuuJoinTableProvider -->
<g id="edge7" class="edge">
<title>nSimulatedPricesProvider&#45;&gt;nVuuJoinTableProvider</title>
<path fill="none" stroke="black" d="M358.45,-373.95C365.27,-371.7 371.94,-368.93 378,-365.5 397.97,-354.2 396.88,-343.77 414,-328.5 430.22,-314.03 449.78,-299.06 464.49,-288.23"/>
<polygon fill="black" stroke="black" points="466.93,-290.79 472.95,-282.08 462.81,-285.13 466.93,-290.79"/>
</g>
<!-- nsessionRunner -->
<g id="node7" class="node">
<title>nsessionRunner</title>
<g id="a_node7"><a xlink:href="https://godoc.org/regexp" xlink:title="Package regexp implements regular expression search.">
<polygon fill="none" stroke="black" points="179,-246 103,-246 103,-227 179,-227 179,-246"/>
<text text-anchor="middle" x="141" y="-234" font-family="Times,serif" font-size="10.00">sessionRunner</text>
</a>
</g>
</g>
<!-- njoinProviderRunner -->
<g id="node9" class="node">
<title>njoinProviderRunner</title>
<g id="a_node9"><a xlink:href="https://godoc.org/regexp" xlink:title="Package regexp implements regular expression search.">
<polygon fill="none" stroke="black" points="349.5,-208 251.5,-208 251.5,-189 349.5,-189 349.5,-208"/>
<text text-anchor="middle" x="300.5" y="-196" font-family="Times,serif" font-size="10.00">joinProviderRunner</text>
</a>
</g>
</g>
<!-- nsessionRunner&#45;&gt;njoinProviderRunner -->
<g id="edge36" class="edge">
<title>nsessionRunner&#45;&gt;njoinProviderRunner</title>
<path fill="none" stroke="black" d="M179.33,-227.49C200.48,-222.39 227.22,-215.94 250.09,-210.42"/>
<polygon fill="black" stroke="black" points="251.07,-213.79 259.97,-208.04 249.43,-206.98 251.07,-213.79"/>
</g>
<!-- nordersSimulProvider -->
<g id="node8" class="node">
<title>nordersSimulProvider</title>
<g id="a_node8"><a xlink:href="https://godoc.org/regexp" xlink:title="Package regexp implements regular expression search.">
<polygon fill="none" stroke="black" points="537.5,-504 437.5,-504 437.5,-485 537.5,-485 537.5,-504"/>
<text text-anchor="middle" x="487.5" y="-492" font-family="Times,serif" font-size="10.00">ordersSimulProvider</text>
</a>
</g>
</g>
<!-- njoinProviderRunner&#45;&gt;nVuuJoinTableProvider -->
<g id="edge37" class="edge">
<title>njoinProviderRunner&#45;&gt;nVuuJoinTableProvider</title>
<path fill="none" stroke="black" d="M349.61,-197.33C359.39,-199.84 369.34,-203.53 378,-208.5 397.9,-219.93 394.1,-234.08 414,-245.5 426.73,-252.81 442.37,-257.17 455.86,-260.54"/>
<polygon fill="black" stroke="black" points="455.13,-263.97 465.67,-262.96 456.8,-257.17 455.13,-263.97"/>
</g>
<!-- njoinProviderRunner&#45;&gt;nVuuJoinTableProvider -->
<g id="edge39" class="edge">
<title>njoinProviderRunner&#45;&gt;nVuuJoinTableProvider</title>
<path fill="none" stroke="black" d="M323.14,-208.07C339.15,-211.97 361.03,-216.75 378,-226.5 397.9,-237.93 394.1,-252.08 414,-263.5 417.07,-265.26 420.32,-266.86 423.66,-268.28"/>
<polygon fill="black" stroke="black" points="422.69,-271.66 433.28,-271.87 425.13,-265.1 422.69,-271.66"/>
</g>
<!-- nRpcProvider -->
<g id="node11" class="node">
<title>nRpcProvider</title>
<g id="a_node11"><a xlink:href="https://godoc.org/regexp" xlink:title="Package regexp implements regular expression search.">
<polygon fill="none" stroke="black" points="334.5,-319 266.5,-319 266.5,-300 334.5,-300 334.5,-319"/>
<text text-anchor="middle" x="300.5" y="-307" font-family="Times,serif" font-size="10.00">RpcProvider</text>
</a>
</g>
</g>
<!-- nRpcProvider&#45;&gt;nVuuJoinTableProvider -->
<g id="edge12" class="edge">
<title>nRpcProvider&#45;&gt;nVuuJoinTableProvider</title>
<path fill="none" stroke="black" d="M334.57,-302.89C360.74,-297.65 397.91,-290.22 428.93,-284.01"/>
<polygon fill="black" stroke="black" points="429.64,-287.44 438.76,-282.05 428.27,-280.58 429.64,-287.44"/>
</g>
<!-- nProviderContainer -->
<g id="node12" class="node">
<title>nProviderContainer</title>
<g id="a_node12"><a xlink:href="https://godoc.org/regexp" xlink:title="Package regexp implements regular expression search.">
<polygon fill="none" stroke="black" points="187,-319 95,-319 95,-300 187,-300 187,-319"/>
<text text-anchor="middle" x="141" y="-307" font-family="Times,serif" font-size="10.00">ProviderContainer</text>
</a>
</g>
</g>
<!-- nProviderContainer&#45;&gt;nMetricsGroupByProvider -->
<g id="edge16" class="edge">
<title>nProviderContainer&#45;&gt;nMetricsGroupByProvider</title>
<path fill="none" stroke="black" d="M152.55,-299.78C162.87,-289.69 178.27,-272.96 187,-255.5 218.05,-193.4 173.87,-152.55 223,-103.5 225.54,-100.96 228.36,-98.76 231.39,-96.85"/>
<polygon fill="black" stroke="black" points="233.11,-99.9 240.37,-92.18 229.88,-93.68 233.11,-99.9"/>
</g>
<!-- nProviderContainer&#45;&gt;nSimulatedBigInstrumentsProvider -->
<g id="edge13" class="edge">
<title>nProviderContainer&#45;&gt;nSimulatedBigInstrumentsProvider</title>
<path fill="none" stroke="black" d="M145.09,-319.14C153.41,-343.48 178.71,-407.72 223,-439.5 225.09,-441 227.28,-442.37 229.55,-443.63"/>
<polygon fill="black" stroke="black" points="228.12,-446.82 238.65,-447.96 231.12,-440.5 228.12,-446.82"/>
</g>
<!-- nProviderContainer&#45;&gt;nMetricsViewPortProvider -->
<g id="edge27" class="edge">
<title>nProviderContainer&#45;&gt;nMetricsViewPortProvider</title>
<path fill="none" stroke="black" d="M147.52,-319.15C158.96,-338.26 187.25,-380.94 223,-402.5 225.86,-404.23 228.88,-405.79 231.99,-407.2"/>
<polygon fill="black" stroke="black" points="230.98,-410.56 241.56,-411 233.56,-404.06 230.98,-410.56"/>
</g>
<!-- nProviderContainer&#45;&gt;nSimulatedPricesProvider -->
<g id="edge5" class="edge">
<title>nProviderContainer&#45;&gt;nSimulatedPricesProvider</title>
<path fill="none" stroke="black" d="M152.98,-319.12C167.85,-331.65 195.66,-353.36 223,-365.5 227.64,-367.56 232.54,-369.4 237.53,-371.04"/>
<polygon fill="black" stroke="black" points="236.62,-374.42 247.2,-373.96 238.64,-367.72 236.62,-374.42"/>
</g>
<!-- nProviderContainer&#45;&gt;nRpcProvider -->
<g id="edge11" class="edge">
<title>nProviderContainer&#45;&gt;nRpcProvider</title>
<path fill="none" stroke="black" d="M187.13,-309.5C208.85,-309.5 234.77,-309.5 256.23,-309.5"/>
<polygon fill="black" stroke="black" points="256.38,-313 266.38,-309.5 256.38,-306 256.38,-313"/>
</g>
<!-- nVuiStateStoreProvider -->
<g id="node15" class="node">
<title>nVuiStateStoreProvider</title>
<g id="a_node15"><a xlink:href="https://godoc.org/regexp" xlink:title="Package regexp implements regular expression search.">
<polygon fill="none" stroke="black" points="354,-356 247,-356 247,-337 354,-337 354,-356"/>
<text text-anchor="middle" x="300.5" y="-344" font-family="Times,serif" font-size="10.00">VuiStateStoreProvider</text>
</a>
</g>
</g>
<!-- nProviderContainer&#45;&gt;nVuiStateStoreProvider -->
<g id="edge24" class="edge">
<title>nProviderContainer&#45;&gt;nVuiStateStoreProvider</title>
<path fill="none" stroke="black" d="M182.56,-319.03C202.78,-323.78 227.44,-329.57 248.88,-334.61"/>
<polygon fill="black" stroke="black" points="248.27,-338.06 258.8,-336.94 249.87,-331.25 248.27,-338.06"/>
</g>
<!-- nMetricsTableProvider -->
<g id="node17" class="node">
<title>nMetricsTableProvider</title>
<g id="a_node17"><a xlink:href="https://godoc.org/regexp" xlink:title="Package regexp implements regular expression search.">
<polygon fill="none" stroke="black" points="352.5,-245 248.5,-245 248.5,-226 352.5,-226 352.5,-245"/>
<text text-anchor="middle" x="300.5" y="-233" font-family="Times,serif" font-size="10.00">MetricsTableProvider</text>
</a>
</g>
</g>
<!-- nProviderContainer&#45;&gt;nMetricsTableProvider -->
<g id="edge2" class="edge">
<title>nProviderContainer&#45;&gt;nMetricsTableProvider</title>
<path fill="none" stroke="black" d="M153.3,-299.9C168.28,-287.63 195.99,-266.56 223,-254.5 228.44,-252.07 234.25,-249.92 240.14,-248.02"/>
<polygon fill="black" stroke="black" points="241.49,-251.26 250.07,-245.05 239.49,-244.56 241.49,-251.26"/>
</g>
<!-- nChildOrdersProvider -->
<g id="node18" class="node">
<title>nChildOrdersProvider</title>
<g id="a_node18"><a xlink:href="https://godoc.org/regexp" xlink:title="Package regexp implements regular expression search.">
<polygon fill="none" stroke="black" points="351,-282 250,-282 250,-263 351,-263 351,-282"/>
<text text-anchor="middle" x="300.5" y="-270" font-family="Times,serif" font-size="10.00">ChildOrdersProvider</text>
</a>
</g>
</g>
<!-- nProviderContainer&#45;&gt;nChildOrdersProvider -->
<g id="edge22" class="edge">
<title>nProviderContainer&#45;&gt;nChildOrdersProvider</title>
<path fill="none" stroke="black" d="M182.56,-299.97C202.78,-295.22 227.44,-289.43 248.88,-284.39"/>
<polygon fill="black" stroke="black" points="249.87,-287.75 258.8,-282.06 248.27,-280.94 249.87,-287.75"/>
</g>
<!-- nParentOrdersProvider -->
<g id="node21" class="node">
<title>nParentOrdersProvider</title>
<g id="a_node21"><a xlink:href="https://godoc.org/regexp" xlink:title="Package regexp implements regular expression search.">
<polygon fill="none" stroke="black" points="352.5,-132 248.5,-132 248.5,-113 352.5,-113 352.5,-132"/>
<text text-anchor="middle" x="300.5" y="-120" font-family="Times,serif" font-size="10.00">ParentOrdersProvider</text>
</a>
</g>
</g>
<!-- nProviderContainer&#45;&gt;nParentOrdersProvider -->
<g id="edge8" class="edge">
<title>nProviderContainer&#45;&gt;nParentOrdersProvider</title>
<path fill="none" stroke="black" d="M151.42,-299.73C161.13,-289.34 176.31,-272.13 187,-255.5 206.99,-224.39 199.61,-209.14 223,-180.5 237.23,-163.07 257.73,-147.9 273.92,-137.44"/>
<polygon fill="black" stroke="black" points="275.79,-140.41 282.41,-132.14 272.08,-134.47 275.79,-140.41"/>
</g>
<!-- nOrdersSimulProvider -->
<g id="node24" class="node">
<title>nOrdersSimulProvider</title>
<g id="a_node24"><a xlink:href="https://godoc.org/regexp" xlink:title="Package regexp implements regular expression search.">
<polygon fill="none" stroke="black" points="351.5,-504 249.5,-504 249.5,-485 351.5,-485 351.5,-504"/>
<text text-anchor="middle" x="300.5" y="-492" font-family="Times,serif" font-size="10.00">OrdersSimulProvider</text>
</a>
</g>
</g>
<!-- nProviderContainer&#45;&gt;nOrdersSimulProvider -->
<g id="edge19" class="edge">
<title>nProviderContainer&#45;&gt;nOrdersSimulProvider</title>
<path fill="none" stroke="black" d="M143.71,-319.23C149.31,-348.11 169.92,-434 223,-476.5 227.96,-480.47 233.65,-483.6 239.64,-486.05"/>
<polygon fill="black" stroke="black" points="238.64,-489.41 249.24,-489.37 240.93,-482.79 238.64,-489.41"/>
</g>
<!-- nparentChildModelRunner -->
<g id="node14" class="node">
<title>nparentChildModelRunner</title>
<g id="a_node14"><a xlink:href="https://godoc.org/regexp" xlink:title="Package regexp implements regular expression search.">
<polygon fill="none" stroke="black" points="548.5,-132 426.5,-132 426.5,-113 548.5,-113 548.5,-132"/>
<text text-anchor="middle" x="487.5" y="-120" font-family="Times,serif" font-size="10.00">parentChildModelRunner</text>
</a>
</g>
</g>
<!-- nvuiStateStoreProviderRunner -->
<g id="node16" class="node">
<title>nvuiStateStoreProviderRunner</title>
<g id="a_node16"><a xlink:href="https://godoc.org/regexp" xlink:title="Package regexp implements regular expression search.">
<polygon fill="none" stroke="black" points="555.5,-356 419.5,-356 419.5,-337 555.5,-337 555.5,-356"/>
<text text-anchor="middle" x="487.5" y="-344" font-family="Times,serif" font-size="10.00">vuiStateStoreProviderRunner</text>
</a>
</g>
</g>
<!-- nVuiStateStoreProvider&#45;&gt;nvuiStateStoreProviderRunner -->
<g id="edge25" class="edge">
<title>nVuiStateStoreProvider&#45;&gt;nvuiStateStoreProviderRunner</title>
<path fill="none" stroke="black" d="M354.02,-346.5C371.14,-346.5 390.53,-346.5 409.09,-346.5"/>
<polygon fill="black" stroke="black" points="409.29,-350 419.29,-346.5 409.29,-343 409.29,-350"/>
</g>
<!-- nVuiStateStoreProvider&#45;&gt;nVuuJoinTableProvider -->
<g id="edge26" class="edge">
<title>nVuiStateStoreProvider&#45;&gt;nVuuJoinTableProvider</title>
<path fill="none" stroke="black" d="M350.19,-336.94C359.54,-334.57 369.17,-331.76 378,-328.5 408.14,-317.37 440.62,-299.79 462.11,-287.3"/>
<polygon fill="black" stroke="black" points="464.05,-290.22 470.89,-282.12 460.49,-284.19 464.05,-290.22"/>
</g>
<!-- nMetricsTableProvider&#45;&gt;nVuuJoinTableProvider -->
<g id="edge4" class="edge">
<title>nMetricsTableProvider&#45;&gt;nVuuJoinTableProvider</title>
<path fill="none" stroke="black" d="M349.14,-245.03C373.43,-249.89 403.17,-255.83 428.75,-260.95"/>
<polygon fill="black" stroke="black" points="428.21,-264.41 438.7,-262.94 429.58,-257.55 428.21,-264.41"/>
</g>
<!-- nmetricsTableProvider -->
<g id="node26" class="node">
<title>nmetricsTableProvider</title>
<g id="a_node26"><a xlink:href="https://godoc.org/regexp" xlink:title="Package regexp implements regular expression search.">
<polygon fill="none" stroke="black" points="539,-245 436,-245 436,-226 539,-226 539,-245"/>
<text text-anchor="middle" x="487.5" y="-233" font-family="Times,serif" font-size="10.00">metricsTableProvider</text>
</a>
</g>
</g>
<!-- nMetricsTableProvider&#45;&gt;nmetricsTableProvider -->
<g id="edge3" class="edge">
<title>nMetricsTableProvider&#45;&gt;nmetricsTableProvider</title>
<path fill="none" stroke="black" d="M352.54,-235.5C375.18,-235.5 402,-235.5 425.67,-235.5"/>
<polygon fill="black" stroke="black" points="425.95,-239 435.95,-235.5 425.95,-232 425.95,-239"/>
</g>
<!-- nChildOrdersProvider&#45;&gt;nVuuJoinTableProvider -->
<g id="edge23" class="edge">
<title>nChildOrdersProvider&#45;&gt;nVuuJoinTableProvider</title>
<path fill="none" stroke="black" d="M351.08,-272.5C373.17,-272.5 399.47,-272.5 422.98,-272.5"/>
<polygon fill="black" stroke="black" points="423.22,-276 433.22,-272.5 423.22,-269 423.22,-276"/>
</g>
<!-- nviewPortRunner -->
<g id="node19" class="node">
<title>nviewPortRunner</title>
<g id="a_node19"><a xlink:href="https://godoc.org/regexp" xlink:title="Package regexp implements regular expression search.">
<polygon fill="none" stroke="black" points="182.5,-132 99.5,-132 99.5,-113 182.5,-113 182.5,-132"/>
<text text-anchor="middle" x="141" y="-120" font-family="Times,serif" font-size="10.00">viewPortRunner</text>
</a>
</g>
</g>
<!-- nviewPortRunner&#45;&gt;nWebSocketServer -->
<g id="edge34" class="edge">
<title>nviewPortRunner&#45;&gt;nWebSocketServer</title>
<path fill="none" stroke="black" d="M169.56,-112.92C175.55,-110.29 181.68,-107.14 187,-103.5 205.95,-90.56 203.03,-77.8 223,-66.5 230.09,-62.49 238.04,-59.37 246.05,-56.94"/>
<polygon fill="black" stroke="black" points="247.07,-60.29 255.81,-54.31 245.25,-53.53 247.07,-60.29"/>
</g>
<!-- ngroupByRunner -->
<g id="node20" class="node">
<title>ngroupByRunner</title>
<g id="a_node20"><a xlink:href="https://godoc.org/regexp" xlink:title="Package regexp implements regular expression search.">
<polygon fill="none" stroke="black" points="182.5,-95 99.5,-95 99.5,-76 182.5,-76 182.5,-95"/>
<text text-anchor="middle" x="141" y="-83" font-family="Times,serif" font-size="10.00">groupByRunner</text>
</a>
</g>
</g>
<!-- ngroupByRunner&#45;&gt;nWebSocketServer -->
<g id="edge32" class="edge">
<title>ngroupByRunner&#45;&gt;nWebSocketServer</title>
<path fill="none" stroke="black" d="M182.56,-75.97C202.78,-71.22 227.44,-65.43 248.88,-60.39"/>
<polygon fill="black" stroke="black" points="249.87,-63.75 258.8,-58.06 248.27,-56.94 249.87,-63.75"/>
</g>
<!-- nParentOrdersProvider&#45;&gt;nparentChildModelRunner -->
<g id="edge9" class="edge">
<title>nParentOrdersProvider&#45;&gt;nparentChildModelRunner</title>
<path fill="none" stroke="black" d="M352.54,-122.5C372.21,-122.5 395.03,-122.5 416.21,-122.5"/>
<polygon fill="black" stroke="black" points="416.45,-126 426.45,-122.5 416.45,-119 416.45,-126"/>
</g>
<!-- nParentOrdersProvider&#45;&gt;nVuuJoinTableProvider -->
<g id="edge10" class="edge">
<title>nParentOrdersProvider&#45;&gt;nVuuJoinTableProvider</title>
<path fill="none" stroke="black" d="M352.57,-131.13C361.93,-134.64 370.95,-139.57 378,-146.5 414.09,-181.96 376.85,-220.15 414,-254.5 417.02,-257.29 420.41,-259.67 424.02,-261.69"/>
<polygon fill="black" stroke="black" points="422.84,-265 433.39,-266.02 425.78,-258.65 422.84,-265"/>
</g>
<!-- nOrdersSimulProvider&#45;&gt;nordersSimulProvider -->
<g id="edge20" class="edge">
<title>nOrdersSimulProvider&#45;&gt;nordersSimulProvider</title>
<path fill="none" stroke="black" d="M351.56,-494.5C374.88,-494.5 402.78,-494.5 427.15,-494.5"/>
<polygon fill="black" stroke="black" points="427.36,-498 437.36,-494.5 427.36,-491 427.36,-498"/>
</g>
<!-- nOrdersSimulProvider&#45;&gt;nVuuJoinTableProvider -->
<g id="edge21" class="edge">
<title>nOrdersSimulProvider&#45;&gt;nVuuJoinTableProvider</title>
<path fill="none" stroke="black" d="M351.65,-490.93C361.42,-488.12 370.83,-483.61 378,-476.5 426.05,-428.81 377.14,-385.28 414,-328.5 425.22,-311.22 443.66,-297.08 459.13,-287.34"/>
<polygon fill="black" stroke="black" points="461.05,-290.27 467.82,-282.12 457.44,-284.27 461.05,-290.27"/>
</g>
<!-- nVuuServer -->
<g id="node27" class="node">
<title>nVuuServer</title>
<g id="a_node27"><a xlink:href="https://godoc.org/regexp" xlink:title="Package regexp implements regular expression search.">
<polygon fill="none" stroke="black" points="59,-151 0,-151 0,-132 59,-132 59,-151"/>
<text text-anchor="middle" x="29.5" y="-139" font-family="Times,serif" font-size="10.00">VuuServer</text>
</a>
</g>
</g>
<!-- nVuuServer&#45;&gt;nWebSocketServer -->
<g id="edge40" class="edge">
<title>nVuuServer&#45;&gt;nWebSocketServer</title>
<path fill="none" stroke="black" d="M35.51,-131.82C44.73,-115.14 66.12,-81.32 95,-66.5 141.82,-42.47 202.67,-40.17 245.78,-42.53"/>
<polygon fill="black" stroke="black" points="245.59,-46.03 255.79,-43.18 246.04,-39.04 245.59,-46.03"/>
</g>
<!-- nVuuServer&#45;&gt;nVuuHttp2Server -->
<g id="edge30" class="edge">
<title>nVuuServer&#45;&gt;nVuuHttp2Server</title>
<path fill="none" stroke="black" d="M34.11,-131.97C42.23,-111.62 63.69,-63.33 95,-33.5 98.75,-29.93 103.14,-26.73 107.67,-23.93"/>
<polygon fill="black" stroke="black" points="109.42,-26.96 116.45,-19.04 106.01,-20.85 109.42,-26.96"/>
</g>
<!-- nVuuServer&#45;&gt;nsessionRunner -->
<g id="edge35" class="edge">
<title>nVuuServer&#45;&gt;nsessionRunner</title>
<path fill="none" stroke="black" d="M37.56,-151.2C48.57,-165.85 71.09,-193.88 95,-212.5 99.45,-215.97 104.48,-219.2 109.52,-222.09"/>
<polygon fill="black" stroke="black" points="108.01,-225.26 118.47,-226.92 111.33,-219.09 108.01,-225.26"/>
</g>
<!-- nVuuServer&#45;&gt;njoinProviderRunner -->
<g id="edge38" class="edge">
<title>nVuuServer&#45;&gt;njoinProviderRunner</title>
<path fill="none" stroke="black" d="M45.49,-151.12C58.16,-158.77 77.07,-169.05 95,-174.5 142.93,-189.06 199.66,-194.87 241.19,-197.15"/>
<polygon fill="black" stroke="black" points="241.25,-200.65 251.41,-197.65 241.6,-193.66 241.25,-200.65"/>
</g>
<!-- nVuuServer&#45;&gt;nProviderContainer -->
<g id="edge1" class="edge">
<title>nVuuServer&#45;&gt;nProviderContainer</title>
<path fill="none" stroke="black" d="M35.14,-151C45.06,-171.01 69.53,-218.65 95,-255.5 103.98,-268.49 115.38,-282.15 124.46,-292.48"/>
<polygon fill="black" stroke="black" points="121.88,-294.84 131.15,-299.97 127.1,-290.18 121.88,-294.84"/>
</g>
<!-- nVuuServer&#45;&gt;nviewPortRunner -->
<g id="edge33" class="edge">
<title>nVuuServer&#45;&gt;nviewPortRunner</title>
<path fill="none" stroke="black" d="M59.27,-136.51C68.59,-134.89 79.21,-133.05 89.62,-131.24"/>
<polygon fill="black" stroke="black" points="90.23,-134.69 99.48,-129.53 89.03,-127.79 90.23,-134.69"/>
</g>
<!-- nVuuServer&#45;&gt;ngroupByRunner -->
<g id="edge31" class="edge">
<title>nVuuServer&#45;&gt;ngroupByRunner</title>
<path fill="none" stroke="black" d="M45.26,-131.93C58.11,-123.82 77.38,-112.15 95,-103.5 98.12,-101.97 101.4,-100.47 104.71,-99.02"/>
<polygon fill="black" stroke="black" points="106.14,-102.21 114,-95.12 103.43,-95.76 106.14,-102.21"/>
</g>
<!-- nVuuServer&#45;&gt;nVuuJoinTableProvider -->
<g id="edge41" class="edge">
<title>nVuuServer&#45;&gt;nVuuJoinTableProvider</title>
<path fill="none" stroke="black" d="M59.24,-141.25C133.03,-141.16 326.92,-144.43 378,-180.5 407.88,-201.6 385.58,-231.48 414,-254.5 417.09,-257 420.47,-259.16 424.04,-261.02"/>
<polygon fill="black" stroke="black" points="422.66,-264.24 433.22,-265.08 425.49,-257.84 422.66,-264.24"/>
</g>
</g>
</svg>
