<svg width="803" height="360" viewBox="0 0 803 360" fill="none" xmlns="http://www.w3.org/2000/svg">
<rect x="226.5" y="146.5" width="71" height="64" rx="7.5" stroke="#6D18BD"/>
<rect x="234" y="154" width="1" height="25" fill="#F37880"/>
<rect x="234" y="154" width="26" height="1" fill="#F37880"/>
<rect x="234" y="157" width="26" height="1" fill="#F37880"/>
<rect x="234" y="160" width="26" height="1" fill="#F37880"/>
<rect x="234" y="163" width="26" height="1" fill="#F37880"/>
<rect x="234" y="166" width="26" height="1" fill="#F37880"/>
<rect x="234" y="169" width="26" height="1" fill="#F37880"/>
<rect x="234" y="172" width="26" height="1" fill="#F37880"/>
<rect x="234" y="175" width="26" height="1" fill="#F37880"/>
<rect x="234" y="178" width="26" height="1" fill="#F37880"/>
<rect x="239" y="154" width="1" height="25" fill="#F37880"/>
<rect x="244" y="154" width="1" height="25" fill="#F37880"/>
<rect x="249" y="154" width="1" height="25" fill="#F37880"/>
<rect x="254" y="154" width="1" height="25" fill="#F37880"/>
<rect x="259" y="154" width="1" height="25" fill="#F37880"/>
<rect x="264" y="154" width="1" height="25" fill="#F37880"/>
<rect x="264" y="154" width="26" height="1" fill="#F37880"/>
<rect x="264" y="157" width="26" height="1" fill="#F37880"/>
<rect x="264" y="160" width="26" height="1" fill="#F37880"/>
<rect x="264" y="163" width="26" height="1" fill="#F37880"/>
<rect x="264" y="166" width="26" height="1" fill="#F37880"/>
<rect x="264" y="169" width="26" height="1" fill="#F37880"/>
<rect x="264" y="172" width="26" height="1" fill="#F37880"/>
<rect x="264" y="175" width="26" height="1" fill="#F37880"/>
<rect x="264" y="178" width="26" height="1" fill="#F37880"/>
<rect x="269" y="154" width="1" height="25" fill="#F37880"/>
<rect x="274" y="154" width="1" height="25" fill="#F37880"/>
<rect x="279" y="154" width="1" height="25" fill="#F37880"/>
<rect x="284" y="154" width="1" height="25" fill="#F37880"/>
<rect x="289" y="154" width="1" height="25" fill="#F37880"/>
<rect x="234" y="178" width="1" height="25" fill="#F37880"/>
<rect x="234" y="178" width="26" height="1" fill="#F37880"/>
<rect x="234" y="181" width="26" height="1" fill="#F37880"/>
<rect x="234" y="184" width="26" height="1" fill="#F37880"/>
<rect x="234" y="187" width="26" height="1" fill="#F37880"/>
<rect x="234" y="190" width="26" height="1" fill="#F37880"/>
<rect x="234" y="193" width="26" height="1" fill="#F37880"/>
<rect x="234" y="196" width="26" height="1" fill="#F37880"/>
<rect x="234" y="199" width="26" height="1" fill="#F37880"/>
<rect x="234" y="202" width="26" height="1" fill="#F37880"/>
<rect x="239" y="178" width="1" height="25" fill="#F37880"/>
<rect x="244" y="178" width="1" height="25" fill="#F37880"/>
<rect x="249" y="178" width="1" height="25" fill="#F37880"/>
<rect x="254" y="178" width="1" height="25" fill="#F37880"/>
<rect x="259" y="178" width="1" height="25" fill="#F37880"/>
<rect x="264" y="178" width="1" height="25" fill="#F37880"/>
<rect x="264" y="178" width="26" height="1" fill="#F37880"/>
<rect x="264" y="181" width="26" height="1" fill="#F37880"/>
<rect x="264" y="184" width="26" height="1" fill="#F37880"/>
<rect x="264" y="187" width="26" height="1" fill="#F37880"/>
<rect x="264" y="190" width="26" height="1" fill="#F37880"/>
<rect x="264" y="193" width="26" height="1" fill="#F37880"/>
<rect x="264" y="196" width="26" height="1" fill="#F37880"/>
<rect x="264" y="199" width="26" height="1" fill="#F37880"/>
<rect x="264" y="202" width="26" height="1" fill="#F37880"/>
<rect x="269" y="178" width="1" height="25" fill="#F37880"/>
<rect x="274" y="178" width="1" height="25" fill="#F37880"/>
<rect x="279" y="178" width="1" height="25" fill="#F37880"/>
<rect x="284" y="178" width="1" height="25" fill="#F37880"/>
<rect x="289" y="178" width="1" height="25" fill="#F37880"/>
<rect x="547.5" y="110.5" width="41" height="40" rx="7.5" stroke="#6D18BD"/>
<rect x="555" y="118" width="1" height="9" fill="#F37880"/>
<rect x="555" y="118" width="26" height="1" fill="#F37880"/>
<rect x="555" y="121" width="26" height="1" fill="#F37880"/>
<rect x="555" y="124" width="26" height="1" fill="#F37880"/>
<rect x="555" y="127" width="1" height="7" fill="#F7D3D5"/>
<rect x="560" y="127" width="1" height="7" fill="#F7D3D5"/>
<rect x="565" y="127" width="1" height="7" fill="#F7D3D5"/>
<rect x="570" y="127" width="1" height="7" fill="#F7D3D5"/>
<rect x="575" y="127" width="1" height="7" fill="#F7D3D5"/>
<rect x="580" y="127" width="1" height="7" fill="#F7D3D5"/>
<rect x="555" y="130" width="26" height="1" fill="#F7D3D5"/>
<rect x="555" y="127" width="26" height="1" fill="#F37880"/>
<rect x="555" y="133" width="26" height="1" fill="#F7D3D5"/>
<rect x="555" y="136" width="26" height="1" fill="#F7D3D5"/>
<rect x="555" y="139" width="26" height="1" fill="#F7D3D5"/>
<rect x="555" y="142" width="26" height="1" fill="#F7D3D5"/>
<rect x="560" y="118" width="1" height="9" fill="#F37880"/>
<rect x="565" y="118" width="1" height="9" fill="#F37880"/>
<rect x="570" y="118" width="1" height="9" fill="#F37880"/>
<rect x="575" y="118" width="1" height="9" fill="#F37880"/>
<rect x="580" y="118" width="1" height="9" fill="#F37880"/>
<rect x="555" y="134" width="1" height="9" fill="#F7D3D5"/>
<rect x="560" y="134" width="1" height="9" fill="#F7D3D5"/>
<rect x="565" y="134" width="1" height="9" fill="#F7D3D5"/>
<rect x="570" y="134" width="1" height="9" fill="#F7D3D5"/>
<rect x="575" y="134" width="1" height="9" fill="#F7D3D5"/>
<rect x="580" y="134" width="1" height="9" fill="#F7D3D5"/>
<rect x="547.5" y="161.5" width="41" height="40" rx="7.5" stroke="#6D18BD"/>
<rect x="555" y="169" width="1" height="9" fill="#F7D3D5"/>
<rect x="555" y="169" width="26" height="1" fill="#F7D3D5"/>
<rect x="555" y="172" width="26" height="1" fill="#F7D3D5"/>
<rect x="555" y="175" width="26" height="1" fill="#F7D3D5"/>
<rect x="555" y="178" width="26" height="1" fill="#F37880"/>
<rect x="555" y="178" width="1" height="7" fill="#F37880"/>
<rect x="560" y="178" width="1" height="7" fill="#F37880"/>
<rect x="565" y="178" width="1" height="7" fill="#F37880"/>
<rect x="570" y="178" width="1" height="7" fill="#F37880"/>
<rect x="575" y="178" width="1" height="7" fill="#F37880"/>
<rect x="580" y="178" width="1" height="7" fill="#F37880"/>
<rect x="555" y="181" width="26" height="1" fill="#F37880"/>
<rect x="555" y="184" width="26" height="1" fill="#F37880"/>
<rect x="555" y="187" width="26" height="1" fill="#F7D3D5"/>
<rect x="555" y="190" width="26" height="1" fill="#F7D3D5"/>
<rect x="555" y="193" width="26" height="1" fill="#F7D3D5"/>
<rect x="560" y="169" width="1" height="9" fill="#F7D3D5"/>
<rect x="565" y="169" width="1" height="9" fill="#F7D3D5"/>
<rect x="570" y="169" width="1" height="9" fill="#F7D3D5"/>
<rect x="575" y="169" width="1" height="9" fill="#F7D3D5"/>
<rect x="580" y="169" width="1" height="9" fill="#F7D3D5"/>
<rect x="555" y="185" width="1" height="9" fill="#F7D3D5"/>
<rect x="560" y="185" width="1" height="9" fill="#F7D3D5"/>
<rect x="565" y="185" width="1" height="9" fill="#F7D3D5"/>
<rect x="570" y="185" width="1" height="9" fill="#F7D3D5"/>
<rect x="575" y="185" width="1" height="9" fill="#F7D3D5"/>
<rect x="580" y="185" width="1" height="9" fill="#F7D3D5"/>
<rect x="547.5" y="212.5" width="41" height="40" rx="7.5" stroke="#6D18BD"/>
<rect x="555" y="220" width="1" height="9" fill="#F7D3D5"/>
<rect x="555" y="220" width="26" height="1" fill="#F7D3D5"/>
<rect x="555" y="223" width="26" height="1" fill="#F7D3D5"/>
<rect x="555" y="226" width="26" height="1" fill="#F7D3D5"/>
<rect x="555" y="229" width="26" height="1" fill="#F7D3D5"/>
<rect x="555" y="229" width="1" height="7" fill="#F7D3D5"/>
<rect x="560" y="229" width="1" height="7" fill="#F7D3D5"/>
<rect x="565" y="229" width="1" height="7" fill="#F7D3D5"/>
<rect x="570" y="229" width="1" height="7" fill="#F7D3D5"/>
<rect x="575" y="229" width="1" height="7" fill="#F7D3D5"/>
<rect x="580" y="229" width="1" height="7" fill="#F7D3D5"/>
<rect x="555" y="232" width="26" height="1" fill="#F7D3D5"/>
<rect x="555" y="235" width="26" height="1" fill="#F37880"/>
<rect x="555" y="238" width="26" height="1" fill="#F37880"/>
<rect x="555" y="241" width="26" height="1" fill="#F37880"/>
<rect x="555" y="244" width="26" height="1" fill="#F37880"/>
<rect x="560" y="220" width="1" height="9" fill="#F7D3D5"/>
<rect x="565" y="220" width="1" height="9" fill="#F7D3D5"/>
<rect x="570" y="220" width="1" height="9" fill="#F7D3D5"/>
<rect x="575" y="220" width="1" height="9" fill="#F7D3D5"/>
<rect x="580" y="220" width="1" height="9" fill="#F7D3D5"/>
<rect x="555" y="236" width="1" height="9" fill="#F37880"/>
<rect x="560" y="236" width="1" height="9" fill="#F37880"/>
<rect x="565" y="236" width="1" height="9" fill="#F37880"/>
<rect x="570" y="236" width="1" height="9" fill="#F37880"/>
<rect x="575" y="236" width="1" height="9" fill="#F37880"/>
<rect x="580" y="236" width="1" height="9" fill="#F37880"/>
<rect x="0.5" y="60.5" width="69" height="30" rx="7.5" stroke="#F37880"/>
<circle cx="9.5" cy="69.5" r="1.5" fill="#6D18BD"/>
<circle cx="15.5" cy="69.5" r="1.5" fill="#6D18BD"/>
<circle cx="21.5" cy="69.5" r="1.5" fill="#6D18BD"/>
<circle cx="9.5" cy="75.5" r="1.5" fill="#6D18BD"/>
<circle cx="15.5" cy="75.5" r="1.5" fill="#6D18BD"/>
<circle cx="21.5" cy="75.5" r="1.5" fill="#6D18BD"/>
<circle cx="9.5" cy="81.5" r="1.5" fill="#6D18BD"/>
<circle cx="15.5" cy="81.5" r="1.5" fill="#6D18BD"/>
<circle cx="21.5" cy="81.5" r="1.5" fill="#6D18BD"/>
<rect x="130" y="55" width="1" height="41" fill="#F37880"/>
<rect x="130" y="55" width="46" height="1" fill="#F37880"/>
<rect x="130" y="62" width="46" height="1" fill="#F37880"/>
<rect x="130" y="95" width="46" height="1" fill="#F37880"/>
<rect x="139" y="55" width="1" height="41" fill="#F37880"/>
<rect x="148" y="55" width="1" height="41" fill="#F37880"/>
<rect x="157" y="55" width="1" height="41" fill="#F37880"/>
<rect x="166" y="55" width="1" height="41" fill="#F37880"/>
<rect x="175" y="55" width="1" height="41" fill="#F37880"/>
<rect x="0.5" y="131.5" width="69" height="30" rx="7.5" stroke="#F37880"/>
<circle cx="9.5" cy="140.5" r="1.5" fill="#6D18BD"/>
<circle cx="15.5" cy="140.5" r="1.5" fill="#6D18BD"/>
<circle cx="21.5" cy="140.5" r="1.5" fill="#6D18BD"/>
<circle cx="9.5" cy="146.5" r="1.5" fill="#6D18BD"/>
<circle cx="15.5" cy="146.5" r="1.5" fill="#6D18BD"/>
<circle cx="21.5" cy="146.5" r="1.5" fill="#6D18BD"/>
<circle cx="9.5" cy="152.5" r="1.5" fill="#6D18BD"/>
<circle cx="15.5" cy="152.5" r="1.5" fill="#6D18BD"/>
<circle cx="21.5" cy="152.5" r="1.5" fill="#6D18BD"/>
<rect x="130" y="126" width="1" height="41" fill="#F37880"/>
<rect x="130" y="126" width="46" height="1" fill="#F37880"/>
<rect x="130" y="133" width="46" height="1" fill="#F37880"/>
<rect x="130" y="166" width="46" height="1" fill="#F37880"/>
<rect x="139" y="126" width="1" height="41" fill="#F37880"/>
<rect x="148" y="126" width="1" height="41" fill="#F37880"/>
<rect x="157" y="126" width="1" height="41" fill="#F37880"/>
<rect x="166" y="126" width="1" height="41" fill="#F37880"/>
<rect x="175" y="126" width="1" height="41" fill="#F37880"/>
<rect x="0.5" y="202.5" width="69" height="30" rx="7.5" stroke="#F37880"/>
<circle cx="9.5" cy="211.5" r="1.5" fill="#6D18BD"/>
<circle cx="15.5" cy="211.5" r="1.5" fill="#6D18BD"/>
<circle cx="21.5" cy="211.5" r="1.5" fill="#6D18BD"/>
<circle cx="9.5" cy="217.5" r="1.5" fill="#6D18BD"/>
<circle cx="15.5" cy="217.5" r="1.5" fill="#6D18BD"/>
<circle cx="21.5" cy="217.5" r="1.5" fill="#6D18BD"/>
<circle cx="9.5" cy="223.5" r="1.5" fill="#6D18BD"/>
<circle cx="15.5" cy="223.5" r="1.5" fill="#6D18BD"/>
<circle cx="21.5" cy="223.5" r="1.5" fill="#6D18BD"/>
<rect x="130" y="197" width="1" height="41" fill="#F37880"/>
<rect x="130" y="197" width="46" height="1" fill="#F37880"/>
<rect x="130" y="204" width="46" height="1" fill="#F37880"/>
<rect x="130" y="237" width="46" height="1" fill="#F37880"/>
<rect x="139" y="197" width="1" height="41" fill="#F37880"/>
<rect x="148" y="197" width="1" height="41" fill="#F37880"/>
<rect x="157" y="197" width="1" height="41" fill="#F37880"/>
<rect x="166" y="197" width="1" height="41" fill="#F37880"/>
<rect x="175" y="197" width="1" height="41" fill="#F37880"/>
<rect x="0.5" y="273.5" width="69" height="30" rx="7.5" stroke="#F37880"/>
<circle cx="9.5" cy="282.5" r="1.5" fill="#6D18BD"/>
<circle cx="15.5" cy="282.5" r="1.5" fill="#6D18BD"/>
<circle cx="21.5" cy="282.5" r="1.5" fill="#6D18BD"/>
<circle cx="9.5" cy="288.5" r="1.5" fill="#6D18BD"/>
<circle cx="15.5" cy="288.5" r="1.5" fill="#6D18BD"/>
<circle cx="21.5" cy="288.5" r="1.5" fill="#6D18BD"/>
<circle cx="9.5" cy="294.5" r="1.5" fill="#6D18BD"/>
<circle cx="15.5" cy="294.5" r="1.5" fill="#6D18BD"/>
<circle cx="21.5" cy="294.5" r="1.5" fill="#6D18BD"/>
<rect x="130" y="268" width="1" height="41" fill="#F37880"/>
<rect x="130" y="268" width="46" height="1" fill="#F37880"/>
<rect x="130" y="275" width="46" height="1" fill="#F37880"/>
<rect x="130" y="308" width="46" height="1" fill="#F37880"/>
<rect x="139" y="268" width="1" height="41" fill="#F37880"/>
<rect x="148" y="268" width="1" height="41" fill="#F37880"/>
<rect x="157" y="268" width="1" height="41" fill="#F37880"/>
<rect x="166" y="268" width="1" height="41" fill="#F37880"/>
<rect x="175" y="268" width="1" height="41" fill="#F37880"/>
<path d="M207 182L201.892 184.692L202.115 178.922L207 182ZM178.667 76C178.667 77.4728 177.473 78.6667 176 78.6667C174.527 78.6667 173.333 77.4728 173.333 76C173.333 74.5272 174.527 73.3333 176 73.3333C177.473 73.3333 178.667 74.5272 178.667 76ZM203.616 182.103C202.871 181.925 202.148 181.69 201.452 181.402L201.835 180.478C202.482 180.746 203.155 180.965 203.848 181.131L203.616 182.103ZM199.426 180.369C198.777 179.971 198.162 179.524 197.586 179.032L198.235 178.271C198.772 178.729 199.344 179.146 199.949 179.516L199.426 180.369ZM195.977 177.426C195.484 176.85 195.036 176.236 194.637 175.588L195.489 175.064C195.86 175.667 196.278 176.239 196.736 176.775L195.977 177.426ZM193.602 173.563C193.313 172.867 193.077 172.144 192.898 171.399L193.871 171.166C194.037 171.859 194.256 172.532 194.525 173.179L193.602 173.563ZM192.544 169.153C192.515 168.777 192.5 168.398 192.5 168.015H193.5C193.5 168.372 193.514 168.725 193.541 169.075L192.544 169.153ZM192.5 168.015V167.04H193.5V168.015H192.5ZM192.5 165.089V163.138H193.5V165.089H192.5ZM192.5 161.187V159.237H193.5V161.187H192.5ZM192.5 157.286V155.335H193.5V157.286H192.5ZM192.5 153.384V151.434H193.5V153.384H192.5ZM192.5 149.483V147.532H193.5V149.483H192.5ZM192.5 145.581V143.631H193.5V145.581H192.5ZM192.5 141.68V139.729H193.5V141.68H192.5ZM192.5 137.778V135.828H193.5V137.778H192.5ZM192.5 133.877V131.926H193.5V133.877H192.5ZM192.5 129.975V128.025H193.5V129.975H192.5ZM192.5 126.074V124.123H193.5V126.074H192.5ZM192.5 122.172V120.222H193.5V122.172H192.5ZM192.5 118.271V116.32H193.5V118.271H192.5ZM192.5 114.369V112.419H193.5V114.369H192.5ZM192.5 110.468V108.517H193.5V110.468H192.5ZM192.5 106.566V104.616H193.5V106.566H192.5ZM192.5 102.665V100.714H193.5V102.665H192.5ZM192.5 98.7633V96.8126H193.5V98.7633H192.5ZM192.5 94.8618V92.9111H193.5V94.8618H192.5ZM192.5 90.9603V89.9849H193.5V90.9603H192.5ZM192.5 89.9849C192.5 89.6281 192.486 89.2745 192.459 88.9248L193.456 88.8472C193.485 89.2227 193.5 89.6021 193.5 89.9849H192.5ZM192.129 86.8337C191.963 86.1405 191.744 85.4681 191.475 84.8211L192.398 84.4375C192.687 85.1328 192.923 85.8556 193.102 86.6006L192.129 86.8337ZM190.511 82.9362C190.14 82.3328 189.722 81.7607 189.264 81.2249L190.023 80.5745C190.516 81.1498 190.964 81.7641 191.363 82.4123L190.511 82.9362ZM187.765 79.7285C187.228 79.2707 186.656 78.8541 186.051 78.4837L186.574 77.6312C187.223 78.029 187.838 78.4763 188.414 78.9679L187.765 79.7285ZM184.165 77.5222C183.518 77.2542 182.845 77.0351 182.152 76.8694L182.384 75.8968C183.129 76.0748 183.852 76.3103 184.548 76.5983L184.165 77.5222ZM180.06 76.541C179.71 76.5138 179.357 76.5 179 76.5V75.5C179.383 75.5 179.762 75.5148 180.138 75.544L180.06 76.541ZM179 76.5H178.25V75.5H179V76.5ZM176.75 76.5H176V75.5H176.75V76.5Z" fill="#6D18BD"/>
<path d="M493.667 36C493.667 37.4728 492.473 38.6667 491 38.6667C489.527 38.6667 488.333 37.4728 488.333 36C488.333 34.5272 489.527 33.3333 491 33.3333C492.473 33.3333 493.667 34.5272 493.667 36ZM536.5 180L531.5 182.887V177.113L536.5 180ZM533.781 180.5H531.969V179.5H533.781V180.5ZM530.156 180.5H528.344V179.5H530.156V180.5ZM526.531 180.5H524.719V179.5H526.531V180.5ZM522.906 180.5H522V179.5H522.906V180.5ZM522 180.5C521.617 180.5 521.238 180.485 520.862 180.456L520.94 179.459C521.29 179.486 521.643 179.5 522 179.5V180.5ZM518.616 180.103C517.871 179.925 517.148 179.69 516.452 179.402L516.835 178.478C517.482 178.746 518.155 178.965 518.848 179.131L518.616 180.103ZM514.426 178.369C513.777 177.971 513.162 177.524 512.586 177.032L513.235 176.271C513.772 176.729 514.344 177.146 514.949 177.516L514.426 178.369ZM510.977 175.426C510.484 174.85 510.036 174.236 509.637 173.588L510.489 173.064C510.86 173.667 511.278 174.239 511.736 174.775L510.977 175.426ZM508.602 171.563C508.313 170.867 508.077 170.144 507.898 169.399L508.871 169.166C509.037 169.859 509.256 170.532 509.525 171.179L508.602 171.563ZM507.544 167.153C507.515 166.777 507.5 166.398 507.5 166.015H508.5C508.5 166.372 508.514 166.725 508.541 167.075L507.544 167.153ZM507.5 166.015V165.015H508.5V166.015H507.5ZM507.5 163.014V161.014H508.5V163.014H507.5ZM507.5 159.013V157.013H508.5V159.013H507.5ZM507.5 155.012V153.012H508.5V155.012H507.5ZM507.5 151.011V149.011H508.5V151.011H507.5ZM507.5 147.01V145.01H508.5V147.01H507.5ZM507.5 143.009V141.009H508.5V143.009H507.5ZM507.5 139.008V137.008H508.5V139.008H507.5ZM507.5 135.007V133.007H508.5V135.007H507.5ZM507.5 131.006V129.005H508.5V131.006H507.5ZM507.5 127.005V125.004H508.5V127.005H507.5ZM507.5 123.004V121.003H508.5V123.004H507.5ZM507.5 119.003V117.002H508.5V119.003H507.5ZM507.5 115.002V113.001H508.5V115.002H507.5ZM507.5 111.001V109H508.5V111.001H507.5ZM507.5 107V104.999H508.5V107H507.5ZM507.5 102.999V100.998H508.5V102.999H507.5ZM507.5 98.9977V96.9972H508.5V98.9977H507.5ZM507.5 94.9966V92.9961H508.5V94.9966H507.5ZM507.5 90.9956V88.9951H508.5V90.9956H507.5ZM507.5 86.9946V84.9941H508.5V86.9946H507.5ZM507.5 82.9935V80.993H508.5V82.9935H507.5ZM507.5 78.9925V76.992H508.5V78.9925H507.5ZM507.5 74.9915V72.9909H508.5V74.9915H507.5ZM507.5 70.9904V68.9899H508.5V70.9904H507.5ZM507.5 66.9894V64.9889H508.5V66.9894H507.5ZM507.5 62.9883V60.9878H508.5V62.9883H507.5ZM507.5 58.9873V56.9868H508.5V58.9873H507.5ZM507.5 54.9863V52.9858H508.5V54.9863H507.5ZM507.5 50.9852V49.9849H508.5V50.9852H507.5ZM507.5 49.9849C507.5 49.6281 507.486 49.2745 507.459 48.9248L508.456 48.8472C508.485 49.2227 508.5 49.6021 508.5 49.9849H507.5ZM507.129 46.8337C506.963 46.1405 506.744 45.4681 506.475 44.8211L507.398 44.4375C507.687 45.1328 507.923 45.8556 508.102 46.6006L507.129 46.8337ZM505.511 42.9362C505.14 42.3328 504.722 41.7607 504.264 41.2249L505.023 40.5745C505.516 41.1498 505.964 41.7641 506.363 42.4123L505.511 42.9362ZM502.765 39.7285C502.228 39.2707 501.656 38.8541 501.051 38.4837L501.574 37.6312C502.223 38.029 502.838 38.4763 503.414 38.9679L502.765 39.7285ZM499.165 37.5222C498.518 37.2542 497.845 37.0351 497.152 36.8694L497.384 35.8968C498.129 36.0748 498.852 36.3103 499.548 36.5983L499.165 37.5222ZM495.06 36.541C494.71 36.5138 494.357 36.5 494 36.5V35.5C494.383 35.5 494.762 35.5148 495.138 35.544L495.06 36.541ZM494 36.5H493.25V35.5H494V36.5ZM491.75 36.5H491V35.5H491.75V36.5Z" fill="#6D18BD"/>
<path d="M493.667 324.706C493.667 323.233 492.473 322.039 491 322.039C489.527 322.039 488.333 323.233 488.333 324.706C488.333 326.179 489.527 327.373 491 327.373C492.473 327.373 493.667 326.179 493.667 324.706ZM536.5 180L531.5 177.113V182.887L536.5 180ZM533.781 179.5H531.969V180.5H533.781V179.5ZM530.156 179.5H528.344V180.5H530.156V179.5ZM526.531 179.5H524.719V180.5H526.531V179.5ZM522.906 179.5H522V180.5H522.906V179.5ZM522 179.5C521.621 179.5 521.246 179.519 520.874 179.557L520.975 180.552C521.313 180.517 521.655 180.5 522 180.5V179.5ZM518.672 180.007C517.959 180.229 517.268 180.519 516.603 180.872L517.072 181.756C517.684 181.43 518.318 181.164 518.968 180.962L518.672 180.007ZM514.726 182.084C514.147 182.529 513.594 183.026 513.07 183.568L513.79 184.263C514.281 183.754 514.797 183.291 515.336 182.876L514.726 182.084ZM511.64 185.263C511.209 185.846 510.807 186.464 510.435 187.115L511.303 187.611C511.656 186.993 512.038 186.408 512.444 185.857L511.64 185.263ZM509.446 189.085C509.157 189.748 508.896 190.436 508.667 191.145L509.618 191.452C509.837 190.774 510.086 190.118 510.363 189.486L509.446 189.085ZM508.09 193.266C507.933 193.971 507.806 194.693 507.711 195.43L508.702 195.558C508.794 194.852 508.916 194.159 509.066 193.483L508.09 193.266ZM507.523 197.617C507.508 197.981 507.5 198.347 507.5 198.715H508.5C508.5 198.361 508.508 198.009 508.522 197.66L507.523 197.617ZM507.5 198.715V199.708H508.5V198.715H507.5ZM507.5 201.695V203.682H508.5V201.695H507.5ZM507.5 205.668V207.655H508.5V205.668H507.5ZM507.5 209.641V211.628H508.5V209.641H507.5ZM507.5 213.615V215.601H508.5V213.615H507.5ZM507.5 217.588V219.574H508.5V217.588H507.5ZM507.5 221.561V223.547H508.5V221.561H507.5ZM507.5 225.534V227.521H508.5V225.534H507.5ZM507.5 229.507V231.494H508.5V229.507H507.5ZM507.5 233.48V235.467H508.5V233.48H507.5ZM507.5 237.454V239.44H508.5V237.454H507.5ZM507.5 241.427V243.413H508.5V241.427H507.5ZM507.5 245.4V247.386H508.5V245.4H507.5ZM507.5 249.373V251.36H508.5V249.373H507.5ZM507.5 253.346V255.333H508.5V253.346H507.5ZM507.5 257.319V259.306H508.5V257.319H507.5ZM507.5 261.293V263.279H508.5V261.293H507.5ZM507.5 265.266V267.252H508.5V265.266H507.5ZM507.5 269.239V271.226H508.5V269.239H507.5ZM507.5 273.212V275.199H508.5V273.212H507.5ZM507.5 277.185V279.172H508.5V277.185H507.5ZM507.5 281.158V283.145H508.5V281.158H507.5ZM507.5 285.132V287.118H508.5V285.132H507.5ZM507.5 289.105V291.091H508.5V289.105H507.5ZM507.5 293.078V295.065H508.5V293.078H507.5ZM507.5 297.051V299.038H508.5V297.051H507.5ZM507.5 301.024V303.011H508.5V301.024H507.5ZM507.5 304.998V305.991H508.5V304.998H507.5ZM507.5 305.991C507.5 306.345 507.492 306.697 507.478 307.046L508.477 307.088C508.492 306.725 508.5 306.359 508.5 305.991H507.5ZM507.298 309.148C507.206 309.854 507.084 310.547 506.934 311.223L507.91 311.44C508.067 310.734 508.194 310.013 508.289 309.276L507.298 309.148ZM506.382 313.254C506.163 313.932 505.914 314.588 505.637 315.22L506.554 315.62C506.843 314.958 507.104 314.27 507.333 313.561L506.382 313.254ZM504.697 317.095C504.344 317.712 503.962 318.298 503.556 318.848L504.36 319.443C504.791 318.86 505.193 318.242 505.565 317.591L504.697 317.095ZM502.21 320.443C501.719 320.952 501.203 321.415 500.664 321.829L501.274 322.622C501.853 322.177 502.406 321.68 502.93 321.137L502.21 320.443ZM498.928 322.95C498.316 323.276 497.682 323.541 497.032 323.743L497.328 324.698C498.041 324.477 498.732 324.187 499.397 323.834L498.928 322.95ZM495.025 324.154C494.687 324.188 494.345 324.206 494 324.206V325.206C494.379 325.206 494.754 325.187 495.126 325.149L495.025 324.154ZM494 324.206H493.25V325.206H494V324.206ZM491.75 324.206H491V325.206H491.75V324.206Z" fill="#6D18BD"/>
<path d="M207 182L201.892 179.308L202.115 185.078L207 182ZM178.667 288C178.667 286.527 177.473 285.333 176 285.333C174.527 285.333 173.333 286.527 173.333 288C173.333 289.473 174.527 290.667 176 290.667C177.473 290.667 178.667 289.473 178.667 288ZM203.616 181.897C202.871 182.075 202.148 182.31 201.452 182.598L201.835 183.522C202.482 183.254 203.155 183.035 203.848 182.869L203.616 181.897ZM199.426 183.631C198.777 184.029 198.162 184.476 197.586 184.968L198.235 185.729C198.772 185.271 199.344 184.854 199.949 184.484L199.426 183.631ZM195.977 186.574C195.484 187.15 195.036 187.764 194.637 188.412L195.489 188.936C195.86 188.333 196.278 187.761 196.736 187.225L195.977 186.574ZM193.602 190.437C193.313 191.133 193.077 191.856 192.898 192.601L193.871 192.834C194.037 192.141 194.256 191.468 194.525 190.821L193.602 190.437ZM192.544 194.847C192.515 195.223 192.5 195.602 192.5 195.985H193.5C193.5 195.628 193.514 195.275 193.541 194.925L192.544 194.847ZM192.5 195.985V196.96H193.5V195.985H192.5ZM192.5 198.911V200.862H193.5V198.911H192.5ZM192.5 202.813V204.763H193.5V202.813H192.5ZM192.5 206.714V208.665H193.5V206.714H192.5ZM192.5 210.616V212.566H193.5V210.616H192.5ZM192.5 214.517V216.468H193.5V214.517H192.5ZM192.5 218.419V220.369H193.5V218.419H192.5ZM192.5 222.32V224.271H193.5V222.32H192.5ZM192.5 226.222V228.172H193.5V226.222H192.5ZM192.5 230.123V232.074H193.5V230.123H192.5ZM192.5 234.025V235.975H193.5V234.025H192.5ZM192.5 237.926V239.877H193.5V237.926H192.5ZM192.5 241.828V243.778H193.5V241.828H192.5ZM192.5 245.729V247.68H193.5V245.729H192.5ZM192.5 249.631V251.581H193.5V249.631H192.5ZM192.5 253.532V255.483H193.5V253.532H192.5ZM192.5 257.434V259.384H193.5V257.434H192.5ZM192.5 261.335V263.286H193.5V261.335H192.5ZM192.5 265.237V267.187H193.5V265.237H192.5ZM192.5 269.138V271.089H193.5V269.138H192.5ZM192.5 273.04V274.015H193.5V273.04H192.5ZM192.5 274.015C192.5 274.372 192.486 274.725 192.459 275.075L193.456 275.153C193.485 274.777 193.5 274.398 193.5 274.015H192.5ZM192.129 277.166C191.963 277.86 191.744 278.532 191.475 279.179L192.398 279.563C192.687 278.867 192.923 278.144 193.102 277.399L192.129 277.166ZM190.511 281.064C190.14 281.667 189.722 282.239 189.264 282.775L190.023 283.426C190.516 282.85 190.964 282.236 191.363 281.588L190.511 281.064ZM187.765 284.271C187.228 284.729 186.656 285.146 186.051 285.516L186.574 286.369C187.223 285.971 187.838 285.524 188.414 285.032L187.765 284.271ZM184.165 286.478C183.518 286.746 182.845 286.965 182.152 287.131L182.384 288.103C183.129 287.925 183.852 287.69 184.548 287.402L184.165 286.478ZM180.06 287.459C179.71 287.486 179.357 287.5 179 287.5V288.5C179.383 288.5 179.762 288.485 180.138 288.456L180.06 287.459ZM179 287.5H178.25V288.5H179V287.5ZM176.75 287.5H176V288.5H176.75V287.5Z" fill="#6D18BD"/>
<path d="M339 36L333.892 33.3084L334.115 39.0776L339 36ZM310.667 180C310.667 178.527 309.473 177.333 308 177.333C306.527 177.333 305.333 178.527 305.333 180C305.333 181.473 306.527 182.667 308 182.667C309.473 182.667 310.667 181.473 310.667 180ZM335.616 35.8968C334.871 36.0748 334.148 36.3103 333.452 36.5983L333.835 37.5222C334.482 37.2542 335.155 37.0351 335.848 36.8694L335.616 35.8968ZM331.426 37.6312C330.777 38.029 330.162 38.4763 329.586 38.9679L330.235 39.7285C330.772 39.2707 331.344 38.8541 331.949 38.4837L331.426 37.6312ZM327.977 40.5745C327.484 41.1497 327.036 41.7641 326.637 42.4123L327.489 42.9362C327.86 42.3328 328.278 41.7607 328.736 41.2249L327.977 40.5745ZM325.602 44.4375C325.313 45.1328 325.077 45.8556 324.898 46.6006L325.871 46.8337C326.037 46.1405 326.256 45.4681 326.525 44.8211L325.602 44.4375ZM324.544 48.8472C324.515 49.2227 324.5 49.6021 324.5 49.9849H325.5C325.5 49.6281 325.514 49.2745 325.541 48.9248L324.544 48.8472ZM324.5 49.9849V50.9852H325.5V49.9849H324.5ZM324.5 52.9857V54.9862H325.5V52.9857H324.5ZM324.5 56.9867V58.9873H325.5V56.9867H324.5ZM324.5 60.9878V62.9883H325.5V60.9878H324.5ZM324.5 64.9888V66.9893H325.5V64.9888H324.5ZM324.5 68.9899V70.9904H325.5V68.9899H324.5ZM324.5 72.9909V74.9914H325.5V72.9909H324.5ZM324.5 76.9919V78.9925H325.5V76.9919H324.5ZM324.5 80.993V82.9935H325.5V80.993H324.5ZM324.5 84.994V86.9945H325.5V84.994H324.5ZM324.5 88.995V90.9956H325.5V88.995H324.5ZM324.5 92.9961V94.9966H325.5V92.9961H324.5ZM324.5 96.9971V98.9976H325.5V96.9971H324.5ZM324.5 100.998V102.999H325.5V100.998H324.5ZM324.5 104.999V107H325.5V104.999H324.5ZM324.5 109V111.001H325.5V109H324.5ZM324.5 113.001V115.002H325.5V113.001H324.5ZM324.5 117.002V119.003H325.5V117.002H324.5ZM324.5 121.003V123.004H325.5V121.003H324.5ZM324.5 125.004V127.005H325.5V125.004H324.5ZM324.5 129.005V131.006H325.5V129.005H324.5ZM324.5 133.006V135.007H325.5V133.006H324.5ZM324.5 137.007V139.008H325.5V137.007H324.5ZM324.5 141.009V143.009H325.5V141.009H324.5ZM324.5 145.01V147.01H325.5V145.01H324.5ZM324.5 149.011V151.011H325.5V149.011H324.5ZM324.5 153.012V155.012H325.5V153.012H324.5ZM324.5 157.013V159.013H325.5V157.013H324.5ZM324.5 161.014V163.014H325.5V161.014H324.5ZM324.5 165.015V166.015H325.5V165.015H324.5ZM324.5 166.015C324.5 166.372 324.486 166.725 324.459 167.075L325.456 167.153C325.485 166.777 325.5 166.398 325.5 166.015H324.5ZM324.129 169.166C323.963 169.86 323.744 170.532 323.475 171.179L324.398 171.563C324.687 170.867 324.923 170.144 325.102 169.399L324.129 169.166ZM322.511 173.064C322.14 173.667 321.722 174.239 321.264 174.775L322.023 175.426C322.516 174.85 322.964 174.236 323.363 173.588L322.511 173.064ZM319.765 176.271C319.228 176.729 318.656 177.146 318.051 177.516L318.574 178.369C319.223 177.971 319.838 177.524 320.414 177.032L319.765 176.271ZM316.165 178.478C315.518 178.746 314.845 178.965 314.152 179.131L314.384 180.103C315.129 179.925 315.852 179.69 316.548 179.402L316.165 178.478ZM312.06 179.459C311.71 179.486 311.357 179.5 311 179.5V180.5C311.383 180.5 311.762 180.485 312.138 180.456L312.06 179.459ZM311 179.5H310.25V180.5H311V179.5ZM308.75 179.5H308V180.5H308.75V179.5Z" fill="#6D18BD"/>
<path d="M207 182L201.892 184.692L202.115 178.922L207 182ZM178.667 146C178.667 147.473 177.473 148.667 176 148.667C174.527 148.667 173.333 147.473 173.333 146C173.333 144.527 174.527 143.333 176 143.333C177.473 143.333 178.667 144.527 178.667 146ZM203.616 182.103C202.871 181.925 202.148 181.69 201.452 181.402L201.835 180.478C202.482 180.746 203.155 180.965 203.848 181.131L203.616 182.103ZM199.426 180.369C198.777 179.971 198.162 179.524 197.586 179.032L198.235 178.271C198.772 178.729 199.344 179.146 199.949 179.516L199.426 180.369ZM195.977 177.426C195.484 176.85 195.036 176.236 194.637 175.588L195.489 175.064C195.86 175.667 196.278 176.239 196.736 176.775L195.977 177.426ZM193.602 173.563C193.313 172.867 193.077 172.144 192.898 171.399L193.871 171.166C194.037 171.859 194.256 172.532 194.525 173.179L193.602 173.563ZM192.544 169.153C192.515 168.777 192.5 168.398 192.5 168.015H193.5C193.5 168.372 193.514 168.725 193.541 169.075L192.544 169.153ZM192.5 168.015V167.136H193.5V168.015H192.5ZM192.5 165.379V163.621H193.5V165.379H192.5ZM192.5 161.864V160.985H193.5V161.864H192.5ZM192.5 160.985C192.5 160.68 192.49 160.377 192.47 160.074L193.468 160.008C193.489 160.333 193.5 160.658 193.5 160.985H192.5ZM192.234 158.266C192.117 157.668 191.963 157.078 191.773 156.499L192.724 156.188C192.925 156.805 193.09 157.435 193.215 158.074L192.234 158.266ZM191.102 154.8C190.844 154.247 190.553 153.709 190.233 153.191L191.083 152.665C191.424 153.216 191.733 153.788 192.008 154.378L191.102 154.8ZM189.18 151.697C188.8 151.219 188.391 150.765 187.958 150.339L188.659 149.626C189.121 150.08 189.557 150.564 189.962 151.073L189.18 151.697ZM186.58 149.145C186.095 148.776 185.588 148.439 185.062 148.14L185.556 147.271C186.122 147.593 186.666 147.954 187.185 148.349L186.58 149.145ZM183.424 147.353C182.863 147.131 182.286 146.949 181.694 146.811L181.921 145.837C182.562 145.986 183.187 146.183 183.792 146.423L183.424 147.353ZM179.906 146.535C179.606 146.512 179.304 146.5 179 146.5V145.5C179.33 145.5 179.658 145.513 179.982 145.538L179.906 146.535ZM179 146.5H178.25V145.5H179V146.5ZM176.75 146.5H176V145.5H176.75V146.5Z" fill="#6D18BD"/>
<path d="M339 324L333.892 326.692L334.115 320.922L339 324ZM310.667 180C310.667 181.473 309.473 182.667 308 182.667C306.527 182.667 305.333 181.473 305.333 180C305.333 178.527 306.527 177.333 308 177.333C309.473 177.333 310.667 178.527 310.667 180ZM335.616 324.103C334.871 323.925 334.148 323.69 333.452 323.402L333.835 322.478C334.482 322.746 335.155 322.965 335.848 323.131L335.616 324.103ZM331.426 322.369C330.777 321.971 330.162 321.524 329.586 321.032L330.235 320.271C330.772 320.729 331.344 321.146 331.949 321.516L331.426 322.369ZM327.977 319.426C327.484 318.85 327.036 318.236 326.637 317.588L327.489 317.064C327.86 317.667 328.278 318.239 328.736 318.775L327.977 319.426ZM325.602 315.563C325.313 314.867 325.077 314.144 324.898 313.399L325.871 313.166C326.037 313.859 326.256 314.532 326.525 315.179L325.602 315.563ZM324.544 311.153C324.515 310.777 324.5 310.398 324.5 310.015H325.5C325.5 310.372 325.514 310.725 325.541 311.075L324.544 311.153ZM324.5 310.015V309.023H325.5V310.015H324.5ZM324.5 307.04V305.057H325.5V307.04H324.5ZM324.5 303.074V301.09H325.5V303.074H324.5ZM324.5 299.107V297.124H325.5V299.107H324.5ZM324.5 295.14V293.157H325.5V295.14H324.5ZM324.5 291.174V289.191H325.5V291.174H324.5ZM324.5 287.207V285.224H325.5V287.207H324.5ZM324.5 283.241V281.258H325.5V283.241H324.5ZM324.5 279.274V277.291H325.5V279.274H324.5ZM324.5 275.308V273.324H325.5V275.308H324.5ZM324.5 271.341V269.358H325.5V271.341H324.5ZM324.5 267.375V265.391H325.5V267.375H324.5ZM324.5 263.408V261.425H325.5V263.408H324.5ZM324.5 259.441V257.458H325.5V259.441H324.5ZM324.5 255.475V253.492H325.5V255.475H324.5ZM324.5 251.508V249.525H325.5V251.508H324.5ZM324.5 247.542V245.558H325.5V247.542H324.5ZM324.5 243.575V241.592H325.5V243.575H324.5ZM324.5 239.609V237.625H325.5V239.609H324.5ZM324.5 235.642V233.659H325.5V235.642H324.5ZM324.5 231.676V229.692H325.5V231.676H324.5ZM324.5 227.709V225.726H325.5V227.709H324.5ZM324.5 223.742V221.759H325.5V223.742H324.5ZM324.5 219.776V217.793H325.5V219.776H324.5ZM324.5 215.809V213.826H325.5V215.809H324.5ZM324.5 211.843V209.86H325.5V211.843H324.5ZM324.5 207.876V205.893H325.5V207.876H324.5ZM324.5 203.91V201.926H325.5V203.91H324.5ZM324.5 199.943V197.96H325.5V199.943H324.5ZM324.5 195.977V194.985H325.5V195.977H324.5ZM324.5 194.985C324.5 194.68 324.49 194.377 324.47 194.074L325.468 194.008C325.489 194.333 325.5 194.658 325.5 194.985H324.5ZM324.234 192.266C324.117 191.668 323.963 191.078 323.773 190.499L324.724 190.188C324.925 190.805 325.09 191.435 325.215 192.074L324.234 192.266ZM323.102 188.8C322.844 188.247 322.553 187.709 322.233 187.191L323.083 186.665C323.424 187.216 323.733 187.788 324.008 188.378L323.102 188.8ZM321.18 185.697C320.8 185.219 320.391 184.765 319.958 184.339L320.659 183.626C321.121 184.08 321.557 184.564 321.962 185.073L321.18 185.697ZM318.58 183.145C318.095 182.776 317.588 182.439 317.062 182.14L317.556 181.271C318.122 181.593 318.666 181.954 319.185 182.349L318.58 183.145ZM315.424 181.353C314.863 181.131 314.286 180.949 313.694 180.811L313.921 179.837C314.562 179.986 315.187 180.183 315.792 180.423L315.424 181.353ZM311.906 180.535C311.606 180.512 311.304 180.5 311 180.5V179.5C311.33 179.5 311.658 179.513 311.982 179.538L311.906 180.535ZM311 180.5H310.25V179.5H311V180.5ZM308.75 180.5H308V179.5H308.75V180.5Z" fill="#6D18BD"/>
<path d="M101 76L96 78.8868V73.1132L101 76ZM72.6667 76C72.6667 77.4728 71.4728 78.6667 70 78.6667C68.5272 78.6667 67.3333 77.4728 67.3333 76C67.3333 74.5272 68.5272 73.3333 70 73.3333C71.4728 73.3333 72.6667 74.5272 72.6667 76ZM98.0938 76.5H96.1562V75.5H98.0938V76.5ZM94.2188 76.5H92.2812V75.5H94.2188V76.5ZM90.3438 76.5H88.4062V75.5H90.3438V76.5ZM86.4688 76.5H84.5312V75.5H86.4688V76.5ZM82.5938 76.5H80.6562V75.5H82.5938V76.5ZM78.7188 76.5H76.7812V75.5H78.7188V76.5ZM74.8438 76.5H72.9062V75.5H74.8438V76.5ZM70.9688 76.5H70V75.5H70.9688V76.5Z" fill="#6D18BD"/>
<path d="M101 146L96 148.887V143.113L101 146ZM72.6667 146C72.6667 147.473 71.4728 148.667 70 148.667C68.5272 148.667 67.3333 147.473 67.3333 146C67.3333 144.527 68.5272 143.333 70 143.333C71.4728 143.333 72.6667 144.527 72.6667 146ZM98.0938 146.5H96.1562V145.5H98.0938V146.5ZM94.2188 146.5H92.2812V145.5H94.2188V146.5ZM90.3438 146.5H88.4062V145.5H90.3438V146.5ZM86.4688 146.5H84.5312V145.5H86.4688V146.5ZM82.5938 146.5H80.6562V145.5H82.5938V146.5ZM78.7188 146.5H76.7812V145.5H78.7188V146.5ZM74.8438 146.5H72.9062V145.5H74.8438V146.5ZM70.9688 146.5H70V145.5H70.9688V146.5Z" fill="#6D18BD"/>
<path d="M101 218L96 220.887V215.113L101 218ZM72.6667 218C72.6667 219.473 71.4728 220.667 70 220.667C68.5272 220.667 67.3333 219.473 67.3333 218C67.3333 216.527 68.5272 215.333 70 215.333C71.4728 215.333 72.6667 216.527 72.6667 218ZM98.0938 218.5H96.1562V217.5H98.0938V218.5ZM94.2188 218.5H92.2812V217.5H94.2188V218.5ZM90.3438 218.5H88.4062V217.5H90.3438V218.5ZM86.4688 218.5H84.5312V217.5H86.4688V218.5ZM82.5938 218.5H80.6562V217.5H82.5938V218.5ZM78.7188 218.5H76.7812V217.5H78.7188V218.5ZM74.8438 218.5H72.9062V217.5H74.8438V218.5ZM70.9688 218.5H70V217.5H70.9688V218.5Z" fill="#6D18BD"/>
<path d="M101 288L96 290.887V285.113L101 288ZM72.6667 288C72.6667 289.473 71.4728 290.667 70 290.667C68.5272 290.667 67.3333 289.473 67.3333 288C67.3333 286.527 68.5272 285.333 70 285.333C71.4728 285.333 72.6667 286.527 72.6667 288ZM98.0938 288.5H96.1562V287.5H98.0938V288.5ZM94.2188 288.5H92.2812V287.5H94.2188V288.5ZM90.3438 288.5H88.4062V287.5H90.3438V288.5ZM86.4688 288.5H84.5312V287.5H86.4688V288.5ZM82.5938 288.5H80.6562V287.5H82.5938V288.5ZM78.7188 288.5H76.7812V287.5H78.7188V288.5ZM74.8438 288.5H72.9062V287.5H74.8438V288.5ZM70.9688 288.5H70V287.5H70.9688V288.5Z" fill="#6D18BD"/>
<path d="M207 182L201.892 179.308L202.115 185.078L207 182ZM178.667 218C178.667 216.527 177.473 215.333 176 215.333C174.527 215.333 173.333 216.527 173.333 218C173.333 219.473 174.527 220.667 176 220.667C177.473 220.667 178.667 219.473 178.667 218ZM203.616 181.897C202.871 182.075 202.148 182.31 201.452 182.598L201.835 183.522C202.482 183.254 203.155 183.035 203.848 182.869L203.616 181.897ZM199.426 183.631C198.777 184.029 198.162 184.476 197.586 184.968L198.235 185.729C198.772 185.271 199.344 184.854 199.949 184.484L199.426 183.631ZM195.977 186.574C195.484 187.15 195.036 187.764 194.637 188.412L195.489 188.936C195.86 188.333 196.278 187.761 196.736 187.225L195.977 186.574ZM193.602 190.437C193.313 191.133 193.077 191.856 192.898 192.601L193.871 192.834C194.037 192.141 194.256 191.468 194.525 190.821L193.602 190.437ZM192.544 194.847C192.515 195.223 192.5 195.602 192.5 195.985H193.5C193.5 195.628 193.514 195.275 193.541 194.925L192.544 194.847ZM192.5 195.985V196.864H193.5V195.985H192.5ZM192.5 198.621V200.379H193.5V198.621H192.5ZM192.5 202.136V203.015H193.5V202.136H192.5ZM192.5 203.015C192.5 203.32 192.49 203.623 192.47 203.926L193.468 203.992C193.489 203.667 193.5 203.342 193.5 203.015H192.5ZM192.234 205.734C192.117 206.332 191.963 206.922 191.773 207.501L192.724 207.812C192.925 207.195 193.09 206.565 193.215 205.926L192.234 205.734ZM191.102 209.2C190.844 209.753 190.553 210.291 190.233 210.809L191.083 211.335C191.424 210.784 191.733 210.212 192.008 209.622L191.102 209.2ZM189.18 212.303C188.8 212.781 188.391 213.235 187.958 213.661L188.659 214.374C189.121 213.92 189.557 213.436 189.962 212.927L189.18 212.303ZM186.58 214.855C186.095 215.224 185.588 215.561 185.062 215.86L185.556 216.729C186.122 216.407 186.666 216.046 187.185 215.651L186.58 214.855ZM183.424 216.647C182.863 216.869 182.286 217.051 181.694 217.189L181.921 218.163C182.562 218.014 183.187 217.817 183.792 217.577L183.424 216.647ZM179.906 217.465C179.606 217.488 179.304 217.5 179 217.5V218.5C179.33 218.5 179.658 218.487 179.982 218.462L179.906 217.465ZM179 217.5H178.25V218.5H179V217.5ZM176.75 217.5H176V218.5H176.75V217.5Z" fill="#6D18BD"/>
<path d="M381.816 49.5713L381.861 61.1182L391.838 55.3065L381.816 49.5713ZM445.18 49.1835C443.466 53.2597 440.985 56.9338 437.914 60.0147L439.331 61.4265C442.582 58.1644 445.208 54.2746 447.024 49.9591L445.18 49.1835ZM437.914 60.0147C434.842 63.0977 431.195 65.5988 427.145 67.3222L427.928 69.1625C432.222 67.3355 436.082 64.6865 439.331 61.4265L437.914 60.0147ZM427.145 67.3222C423.094 69.0457 418.636 69.9999 413.959 69.9999V71.9999C418.91 71.9999 423.634 70.9894 427.928 69.1625L427.145 67.3222ZM413.959 69.9999C409.282 69.9999 404.824 69.0457 400.774 67.3222L399.991 69.1625C404.284 70.9894 409.008 71.9999 413.959 71.9999V69.9999ZM400.774 67.3222C396.722 65.5982 393.069 63.104 390.006 60.0163L388.586 61.4249C391.83 64.6942 395.698 67.3361 399.991 69.1625L400.774 67.3222ZM390.006 60.0163C388.983 58.9861 388.025 57.8915 387.139 56.7389L385.554 57.9582C386.492 59.1777 387.505 60.3354 388.586 61.4249L390.006 60.0163Z" fill="#6D18BD"/>
<path d="M446.102 22.4286L446.058 10.8817L436.08 16.6933L446.102 22.4286ZM382.738 22.8163C384.453 18.7401 386.934 15.066 390.004 11.9851L388.587 10.5734C385.337 13.8355 382.71 17.7252 380.895 22.0408L382.738 22.8163ZM390.004 11.9851C393.076 8.90216 396.723 6.40104 400.774 4.67768L399.991 2.83734C395.697 4.66435 391.836 7.31339 388.587 10.5734L390.004 11.9851ZM400.774 4.67768C404.824 2.95416 409.282 2 413.959 2V0C409.008 0 404.284 1.01047 399.991 2.83734L400.774 4.67768ZM413.959 2C418.636 2 423.094 2.95416 427.145 4.67768L427.928 2.83734C423.634 1.01047 418.91 0 413.959 0V2ZM427.145 4.67768C431.197 6.40162 434.849 8.8959 437.913 11.9836L439.333 10.5749C436.089 7.30562 432.221 4.66377 427.928 2.83734L427.145 4.67768ZM437.913 11.9836C438.935 13.0138 439.893 14.1084 440.779 15.2609L442.365 14.0416C441.427 12.8222 440.414 11.6644 439.333 10.5749L437.913 11.9836Z" fill="#6D18BD"/>
<path d="M381.816 337.571L381.861 349.118L391.838 343.307L381.816 337.571ZM445.18 337.184C443.466 341.26 440.985 344.934 437.914 348.015L439.331 349.426C442.582 346.164 445.208 342.275 447.024 337.959L445.18 337.184ZM437.914 348.015C434.842 351.098 431.195 353.599 427.145 355.322L427.928 357.163C432.222 355.336 436.082 352.686 439.331 349.426L437.914 348.015ZM427.145 355.322C423.094 357.046 418.636 358 413.959 358V360C418.91 360 423.634 358.989 427.928 357.163L427.145 355.322ZM413.959 358C409.282 358 404.824 357.046 400.774 355.322L399.991 357.163C404.284 358.989 409.008 360 413.959 360V358ZM400.774 355.322C396.722 353.598 393.069 351.104 390.006 348.016L388.586 349.425C391.83 352.694 395.698 355.336 399.991 357.163L400.774 355.322ZM390.006 348.016C388.983 346.986 388.025 345.891 387.139 344.739L385.554 345.958C386.492 347.178 387.505 348.335 388.586 349.425L390.006 348.016Z" fill="#6D18BD"/>
<path d="M446.102 310.429L446.058 298.882L436.08 304.693L446.102 310.429ZM382.738 310.816C384.453 306.74 386.934 303.066 390.004 299.985L388.587 298.573C385.337 301.835 382.71 305.725 380.895 310.041L382.738 310.816ZM390.004 299.985C393.076 296.902 396.723 294.401 400.774 292.678L399.991 290.837C395.697 292.664 391.836 295.313 388.587 298.573L390.004 299.985ZM400.774 292.678C404.824 290.954 409.282 290 413.959 290V288C409.008 288 404.284 289.01 399.991 290.837L400.774 292.678ZM413.959 290C418.636 290 423.094 290.954 427.145 292.678L427.928 290.837C423.634 289.01 418.91 288 413.959 288V290ZM427.145 292.678C431.197 294.402 434.849 296.896 437.913 299.984L439.333 298.575C436.089 295.306 432.221 292.664 427.928 290.837L427.145 292.678ZM437.913 299.984C438.935 301.014 439.893 302.108 440.779 303.261L442.365 302.042C441.427 300.822 440.414 299.664 439.333 298.575L437.913 299.984Z" fill="#6D18BD"/>
<path d="M7.45559 41V31.835H11.4336C12.4389 31.835 13.2146 32.0863 13.7606 32.589C14.3066 33.0917 14.5796 33.7937 14.5796 34.695C14.5796 35.5963 14.3066 36.3027 13.7606 36.814C13.2146 37.3167 12.4389 37.568 11.4336 37.568H9.11959V41H7.45559ZM9.11959 36.255H11.1736C12.3696 36.255 12.9676 35.735 12.9676 34.695C12.9676 33.6637 12.3696 33.148 11.1736 33.148H9.11959V36.255ZM15.6531 41V34.643H17.2391V35.761C17.5511 35.007 18.2184 34.591 19.2411 34.513L19.7351 34.474L19.8391 35.852L18.9031 35.943C17.8371 36.047 17.3041 36.593 17.3041 37.581V41H15.6531ZM23.5414 41.13C22.8827 41.13 22.3107 40.9957 21.8254 40.727C21.34 40.4583 20.963 40.077 20.6944 39.583C20.4257 39.0803 20.2914 38.491 20.2914 37.815C20.2914 37.139 20.4257 36.554 20.6944 36.06C20.963 35.566 21.34 35.1847 21.8254 34.916C22.3107 34.6473 22.8827 34.513 23.5414 34.513C24.2 34.513 24.772 34.6473 25.2574 34.916C25.7427 35.1847 26.1197 35.566 26.3884 36.06C26.657 36.554 26.7914 37.139 26.7914 37.815C26.7914 38.491 26.657 39.0803 26.3884 39.583C26.1197 40.077 25.7427 40.4583 25.2574 40.727C24.772 40.9957 24.2 41.13 23.5414 41.13ZM23.5414 39.895C24.0267 39.895 24.4167 39.7217 24.7114 39.375C25.006 39.0197 25.1534 38.4997 25.1534 37.815C25.1534 37.1217 25.006 36.606 24.7114 36.268C24.4167 35.9213 24.0267 35.748 23.5414 35.748C23.056 35.748 22.666 35.9213 22.3714 36.268C22.0767 36.606 21.9294 37.1217 21.9294 37.815C21.9294 38.4997 22.0767 39.0197 22.3714 39.375C22.666 39.7217 23.056 39.895 23.5414 39.895ZM29.8776 41L27.1216 34.643H28.8506L30.6186 39.089L32.4516 34.643H34.0766L31.2816 41H29.8776ZM34.7571 33.278V31.692H36.5771V33.278H34.7571ZM34.8611 41V34.643H36.4861V41H34.8611ZM40.6186 41.13C40.0639 41.13 39.5743 40.9957 39.1496 40.727C38.7336 40.4583 38.4086 40.077 38.1746 39.583C37.9406 39.0803 37.8236 38.491 37.8236 37.815C37.8236 37.1303 37.9406 36.5453 38.1746 36.06C38.4086 35.566 38.7336 35.1847 39.1496 34.916C39.5743 34.6473 40.0639 34.513 40.6186 34.513C41.0693 34.513 41.4766 34.6127 41.8406 34.812C42.2046 35.0113 42.4776 35.2757 42.6596 35.605V31.835H44.2846V41H42.6986V39.947C42.5253 40.311 42.2523 40.6013 41.8796 40.818C41.5069 41.026 41.0866 41.13 40.6186 41.13ZM41.0736 39.895C41.5589 39.895 41.9489 39.7217 42.2436 39.375C42.5383 39.0197 42.6856 38.4997 42.6856 37.815C42.6856 37.1217 42.5383 36.606 42.2436 36.268C41.9489 35.9213 41.5589 35.748 41.0736 35.748C40.5883 35.748 40.1983 35.9213 39.9036 36.268C39.6089 36.606 39.4616 37.1217 39.4616 37.815C39.4616 38.4997 39.6089 39.0197 39.9036 39.375C40.1983 39.7217 40.5883 39.895 41.0736 39.895ZM49.1025 41.13C48.3832 41.13 47.7635 40.9957 47.2435 40.727C46.7235 40.4583 46.3205 40.077 46.0345 39.583C45.7572 39.089 45.6185 38.504 45.6185 37.828C45.6185 37.1693 45.7528 36.593 46.0215 36.099C46.2988 35.605 46.6758 35.2193 47.1525 34.942C47.6378 34.656 48.1882 34.513 48.8035 34.513C49.7048 34.513 50.4155 34.799 50.9355 35.371C51.4642 35.943 51.7285 36.723 51.7285 37.711V38.192H47.1785C47.2998 39.3273 47.9498 39.895 49.1285 39.895C49.4838 39.895 49.8392 39.843 50.1945 39.739C50.5498 39.6263 50.8748 39.453 51.1695 39.219L51.6245 40.311C51.3212 40.5623 50.9398 40.7617 50.4805 40.909C50.0212 41.0563 49.5618 41.13 49.1025 41.13ZM48.8685 35.618C48.3918 35.618 48.0062 35.7653 47.7115 36.06C47.4168 36.3547 47.2392 36.7533 47.1785 37.256H50.3765C50.3418 36.7273 50.1945 36.3243 49.9345 36.047C49.6832 35.761 49.3278 35.618 48.8685 35.618ZM53.0154 41V34.643H54.6014V35.761C54.9134 35.007 55.5807 34.591 56.6034 34.513L57.0974 34.474L57.2014 35.852L56.2654 35.943C55.1994 36.047 54.6664 36.593 54.6664 37.581V41H53.0154ZM60.3698 41.13C59.8324 41.13 59.3298 41.065 58.8618 40.935C58.3938 40.805 58.0038 40.6187 57.6918 40.376L58.1078 39.31C58.4284 39.5267 58.7881 39.6957 59.1868 39.817C59.5854 39.9297 59.9841 39.986 60.3828 39.986C60.7988 39.986 61.1064 39.9167 61.3058 39.778C61.5138 39.6307 61.6178 39.44 61.6178 39.206C61.6178 38.842 61.3491 38.608 60.8118 38.504L59.5118 38.257C58.4111 38.049 57.8608 37.477 57.8608 36.541C57.8608 36.125 57.9734 35.7653 58.1988 35.462C58.4328 35.1587 58.7534 34.9247 59.1608 34.76C59.5681 34.5953 60.0361 34.513 60.5648 34.513C61.0154 34.513 61.4488 34.578 61.8648 34.708C62.2808 34.8293 62.6361 35.0157 62.9308 35.267L62.4888 36.333C62.2374 36.125 61.9341 35.9603 61.5788 35.839C61.2321 35.7177 60.8984 35.657 60.5778 35.657C60.1531 35.657 59.8368 35.7307 59.6288 35.878C59.4294 36.0253 59.3298 36.2203 59.3298 36.463C59.3298 36.8443 59.5768 37.0783 60.0708 37.165L61.3708 37.412C61.9341 37.516 62.3588 37.7067 62.6448 37.984C62.9394 38.2613 63.0868 38.634 63.0868 39.102C63.0868 39.7347 62.8398 40.233 62.3458 40.597C61.8518 40.9523 61.1931 41.13 60.3698 41.13Z" fill="black"/>
<path d="M136.489 41V33.226H133.343V31.835H141.299V33.226H138.153V41H136.489ZM143.274 41.13C142.815 41.13 142.403 41.0433 142.039 40.87C141.684 40.688 141.402 40.4453 141.194 40.142C140.995 39.8387 140.895 39.4963 140.895 39.115C140.895 38.647 141.017 38.2787 141.259 38.01C141.502 37.7327 141.896 37.5333 142.442 37.412C142.988 37.2907 143.721 37.23 144.639 37.23H145.094V36.957C145.094 36.5237 144.999 36.2117 144.808 36.021C144.618 35.8303 144.297 35.735 143.846 35.735C143.491 35.735 143.127 35.7913 142.754 35.904C142.382 36.008 142.005 36.1727 141.623 36.398L141.155 35.293C141.381 35.137 141.645 35.0027 141.948 34.89C142.26 34.7687 142.585 34.6777 142.923 34.617C143.27 34.5477 143.595 34.513 143.898 34.513C144.826 34.513 145.515 34.7297 145.965 35.163C146.416 35.5877 146.641 36.2507 146.641 37.152V41H145.12V39.986C144.973 40.3413 144.739 40.623 144.418 40.831C144.098 41.0303 143.716 41.13 143.274 41.13ZM143.612 40.012C144.037 40.012 144.388 39.8647 144.665 39.57C144.951 39.2753 145.094 38.9027 145.094 38.452V38.166H144.652C143.838 38.166 143.27 38.231 142.949 38.361C142.637 38.4823 142.481 38.7077 142.481 39.037C142.481 39.323 142.581 39.557 142.78 39.739C142.98 39.921 143.257 40.012 143.612 40.012ZM151.957 41.13C151.489 41.13 151.068 41.026 150.696 40.818C150.332 40.61 150.059 40.3283 149.877 39.973V41H148.291V31.835H149.916V35.579C150.106 35.2583 150.379 35.0027 150.735 34.812C151.099 34.6127 151.506 34.513 151.957 34.513C152.52 34.513 153.01 34.6473 153.426 34.916C153.842 35.1847 154.167 35.566 154.401 36.06C154.635 36.5453 154.752 37.1303 154.752 37.815C154.752 38.491 154.635 39.0803 154.401 39.583C154.167 40.077 153.837 40.4583 153.413 40.727C152.997 40.9957 152.511 41.13 151.957 41.13ZM151.502 39.895C151.987 39.895 152.377 39.7217 152.672 39.375C152.966 39.0197 153.114 38.4997 153.114 37.815C153.114 37.1217 152.966 36.606 152.672 36.268C152.377 35.9213 151.987 35.748 151.502 35.748C151.016 35.748 150.626 35.9213 150.332 36.268C150.037 36.606 149.89 37.1217 149.89 37.815C149.89 38.4997 150.037 39.0197 150.332 39.375C150.626 39.7217 151.016 39.895 151.502 39.895ZM158.296 41.13C157.542 41.13 156.983 40.9263 156.619 40.519C156.263 40.103 156.086 39.4963 156.086 38.699V31.835H157.711V38.621C157.711 39.401 158.04 39.791 158.699 39.791C158.794 39.791 158.889 39.7867 158.985 39.778C159.08 39.7693 159.171 39.752 159.258 39.726L159.232 41.013C158.92 41.091 158.608 41.13 158.296 41.13ZM163.307 41.13C162.587 41.13 161.968 40.9957 161.448 40.727C160.928 40.4583 160.525 40.077 160.239 39.583C159.961 39.089 159.823 38.504 159.823 37.828C159.823 37.1693 159.957 36.593 160.226 36.099C160.503 35.605 160.88 35.2193 161.357 34.942C161.842 34.656 162.392 34.513 163.008 34.513C163.909 34.513 164.62 34.799 165.14 35.371C165.668 35.943 165.933 36.723 165.933 37.711V38.192H161.383C161.504 39.3273 162.154 39.895 163.333 39.895C163.688 39.895 164.043 39.843 164.399 39.739C164.754 39.6263 165.079 39.453 165.374 39.219L165.829 40.311C165.525 40.5623 165.144 40.7617 164.685 40.909C164.225 41.0563 163.766 41.13 163.307 41.13ZM163.073 35.618C162.596 35.618 162.21 35.7653 161.916 36.06C161.621 36.3547 161.443 36.7533 161.383 37.256H164.581C164.546 36.7273 164.399 36.3243 164.139 36.047C163.887 35.761 163.532 35.618 163.073 35.618ZM169.547 41.13C169.009 41.13 168.507 41.065 168.039 40.935C167.571 40.805 167.181 40.6187 166.869 40.376L167.285 39.31C167.605 39.5267 167.965 39.6957 168.364 39.817C168.762 39.9297 169.161 39.986 169.56 39.986C169.976 39.986 170.283 39.9167 170.483 39.778C170.691 39.6307 170.795 39.44 170.795 39.206C170.795 38.842 170.526 38.608 169.989 38.504L168.689 38.257C167.588 38.049 167.038 37.477 167.038 36.541C167.038 36.125 167.15 35.7653 167.376 35.462C167.61 35.1587 167.93 34.9247 168.338 34.76C168.745 34.5953 169.213 34.513 169.742 34.513C170.192 34.513 170.626 34.578 171.042 34.708C171.458 34.8293 171.813 35.0157 172.108 35.267L171.666 36.333C171.414 36.125 171.111 35.9603 170.756 35.839C170.409 35.7177 170.075 35.657 169.755 35.657C169.33 35.657 169.014 35.7307 168.806 35.878C168.606 36.0253 168.507 36.2203 168.507 36.463C168.507 36.8443 168.754 37.0783 169.248 37.165L170.548 37.412C171.111 37.516 171.536 37.7067 171.822 37.984C172.116 38.2613 172.264 38.634 172.264 39.102C172.264 39.7347 172.017 40.233 171.523 40.597C171.029 40.9523 170.37 41.13 169.547 41.13Z" fill="black"/>
<path d="M228.998 41.117L228.881 39.752L229.804 39.7C230.576 39.648 230.961 39.2233 230.961 38.426V31.835H232.625V38.413C232.625 40.0597 231.772 40.9437 230.064 41.065L228.998 41.117ZM237.376 41.13C236.718 41.13 236.146 40.9957 235.66 40.727C235.175 40.4583 234.798 40.077 234.529 39.583C234.261 39.0803 234.126 38.491 234.126 37.815C234.126 37.139 234.261 36.554 234.529 36.06C234.798 35.566 235.175 35.1847 235.66 34.916C236.146 34.6473 236.718 34.513 237.376 34.513C238.035 34.513 238.607 34.6473 239.092 34.916C239.578 35.1847 239.955 35.566 240.223 36.06C240.492 36.554 240.626 37.139 240.626 37.815C240.626 38.491 240.492 39.0803 240.223 39.583C239.955 40.077 239.578 40.4583 239.092 40.727C238.607 40.9957 238.035 41.13 237.376 41.13ZM237.376 39.895C237.862 39.895 238.252 39.7217 238.546 39.375C238.841 39.0197 238.988 38.4997 238.988 37.815C238.988 37.1217 238.841 36.606 238.546 36.268C238.252 35.9213 237.862 35.748 237.376 35.748C236.891 35.748 236.501 35.9213 236.206 36.268C235.912 36.606 235.764 37.1217 235.764 37.815C235.764 38.4997 235.912 39.0197 236.206 39.375C236.501 39.7217 236.891 39.895 237.376 39.895ZM241.864 33.278V31.692H243.684V33.278H241.864ZM241.968 41V34.643H243.593V41H241.968ZM245.281 41V34.643H246.867V35.631C247.084 35.267 247.374 34.9897 247.738 34.799C248.111 34.6083 248.527 34.513 248.986 34.513C250.485 34.513 251.235 35.384 251.235 37.126V41H249.61V37.204C249.61 36.71 249.515 36.3503 249.324 36.125C249.142 35.8997 248.856 35.787 248.466 35.787C247.989 35.787 247.608 35.9387 247.322 36.242C247.045 36.5367 246.906 36.931 246.906 37.425V41H245.281ZM258.755 41V33.226H255.609V31.835H263.565V33.226H260.419V41H258.755ZM265.541 41.13C265.082 41.13 264.67 41.0433 264.306 40.87C263.951 40.688 263.669 40.4453 263.461 40.142C263.262 39.8387 263.162 39.4963 263.162 39.115C263.162 38.647 263.283 38.2787 263.526 38.01C263.769 37.7327 264.163 37.5333 264.709 37.412C265.255 37.2907 265.987 37.23 266.906 37.23H267.361V36.957C267.361 36.5237 267.266 36.2117 267.075 36.021C266.884 35.8303 266.564 35.735 266.113 35.735C265.758 35.735 265.394 35.7913 265.021 35.904C264.648 36.008 264.271 36.1727 263.89 36.398L263.422 35.293C263.647 35.137 263.912 35.0027 264.215 34.89C264.527 34.7687 264.852 34.6777 265.19 34.617C265.537 34.5477 265.862 34.513 266.165 34.513C267.092 34.513 267.781 34.7297 268.232 35.163C268.683 35.5877 268.908 36.2507 268.908 37.152V41H267.387V39.986C267.24 40.3413 267.006 40.623 266.685 40.831C266.364 41.0303 265.983 41.13 265.541 41.13ZM265.879 40.012C266.304 40.012 266.655 39.8647 266.932 39.57C267.218 39.2753 267.361 38.9027 267.361 38.452V38.166H266.919C266.104 38.166 265.537 38.231 265.216 38.361C264.904 38.4823 264.748 38.7077 264.748 39.037C264.748 39.323 264.848 39.557 265.047 39.739C265.246 39.921 265.524 40.012 265.879 40.012ZM274.223 41.13C273.755 41.13 273.335 41.026 272.962 40.818C272.598 40.61 272.325 40.3283 272.143 39.973V41H270.557V31.835H272.182V35.579C272.373 35.2583 272.646 35.0027 273.001 34.812C273.365 34.6127 273.773 34.513 274.223 34.513C274.787 34.513 275.276 34.6473 275.692 34.916C276.108 35.1847 276.433 35.566 276.667 36.06C276.901 36.5453 277.018 37.1303 277.018 37.815C277.018 38.491 276.901 39.0803 276.667 39.583C276.433 40.077 276.104 40.4583 275.679 40.727C275.263 40.9957 274.778 41.13 274.223 41.13ZM273.768 39.895C274.254 39.895 274.644 39.7217 274.938 39.375C275.233 39.0197 275.38 38.4997 275.38 37.815C275.38 37.1217 275.233 36.606 274.938 36.268C274.644 35.9213 274.254 35.748 273.768 35.748C273.283 35.748 272.893 35.9213 272.598 36.268C272.304 36.606 272.156 37.1217 272.156 37.815C272.156 38.4997 272.304 39.0197 272.598 39.375C272.893 39.7217 273.283 39.895 273.768 39.895ZM280.562 41.13C279.808 41.13 279.249 40.9263 278.885 40.519C278.53 40.103 278.352 39.4963 278.352 38.699V31.835H279.977V38.621C279.977 39.401 280.307 39.791 280.965 39.791C281.061 39.791 281.156 39.7867 281.251 39.778C281.347 39.7693 281.438 39.752 281.524 39.726L281.498 41.013C281.186 41.091 280.874 41.13 280.562 41.13ZM285.573 41.13C284.854 41.13 284.234 40.9957 283.714 40.727C283.194 40.4583 282.791 40.077 282.505 39.583C282.228 39.089 282.089 38.504 282.089 37.828C282.089 37.1693 282.224 36.593 282.492 36.099C282.77 35.605 283.147 35.2193 283.623 34.942C284.109 34.656 284.659 34.513 285.274 34.513C286.176 34.513 286.886 34.799 287.406 35.371C287.935 35.943 288.199 36.723 288.199 37.711V38.192H283.649C283.771 39.3273 284.421 39.895 285.599 39.895C285.955 39.895 286.31 39.843 286.665 39.739C287.021 39.6263 287.346 39.453 287.64 39.219L288.095 40.311C287.792 40.5623 287.411 40.7617 286.951 40.909C286.492 41.0563 286.033 41.13 285.573 41.13ZM285.339 35.618C284.863 35.618 284.477 35.7653 284.182 36.06C283.888 36.3547 283.71 36.7533 283.649 37.256H286.847C286.813 36.7273 286.665 36.3243 286.405 36.047C286.154 35.761 285.799 35.618 285.339 35.618ZM291.813 41.13C291.276 41.13 290.773 41.065 290.305 40.935C289.837 40.805 289.447 40.6187 289.135 40.376L289.551 39.31C289.872 39.5267 290.231 39.6957 290.63 39.817C291.029 39.9297 291.427 39.986 291.826 39.986C292.242 39.986 292.55 39.9167 292.749 39.778C292.957 39.6307 293.061 39.44 293.061 39.206C293.061 38.842 292.792 38.608 292.255 38.504L290.955 38.257C289.854 38.049 289.304 37.477 289.304 36.541C289.304 36.125 289.417 35.7653 289.642 35.462C289.876 35.1587 290.197 34.9247 290.604 34.76C291.011 34.5953 291.479 34.513 292.008 34.513C292.459 34.513 292.892 34.578 293.308 34.708C293.724 34.8293 294.079 35.0157 294.374 35.267L293.932 36.333C293.681 36.125 293.377 35.9603 293.022 35.839C292.675 35.7177 292.342 35.657 292.021 35.657C291.596 35.657 291.28 35.7307 291.072 35.878C290.873 36.0253 290.773 36.2203 290.773 36.463C290.773 36.8443 291.02 37.0783 291.514 37.165L292.814 37.412C293.377 37.516 293.802 37.7067 294.088 37.984C294.383 38.2613 294.53 38.634 294.53 39.102C294.53 39.7347 294.283 40.233 293.789 40.597C293.295 40.9523 292.636 41.13 291.813 41.13Z" fill="black"/>
<path d="M541.094 41L537.012 31.835H538.793L541.822 38.868L544.851 31.835H546.567L542.485 41H541.094ZM547.164 33.278V31.692H548.984V33.278H547.164ZM547.268 41V34.643H548.893V41H547.268ZM553.714 41.13C552.995 41.13 552.375 40.9957 551.855 40.727C551.335 40.4583 550.932 40.077 550.646 39.583C550.369 39.089 550.23 38.504 550.23 37.828C550.23 37.1693 550.365 36.593 550.633 36.099C550.911 35.605 551.288 35.2193 551.764 34.942C552.25 34.656 552.8 34.513 553.415 34.513C554.317 34.513 555.027 34.799 555.547 35.371C556.076 35.943 556.34 36.723 556.34 37.711V38.192H551.79C551.912 39.3273 552.562 39.895 553.74 39.895C554.096 39.895 554.451 39.843 554.806 39.739C555.162 39.6263 555.487 39.453 555.781 39.219L556.236 40.311C555.933 40.5623 555.552 40.7617 555.092 40.909C554.633 41.0563 554.174 41.13 553.714 41.13ZM553.48 35.618C553.004 35.618 552.618 35.7653 552.323 36.06C552.029 36.3547 551.851 36.7533 551.79 37.256H554.988C554.954 36.7273 554.806 36.3243 554.546 36.047C554.295 35.761 553.94 35.618 553.48 35.618ZM559.281 41L556.772 34.643H558.436L560.061 39.115L561.699 34.643H562.843L564.481 39.141L566.106 34.643H567.679L565.183 41H563.766L562.219 36.905L560.698 41H559.281ZM568.609 43.34V34.643H570.195V35.657C570.377 35.3103 570.65 35.033 571.014 34.825C571.386 34.617 571.807 34.513 572.275 34.513C572.829 34.513 573.315 34.6473 573.731 34.916C574.155 35.1847 574.485 35.566 574.719 36.06C574.953 36.5453 575.07 37.1303 575.07 37.815C575.07 38.491 574.953 39.0803 574.719 39.583C574.485 40.077 574.16 40.4583 573.744 40.727C573.328 40.9957 572.838 41.13 572.275 41.13C571.824 41.13 571.417 41.0347 571.053 40.844C570.697 40.6447 570.424 40.3803 570.234 40.051V43.34H568.609ZM571.82 39.895C572.305 39.895 572.695 39.7217 572.99 39.375C573.284 39.0197 573.432 38.4997 573.432 37.815C573.432 37.1217 573.284 36.606 572.99 36.268C572.695 35.9213 572.305 35.748 571.82 35.748C571.334 35.748 570.944 35.9213 570.65 36.268C570.355 36.606 570.208 37.1217 570.208 37.815C570.208 38.4997 570.355 39.0197 570.65 39.375C570.944 39.7217 571.334 39.895 571.82 39.895ZM579.303 41.13C578.644 41.13 578.072 40.9957 577.587 40.727C577.101 40.4583 576.724 40.077 576.456 39.583C576.187 39.0803 576.053 38.491 576.053 37.815C576.053 37.139 576.187 36.554 576.456 36.06C576.724 35.566 577.101 35.1847 577.587 34.916C578.072 34.6473 578.644 34.513 579.303 34.513C579.961 34.513 580.533 34.6473 581.019 34.916C581.504 35.1847 581.881 35.566 582.15 36.06C582.418 36.554 582.553 37.139 582.553 37.815C582.553 38.491 582.418 39.0803 582.15 39.583C581.881 40.077 581.504 40.4583 581.019 40.727C580.533 40.9957 579.961 41.13 579.303 41.13ZM579.303 39.895C579.788 39.895 580.178 39.7217 580.473 39.375C580.767 39.0197 580.915 38.4997 580.915 37.815C580.915 37.1217 580.767 36.606 580.473 36.268C580.178 35.9213 579.788 35.748 579.303 35.748C578.817 35.748 578.427 35.9213 578.133 36.268C577.838 36.606 577.691 37.1217 577.691 37.815C577.691 38.4997 577.838 39.0197 578.133 39.375C578.427 39.7217 578.817 39.895 579.303 39.895ZM583.894 41V34.643H585.48V35.761C585.792 35.007 586.459 34.591 587.482 34.513L587.976 34.474L588.08 35.852L587.144 35.943C586.078 36.047 585.545 36.593 585.545 37.581V41H583.894ZM592.265 41.13C590.583 41.13 589.743 40.298 589.743 38.634V35.865H588.521V34.643H589.743V32.745H591.368V34.643H593.292V35.865H591.368V38.543C591.368 38.959 591.459 39.271 591.641 39.479C591.823 39.687 592.117 39.791 592.525 39.791C592.646 39.791 592.772 39.778 592.902 39.752C593.032 39.7173 593.166 39.6827 593.305 39.648L593.552 40.844C593.396 40.9307 593.196 41 592.954 41.052C592.72 41.104 592.49 41.13 592.265 41.13ZM596.669 41.13C596.132 41.13 595.629 41.065 595.161 40.935C594.693 40.805 594.303 40.6187 593.991 40.376L594.407 39.31C594.728 39.5267 595.087 39.6957 595.486 39.817C595.885 39.9297 596.283 39.986 596.682 39.986C597.098 39.986 597.406 39.9167 597.605 39.778C597.813 39.6307 597.917 39.44 597.917 39.206C597.917 38.842 597.648 38.608 597.111 38.504L595.811 38.257C594.71 38.049 594.16 37.477 594.16 36.541C594.16 36.125 594.273 35.7653 594.498 35.462C594.732 35.1587 595.053 34.9247 595.46 34.76C595.867 34.5953 596.335 34.513 596.864 34.513C597.315 34.513 597.748 34.578 598.164 34.708C598.58 34.8293 598.935 35.0157 599.23 35.267L598.788 36.333C598.537 36.125 598.233 35.9603 597.878 35.839C597.531 35.7177 597.198 35.657 596.877 35.657C596.452 35.657 596.136 35.7307 595.928 35.878C595.729 36.0253 595.629 36.2203 595.629 36.463C595.629 36.8443 595.876 37.0783 596.37 37.165L597.67 37.412C598.233 37.516 598.658 37.7067 598.944 37.984C599.239 38.2613 599.386 38.634 599.386 39.102C599.386 39.7347 599.139 40.233 598.645 40.597C598.151 40.9523 597.492 41.13 596.669 41.13Z" fill="black"/>
<path d="M726.183 41.13C724.926 41.13 723.964 40.805 723.297 40.155C722.638 39.4963 722.309 38.5257 722.309 37.243V31.835H723.973V37.23C723.973 38.0533 724.159 38.673 724.532 39.089C724.913 39.4963 725.464 39.7 726.183 39.7C727.648 39.7 728.38 38.8767 728.38 37.23V31.835H730.031V37.243C730.031 38.5257 729.706 39.4963 729.056 40.155C728.406 40.805 727.448 41.13 726.183 41.13ZM731.972 41V31.835H733.636V41H731.972Z" fill="black"/>
<path d="M347.281 41V31.835H353.274V33.161H348.945V35.748H353.001V37.074H348.945V41H347.281ZM354.321 33.278V31.692H356.141V33.278H354.321ZM354.425 41V34.643H356.05V41H354.425ZM359.948 41.13C359.194 41.13 358.635 40.9263 358.271 40.519C357.916 40.103 357.738 39.4963 357.738 38.699V31.835H359.363V38.621C359.363 39.401 359.692 39.791 360.351 39.791C360.446 39.791 360.542 39.7867 360.637 39.778C360.732 39.7693 360.823 39.752 360.91 39.726L360.884 41.013C360.572 41.091 360.26 41.13 359.948 41.13ZM364.636 41.13C362.955 41.13 362.114 40.298 362.114 38.634V35.865H360.892V34.643H362.114V32.745H363.739V34.643H365.663V35.865H363.739V38.543C363.739 38.959 363.83 39.271 364.012 39.479C364.194 39.687 364.489 39.791 364.896 39.791C365.018 39.791 365.143 39.778 365.273 39.752C365.403 39.7173 365.538 39.6827 365.676 39.648L365.923 40.844C365.767 40.9307 365.568 41 365.325 41.052C365.091 41.104 364.862 41.13 364.636 41.13ZM369.783 41.13C369.064 41.13 368.444 40.9957 367.924 40.727C367.404 40.4583 367.001 40.077 366.715 39.583C366.438 39.089 366.299 38.504 366.299 37.828C366.299 37.1693 366.434 36.593 366.702 36.099C366.98 35.605 367.357 35.2193 367.833 34.942C368.319 34.656 368.869 34.513 369.484 34.513C370.386 34.513 371.096 34.799 371.616 35.371C372.145 35.943 372.409 36.723 372.409 37.711V38.192H367.859C367.981 39.3273 368.631 39.895 369.809 39.895C370.165 39.895 370.52 39.843 370.875 39.739C371.231 39.6263 371.556 39.453 371.85 39.219L372.305 40.311C372.002 40.5623 371.621 40.7617 371.161 40.909C370.702 41.0563 370.243 41.13 369.783 41.13ZM369.549 35.618C369.073 35.618 368.687 35.7653 368.392 36.06C368.098 36.3547 367.92 36.7533 367.859 37.256H371.057C371.023 36.7273 370.875 36.3243 370.615 36.047C370.364 35.761 370.009 35.618 369.549 35.618ZM373.696 41V34.643H375.282V35.761C375.594 35.007 376.261 34.591 377.284 34.513L377.778 34.474L377.882 35.852L376.946 35.943C375.88 36.047 375.347 36.593 375.347 37.581V41H373.696ZM384.384 41.13C383.924 41.13 383.513 41.0433 383.149 40.87C382.793 40.688 382.512 40.4453 382.304 40.142C382.104 39.8387 382.005 39.4963 382.005 39.115C382.005 38.647 382.126 38.2787 382.369 38.01C382.611 37.7327 383.006 37.5333 383.552 37.412C384.098 37.2907 384.83 37.23 385.749 37.23H386.204V36.957C386.204 36.5237 386.108 36.2117 385.918 36.021C385.727 35.8303 385.406 35.735 384.956 35.735C384.6 35.735 384.236 35.7913 383.864 35.904C383.491 36.008 383.114 36.1727 382.733 36.398L382.265 35.293C382.49 35.137 382.754 35.0027 383.058 34.89C383.37 34.7687 383.695 34.6777 384.033 34.617C384.379 34.5477 384.704 34.513 385.008 34.513C385.935 34.513 386.624 34.7297 387.075 35.163C387.525 35.5877 387.751 36.2507 387.751 37.152V41H386.23V39.986C386.082 40.3413 385.848 40.623 385.528 40.831C385.207 41.0303 384.826 41.13 384.384 41.13ZM384.722 40.012C385.146 40.012 385.497 39.8647 385.775 39.57C386.061 39.2753 386.204 38.9027 386.204 38.452V38.166H385.762C384.947 38.166 384.379 38.231 384.059 38.361C383.747 38.4823 383.591 38.7077 383.591 39.037C383.591 39.323 383.69 39.557 383.89 39.739C384.089 39.921 384.366 40.012 384.722 40.012ZM389.4 41V34.643H390.986V35.631C391.203 35.267 391.493 34.9897 391.857 34.799C392.23 34.6083 392.646 34.513 393.105 34.513C394.605 34.513 395.354 35.384 395.354 37.126V41H393.729V37.204C393.729 36.71 393.634 36.3503 393.443 36.125C393.261 35.8997 392.975 35.787 392.585 35.787C392.109 35.787 391.727 35.9387 391.441 36.242C391.164 36.5367 391.025 36.931 391.025 37.425V41H389.4ZM399.449 41.13C398.894 41.13 398.404 40.9957 397.98 40.727C397.564 40.4583 397.239 40.077 397.005 39.583C396.771 39.0803 396.654 38.491 396.654 37.815C396.654 37.1303 396.771 36.5453 397.005 36.06C397.239 35.566 397.564 35.1847 397.98 34.916C398.404 34.6473 398.894 34.513 399.449 34.513C399.899 34.513 400.307 34.6127 400.671 34.812C401.035 35.0113 401.308 35.2757 401.49 35.605V31.835H403.115V41H401.529V39.947C401.355 40.311 401.082 40.6013 400.71 40.818C400.337 41.026 399.917 41.13 399.449 41.13ZM399.904 39.895C400.389 39.895 400.779 39.7217 401.074 39.375C401.368 39.0197 401.516 38.4997 401.516 37.815C401.516 37.1217 401.368 36.606 401.074 36.268C400.779 35.9213 400.389 35.748 399.904 35.748C399.418 35.748 399.028 35.9213 398.734 36.268C398.439 36.606 398.292 37.1217 398.292 37.815C398.292 38.4997 398.439 39.0197 398.734 39.375C399.028 39.7217 399.418 39.895 399.904 39.895ZM411.618 41.13C410.899 41.13 410.232 41.039 409.616 40.857C409.001 40.6663 408.481 40.4107 408.056 40.09L408.563 38.777C408.988 39.0803 409.452 39.3143 409.954 39.479C410.466 39.6437 411.02 39.726 411.618 39.726C412.303 39.726 412.801 39.6133 413.113 39.388C413.425 39.154 413.581 38.855 413.581 38.491C413.581 38.1877 413.469 37.9493 413.243 37.776C413.027 37.6027 412.65 37.4597 412.112 37.347L410.682 37.048C409.053 36.7013 408.238 35.865 408.238 34.539C408.238 33.967 408.39 33.4687 408.693 33.044C408.997 32.6193 409.417 32.29 409.954 32.056C410.492 31.822 411.111 31.705 411.813 31.705C412.437 31.705 413.022 31.8003 413.568 31.991C414.114 32.173 414.569 32.433 414.933 32.771L414.426 34.019C413.707 33.4123 412.832 33.109 411.8 33.109C411.202 33.109 410.734 33.2347 410.396 33.486C410.058 33.7373 409.889 34.0667 409.889 34.474C409.889 34.786 409.993 35.0373 410.201 35.228C410.409 35.41 410.765 35.553 411.267 35.657L412.684 35.956C413.542 36.138 414.179 36.424 414.595 36.814C415.02 37.204 415.232 37.724 415.232 38.374C415.232 38.92 415.085 39.401 414.79 39.817C414.496 40.233 414.075 40.558 413.529 40.792C412.992 41.0173 412.355 41.13 411.618 41.13ZM419.404 41.13C418.745 41.13 418.173 40.9957 417.688 40.727C417.202 40.4583 416.825 40.077 416.557 39.583C416.288 39.0803 416.154 38.491 416.154 37.815C416.154 37.139 416.288 36.554 416.557 36.06C416.825 35.566 417.202 35.1847 417.688 34.916C418.173 34.6473 418.745 34.513 419.404 34.513C420.062 34.513 420.634 34.6473 421.12 34.916C421.605 35.1847 421.982 35.566 422.251 36.06C422.519 36.554 422.654 37.139 422.654 37.815C422.654 38.491 422.519 39.0803 422.251 39.583C421.982 40.077 421.605 40.4583 421.12 40.727C420.634 40.9957 420.062 41.13 419.404 41.13ZM419.404 39.895C419.889 39.895 420.279 39.7217 420.574 39.375C420.868 39.0197 421.016 38.4997 421.016 37.815C421.016 37.1217 420.868 36.606 420.574 36.268C420.279 35.9213 419.889 35.748 419.404 35.748C418.918 35.748 418.528 35.9213 418.234 36.268C417.939 36.606 417.792 37.1217 417.792 37.815C417.792 38.4997 417.939 39.0197 418.234 39.375C418.528 39.7217 418.918 39.895 419.404 39.895ZM423.995 41V34.643H425.581V35.761C425.893 35.007 426.56 34.591 427.583 34.513L428.077 34.474L428.181 35.852L427.245 35.943C426.179 36.047 425.646 36.593 425.646 37.581V41H423.995ZM432.366 41.13C430.685 41.13 429.844 40.298 429.844 38.634V35.865H428.622V34.643H429.844V32.745H431.469V34.643H433.393V35.865H431.469V38.543C431.469 38.959 431.56 39.271 431.742 39.479C431.924 39.687 432.219 39.791 432.626 39.791C432.747 39.791 432.873 39.778 433.003 39.752C433.133 39.7173 433.267 39.6827 433.406 39.648L433.653 40.844C433.497 40.9307 433.298 41 433.055 41.052C432.821 41.104 432.591 41.13 432.366 41.13ZM440.313 41V33.226H437.167V31.835H445.123V33.226H441.977V41H440.313ZM446.021 41V31.835H447.646V35.566C447.863 35.2193 448.153 34.9593 448.517 34.786C448.881 34.604 449.284 34.513 449.726 34.513C451.226 34.513 451.975 35.384 451.975 37.126V41H450.35V37.204C450.35 36.71 450.255 36.3503 450.064 36.125C449.882 35.8997 449.596 35.787 449.206 35.787C448.73 35.787 448.348 35.9387 448.062 36.242C447.785 36.5367 447.646 36.931 447.646 37.425V41H446.021ZM453.626 41V34.643H455.212V35.761C455.524 35.007 456.191 34.591 457.214 34.513L457.708 34.474L457.812 35.852L456.876 35.943C455.81 36.047 455.277 36.593 455.277 37.581V41H453.626ZM461.748 41.13C461.029 41.13 460.409 40.9957 459.889 40.727C459.369 40.4583 458.966 40.077 458.68 39.583C458.403 39.089 458.264 38.504 458.264 37.828C458.264 37.1693 458.398 36.593 458.667 36.099C458.944 35.605 459.321 35.2193 459.798 34.942C460.283 34.656 460.834 34.513 461.449 34.513C462.35 34.513 463.061 34.799 463.581 35.371C464.11 35.943 464.374 36.723 464.374 37.711V38.192H459.824C459.945 39.3273 460.595 39.895 461.774 39.895C462.129 39.895 462.485 39.843 462.84 39.739C463.195 39.6263 463.52 39.453 463.815 39.219L464.27 40.311C463.967 40.5623 463.585 40.7617 463.126 40.909C462.667 41.0563 462.207 41.13 461.748 41.13ZM461.514 35.618C461.037 35.618 460.652 35.7653 460.357 36.06C460.062 36.3547 459.885 36.7533 459.824 37.256H463.022C462.987 36.7273 462.84 36.3243 462.58 36.047C462.329 35.761 461.973 35.618 461.514 35.618ZM467.754 41.13C467.295 41.13 466.883 41.0433 466.519 40.87C466.164 40.688 465.882 40.4453 465.674 40.142C465.475 39.8387 465.375 39.4963 465.375 39.115C465.375 38.647 465.496 38.2787 465.739 38.01C465.982 37.7327 466.376 37.5333 466.922 37.412C467.468 37.2907 468.2 37.23 469.119 37.23H469.574V36.957C469.574 36.5237 469.479 36.2117 469.288 36.021C469.097 35.8303 468.777 35.735 468.326 35.735C467.971 35.735 467.607 35.7913 467.234 35.904C466.861 36.008 466.484 36.1727 466.103 36.398L465.635 35.293C465.86 35.137 466.125 35.0027 466.428 34.89C466.74 34.7687 467.065 34.6777 467.403 34.617C467.75 34.5477 468.075 34.513 468.378 34.513C469.305 34.513 469.994 34.7297 470.445 35.163C470.896 35.5877 471.121 36.2507 471.121 37.152V41H469.6V39.986C469.453 40.3413 469.219 40.623 468.898 40.831C468.577 41.0303 468.196 41.13 467.754 41.13ZM468.092 40.012C468.517 40.012 468.868 39.8647 469.145 39.57C469.431 39.2753 469.574 38.9027 469.574 38.452V38.166H469.132C468.317 38.166 467.75 38.231 467.429 38.361C467.117 38.4823 466.961 38.7077 466.961 39.037C466.961 39.323 467.061 39.557 467.26 39.739C467.459 39.921 467.737 40.012 468.092 40.012ZM475.214 41.13C474.66 41.13 474.17 40.9957 473.745 40.727C473.329 40.4583 473.004 40.077 472.77 39.583C472.536 39.0803 472.419 38.491 472.419 37.815C472.419 37.1303 472.536 36.5453 472.77 36.06C473.004 35.566 473.329 35.1847 473.745 34.916C474.17 34.6473 474.66 34.513 475.214 34.513C475.665 34.513 476.072 34.6127 476.436 34.812C476.8 35.0113 477.073 35.2757 477.255 35.605V31.835H478.88V41H477.294V39.947C477.121 40.311 476.848 40.6013 476.475 40.818C476.103 41.026 475.682 41.13 475.214 41.13ZM475.669 39.895C476.155 39.895 476.545 39.7217 476.839 39.375C477.134 39.0197 477.281 38.4997 477.281 37.815C477.281 37.1217 477.134 36.606 476.839 36.268C476.545 35.9213 476.155 35.748 475.669 35.748C475.184 35.748 474.794 35.9213 474.499 36.268C474.205 36.606 474.057 37.1217 474.057 37.815C474.057 38.4997 474.205 39.0197 474.499 39.375C474.794 39.7217 475.184 39.895 475.669 39.895Z" fill="black"/>
<path d="M380.58 330V322.226H377.434V320.835H385.39V322.226H382.244V330H380.58ZM385.273 330V323.643H386.859V324.761C387.171 324.007 387.838 323.591 388.861 323.513L389.355 323.474L389.459 324.852L388.523 324.943C387.457 325.047 386.924 325.593 386.924 326.581V330H385.273ZM393.395 330.13C392.676 330.13 392.056 329.996 391.536 329.727C391.016 329.458 390.613 329.077 390.327 328.583C390.05 328.089 389.911 327.504 389.911 326.828C389.911 326.169 390.045 325.593 390.314 325.099C390.591 324.605 390.968 324.219 391.445 323.942C391.93 323.656 392.481 323.513 393.096 323.513C393.997 323.513 394.708 323.799 395.228 324.371C395.757 324.943 396.021 325.723 396.021 326.711V327.192H391.471C391.592 328.327 392.242 328.895 393.421 328.895C393.776 328.895 394.132 328.843 394.487 328.739C394.842 328.626 395.167 328.453 395.462 328.219L395.917 329.311C395.614 329.562 395.232 329.762 394.773 329.909C394.314 330.056 393.854 330.13 393.395 330.13ZM393.161 324.618C392.684 324.618 392.299 324.765 392.004 325.06C391.709 325.355 391.532 325.753 391.471 326.256H394.669C394.634 325.727 394.487 325.324 394.227 325.047C393.976 324.761 393.62 324.618 393.161 324.618ZM400.441 330.13C399.722 330.13 399.102 329.996 398.582 329.727C398.062 329.458 397.659 329.077 397.373 328.583C397.096 328.089 396.957 327.504 396.957 326.828C396.957 326.169 397.091 325.593 397.36 325.099C397.637 324.605 398.014 324.219 398.491 323.942C398.976 323.656 399.527 323.513 400.142 323.513C401.043 323.513 401.754 323.799 402.274 324.371C402.803 324.943 403.067 325.723 403.067 326.711V327.192H398.517C398.638 328.327 399.288 328.895 400.467 328.895C400.822 328.895 401.178 328.843 401.533 328.739C401.888 328.626 402.213 328.453 402.508 328.219L402.963 329.311C402.66 329.562 402.278 329.762 401.819 329.909C401.36 330.056 400.9 330.13 400.441 330.13ZM400.207 324.618C399.73 324.618 399.345 324.765 399.05 325.06C398.755 325.355 398.578 325.753 398.517 326.256H401.715C401.68 325.727 401.533 325.324 401.273 325.047C401.022 324.761 400.666 324.618 400.207 324.618ZM410.224 330V322.226H407.078V320.835H415.034V322.226H411.888V330H410.224ZM415.932 330V320.835H417.557V324.566C417.774 324.219 418.064 323.959 418.428 323.786C418.792 323.604 419.195 323.513 419.637 323.513C421.136 323.513 421.886 324.384 421.886 326.126V330H420.261V326.204C420.261 325.71 420.166 325.35 419.975 325.125C419.793 324.9 419.507 324.787 419.117 324.787C418.64 324.787 418.259 324.939 417.973 325.242C417.696 325.537 417.557 325.931 417.557 326.425V330H415.932ZM423.536 330V323.643H425.122V324.761C425.434 324.007 426.102 323.591 427.124 323.513L427.618 323.474L427.722 324.852L426.786 324.943C425.72 325.047 425.187 325.593 425.187 326.581V330H423.536ZM431.659 330.13C430.939 330.13 430.32 329.996 429.8 329.727C429.28 329.458 428.877 329.077 428.591 328.583C428.313 328.089 428.175 327.504 428.175 326.828C428.175 326.169 428.309 325.593 428.578 325.099C428.855 324.605 429.232 324.219 429.709 323.942C430.194 323.656 430.744 323.513 431.36 323.513C432.261 323.513 432.972 323.799 433.492 324.371C434.02 324.943 434.285 325.723 434.285 326.711V327.192H429.735C429.856 328.327 430.506 328.895 431.685 328.895C432.04 328.895 432.395 328.843 432.751 328.739C433.106 328.626 433.431 328.453 433.726 328.219L434.181 329.311C433.877 329.562 433.496 329.762 433.037 329.909C432.577 330.056 432.118 330.13 431.659 330.13ZM431.425 324.618C430.948 324.618 430.562 324.765 430.268 325.06C429.973 325.355 429.795 325.753 429.735 326.256H432.933C432.898 325.727 432.751 325.324 432.491 325.047C432.239 324.761 431.884 324.618 431.425 324.618ZM437.665 330.13C437.205 330.13 436.794 330.043 436.43 329.87C436.074 329.688 435.793 329.445 435.585 329.142C435.385 328.839 435.286 328.496 435.286 328.115C435.286 327.647 435.407 327.279 435.65 327.01C435.892 326.733 436.287 326.533 436.833 326.412C437.379 326.291 438.111 326.23 439.03 326.23H439.485V325.957C439.485 325.524 439.389 325.212 439.199 325.021C439.008 324.83 438.687 324.735 438.237 324.735C437.881 324.735 437.517 324.791 437.145 324.904C436.772 325.008 436.395 325.173 436.014 325.398L435.546 324.293C435.771 324.137 436.035 324.003 436.339 323.89C436.651 323.769 436.976 323.678 437.314 323.617C437.66 323.548 437.985 323.513 438.289 323.513C439.216 323.513 439.905 323.73 440.356 324.163C440.806 324.588 441.032 325.251 441.032 326.152V330H439.511V328.986C439.363 329.341 439.129 329.623 438.809 329.831C438.488 330.03 438.107 330.13 437.665 330.13ZM438.003 329.012C438.427 329.012 438.778 328.865 439.056 328.57C439.342 328.275 439.485 327.903 439.485 327.452V327.166H439.043C438.228 327.166 437.66 327.231 437.34 327.361C437.028 327.482 436.872 327.708 436.872 328.037C436.872 328.323 436.971 328.557 437.171 328.739C437.37 328.921 437.647 329.012 438.003 329.012ZM445.125 330.13C444.57 330.13 444.081 329.996 443.656 329.727C443.24 329.458 442.915 329.077 442.681 328.583C442.447 328.08 442.33 327.491 442.33 326.815C442.33 326.13 442.447 325.545 442.681 325.06C442.915 324.566 443.24 324.185 443.656 323.916C444.081 323.647 444.57 323.513 445.125 323.513C445.576 323.513 445.983 323.613 446.347 323.812C446.711 324.011 446.984 324.276 447.166 324.605V320.835H448.791V330H447.205V328.947C447.032 329.311 446.759 329.601 446.386 329.818C446.013 330.026 445.593 330.13 445.125 330.13ZM445.58 328.895C446.065 328.895 446.455 328.722 446.75 328.375C447.045 328.02 447.192 327.5 447.192 326.815C447.192 326.122 447.045 325.606 446.75 325.268C446.455 324.921 446.065 324.748 445.58 324.748C445.095 324.748 444.705 324.921 444.41 325.268C444.115 325.606 443.968 326.122 443.968 326.815C443.968 327.5 444.115 328.02 444.41 328.375C444.705 328.722 445.095 328.895 445.58 328.895Z" fill="black"/>
<rect x="659.5" y="91.5" width="143" height="77" rx="7.5" stroke="#6D18BD"/>
<rect x="667" y="99" width="10" height="2" rx="1" fill="#6D18BD"/>
<rect x="667" y="103" width="17" height="2" rx="1" fill="#F37880"/>
<rect x="667" y="107" width="14" height="2" rx="1" fill="#F37880"/>
<rect x="667" y="111" width="17" height="2" rx="1" fill="#F37880"/>
<rect x="667" y="115" width="14" height="2" rx="1" fill="#F37880"/>
<rect x="667" y="119" width="17" height="2" rx="1" fill="#F37880"/>
<rect x="667" y="123" width="14" height="2" rx="1" fill="#F37880"/>
<rect x="667" y="127" width="17" height="2" rx="1" fill="#F37880"/>
<rect x="667" y="131" width="14" height="2" rx="1" fill="#F37880"/>
<rect x="667" y="135" width="17" height="2" rx="1" fill="#F37880"/>
<rect x="667" y="139" width="14" height="2" rx="1" fill="#F37880"/>
<rect x="667" y="143" width="17" height="2" rx="1" fill="#F37880"/>
<rect x="667" y="147" width="14" height="2" rx="1" fill="#F37880"/>
<rect x="667" y="151" width="17" height="2" rx="1" fill="#F37880"/>
<rect x="667" y="155" width="14" height="2" rx="1" fill="#F37880"/>
<rect x="667" y="159" width="17" height="2" rx="1" fill="#F37880"/>
<rect x="688" y="99" width="10" height="2" rx="1" fill="#6D18BD"/>
<rect x="688" y="103" width="17" height="2" rx="1" fill="#F37880"/>
<rect x="688" y="107" width="14" height="2" rx="1" fill="#F37880"/>
<rect x="688" y="111" width="17" height="2" rx="1" fill="#F37880"/>
<rect x="688" y="115" width="14" height="2" rx="1" fill="#F37880"/>
<rect x="688" y="119" width="17" height="2" rx="1" fill="#F37880"/>
<rect x="688" y="123" width="14" height="2" rx="1" fill="#F37880"/>
<rect x="688" y="127" width="17" height="2" rx="1" fill="#F37880"/>
<rect x="688" y="131" width="14" height="2" rx="1" fill="#F37880"/>
<rect x="688" y="135" width="17" height="2" rx="1" fill="#F37880"/>
<rect x="688" y="139" width="14" height="2" rx="1" fill="#F37880"/>
<rect x="688" y="143" width="17" height="2" rx="1" fill="#F37880"/>
<rect x="688" y="147" width="14" height="2" rx="1" fill="#F37880"/>
<rect x="688" y="151" width="17" height="2" rx="1" fill="#F37880"/>
<rect x="688" y="155" width="14" height="2" rx="1" fill="#F37880"/>
<rect x="688" y="159" width="17" height="2" rx="1" fill="#F37880"/>
<rect x="709" y="99" width="10" height="2" rx="1" fill="#6D18BD"/>
<rect x="709" y="103" width="17" height="2" rx="1" fill="#F37880"/>
<rect x="709" y="107" width="14" height="2" rx="1" fill="#F37880"/>
<rect x="709" y="111" width="17" height="2" rx="1" fill="#F37880"/>
<rect x="709" y="115" width="14" height="2" rx="1" fill="#F37880"/>
<rect x="709" y="119" width="17" height="2" rx="1" fill="#F37880"/>
<rect x="709" y="123" width="14" height="2" rx="1" fill="#F37880"/>
<rect x="709" y="127" width="17" height="2" rx="1" fill="#F37880"/>
<rect x="709" y="131" width="14" height="2" rx="1" fill="#F37880"/>
<rect x="709" y="135" width="17" height="2" rx="1" fill="#F37880"/>
<rect x="709" y="139" width="14" height="2" rx="1" fill="#F37880"/>
<rect x="709" y="143" width="17" height="2" rx="1" fill="#F37880"/>
<rect x="709" y="147" width="14" height="2" rx="1" fill="#F37880"/>
<rect x="709" y="151" width="17" height="2" rx="1" fill="#F37880"/>
<rect x="709" y="155" width="14" height="2" rx="1" fill="#F37880"/>
<rect x="709" y="159" width="17" height="2" rx="1" fill="#F37880"/>
<rect x="730" y="99" width="10" height="2" rx="1" fill="#6D18BD"/>
<rect x="730" y="103" width="17" height="2" rx="1" fill="#F37880"/>
<rect x="730" y="107" width="14" height="2" rx="1" fill="#F37880"/>
<rect x="730" y="111" width="17" height="2" rx="1" fill="#F37880"/>
<rect x="730" y="115" width="14" height="2" rx="1" fill="#F37880"/>
<rect x="730" y="119" width="17" height="2" rx="1" fill="#F37880"/>
<rect x="730" y="123" width="14" height="2" rx="1" fill="#F37880"/>
<rect x="730" y="127" width="17" height="2" rx="1" fill="#F37880"/>
<rect x="730" y="131" width="14" height="2" rx="1" fill="#F37880"/>
<rect x="730" y="135" width="17" height="2" rx="1" fill="#F37880"/>
<rect x="730" y="139" width="14" height="2" rx="1" fill="#F37880"/>
<rect x="730" y="143" width="17" height="2" rx="1" fill="#F37880"/>
<rect x="730" y="147" width="14" height="2" rx="1" fill="#F37880"/>
<rect x="730" y="151" width="17" height="2" rx="1" fill="#F37880"/>
<rect x="730" y="155" width="14" height="2" rx="1" fill="#F37880"/>
<rect x="730" y="159" width="17" height="2" rx="1" fill="#F37880"/>
<rect x="758" y="99" width="10" height="2" rx="1" fill="#6D18BD"/>
<rect x="751" y="103" width="17" height="2" rx="1" fill="#F37880"/>
<rect x="754" y="107" width="14" height="2" rx="1" fill="#F37880"/>
<rect x="751" y="111" width="17" height="2" rx="1" fill="#F37880"/>
<rect x="754" y="115" width="14" height="2" rx="1" fill="#F37880"/>
<rect x="751" y="119" width="17" height="2" rx="1" fill="#F37880"/>
<rect x="754" y="123" width="14" height="2" rx="1" fill="#F37880"/>
<rect x="751" y="127" width="17" height="2" rx="1" fill="#F37880"/>
<rect x="754" y="131" width="14" height="2" rx="1" fill="#F37880"/>
<rect x="751" y="135" width="17" height="2" rx="1" fill="#F37880"/>
<rect x="754" y="139" width="14" height="2" rx="1" fill="#F37880"/>
<rect x="751" y="143" width="17" height="2" rx="1" fill="#F37880"/>
<rect x="754" y="147" width="14" height="2" rx="1" fill="#F37880"/>
<rect x="751" y="151" width="17" height="2" rx="1" fill="#F37880"/>
<rect x="754" y="155" width="14" height="2" rx="1" fill="#F37880"/>
<rect x="751" y="159" width="17" height="2" rx="1" fill="#F37880"/>
<rect x="779" y="99" width="10" height="2" rx="1" fill="#6D18BD"/>
<rect x="772" y="103" width="17" height="2" rx="1" fill="#F37880"/>
<rect x="775" y="107" width="14" height="2" rx="1" fill="#F37880"/>
<rect x="772" y="111" width="17" height="2" rx="1" fill="#F37880"/>
<rect x="775" y="115" width="14" height="2" rx="1" fill="#F37880"/>
<rect x="772" y="119" width="17" height="2" rx="1" fill="#F37880"/>
<rect x="775" y="123" width="14" height="2" rx="1" fill="#F37880"/>
<rect x="772" y="127" width="17" height="2" rx="1" fill="#F37880"/>
<rect x="775" y="131" width="14" height="2" rx="1" fill="#F37880"/>
<rect x="772" y="135" width="17" height="2" rx="1" fill="#F37880"/>
<rect x="775" y="139" width="14" height="2" rx="1" fill="#F37880"/>
<rect x="772" y="143" width="17" height="2" rx="1" fill="#F37880"/>
<rect x="775" y="147" width="14" height="2" rx="1" fill="#F37880"/>
<rect x="772" y="151" width="17" height="2" rx="1" fill="#F37880"/>
<rect x="775" y="155" width="14" height="2" rx="1" fill="#F37880"/>
<rect x="772" y="159" width="17" height="2" rx="1" fill="#F37880"/>
<rect x="793" y="99" width="2" height="62" rx="1" fill="#C7CBDE"/>
<rect x="793" y="121" width="2" height="19" rx="1" fill="#6D18BD"/>
<rect x="659.5" y="193.5" width="143" height="77" rx="7.5" stroke="#6D18BD"/>
<rect x="667" y="201" width="10" height="2" rx="1" fill="#6D18BD"/>
<rect x="667" y="205" width="2" height="2" rx="1" fill="#F37880"/>
<rect x="670" y="205" width="35" height="2" rx="1" fill="#F37880"/>
<rect x="670" y="209" width="2" height="2" rx="1" fill="#F37880"/>
<rect x="673" y="209" width="32" height="2" rx="1" fill="#F37880"/>
<rect x="670" y="213" width="2" height="2" rx="1" fill="#F37880"/>
<rect x="673" y="213" width="32" height="2" rx="1" fill="#F37880"/>
<rect x="673" y="217" width="2" height="2" rx="1" fill="#F37880"/>
<rect x="676" y="217" width="29" height="2" rx="1" fill="#F37880"/>
<rect x="673" y="221" width="2" height="2" rx="1" fill="#F37880"/>
<rect x="676" y="221" width="29" height="2" rx="1" fill="#F37880"/>
<rect x="676" y="225" width="2" height="2" rx="1" fill="#F37880"/>
<rect x="679" y="225" width="26" height="2" rx="1" fill="#F37880"/>
<rect x="676" y="229" width="2" height="2" rx="1" fill="#F37880"/>
<rect x="679" y="229" width="26" height="2" rx="1" fill="#F37880"/>
<rect x="667" y="233" width="2" height="2" rx="1" fill="#F37880"/>
<rect x="670" y="233" width="35" height="2" rx="1" fill="#F37880"/>
<rect x="670" y="237" width="2" height="2" rx="1" fill="#F37880"/>
<rect x="673" y="237" width="32" height="2" rx="1" fill="#F37880"/>
<rect x="670" y="241" width="2" height="2" rx="1" fill="#F37880"/>
<rect x="673" y="241" width="32" height="2" rx="1" fill="#F37880"/>
<rect x="673" y="245" width="2" height="2" rx="1" fill="#F37880"/>
<rect x="676" y="245" width="29" height="2" rx="1" fill="#F37880"/>
<rect x="673" y="249" width="2" height="2" rx="1" fill="#F37880"/>
<rect x="676" y="249" width="29" height="2" rx="1" fill="#F37880"/>
<rect x="676" y="253" width="2" height="2" rx="1" fill="#F37880"/>
<rect x="679" y="253" width="26" height="2" rx="1" fill="#F37880"/>
<rect x="676" y="257" width="2" height="2" rx="1" fill="#F37880"/>
<rect x="679" y="257" width="26" height="2" rx="1" fill="#F37880"/>
<rect x="676" y="261" width="2" height="2" rx="1" fill="#F37880"/>
<rect x="679" y="261" width="26" height="2" rx="1" fill="#F37880"/>
<rect x="709" y="201" width="10" height="2" rx="1" fill="#6D18BD"/>
<rect x="709" y="205" width="17" height="2" rx="1" fill="#F37880"/>
<rect x="709" y="209" width="14" height="2" rx="1" fill="#F37880"/>
<rect x="709" y="213" width="17" height="2" rx="1" fill="#F37880"/>
<rect x="709" y="217" width="14" height="2" rx="1" fill="#F37880"/>
<rect x="709" y="221" width="17" height="2" rx="1" fill="#F37880"/>
<rect x="709" y="225" width="14" height="2" rx="1" fill="#F37880"/>
<rect x="709" y="229" width="17" height="2" rx="1" fill="#F37880"/>
<rect x="709" y="233" width="14" height="2" rx="1" fill="#F37880"/>
<rect x="709" y="237" width="17" height="2" rx="1" fill="#F37880"/>
<rect x="709" y="241" width="14" height="2" rx="1" fill="#F37880"/>
<rect x="709" y="245" width="17" height="2" rx="1" fill="#F37880"/>
<rect x="709" y="249" width="14" height="2" rx="1" fill="#F37880"/>
<rect x="709" y="253" width="17" height="2" rx="1" fill="#F37880"/>
<rect x="709" y="257" width="14" height="2" rx="1" fill="#F37880"/>
<rect x="709" y="261" width="17" height="2" rx="1" fill="#F37880"/>
<rect x="730" y="201" width="10" height="2" rx="1" fill="#6D18BD"/>
<rect x="730" y="205" width="17" height="2" rx="1" fill="#F37880"/>
<rect x="730" y="209" width="14" height="2" rx="1" fill="#F37880"/>
<rect x="730" y="213" width="17" height="2" rx="1" fill="#F37880"/>
<rect x="730" y="217" width="14" height="2" rx="1" fill="#F37880"/>
<rect x="730" y="221" width="17" height="2" rx="1" fill="#F37880"/>
<rect x="730" y="225" width="14" height="2" rx="1" fill="#F37880"/>
<rect x="730" y="229" width="17" height="2" rx="1" fill="#F37880"/>
<rect x="730" y="233" width="14" height="2" rx="1" fill="#F37880"/>
<rect x="730" y="237" width="17" height="2" rx="1" fill="#F37880"/>
<rect x="730" y="241" width="14" height="2" rx="1" fill="#F37880"/>
<rect x="730" y="245" width="17" height="2" rx="1" fill="#F37880"/>
<rect x="730" y="249" width="14" height="2" rx="1" fill="#F37880"/>
<rect x="730" y="253" width="17" height="2" rx="1" fill="#F37880"/>
<rect x="730" y="257" width="14" height="2" rx="1" fill="#F37880"/>
<rect x="730" y="261" width="17" height="2" rx="1" fill="#F37880"/>
<rect x="758" y="201" width="10" height="2" rx="1" fill="#6D18BD"/>
<rect x="751" y="205" width="17" height="2" rx="1" fill="#F37880"/>
<rect x="754" y="209" width="14" height="2" rx="1" fill="#F37880"/>
<rect x="751" y="213" width="17" height="2" rx="1" fill="#F37880"/>
<rect x="754" y="217" width="14" height="2" rx="1" fill="#F37880"/>
<rect x="751" y="221" width="17" height="2" rx="1" fill="#F37880"/>
<rect x="754" y="225" width="14" height="2" rx="1" fill="#F37880"/>
<rect x="751" y="229" width="17" height="2" rx="1" fill="#F37880"/>
<rect x="754" y="233" width="14" height="2" rx="1" fill="#F37880"/>
<rect x="751" y="237" width="17" height="2" rx="1" fill="#F37880"/>
<rect x="754" y="241" width="14" height="2" rx="1" fill="#F37880"/>
<rect x="751" y="245" width="17" height="2" rx="1" fill="#F37880"/>
<rect x="754" y="249" width="14" height="2" rx="1" fill="#F37880"/>
<rect x="751" y="253" width="17" height="2" rx="1" fill="#F37880"/>
<rect x="754" y="257" width="14" height="2" rx="1" fill="#F37880"/>
<rect x="751" y="261" width="17" height="2" rx="1" fill="#F37880"/>
<rect x="779" y="201" width="10" height="2" rx="1" fill="#6D18BD"/>
<rect x="772" y="205" width="17" height="2" rx="1" fill="#F37880"/>
<rect x="775" y="209" width="14" height="2" rx="1" fill="#F37880"/>
<rect x="772" y="213" width="17" height="2" rx="1" fill="#F37880"/>
<rect x="775" y="217" width="14" height="2" rx="1" fill="#F37880"/>
<rect x="772" y="221" width="17" height="2" rx="1" fill="#F37880"/>
<rect x="775" y="225" width="14" height="2" rx="1" fill="#F37880"/>
<rect x="772" y="229" width="17" height="2" rx="1" fill="#F37880"/>
<rect x="775" y="233" width="14" height="2" rx="1" fill="#F37880"/>
<rect x="772" y="237" width="17" height="2" rx="1" fill="#F37880"/>
<rect x="775" y="241" width="14" height="2" rx="1" fill="#F37880"/>
<rect x="772" y="245" width="17" height="2" rx="1" fill="#F37880"/>
<rect x="775" y="249" width="14" height="2" rx="1" fill="#F37880"/>
<rect x="772" y="253" width="17" height="2" rx="1" fill="#F37880"/>
<rect x="775" y="257" width="14" height="2" rx="1" fill="#F37880"/>
<rect x="772" y="261" width="17" height="2" rx="1" fill="#F37880"/>
<rect x="793" y="201" width="2" height="62" rx="1" fill="#C7CBDE"/>
<rect x="793" y="223" width="2" height="19" rx="1" fill="#6D18BD"/>
<path d="M655 131L650 128.113V133.887L655 131ZM591.667 131C591.667 129.527 590.473 128.333 589 128.333C587.527 128.333 586.333 129.527 586.333 131C586.333 132.473 587.527 133.667 589 133.667C590.473 133.667 591.667 132.473 591.667 131ZM652.088 130.5H650.147V131.5H652.088V130.5ZM648.206 130.5H646.265V131.5H648.206V130.5ZM644.324 130.5H642.382V131.5H644.324V130.5ZM640.441 130.5H638.5V131.5H640.441V130.5ZM636.559 130.5H634.618V131.5H636.559V130.5ZM632.676 130.5H630.735V131.5H632.676V130.5ZM628.794 130.5H626.853V131.5H628.794V130.5ZM624.912 130.5H622.971V131.5H624.912V130.5ZM621.029 130.5H619.088V131.5H621.029V130.5ZM617.147 130.5H615.206V131.5H617.147V130.5ZM613.265 130.5H611.324V131.5H613.265V130.5ZM609.382 130.5H607.441V131.5H609.382V130.5ZM605.5 130.5H603.559V131.5H605.5V130.5ZM601.618 130.5H599.676V131.5H601.618V130.5ZM597.735 130.5H595.794V131.5H597.735V130.5ZM593.853 130.5H591.912V131.5H593.853V130.5ZM589.971 130.5H589V131.5H589.971V130.5Z" fill="#6D18BD"/>
<path d="M655 233L650 230.113V235.887L655 233ZM591.667 233C591.667 231.527 590.473 230.333 589 230.333C587.527 230.333 586.333 231.527 586.333 233C586.333 234.473 587.527 235.667 589 235.667C590.473 235.667 591.667 234.473 591.667 233ZM652.088 232.5H650.147V233.5H652.088V232.5ZM648.206 232.5H646.265V233.5H648.206V232.5ZM644.324 232.5H642.382V233.5H644.324V232.5ZM640.441 232.5H638.5V233.5H640.441V232.5ZM636.559 232.5H634.618V233.5H636.559V232.5ZM632.676 232.5H630.735V233.5H632.676V232.5ZM628.794 232.5H626.853V233.5H628.794V232.5ZM624.912 232.5H622.971V233.5H624.912V232.5ZM621.029 232.5H619.088V233.5H621.029V232.5ZM617.147 232.5H615.206V233.5H617.147V232.5ZM613.265 232.5H611.324V233.5H613.265V232.5ZM609.382 232.5H607.441V233.5H609.382V232.5ZM605.5 232.5H603.559V233.5H605.5V232.5ZM601.618 232.5H599.676V233.5H601.618V232.5ZM597.735 232.5H595.794V233.5H597.735V232.5ZM593.853 232.5H591.912V233.5H593.853V232.5ZM589.971 232.5H589V233.5H589.971V232.5Z" fill="#6D18BD"/>
<rect x="610" y="116" width="28" height="28" rx="4" fill="#6D18BD"/>
<circle cx="624" cy="122" r="2" fill="white"/>
<path d="M617.458 136L614.719 128.245H616.171L618.096 133.965L620.12 128.245H621.165L623.145 134.042L625.125 128.245H626.5L623.739 136H622.573L620.604 130.401L618.624 136H617.458ZM630.103 136.11C629.495 136.11 628.93 136.033 628.409 135.879C627.889 135.718 627.449 135.501 627.089 135.23L627.518 134.119C627.878 134.376 628.27 134.574 628.695 134.713C629.128 134.852 629.597 134.922 630.103 134.922C630.683 134.922 631.104 134.827 631.368 134.636C631.632 134.438 631.764 134.185 631.764 133.877C631.764 133.62 631.669 133.419 631.478 133.272C631.295 133.125 630.976 133.004 630.521 132.909L629.311 132.656C627.933 132.363 627.243 131.655 627.243 130.533C627.243 130.049 627.372 129.627 627.628 129.268C627.885 128.909 628.241 128.63 628.695 128.432C629.15 128.234 629.674 128.135 630.268 128.135C630.796 128.135 631.291 128.216 631.753 128.377C632.215 128.531 632.6 128.751 632.908 129.037L632.479 130.093C631.871 129.58 631.13 129.323 630.257 129.323C629.751 129.323 629.355 129.429 629.069 129.642C628.783 129.855 628.64 130.133 628.64 130.478C628.64 130.742 628.728 130.955 628.904 131.116C629.08 131.27 629.381 131.391 629.806 131.479L631.005 131.732C631.731 131.886 632.27 132.128 632.622 132.458C632.982 132.788 633.161 133.228 633.161 133.778C633.161 134.24 633.037 134.647 632.787 134.999C632.538 135.351 632.182 135.626 631.72 135.824C631.266 136.015 630.727 136.11 630.103 136.11Z" fill="white"/>
<rect x="610" y="218" width="28" height="28" rx="4" fill="#6D18BD"/>
<circle cx="624" cy="224" r="2" fill="white"/>
<path d="M617.458 238L614.719 230.245H616.171L618.096 235.965L620.12 230.245H621.165L623.145 236.042L625.125 230.245H626.5L623.739 238H622.573L620.604 232.401L618.624 238H617.458ZM630.103 238.11C629.495 238.11 628.93 238.033 628.409 237.879C627.889 237.718 627.449 237.501 627.089 237.23L627.518 236.119C627.878 236.376 628.27 236.574 628.695 236.713C629.128 236.852 629.597 236.922 630.103 236.922C630.683 236.922 631.104 236.827 631.368 236.636C631.632 236.438 631.764 236.185 631.764 235.877C631.764 235.62 631.669 235.419 631.478 235.272C631.295 235.125 630.976 235.004 630.521 234.909L629.311 234.656C627.933 234.363 627.243 233.655 627.243 232.533C627.243 232.049 627.372 231.627 627.628 231.268C627.885 230.909 628.241 230.63 628.695 230.432C629.15 230.234 629.674 230.135 630.268 230.135C630.796 230.135 631.291 230.216 631.753 230.377C632.215 230.531 632.6 230.751 632.908 231.037L632.479 232.093C631.871 231.58 631.13 231.323 630.257 231.323C629.751 231.323 629.355 231.429 629.069 231.642C628.783 231.855 628.64 232.133 628.64 232.478C628.64 232.742 628.728 232.955 628.904 233.116C629.08 233.27 629.381 233.391 629.806 233.479L631.005 233.732C631.731 233.886 632.27 234.128 632.622 234.458C632.982 234.788 633.161 235.228 633.161 235.778C633.161 236.24 633.037 236.647 632.787 236.999C632.538 237.351 632.182 237.626 631.72 237.824C631.266 238.015 630.727 238.11 630.103 238.11Z" fill="white"/>
</svg>
