<svg width="184" height="90" viewBox="0 0 184 90" fill="none" xmlns="http://www.w3.org/2000/svg">
<g clip-path="url(#clip0_175_2079)">
<path d="M77.0105 31.1019L69.3902 15.1795L66.3326 13.7093L47.5682 44.165L75.6554 61.2361L81.7454 51.2694L77.0105 31.1019Z" fill="url(#paint0_linear_175_2079)"/>
<path d="M82.3431 49.7431C80.9818 51.8314 79.1322 53.648 76.8227 54.9809C74.2283 56.4792 71.393 57.194 68.5952 57.194C63.2751 57.194 58.0927 54.6188 54.9538 49.971L30.4687 7.8193L30.4562 7.84116C25.812 0.274825 15.9448 -2.26289 8.20553 2.21011C0.344259 6.74866 -2.33458 16.7872 2.21882 24.625L35.4383 81.8189C36.9186 84.3691 38.9872 86.3668 41.3687 87.7527C41.3875 87.7652 41.4063 87.7777 41.425 87.7902C41.4344 87.7964 41.4469 87.8027 41.4563 87.8089C42.5642 88.4457 43.7409 88.942 44.9582 89.3072C45.049 89.3353 45.1429 89.3634 45.2336 89.3883C45.6717 89.5101 46.113 89.6193 46.5605 89.7067C46.645 89.7223 46.7295 89.7317 46.814 89.7473C47.1739 89.8097 47.5369 89.8628 47.8999 89.9003C48.0439 89.9159 48.1879 89.9315 48.3318 89.9408C48.748 89.9752 49.1643 89.997 49.5836 90.0001C49.6055 90.0001 49.6274 90.0001 49.6462 90.0001C49.6525 90.0001 49.6556 90.0001 49.6618 90.0001C49.6681 90.0001 49.6712 90.0001 49.6775 90.0001C50.1313 90.0001 50.5882 89.9752 51.042 89.9377C51.1452 89.9283 51.2485 89.919 51.3549 89.9065C51.7993 89.8597 52.2437 89.8004 52.6881 89.7192C52.6943 89.7192 52.7006 89.7192 52.7068 89.7192C53.195 89.6287 53.6832 89.5101 54.1652 89.3727C54.1965 89.3634 54.2246 89.354 54.2559 89.3446C54.9569 89.1418 55.6486 88.8889 56.3308 88.5861C56.3433 88.5799 56.359 88.5736 56.3715 88.5674C56.891 88.3364 57.4042 88.0836 57.908 87.7933C58.4182 87.4999 58.9032 87.1815 59.3664 86.8413C59.7701 86.5478 60.1581 86.2357 60.5368 85.9048C60.9969 85.499 61.4319 85.0745 61.8356 84.6282C62.1391 84.2942 62.4302 83.9446 62.7087 83.5825C62.7994 83.4639 62.8839 83.3421 62.9684 83.2235C63.1593 82.9613 63.3408 82.6929 63.5161 82.4182C63.6068 82.2746 63.6976 82.1342 63.7852 81.9906C63.8197 81.9344 63.8572 81.8813 63.8885 81.8251L82.5183 49.7525H82.3368L82.3431 49.7431Z" fill="url(#paint1_linear_175_2079)"/>
<path d="M82.7593 32.8436L81.351 30.4464L75.2704 19.1687L72.4508 14.3929C71.9188 13.1225 70.6638 12.2266 69.193 12.2266C67.2433 12.2266 65.666 13.8029 65.666 15.7445C65.666 16.4031 65.8569 17.0086 66.173 17.5362L66.1355 17.5611L77.0887 36.1617C78.4093 38.4372 78.7629 41.0873 78.0838 43.6281C77.4047 46.169 75.7774 48.2915 73.496 49.6119C71.9939 50.4797 70.2883 50.9385 68.5671 50.9385C65.0495 50.9385 61.773 49.0563 60.0142 46.0285L44.2697 19.2654H44.301L37.6509 7.81917L37.6383 7.84102C37.5226 7.65061 37.388 7.47893 37.2659 7.29477L37.0782 6.97326C37.0782 6.97326 37.0625 6.98262 37.0563 6.98887C33.933 2.55332 28.9384 0.0780356 23.7841 0.0187285V0H15.2844V0.0436999C21.2211 -0.368328 27.1577 2.46593 30.4562 7.84102L30.4687 7.81917L54.9507 49.974C58.0896 54.6187 63.2751 57.197 68.5921 57.197C71.3899 57.197 74.2252 56.4853 76.8195 54.9839C79.1291 53.651 80.9755 51.8312 82.3399 49.7461H82.5215L82.4589 49.8523C83.332 48.4695 84.0017 46.9462 84.4336 45.3231C85.5633 41.0904 84.975 36.6705 82.753 32.8467L82.7593 32.8436Z" fill="#F37880"/>
<g opacity="0.86">
<path d="M66.1323 17.5642L77.0855 36.1648C78.4062 38.4403 78.7598 41.0904 78.0807 43.6313C77.6676 45.1795 76.8978 46.5716 75.8463 47.7234C77.2232 46.4686 78.2153 44.8486 78.7066 43.007C79.3857 40.4661 79.0321 37.816 77.7114 35.5405L66.7582 16.94L66.7958 16.915C66.4797 16.3875 66.2888 15.7819 66.2888 15.1233C66.2888 14.3117 66.5673 13.5657 67.0305 12.9695C66.198 13.6125 65.6629 14.6176 65.6629 15.7476C65.6629 16.4062 65.8538 17.0118 66.1699 17.5393L66.1323 17.5642Z" fill="white"/>
<path d="M82.4711 49.8335L82.462 49.8487C82.462 49.8487 82.4681 49.8365 82.4742 49.8304C82.4742 49.8304 82.4742 49.8304 82.4742 49.8335H82.4711Z" fill="white"/>
<path d="M77.4486 54.3596C74.8542 55.8579 72.0189 56.5727 69.2211 56.5727C63.901 56.5727 58.7186 53.9975 55.5797 49.3497L31.0946 7.19488L31.0821 7.21673C28.8382 3.56154 25.377 1.08626 21.5246 0H15.2844V0.0436999C21.2211 -0.368328 27.1577 2.46593 30.4562 7.84102L30.4687 7.81917L54.9507 49.974C58.0895 54.6187 63.2751 57.197 68.5921 57.197C71.3899 57.197 74.2252 56.4853 76.8195 54.9839C78.2028 54.1848 79.4139 53.2109 80.4622 52.1122C79.5641 52.9581 78.5595 53.7166 77.4454 54.3596H77.4486Z" fill="white"/>
</g>
</g>
<path d="M116.979 58.661C116.295 58.661 115.725 58.509 115.269 58.205C114.839 57.8757 114.484 57.3943 114.205 56.761L104.287 34.493C104.009 33.8597 103.933 33.3023 104.059 32.821C104.186 32.3397 104.452 31.9597 104.857 31.681C105.263 31.4023 105.744 31.263 106.301 31.263C107.036 31.263 107.581 31.4277 107.935 31.757C108.315 32.061 108.632 32.5297 108.885 33.163L117.891 54.025H116.257L125.225 33.125C125.504 32.517 125.833 32.061 126.213 31.757C126.593 31.4277 127.125 31.263 127.809 31.263C128.367 31.263 128.823 31.4023 129.177 31.681C129.557 31.9597 129.798 32.3397 129.899 32.821C130.001 33.3023 129.912 33.8597 129.633 34.493L119.715 56.761C119.437 57.3943 119.082 57.8757 118.651 58.205C118.246 58.509 117.689 58.661 116.979 58.661Z" fill="white"/>
<path d="M144.563 58.737C142.714 58.737 141.08 58.4963 139.661 58.015C138.268 57.5337 137.09 56.8243 136.127 55.887C135.165 54.9243 134.443 53.7337 133.961 52.315C133.48 50.8963 133.239 49.2497 133.239 47.375V33.733C133.239 32.897 133.442 32.2763 133.847 31.871C134.278 31.4657 134.886 31.263 135.671 31.263C136.457 31.263 137.052 31.4657 137.457 31.871C137.888 32.2763 138.103 32.897 138.103 33.733V47.337C138.103 49.7437 138.648 51.555 139.737 52.771C140.852 53.9617 142.461 54.557 144.563 54.557C146.666 54.557 148.262 53.9617 149.351 52.771C150.441 51.555 150.985 49.7437 150.985 47.337V33.733C150.985 32.897 151.188 32.2763 151.593 31.871C152.024 31.4657 152.632 31.263 153.417 31.263C154.177 31.263 154.76 31.4657 155.165 31.871C155.596 32.2763 155.811 32.897 155.811 33.733V47.375C155.811 49.8577 155.381 51.9477 154.519 53.645C153.683 55.3423 152.429 56.6217 150.757 57.483C149.085 58.319 147.021 58.737 144.563 58.737Z" fill="white"/>
<path d="M172.618 58.737C170.769 58.737 169.135 58.4963 167.716 58.015C166.323 57.5337 165.145 56.8243 164.182 55.887C163.219 54.9243 162.497 53.7337 162.016 52.315C161.535 50.8963 161.294 49.2497 161.294 47.375V33.733C161.294 32.897 161.497 32.2763 161.902 31.871C162.333 31.4657 162.941 31.263 163.726 31.263C164.511 31.263 165.107 31.4657 165.512 31.871C165.943 32.2763 166.158 32.897 166.158 33.733V47.337C166.158 49.7437 166.703 51.555 167.792 52.771C168.907 53.9617 170.515 54.557 172.618 54.557C174.721 54.557 176.317 53.9617 177.406 52.771C178.495 51.555 179.04 49.7437 179.04 47.337V33.733C179.04 32.897 179.243 32.2763 179.648 31.871C180.079 31.4657 180.687 31.263 181.472 31.263C182.232 31.263 182.815 31.4657 183.22 31.871C183.651 32.2763 183.866 32.897 183.866 33.733V47.375C183.866 49.8577 183.435 51.9477 182.574 53.645C181.738 55.3423 180.484 56.6217 178.812 57.483C177.14 58.319 175.075 58.737 172.618 58.737Z" fill="white"/>
<defs>
<linearGradient id="paint0_linear_175_2079" x1="47.5682" y1="37.4727" x2="81.7454" y2="37.4727" gradientUnits="userSpaceOnUse">
<stop stop-color="#4906A5"/>
<stop offset="1" stop-color="#D3423A"/>
</linearGradient>
<linearGradient id="paint1_linear_175_2079" x1="1.5484e-05" y1="45.0017" x2="82.5246" y2="45.0017" gradientUnits="userSpaceOnUse">
<stop stop-color="#7C06A5"/>
<stop offset="1" stop-color="#D3423A"/>
</linearGradient>
<clipPath id="clip0_175_2079">
<rect width="85" height="90" fill="white"/>
</clipPath>
</defs>
</svg>
