<svg width="30" height="31" viewBox="0 0 30 31" fill="none" xmlns="http://www.w3.org/2000/svg">
<g clip-path="url(#clip0_274_2049)">
<path d="M27.1801 10.7129L24.4906 5.22857L23.4115 4.72217L16.7888 15.2125L26.7019 21.0925L28.8513 17.6595L27.1801 10.7129Z" fill="url(#paint0_linear_274_2049)"/>
<path d="M29.0623 17.134C28.5818 17.8533 27.9291 18.4791 27.1139 18.9382C26.1983 19.4542 25.1976 19.7004 24.2101 19.7004C22.3324 19.7004 20.5033 18.8134 19.3955 17.2125L10.7537 2.69361L10.7493 2.70114C9.11017 0.0949583 5.6276 -0.779145 2.89611 0.761555C0.121543 2.32483 -0.823931 5.78254 0.783153 8.48226L12.5077 28.1824C13.0301 29.0608 13.7602 29.7489 14.6008 30.2262C14.6074 30.2305 14.614 30.2348 14.6206 30.2391C14.624 30.2413 14.6284 30.2434 14.6317 30.2456C15.0227 30.4649 15.438 30.6359 15.8677 30.7617C15.8997 30.7713 15.9328 30.781 15.9648 30.7896C16.1195 30.8315 16.2752 30.8692 16.4332 30.8993C16.463 30.9047 16.4928 30.9079 16.5226 30.9133C16.6497 30.9348 16.7778 30.953 16.9059 30.9659C16.9567 30.9713 17.0075 30.9767 17.0583 30.9799C17.2052 30.9917 17.3521 30.9993 17.5001 31.0003C17.5079 31.0003 17.5156 31.0003 17.5222 31.0003C17.5244 31.0003 17.5255 31.0003 17.5278 31.0003C17.53 31.0003 17.5311 31.0003 17.5333 31.0003C17.6934 31.0003 17.8547 30.9917 18.0148 30.9788C18.0513 30.9756 18.0877 30.9724 18.1253 30.9681C18.2821 30.952 18.439 30.9315 18.5958 30.9036C18.598 30.9036 18.6002 30.9036 18.6025 30.9036C18.7748 30.8724 18.9471 30.8315 19.1172 30.7842C19.1282 30.781 19.1381 30.7778 19.1492 30.7746C19.3966 30.7047 19.6407 30.6176 19.8815 30.5133C19.8859 30.5111 19.8914 30.509 19.8959 30.5068C20.0792 30.4273 20.2603 30.3402 20.4382 30.2402C20.6182 30.1391 20.7894 30.0295 20.9529 29.9123C21.0954 29.8112 21.2323 29.7037 21.366 29.5897C21.5283 29.45 21.6819 29.3037 21.8244 29.15C21.9315 29.035 22.0342 28.9145 22.1325 28.7898C22.1645 28.749 22.1944 28.707 22.2242 28.6662C22.2916 28.5759 22.3556 28.4834 22.4175 28.3888C22.4495 28.3393 22.4815 28.291 22.5125 28.2415C22.5246 28.2221 22.5379 28.2039 22.5489 28.1845L29.1242 17.1373H29.0601L29.0623 17.134Z" fill="url(#paint1_linear_274_2049)"/>
<path d="M29.2091 11.3128L28.7121 10.4871L26.566 6.60254L25.5708 4.95755C25.3831 4.51996 24.9401 4.21139 24.421 4.21139C23.7329 4.21139 23.1762 4.75434 23.1762 5.42309C23.1762 5.64995 23.2436 5.85853 23.3552 6.04023L23.3419 6.04883L27.2077 12.4557C27.6738 13.2395 27.7987 14.1523 27.559 15.0275C27.3193 15.9026 26.7449 16.6338 25.9397 17.0885C25.4096 17.3874 24.8076 17.5455 24.2001 17.5455C22.9586 17.5455 21.8022 16.8972 21.1814 15.8543L15.6246 6.63587H15.6356L13.2885 2.69327L13.2841 2.70079C13.2432 2.63521 13.1957 2.57608 13.1527 2.51264L13.0864 2.4019C13.0864 2.4019 13.0809 2.40513 13.0787 2.40728C11.9763 0.879478 10.2135 0.0268789 8.39436 0.00645094V0H5.39447V0.0150522C7.48975 -0.126869 9.58504 0.849374 10.7492 2.70079L10.7536 2.69327L19.3943 17.2133C20.5022 18.8131 22.3324 19.7012 24.2089 19.7012C25.1964 19.7012 26.1971 19.456 27.1127 18.9389C27.9279 18.4798 28.5796 17.853 29.0611 17.1348H29.1252L29.1031 17.1713C29.4113 16.695 29.6476 16.1704 29.8001 15.6113C30.1988 14.1534 29.9911 12.6309 29.2069 11.3139L29.2091 11.3128Z" fill="#F37880"/>
<g opacity="0.86">
<path d="M23.3408 6.04992L27.2066 12.4568C27.6727 13.2406 27.7975 14.1534 27.5579 15.0286C27.4121 15.5618 27.1404 16.0413 26.7692 16.4381C27.2552 16.0059 27.6054 15.4479 27.7788 14.8135C28.0185 13.9383 27.8936 13.0255 27.4275 12.2417L23.5617 5.83488L23.5749 5.82628C23.4634 5.64458 23.396 5.436 23.396 5.20914C23.396 4.9296 23.4943 4.67264 23.6578 4.46729C23.364 4.68877 23.1751 5.03497 23.1751 5.42417C23.1751 5.65103 23.2425 5.85961 23.354 6.04131L23.3408 6.04992Z" fill="white"/>
<path d="M29.107 17.1647L29.1042 17.1694C29.1042 17.1694 29.1061 17.1657 29.108 17.1638C29.108 17.1638 29.108 17.1638 29.108 17.1647H29.107Z" fill="white"/>
<path d="M27.3348 18.7239C26.4191 19.2399 25.4184 19.4861 24.431 19.4861C22.5533 19.4861 20.7242 18.5991 19.6163 16.9982L10.9745 2.47824L10.9701 2.48576C10.1782 1.22675 8.95656 0.374155 7.59689 0H5.39447V0.0150522C7.48975 -0.126869 9.58504 0.849374 10.7492 2.70079L10.7536 2.69327L19.3943 17.2133C20.5022 18.8131 22.3324 19.7012 24.2089 19.7012C25.1964 19.7012 26.1971 19.456 27.1127 18.9389C27.6009 18.6637 28.0284 18.3282 28.3984 17.9497C28.0814 18.2411 27.7269 18.5024 27.3336 18.7239H27.3348Z" fill="white"/>
</g>
</g>
<defs>
<linearGradient id="paint0_linear_274_2049" x1="16.7888" y1="12.9073" x2="28.8513" y2="12.9073" gradientUnits="userSpaceOnUse">
<stop stop-color="#4906A5"/>
<stop offset="1" stop-color="#D3423A"/>
</linearGradient>
<linearGradient id="paint1_linear_274_2049" x1="4.49583e-05" y1="15.5009" x2="29.1264" y2="15.5009" gradientUnits="userSpaceOnUse">
<stop stop-color="#7C06A5"/>
<stop offset="1" stop-color="#D3423A"/>
</linearGradient>
<clipPath id="clip0_274_2049">
<rect width="30" height="31" fill="white"/>
</clipPath>
</defs>
</svg>
