<svg width="49" height="17" viewBox="0 0 49 17" fill="none" xmlns="http://www.w3.org/2000/svg">
<path d="M7.96322 16.953C7.54356 16.953 7.19385 16.8589 6.91408 16.6708C6.64986 16.467 6.43226 16.1692 6.26129 15.7773L0.176313 1.99862C0.00534282 1.60673 -0.0412854 1.26187 0.0364283 0.964038C0.114142 0.666205 0.27734 0.431075 0.526024 0.258645C0.774707 0.086215 1.07002 0 1.41196 0C1.8627 0 2.19687 0.10189 2.41446 0.30567C2.64761 0.493776 2.84189 0.783771 2.99732 1.17566L8.52275 14.0844H7.52025L13.0224 1.15214C13.1933 0.775934 13.3954 0.493776 13.6285 0.30567C13.8617 0.10189 14.1881 0 14.6077 0C14.9497 0 15.2294 0.086215 15.447 0.258645C15.6802 0.431075 15.8278 0.666205 15.89 0.964038C15.9522 1.26187 15.8978 1.60673 15.7268 1.99862L9.64183 15.7773C9.47086 16.1692 9.25326 16.467 8.98903 16.6708C8.74035 16.8589 8.39841 16.953 7.96322 16.953Z" fill="white"/>
<path d="M24.8867 17C23.7521 17 22.7496 16.8511 21.8792 16.5533C21.0243 16.2554 20.3016 15.8165 19.711 15.2365C19.1203 14.6408 18.6774 13.9041 18.3821 13.0263C18.0867 12.1485 17.9391 11.1296 17.9391 9.96957V1.52835C17.9391 1.01106 18.0634 0.627017 18.3121 0.376211C18.5763 0.125403 18.9494 0 19.4312 0C19.913 0 20.2783 0.125403 20.527 0.376211C20.7912 0.627017 20.9233 1.01106 20.9233 1.52835V9.94606C20.9233 11.4352 21.2575 12.556 21.9258 13.3084C22.6097 14.0452 23.5966 14.4136 24.8867 14.4136C26.1767 14.4136 27.1559 14.0452 27.8243 13.3084C28.4926 12.556 28.8268 11.4352 28.8268 9.94606V1.52835C28.8268 1.01106 28.9511 0.627017 29.1998 0.376211C29.464 0.125403 29.837 0 30.3189 0C30.7851 0 31.1426 0.125403 31.3913 0.376211C31.6555 0.627017 31.7877 1.01106 31.7877 1.52835V9.96957C31.7877 11.5058 31.5234 12.799 30.995 13.8492C30.4821 14.8995 29.7127 15.6911 28.6869 16.2241C27.6611 16.7414 26.3943 17 24.8867 17Z" fill="white"/>
<path d="M42.099 17C40.9644 17 39.9619 16.8511 39.0915 16.5533C38.2367 16.2554 37.5139 15.8165 36.9233 15.2365C36.3327 14.6408 35.8897 13.9041 35.5944 13.0263C35.2991 12.1485 35.1514 11.1296 35.1514 9.96957V1.52835C35.1514 1.01106 35.2758 0.627017 35.5245 0.376211C35.7887 0.125403 36.1617 0 36.6435 0C37.1254 0 37.4906 0.125403 37.7393 0.376211C38.0035 0.627017 38.1356 1.01106 38.1356 1.52835V9.94606C38.1356 11.4352 38.4698 12.556 39.1381 13.3084C39.822 14.0452 40.809 14.4136 42.099 14.4136C43.3891 14.4136 44.3683 14.0452 45.0366 13.3084C45.7049 12.556 46.0391 11.4352 46.0391 9.94606V1.52835C46.0391 1.01106 46.1635 0.627017 46.4121 0.376211C46.6764 0.125403 47.0494 0 47.5312 0C47.9975 0 48.355 0.125403 48.6037 0.376211C48.8679 0.627017 49 1.01106 49 1.52835V9.96957C49 11.5058 48.7358 12.799 48.2073 13.8492C47.6944 14.8995 46.925 15.6911 45.8992 16.2241C44.8734 16.7414 43.6067 17 42.099 17Z" fill="white"/>
</svg>
