<svg xmlns="http://www.w3.org/2000/svg" version="1.1" xmlns:xlink="http://www.w3.org/1999/xlink" xmlns:svgjs="http://svgjs.com/svgjs" width="58" height="61"><svg viewBox="0 0 58 61" fill="none" xmlns="http://www.w3.org/2000/svg">
<g clip-path="url(#clip0_30_197)">
<path d="M52.5482 21.0801L47.3485 10.2883L45.2622 9.29184L32.4583 29.9341L51.6236 41.5044L55.7791 34.7492L52.5482 21.0801Z" fill="url(#paint0_linear_30_197)"></path>
<path d="M56.187 33.715C55.2581 35.1303 53.9961 36.3616 52.4201 37.265C50.6499 38.2805 48.7152 38.765 46.8061 38.765C43.1759 38.765 39.6397 37.0196 37.4979 33.8694L20.7904 5.29992L20.7818 5.31473C17.6129 0.186442 10.8799 -1.53357 5.59903 1.49813C0.234864 4.57426 -1.59305 11.3781 1.51398 16.6905L24.1814 55.4552C25.1915 57.1837 26.603 58.5377 28.228 59.477C28.2408 59.4855 28.2536 59.4939 28.2665 59.5024C28.2729 59.5066 28.2814 59.5109 28.2878 59.5151C29.0437 59.9467 29.8467 60.2831 30.6773 60.5306C30.7393 60.5496 30.8033 60.5687 30.8653 60.5856C31.1642 60.6681 31.4653 60.7422 31.7707 60.8014C31.8283 60.812 31.886 60.8183 31.9436 60.8289C32.1892 60.8712 32.4369 60.9072 32.6846 60.9326C32.7829 60.9431 32.8811 60.9537 32.9793 60.9601C33.2633 60.9833 33.5473 60.9981 33.8335 61.0003C33.8484 61.0003 33.8634 61.0003 33.8762 61.0003C33.8805 61.0003 33.8826 61.0003 33.8869 61.0003C33.8911 61.0003 33.8933 61.0003 33.8975 61.0003C34.2072 61.0003 34.519 60.9833 34.8286 60.958C34.8991 60.9516 34.9695 60.9453 35.0421 60.9368C35.3454 60.9051 35.6486 60.8649 35.9518 60.8099C35.9561 60.8099 35.9604 60.8099 35.9646 60.8099C36.2977 60.7485 36.6309 60.6681 36.9597 60.575C36.9811 60.5687 37.0003 60.5623 37.0217 60.556C37.5 60.4185 37.9719 60.2471 38.4374 60.0419C38.446 60.0377 38.4567 60.0334 38.4652 60.0292C38.8197 59.8726 39.1699 59.7013 39.5137 59.5045C39.8618 59.3056 40.1927 59.0898 40.5088 58.8592C40.7843 58.6604 41.049 58.4488 41.3074 58.2246C41.6213 57.9495 41.9182 57.6618 42.1936 57.3593C42.4008 57.1329 42.5994 56.8959 42.7894 56.6505C42.8513 56.5701 42.909 56.4876 42.9667 56.4072C43.0969 56.2295 43.2208 56.0476 43.3404 55.8614C43.4023 55.7641 43.4642 55.6689 43.524 55.5716C43.5475 55.5335 43.5731 55.4975 43.5945 55.4594L56.3066 33.7213H56.1827L56.187 33.715Z" fill="url(#paint1_linear_30_197)"></path>
<path d="M56.471 22.2607L55.5101 20.6359L51.361 12.9921L49.4369 9.75518C49.0739 8.89412 48.2176 8.28693 47.214 8.28693C45.8836 8.28693 44.8074 9.35532 44.8074 10.6712C44.8074 11.1176 44.9376 11.5281 45.1533 11.8856L45.1277 11.9025L52.6016 24.5096C53.5028 26.0519 53.7441 27.8481 53.2807 29.5702C52.8173 31.2923 51.7069 32.7309 50.1502 33.6258C49.1252 34.214 47.9614 34.525 46.7869 34.525C44.3867 34.525 42.1509 33.2493 40.9508 31.1971L30.2075 13.0577H30.2289L25.6911 5.29966L25.6826 5.31447C25.6036 5.18541 25.5118 5.06905 25.4285 4.94423L25.3004 4.72632C25.3004 4.72632 25.2897 4.73267 25.2854 4.7369C23.1543 1.73059 19.7461 0.0528908 16.2291 0.0126938V0H10.4293V0.0296188C14.4802 -0.249645 18.5311 1.67135 20.7818 5.31447L20.7904 5.29966L37.4957 33.8713C39.6375 37.0193 43.1759 38.7668 46.804 38.7668C48.713 38.7668 50.6477 38.2845 52.418 37.2668C53.9939 36.3635 55.2538 35.1301 56.1849 33.7168H56.3087L56.266 33.7888C56.8618 32.8515 57.3188 31.8191 57.6134 30.719C58.3843 27.8502 57.9829 24.8544 56.4667 22.2628L56.471 22.2607Z" fill="#F37880"></path>
<g opacity="0.86">
<path d="M45.1255 11.9046L52.5994 24.5117C53.5006 26.054 53.7419 27.8502 53.2785 29.5723C52.9966 30.6216 52.4713 31.5652 51.7538 32.3459C52.6934 31.4954 53.3703 30.3974 53.7056 29.1492C54.169 27.427 53.9277 25.6309 53.0265 24.0886L45.5526 11.4815L45.5782 11.4646C45.3625 11.1071 45.2323 10.6966 45.2323 10.2502C45.2323 9.70016 45.4223 9.19452 45.7384 8.79044C45.1703 9.22626 44.8052 9.90749 44.8052 10.6733C44.8052 11.1197 44.9354 11.5302 45.1511 11.8877L45.1255 11.9046Z" fill="white"></path>
<path d="M56.2746 33.776L56.2682 33.7866C56.2682 33.7866 56.2724 33.7781 56.2767 33.7739C56.2767 33.7739 56.2767 33.7739 56.2767 33.776H56.2746Z" fill="white"></path>
<path d="M52.8472 36.8437C51.0769 37.8592 49.1423 38.3437 47.2332 38.3437C43.603 38.3437 40.0667 36.5983 37.9249 33.4481L21.2174 4.87653L21.2089 4.89134C19.6778 2.41394 17.316 0.73624 14.6873 0H10.4293V0.0296188C14.4802 -0.249645 18.5311 1.67135 20.7818 5.31447L20.7904 5.29966L37.4957 33.8713C39.6375 37.0193 43.1759 38.7668 46.804 38.7668C48.713 38.7668 50.6477 38.2845 52.418 37.2668C53.3618 36.7252 54.1882 36.0652 54.9036 35.3205C54.2907 35.8938 53.6053 36.4079 52.8451 36.8437H52.8472Z" fill="white"></path>
</g>
</g>
<defs>
<linearGradient id="SvgjsLinearGradient1002" x1="32.4583" y1="25.3981" x2="55.7791" y2="25.3981" gradientUnits="userSpaceOnUse">
<stop stop-color="#4906A5"></stop>
<stop offset="1" stop-color="#D3423A"></stop>
</linearGradient>
<linearGradient id="SvgjsLinearGradient1001" x1="-3.1082e-05" y1="30.5013" x2="56.3109" y2="30.5013" gradientUnits="userSpaceOnUse">
<stop stop-color="#7C06A5"></stop>
<stop offset="1" stop-color="#D3423A"></stop>
</linearGradient>
<clipPath id="SvgjsClipPath1000">
<rect width="58" height="61" fill="white"></rect>
</clipPath>
</defs>
</svg><style>@media (prefers-color-scheme: light) { :root { filter: none; } }
</style></svg>